<?xml version="1.0" encoding="UTF-8" standalone="no"?>
<!DOCTYPE svg  PUBLIC '-//W3C//DTD SVG 1.1//EN'  'http://www.w3.org/Graphics/SVG/1.1/DTD/svg11.dtd'>
<svg xmlns="http://www.w3.org/2000/svg">
<defs>
<font id="Circe-Light" horiz-adv-x="662">
<font-face underline-position="-50" font-weight="350" descent="-200" panose-1="2 11 4 2 2 2 3 2 2 3" units-per-em="1000" unicode-range="U+0020-FB02" bbox="-522 -367 1686 999" x-height="450" underline-thickness="50" font-family="Circe" ascent="800" cap-height="700"/>
<missing-glyph horiz-adv-x="235"/>
<glyph glyph-name="uniF350.var.accented" horiz-adv-x="574" unicode="`" d="M370 758l32 -39l-125 -131l-27 28zM397 218l-112 243l-112 -243h224zM73 0h-56l247 529h46l247 -529h-59l-77 167h-271z"/>
<glyph glyph-name="uniF355.var.accented" horiz-adv-x="481" unicode="`" d="M327 758l32 -39l-125 -131l-27 28zM421 0h-332v525h324v-52h-269v-181h245v-52h-245v-188h277v-52z"/>
<glyph glyph-name="uniF358.var.accented" horiz-adv-x="650" unicode="`" d="M401 758l32 -39l-125 -131l-27 28zM506 438l-368 -438h-49v525h55v-438l368 438h49v-525h-55v438z"/>
<glyph glyph-name="uniF35E.var.accented" horiz-adv-x="650" unicode="`" d="M403 758l32 -39l-125 -131l-27 28zM101 262q0 -93 64 -156q65 -62 160 -62q99 0 161 62q63 62 63 156t-65 156t-159 62q-95 0 -160 -62q-64 -61 -64 -156zM43 262q0 115 80 192q80 78 202 78t201 -76q81 -76 81 -194q0 -116 -81 -193q-80 -77 -201 -77q-123 0 -202 76 q-80 77 -80 194z"/>
<glyph glyph-name="uniF363.var.accented" horiz-adv-x="530" unicode="`" d="M351 758l32 -39l-125 -131l-27 28zM461 525h57l-198 -404q-30 -64 -62.5 -92.5t-74.5 -28.5q-37 0 -63 18l20 47q23 -14 45 -14q41 0 74 63l11 19l-257 392h68l217 -337z"/>
<glyph glyph-name="uniF36B.var.accented" horiz-adv-x="682" unicode="`" d="M411 758l32 -39l-125 -131l-27 28zM89 525h55v-199q49 3 82 3q104 0 157.5 -41.5t53.5 -118.5q0 -81 -59 -126t-164 -45q-40 0 -68 1t-57 1v525zM223 277q-33 0 -79 -3v-222q64 -2 76 -2q159 0 159 118q0 53 -40 81t-116 28zM593 0h-55v525h55v-525z"/>
<glyph glyph-name="uniF36D.var.accented" horiz-adv-x="554" unicode="`" d="M311 758l32 -39l-125 -131l-27 28zM455 242h-295v52h294q-9 88 -70 137t-161 49t-159 -43l-23 41q67 54 184 54q128 0 207 -73t79 -195q0 -119 -80 -196q-79 -75 -210 -75q-115 0 -189 55l24 45q72 -48 171 -48q96 0 158 53q63 55 70 144z"/>
<glyph glyph-name="uniF36E.var.accented" horiz-adv-x="866" unicode="`" d="M472 758l32 -39l-125 -131l-27 28zM337 263q0 -94 59 -156q60 -62 154 -62q98 0 156 61q59 62 59 157t-60 156t-155 61q-94 0 -154 -61q-59 -62 -59 -156zM144 0h-55v525h55v-231h137q11 105 83 171q73 67 185 67q121 0 198 -75q76 -75 76 -194q0 -118 -76 -194t-198 -76 q-113 0 -188 69q-73 69 -81 180h-136v-242z"/>
<glyph glyph-name="uniF36F.var.accented" horiz-adv-x="514" unicode="`" d="M341 758l32 -39l-125 -131l-27 28zM236 248h134v225q-66 3 -92 3q-72 0 -111.5 -33t-39.5 -86q0 -41 33 -72q32 -31 76 -37zM425 0h-55v196h-128l-153 -196h-65l161 205q-51 19 -83.5 58.5t-32.5 90.5q0 78 56.5 126t158.5 48q11 0 77 -2q33 -1 64 -1v-525z"/>
<glyph glyph-name="uniF371.var.accented" horiz-adv-x="481" unicode="`" d="M297 758l32 -39l-125 -131l-27 28zM421 0h-332v525h324v-52h-269v-181h245v-52h-245v-188h277v-52zM313 661q0 13 9.5 22t23.5 9q12 0 21.5 -9t9.5 -22q0 -15 -9.5 -24t-21.5 -9q-14 0 -23.5 9t-9.5 24zM117 661q0 13 9.5 22t23.5 9q12 0 21.5 -9t9.5 -22 q0 -14 -9.5 -23.5t-21.5 -9.5q-14 0 -23.5 9t-9.5 24z"/>
<glyph glyph-name="afii10017.var.accented" horiz-adv-x="697" unicode="А`" d="M480 868l19 -44l-182 -86l-16 31zM492 290l-145 340l-146 -340h291zM77 0h-56l305 706h45l305 -706h-59l-102 238h-336z"/>
<glyph glyph-name="afii10022.var.accented" horiz-adv-x="575" unicode="Е`" d="M422 868l19 -44l-182 -86l-16 31zM508 0h-397v700h387v-52h-332v-267h302v-52h-302v-277h342v-52z"/>
<glyph glyph-name="afii10026.var.accented" horiz-adv-x="797" unicode="И`" d="M512 868l19 -44l-182 -86l-16 31zM631 610l-471 -610h-49v700h55v-610l471 610h49v-700h-55v610z"/>
<glyph glyph-name="afii10032.var.accented" horiz-adv-x="810" unicode="О`" d="M522 868l19 -44l-182 -86l-16 31zM112 350q0 -130 84 -219q85 -88 209 -88q128 0 210 88q83 89 83 219q0 133 -85 219q-84 88 -208 88q-125 0 -209 -88q-84 -87 -84 -219zM54 350q0 153 100 256t251 103q149 0 250 -102q101 -101 101 -257q0 -153 -101 -257 q-101 -102 -250 -102q-150 0 -251 101q-100 101 -100 258z"/>
<glyph glyph-name="afii10037.var.accented" horiz-adv-x="652" unicode="У`" d="M465 868l19 -44l-182 -86l-16 31zM579 700h56l-244 -542q-37 -84 -74.5 -121t-87.5 -37q-48 0 -77 23l20 47q28 -19 56 -19q57 0 99 88l13 28l-323 533h62l288 -478z"/>
<glyph glyph-name="afii10045.var.accented" horiz-adv-x="829" unicode="Ы`" d="M518 868l19 -44l-182 -86l-16 31zM111 700h55v-276q80 5 106 5q128 0 194 -54t66 -154q0 -107 -72 -165t-201 -58q-47 0 -80 1t-68 1v700zM269 377q-53 0 -103 -6v-318q93 -3 99 -3q102 0 155.5 43t53.5 127q0 76 -52.5 116.5t-152.5 40.5zM718 0h-55v700h55v-700z"/>
<glyph glyph-name="afii10047.var.accented" horiz-adv-x="680" unicode="Э`" d="M410 868l19 -44l-182 -86l-16 31zM570 331h-372v52h372q-10 127 -92 200q-83 74 -214 74q-113 0 -187 -59l-23 41q79 70 222 70q158 0 254 -97q96 -96 96 -259q0 -159 -97 -260q-97 -102 -256 -102q-137 0 -232 73l25 45q93 -66 206 -66q129 0 209 79q81 78 89 209z"/>
<glyph glyph-name="afii10048.var.accented" horiz-adv-x="1076" unicode="Ю`" d="M672 868l19 -44l-182 -86l-16 31zM401 350q0 -131 80 -220q79 -87 201 -87q128 0 204 87q78 87 78 220q0 134 -79 220q-80 87 -203 87q-122 0 -202 -87q-79 -86 -79 -220zM166 0h-55v700h55v-317h178q11 141 104 233q94 93 233 93q149 0 245 -101q96 -100 96 -258 q0 -155 -96 -257t-245 -102q-141 0 -236 95q-94 96 -102 245h-177v-331z"/>
<glyph glyph-name="afii10049.var.accented" horiz-adv-x="615" unicode="Я`" d="M483 868l19 -44l-182 -86l-16 31zM286 326h163v322q-84 3 -110 3q-92 0 -143 -46.5t-51 -122.5q0 -60 42 -104q43 -43 99 -52zM504 0h-55v274h-156l-199 -274h-63l208 282q-65 21 -108 73q-44 53 -44 124q0 98 67 161q68 63 195 63q6 0 80 -2q37 -1 75 -1v-700z"/>
<glyph glyph-name="afii10023.var.accented" horiz-adv-x="575" unicode="Ё`" d="M508 0h-397v700h387v-52h-332v-267h302v-52h-302v-277h342v-52zM364 868l42 -15l-146 -112l-19 12zM407 804q0 15 9.5 23.5t21.5 8.5t21 -8.5t9 -23.5t-9 -25t-21 -10q-13 0 -22 10t-9 25zM146 804q0 14 9 23t22 9q12 0 20.5 -9t8.5 -23q0 -15 -8.5 -25t-20.5 -10 q-13 0 -22 10t-9 25z"/>
<glyph glyph-name="afii10065.var.accented" horiz-adv-x="459" unicode="а`" d="M304 716l40 -31l-116 -143l-32 23zM199 43q84 0 138 71v75q-49 36 -117 36q-51 0 -86 -25t-35 -69q0 -40 28 -64t72 -24zM93 375l-14 43q67 41 143 41q88 0 127.5 -44t39.5 -136v-279h-52v69q-55 -75 -154 -75q-63 0 -101 36.5t-38 97.5q0 66 48 103q47 37 123 37 t122 -34q0 70 -10 107q-8 36 -32.5 51t-75.5 18q-61 0 -126 -35z"/>
<glyph glyph-name="afii10070.var.accented" horiz-adv-x="524" unicode="е`" d="M270 410q-72 0 -116.5 -42t-51.5 -111h324q-1 71 -43 112t-113 41zM435 95l17 -40q-61 -64 -166 -64q-108 0 -173 64q-66 65 -66 170q0 102 60 168q61 66 168 66q87 0 146 -56q58 -55 58 -147q0 -24 -3 -42h-371q3 -81 53 -127.5t131 -46.5q94 0 146 55zM336 716l40 -31 l-116 -143l-32 23z"/>
<glyph glyph-name="afii10074.var.accented" horiz-adv-x="562" unicode="и`" d="M342 716l40 -31l-116 -143l-32 23zM431 375l-300 -375h-52v450h52v-375l300 375h52v-450h-52v375z"/>
<glyph glyph-name="afii10080.var.accented" horiz-adv-x="567" unicode="о`" d="M347 716l40 -31l-116 -143l-32 23zM283 40q81 0 130 51q51 53 51 134t-51 133t-130 52q-78 0 -130 -52q-51 -52 -51 -133t51 -133t130 -52zM113 57q-66 66 -66 168t66 168t170 66t170 -66t66 -168t-66 -168t-170 -66t-170 66z"/>
<glyph glyph-name="afii10085.var.accented" horiz-adv-x="481" unicode="у`" d="M321 716l40 -31l-116 -143l-32 23zM408 450h59l-182 -450q-49 -119 -85 -158q-36 -42 -84 -42q-37 0 -77 23l17 40q31 -15 53 -15q34 0 61 29.5t56 98.5l10 24l-222 450h62l154 -318l32 -70q1 4 25 72z"/>
<glyph glyph-name="afii10093.var.accented" horiz-adv-x="621" unicode="ы`" d="M363 716l40 -31l-116 -143l-32 23zM542 0h-52v450h52v-450zM200 250h-69v-201h68q71 0 102 25t31 76q0 100 -132 100zM203 0h-124v450h52v-151h78q178 0 178 -148q0 -70 -45 -110.5t-139 -40.5z"/>
<glyph glyph-name="afii10095.var.accented" horiz-adv-x="490" unicode="э`" d="M283 716l40 -31l-116 -143l-32 23zM390 208h-238v43h237q-7 75 -56.5 117t-126.5 42q-90 0 -146 -56l-23 39q29 30 75 48t93 18q106 0 171 -64q67 -64 67 -170q0 -100 -64 -167t-160 -67q-119 0 -177 55l25 39q51 -45 148 -45q73 0 121.5 46t53.5 122z"/>
<glyph glyph-name="afii10096.var.accented" horiz-adv-x="750" unicode="ю`" d="M441 716l40 -31l-116 -143l-32 23zM352 356q-47 -50 -47 -131q0 -80 47 -132q48 -50 123 -50t122 50q47 52 47 132q0 81 -47 131q-47 51 -122 51t-123 -51zM134 0h-55v450h55v-194h114q11 92 71 146q61 57 154 57q101 0 165 -66q64 -65 64 -168t-64 -168 q-64 -66 -165 -66q-95 0 -157 59q-62 60 -69 154h-113v-204z"/>
<glyph glyph-name="afii10097.var.accented" horiz-adv-x="477" unicode="я`" d="M347 716l40 -31l-116 -143l-32 23zM130 307q0 -40 31 -65t66 -25h119v184h-91q-62 0 -93.5 -25.5t-31.5 -68.5zM264 450h134v-450h-52v168h-112l-129 -168h-64l142 180q-45 7 -76.5 42.5t-31.5 85.5q0 65 47 103.5t142 38.5z"/>
<glyph glyph-name="afii10071.var.accented" horiz-adv-x="524" unicode="ё`" d="M270 410q-72 0 -116.5 -42t-51.5 -111h324q-1 71 -43 112t-113 41zM435 95l17 -40q-61 -64 -166 -64q-108 0 -173 64q-66 65 -66 170q0 102 60 168q61 66 168 66q87 0 146 -56q58 -55 58 -147q0 -24 -3 -42h-371q3 -81 53 -127.5t131 -46.5q94 0 146 55zM315 711l34 -26 l-116 -143l-26 18zM360 614q0 12 8.5 20t20.5 8q11 0 19 -8t8 -20q0 -14 -7.5 -22t-19.5 -8t-20.5 8t-8.5 22zM116 614q0 12 8.5 20t20.5 8q11 0 19 -8t8 -20q0 -14 -7.5 -22t-19.5 -8t-20.5 8t-8.5 22z"/>
<glyph glyph-name="fi" horiz-adv-x="501" unicode="fi" d="M412 0h-52v401h-215v-401h-52v516q0 95 46.5 144t130.5 49q94 0 143 -58l-37 -32q-39 41 -98 41q-133 0 -133 -153v-57h267v-450z"/>
<glyph glyph-name="fl" horiz-adv-x="554" unicode="fl" d="M352 116v514q-40 30 -90 30q-117 0 -117 -146v-64h120v-49h-120v-401h-52v523q0 186 155 186q70 0 113 -33h43v-532q0 -53 14.5 -77t49.5 -24q34 0 63 22l13 -41q-39 -30 -95 -30q-97 0 -97 122z"/>
<glyph glyph-name=".notdef" horiz-adv-x="235"/>
<glyph glyph-name=".null" horiz-adv-x="0"/>
<glyph glyph-name="nonmarkingreturn" horiz-adv-x="333"/>
<glyph glyph-name="space" horiz-adv-x="235" unicode=" "/>
<glyph glyph-name="exclam" horiz-adv-x="310" unicode="!" d="M116 38q0 15 11.5 25.5t28.5 10.5q15 0 26 -11t11 -25q0 -16 -11 -28t-26 -12q-17 0 -28.5 12t-11.5 28zM182 193h-55v507h55v-507z"/>
<glyph glyph-name="quotedbl" horiz-adv-x="401" unicode='&quot;' d="M151 492h-52v208h52v-208zM302 492h-52v208h52v-208z"/>
<glyph glyph-name="numbersign" horiz-adv-x="688" unicode="#" d="M483 447h-210l-72 -194h210zM362 -9l-42 15l74 201h-210l-80 -216l-41 15l74 201h-97v46h114l72 194h-186v46h203l81 216l41 -15l-75 -201h210l81 216l41 -14l-75 -202h101v-46h-118l-71 -194h189v-46h-206z"/>
<glyph glyph-name="dollar" horiz-adv-x="589" unicode="$" d="M455 174q0 46 -27 79t-67 50t-87 37.5t-87 40.5t-67 59.5t-27 93.5q0 71 49.5 119t132.5 55v82h52v-82q108 -9 163 -70l-31 -41q-59 60 -156 60q-71 0 -111.5 -33t-40.5 -90q0 -45 27 -77.5t67 -48.5t87 -35.5t87 -39.5t67 -60.5t27 -97.5q0 -74 -51.5 -124t-134.5 -58 v-93h-52v92q-64 5 -118 31q-55 27 -79 69l33 38q29 -39 80.5 -63t101.5 -24q69 0 115 34q47 35 47 97z"/>
<glyph glyph-name="percent" horiz-adv-x="850" unicode="%" d="M182 -9l-31 22l521 696l31 -22zM504 159q0 -53 36 -87q38 -33 87 -33q52 0 87.5 34t35.5 86t-37 85q-35 34 -86 34q-50 0 -87 -34q-36 -33 -36 -85zM504 42q-49 46 -49 117t49 116q49 46 123 46t123 -46q49 -45 49 -116t-49 -117t-123 -46t-123 46zM100 542q0 -52 36 -87 q38 -33 87 -33q52 0 87.5 34t35.5 86t-37 85q-35 34 -86 34q-50 0 -87 -34q-36 -33 -36 -85zM100 425q-49 46 -49 117t49 116q49 46 123 46t123 -46q49 -45 49 -116t-49 -117t-123 -46t-123 46z"/>
<glyph glyph-name="ampersand" horiz-adv-x="737" unicode="&amp;" d="M199 570q0 -39 28 -67t68 -28t68 28t28 67q0 40 -28.5 68t-67.5 28q-40 0 -68 -28t-28 -68zM297 43q119 0 190 105l-202 261q-74 -54 -111.5 -103.5t-37.5 -105.5q0 -69 47 -113q49 -44 114 -44zM669 0h-65l-85 107q-81 -116 -223 -116q-94 0 -156 56t-62 143 q0 74 45 133.5t129 115.5q-46 11 -74 47t-28 84q0 60 42 99q43 40 103 40q61 0 102 -40q43 -39 43 -99q0 -52 -34 -89q-34 -39 -81 -43l198 -252q66 114 66 264h51q0 -179 -85 -306z"/>
<glyph glyph-name="quotesingle" horiz-adv-x="250" unicode="&apos;" d="M151 492h-52v208h52v-208z"/>
<glyph glyph-name="parenleft" horiz-adv-x="276" unicode="(" d="M276 -177l-34 -29q-202 174 -202 431q0 248 203 431l33 -29q-96 -89 -140 -187t-44 -215q0 -114 47 -218.5t137 -183.5z"/>
<glyph glyph-name="parenright" horiz-adv-x="276" unicode=")" d="M34 -206l-34 29q90 79 137 183.5t47 218.5q0 117 -44 215t-140 187l33 29q203 -183 203 -431q0 -257 -202 -431z"/>
<glyph glyph-name="asterisk" horiz-adv-x="460" unicode="*" d="M83 602q0 17 11.5 29t29.5 12q15 0 26.5 -12t11.5 -29q0 -16 -11.5 -27t-26.5 -11q-18 0 -29.5 11t-11.5 27zM83 481q0 16 11.5 28t29.5 12q15 0 26.5 -12t11.5 -28t-11.5 -27.5t-26.5 -11.5q-18 0 -29.5 11t-11.5 28zM338 521h2q17 0 26 -12t9 -28t-9 -27.5t-25 -11.5 h-3q-17 0 -29 11.5t-12 27.5t12 28t29 12zM297 602q0 17 12 29t29 12q16 0 27.5 -12t11.5 -29q0 -16 -11.5 -27t-27.5 -11q-17 0 -29 11t-12 27zM232 456q15 0 26 -12.5t11 -28.5t-11 -27.5t-26 -11.5q-17 0 -29 11.5t-12 27.5t12 28.5t29 12.5zM194 668q0 17 11.5 29 t27.5 12t27.5 -12t11.5 -29q0 -15 -11.5 -26.5t-27.5 -11.5t-27.5 11.5t-11.5 26.5z"/>
<glyph glyph-name="plus" horiz-adv-x="589" unicode="+" d="M269 337h-198v46h198v199h49v-199h199v-46h-199v-201h-49v201z"/>
<glyph glyph-name="comma" horiz-adv-x="200" unicode="," d="M60 33q0 16 11.5 26.5t29.5 10.5q25 0 42 -24t17 -62q0 -48 -27 -83t-70 -48l-14 26q26 9 44.5 29.5t22.5 49.5q1 5 1 15q0 23 -11 37q-4 -10 -18 -10q-11 0 -19.5 9.5t-8.5 23.5z"/>
<glyph glyph-name="hyphen" horiz-adv-x="399" unicode="-" d="M314 247h-229v49h229v-49z"/>
<glyph glyph-name="period" horiz-adv-x="184" unicode="." d="M54 38q0 15 11.5 25.5t28.5 10.5q15 0 25.5 -11t10.5 -25q0 -16 -10.5 -28t-25.5 -12q-17 0 -28.5 12t-11.5 28z"/>
<glyph glyph-name="slash" horiz-adv-x="317" unicode="/" d="M12 -208l-42 16l336 901l41 -15z"/>
<glyph glyph-name="zero" horiz-adv-x="572" unicode="0" d="M288 41q164 0 164 309t-166 309t-166 -309t168 -309zM507 350q0 -164 -54 -262q-53 -96 -165 -96q-113 0 -168 97t-55 261t54 261q55 97 167 97t166 -97q55 -97 55 -261z"/>
<glyph glyph-name="one" horiz-adv-x="372" unicode="1" d="M73 537l-28 42l159 127h36v-706h-52v630z"/>
<glyph glyph-name="two" horiz-adv-x="529" unicode="2" d="M468 0h-417v43l80 79q19 19 84 91q53 61 85 108q29 41 56 102q26 58 26 103q0 56 -36 93t-98 37q-53 0 -94 -33.5t-50 -93.5l-45 17q10 75 66 119q55 43 126 43q90 0 138 -52q48 -51 48 -120q0 -53 -29 -122q-27 -63 -65 -118q-36 -51 -89 -110q-55 -62 -79 -84 q-10 -10 -31 -29.5t-25 -23.5h349v-49z"/>
<glyph glyph-name="three" horiz-adv-x="533" unicode="3" d="M249 -9q-71 0 -124.5 30.5t-79.5 90.5l31 36q25 -52 71 -78.5t102 -26.5q71 0 114.5 42t43.5 108q0 62 -43 100.5t-109 38.5h-60v52h54q50 0 91 41q40 40 40 101q0 62 -35.5 96.5t-98.5 34.5q-107 0 -152 -96l-31 33q21 55 70.5 85t116.5 30q86 0 135.5 -47t49.5 -129 q0 -57 -29.5 -102.5t-81.5 -66.5v-3q64 -9 101 -58t37 -112q0 -90 -60 -146q-60 -54 -153 -54z"/>
<glyph glyph-name="four" horiz-adv-x="538" unicode="4" d="M401 0h-52v185h-325v35l306 480h60l-296 -463h255v213h52v-213h103v-52h-103v-185z"/>
<glyph glyph-name="five" horiz-adv-x="518" unicode="5" d="M113 364l43 336h304v-52h-259l-30 -228q31 9 69 9q98 0 159 -58q62 -59 62 -154q0 -103 -63 -164q-64 -62 -154 -62q-62 0 -115.5 29t-83.5 82l31 37q26 -45 72.5 -70.5t96.5 -25.5q69 0 115 48q46 49 46 124q0 73 -52 119q-51 48 -135 48q-59 0 -106 -18z"/>
<glyph glyph-name="six" horiz-adv-x="550" unicode="6" d="M109 248q0 -85 47 -146q47 -59 134 -59q64 0 109 49q45 50 45 117q0 76 -44 123.5t-120 47.5q-66 0 -112 -41t-59 -91zM54 248q0 90 30 173t80 142q106 120 227 146l22 -39q-108 -25 -194 -119q-85 -93 -105 -236q24 52 71 83t111 31q90 0 146 -60q57 -60 57 -156 q0 -95 -63 -159q-62 -63 -145 -63q-112 0 -175 74q-62 74 -62 183z"/>
<glyph glyph-name="seven" horiz-adv-x="475" unicode="7" d="M374 648h-340v52h404v-32l-266 -668h-58z"/>
<glyph glyph-name="eight" horiz-adv-x="591" unicode="8" d="M71 181q0 64 39 113t103 64v3q-49 15 -84 62q-34 47 -34 104q0 82 58 131q59 51 142 51q85 0 143 -51q58 -49 58 -131q0 -54 -33 -99.5t-88 -65.5v-3q64 -8 104 -57q41 -49 41 -117q0 -89 -66 -142q-64 -52 -158 -52t-159 52q-66 53 -66 138zM310 334h-26q-66 0 -112 -42 q-46 -40 -46 -102q0 -64 49 -106q50 -41 120 -41q74 0 121 40q49 40 49 107q0 65 -44 104.5t-111 39.5zM280 386h31q49 0 90 39q40 40 40 96q0 61 -44 99q-43 37 -103 37q-61 0 -102 -37q-42 -38 -42 -99q0 -56 40 -96q40 -39 90 -39z"/>
<glyph glyph-name="nine" horiz-adv-x="548" unicode="9" d="M439 449q0 86 -44 147q-43 61 -129 61q-65 0 -114 -49q-49 -48 -49 -115q0 -70 44 -120q43 -49 122 -49q69 0 112 37q44 37 58 88zM494 449q0 -191 -96 -314t-246 -144l-19 41q126 22 207 114q80 91 94 236q-21 -49 -68 -78t-110 -29q-91 0 -150 62q-58 61 -58 152 q0 94 66 157t150 63q113 0 171 -73q59 -74 59 -187z"/>
<glyph glyph-name="colon" horiz-adv-x="322" unicode=":" d="M123 38q0 15 11.5 25.5t28.5 10.5q15 0 25.5 -11t10.5 -25q0 -16 -10.5 -28t-25.5 -12q-17 0 -28.5 12t-11.5 28zM123 423q0 15 11.5 25.5t28.5 10.5q15 0 25.5 -11t10.5 -25q0 -16 -10.5 -28t-25.5 -12q-17 0 -28.5 12t-11.5 28z"/>
<glyph glyph-name="semicolon" horiz-adv-x="325" unicode=";" d="M123 423q0 15 11.5 25.5t28.5 10.5q15 0 25.5 -11t10.5 -25q0 -16 -10.5 -28t-25.5 -12q-17 0 -28.5 12t-11.5 28zM123 33q0 16 11.5 26.5t29.5 10.5q25 0 42 -24t17 -62q0 -48 -27 -83t-70 -48l-14 26q26 9 44.5 29.5t22.5 49.5q1 5 1 15q0 23 -11 37q-4 -10 -18 -10 q-11 0 -19.5 9.5t-8.5 23.5z"/>
<glyph glyph-name="less" horiz-adv-x="589" unicode="&lt;" d="M484 146v-57l-420 262v22l420 260v-57l-347 -214z"/>
<glyph glyph-name="equal" horiz-adv-x="589" unicode="=" d="M517 251h-446v46h446v-46zM517 423h-446v46h446v-46z"/>
<glyph glyph-name="greater" horiz-adv-x="589" unicode="&gt;" d="M524 373v-22l-419 -262v57l347 216l-347 214v57z"/>
<glyph glyph-name="question" horiz-adv-x="460" unicode="?" d="M163 38q0 15 11 25.5t28 10.5q15 0 26 -11t11 -25q0 -16 -11 -28t-26 -12q-17 0 -28 12t-11 28zM371 528q0 54 -41 92q-40 37 -104 37q-96 0 -154 -81l-32 33q28 45 79.5 72.5t110.5 27.5q91 0 143 -49q53 -50 53 -121q0 -95 -72 -153q-9 -7 -34.5 -26t-37 -29t-28.5 -28 t-24 -37t-7 -41q0 -12 4 -33l-47 -2q-5 30 -5 43q0 74 69 124q6 5 28 21t30.5 23t25 23.5t23.5 29.5t13.5 32.5t6.5 41.5z"/>
<glyph glyph-name="at" horiz-adv-x="1014" unicode="@" d="M508 40q40 0 80.5 20.5t63.5 48.5v268q-58 33 -128 33q-82 0 -138 -54q-55 -54 -55 -133q0 -84 48 -133.5t129 -49.5zM715 0h-63v58q-28 -30 -69 -48.5t-83 -18.5q-102 0 -163 64t-61 170q0 98 71 166t178 68q103 0 179 -49v-361h22q77 0 122 63q46 64 46 156 q0 149 -106 246q-107 98 -271 98q-171 0 -284 -110t-113 -277q0 -164 113 -275q113 -112 284 -112q57 0 108 12l5 -48q-56 -13 -113 -13q-192 0 -320 125q-126 124 -126 311q0 183 127 309q127 127 319 127q183 0 305 -110q121 -109 121 -282q0 -109 -60 -189t-168 -80z"/>
<glyph glyph-name="A" horiz-adv-x="697" unicode="A" d="M492 290l-145 340l-146 -340h291zM77 0h-56l305 706h45l305 -706h-59l-102 238h-336z"/>
<glyph glyph-name="B" horiz-adv-x="617" unicode="B" d="M293 651q-43 0 -127 -3v-266h136q69 0 113 37q46 37 46 100q0 132 -168 132zM299 333h-133v-280q100 -4 130 -4q93 0 142.5 38t49.5 112q0 64 -49 99t-140 35zM111 1v698q139 4 184 4q221 0 221 -173q0 -64 -37 -106.5t-99 -57.5v-2q78 -9 120.5 -52.5t42.5 -115.5 q0 -98 -66.5 -148.5t-182.5 -50.5q-110 0 -183 4z"/>
<glyph glyph-name="C" horiz-adv-x="656" unicode="C" d="M600 109l22 -41q-36 -36 -94.5 -56.5t-122.5 -20.5q-156 0 -254 98q-97 97 -97 261q0 155 94 256q94 103 249 103q133 0 212 -66l-26 -41q-71 55 -185 55q-128 0 -207 -87q-79 -85 -79 -220q0 -137 82 -222t215 -85q110 0 191 66z"/>
<glyph glyph-name="D" horiz-adv-x="737" unicode="D" d="M288 651q-22 0 -64.5 -1.5t-57.5 -1.5v-596q33 0 62 -0.5t42 -1t14 -0.5q163 0 252 86q89 87 89 224q0 129 -85 210q-86 81 -252 81zM120 0h-9v700h11q43 0 80 1q74 2 88 2h3q101 0 178 -28t122 -76.5t67.5 -108.5t22.5 -130q0 -158 -105 -260q-104 -102 -296 -102 q-43 0 -79 1t-83 1z"/>
<glyph glyph-name="E" horiz-adv-x="575" unicode="E" d="M508 0h-397v700h387v-52h-332v-267h302v-52h-302v-277h342v-52z"/>
<glyph glyph-name="F" horiz-adv-x="542" unicode="F" d="M166 0h-55v700h391v-52h-336v-288h306v-52h-306v-308z"/>
<glyph glyph-name="G" horiz-adv-x="727" unicode="G" d="M611 287h-205v52h257v-252q-45 -45 -119 -71q-72 -25 -143 -25q-157 0 -252 98t-95 261q0 155 94 256q94 103 246 103q132 0 216 -66l-25 -43q-67 57 -185 57q-128 0 -208 -86t-80 -221q0 -138 80 -223q81 -84 211 -84q56 0 116 20q59 19 92 53v171z"/>
<glyph glyph-name="H" horiz-adv-x="769" unicode="H" d="M658 0h-55v331h-437v-331h-55v700h55v-317h437v317h55v-700z"/>
<glyph glyph-name="I" horiz-adv-x="325" unicode="I" d="M190 0h-55v700h55v-700z"/>
<glyph glyph-name="J" horiz-adv-x="361" unicode="J" d="M195 700h55v-546q0 -163 -140 -163q-59 0 -96 32l20 43q32 -23 69 -23q50 0 71 29.5t21 89.5v538z"/>
<glyph glyph-name="K" horiz-adv-x="637" unicode="K" d="M166 0h-55v700h55v-700zM528 700h67l-331 -331l345 -369h-71l-339 365z"/>
<glyph glyph-name="L" horiz-adv-x="552" unicode="L" d="M535 0h-424v700h55v-648h369v-52z"/>
<glyph glyph-name="M" horiz-adv-x="884" unicode="M" d="M166 0h-55v700h56l282 -384l271 384h53v-700h-55v614l-269 -378h-9l-274 375v-611z"/>
<glyph glyph-name="N" horiz-adv-x="797" unicode="N" d="M686 700v-700h-44l-479 602v-602h-52v700h44l479 -604v604h52z"/>
<glyph glyph-name="O" horiz-adv-x="810" unicode="O" d="M112 350q0 -130 84 -219q85 -88 209 -88q128 0 210 88q83 89 83 219q0 133 -85 219q-84 88 -208 88q-125 0 -209 -88q-84 -87 -84 -219zM54 350q0 153 100 256t251 103q149 0 250 -102q101 -101 101 -257q0 -153 -101 -257q-101 -102 -250 -102q-150 0 -251 101 q-100 101 -100 258z"/>
<glyph glyph-name="P" horiz-adv-x="585" unicode="P" d="M287 650q-33 0 -121 -2v-314q72 -5 114 -5q92 0 142.5 44t50.5 119q0 74 -46.5 116t-139.5 42zM166 281v-281h-55v700q41 0 85 1t86 1q70 0 120.5 -18t77.5 -49t39 -66.5t12 -77.5q0 -91 -63 -152q-64 -62 -186 -62q-69 0 -116 4z"/>
<glyph glyph-name="Q" horiz-adv-x="810" unicode="Q" d="M112 350q0 -130 84 -219q85 -88 209 -88q92 0 165 49l-62 75l37 33l64 -76q89 89 89 226q0 133 -85 219q-84 88 -208 88q-125 0 -209 -88q-84 -87 -84 -219zM54 350q0 153 100 256t251 103q149 0 250 -102q101 -101 101 -257q0 -164 -112 -267l70 -83h-66l-43 51 q-89 -60 -200 -60q-150 0 -251 101q-100 101 -100 258z"/>
<glyph glyph-name="R" horiz-adv-x="631" unicode="R" d="M276 650q-22 0 -110 -2v-302h121q71 0 124 43q55 43 55 111q0 150 -190 150zM166 294v-294h-55v700q45 0 91 1t77 1q245 0 245 -202q0 -72 -47 -127q-47 -53 -119 -68l245 -305h-68l-233 294h-136z"/>
<glyph glyph-name="S" horiz-adv-x="546" unicode="S" d="M434 174q0 46 -27 79t-67 50t-87 37.5t-87 40.5t-67 59.5t-27 93.5q0 76 55 125q56 50 150 50q123 0 188 -71l-30 -41q-60 60 -156 60q-69 0 -109 -33.5t-40 -89.5q0 -45 27 -77.5t67 -48.5t87 -35.5t87 -39.5t67 -60.5t27 -97.5q0 -82 -64 -133t-159 -51q-65 0 -128 27 q-62 29 -87 74l33 38q30 -39 80 -63t101 -24q68 0 117 35q49 34 49 96z"/>
<glyph glyph-name="T" horiz-adv-x="593" unicode="T" d="M269 648h-259v52h573v-52h-259v-648h-55v648z"/>
<glyph glyph-name="U" horiz-adv-x="751" unicode="U" d="M595 700h55v-407q0 -151 -75 -226t-190 -75q-127 0 -206 79q-78 79 -78 229v400h55v-390q0 -125 61.5 -195.5t167.5 -70.5q98 0 154 67t56 194v395z"/>
<glyph glyph-name="V" horiz-adv-x="656" unicode="V" d="M589 700h56l-294 -706h-39l-301 706h59l263 -622z"/>
<glyph glyph-name="W" horiz-adv-x="958" unicode="W" d="M890 700h54l-204 -700h-48l-210 608l-206 -608h-48l-214 700h62l181 -602l201 602h51l206 -603z"/>
<glyph glyph-name="X" horiz-adv-x="660" unicode="X" d="M557 700h66l-257 -344l266 -356h-66l-236 314l-237 -314h-65l267 356l-256 344h65l227 -302z"/>
<glyph glyph-name="Y" horiz-adv-x="584" unicode="Y" d="M509 700h61l-252 -394v-306h-55v306l-249 394h64l215 -342z"/>
<glyph glyph-name="Z" horiz-adv-x="629" unicode="Z" d="M501 648h-441v52h519v-35l-463 -613h473v-52h-549v35z"/>
<glyph glyph-name="bracketleft" horiz-adv-x="296" unicode="[" d="M290 -200h-230v850h230v-49h-178v-752h178v-49z"/>
<glyph glyph-name="backslash" horiz-adv-x="317" unicode="\" d="M-30 694l41 15l336 -901l-42 -16z"/>
<glyph glyph-name="bracketright" horiz-adv-x="296" unicode="]" d="M6 650h230v-850h-230v49h178v752h-178v49z"/>
<glyph glyph-name="asciicircum" horiz-adv-x="480" unicode="^" d="M105 450h-57l176 258h34l174 -258h-57l-134 203z"/>
<glyph glyph-name="underscore" horiz-adv-x="287" unicode="_" d="M287 -200h-287v52h287v-52z"/>
<glyph glyph-name="grave" horiz-adv-x="269" unicode="`" d="M209 565l-33 -23l-116 142l41 31z"/>
<glyph glyph-name="a" horiz-adv-x="459" unicode="a" d="M199 43q84 0 138 71v75q-49 36 -117 36q-51 0 -86 -25t-35 -69q0 -40 28 -64t72 -24zM93 375l-14 43q67 41 143 41q88 0 127.5 -44t39.5 -136v-279h-52v69q-55 -75 -154 -75q-63 0 -101 36.5t-38 97.5q0 66 48 103q47 37 123 37t122 -34q0 70 -10 107q-8 36 -32.5 51 t-75.5 18q-61 0 -126 -35z"/>
<glyph glyph-name="b" horiz-adv-x="550" unicode="b" d="M277 410q-42 0 -83 -20.5t-63 -48.5v-262q55 -39 129 -39q82 0 134 51q53 51 53 136t-46 134t-124 49zM79 44v656h52v-305q28 28 70.5 46t86.5 18q99 0 156 -63q58 -62 58 -164q0 -110 -68 -176q-68 -65 -177 -65q-108 0 -178 53z"/>
<glyph glyph-name="c" horiz-adv-x="490" unicode="c" d="M429 102l26 -38q-27 -35 -72.5 -54t-97.5 -19q-105 0 -172 64q-66 65 -66 170q0 99 64 166q65 68 160 68q116 0 175 -56l-25 -42q-53 49 -142 49q-72 0 -125 -53q-52 -52 -52 -132q0 -84 53 -135q53 -50 134 -50q87 0 140 62z"/>
<glyph glyph-name="d" horiz-adv-x="553" unicode="d" d="M277 41q41 0 80.5 20t64.5 51v257q-62 41 -129 41q-81 0 -136 -52q-55 -51 -55 -133q0 -84 48 -134t127 -50zM474 0h-52v64q-63 -72 -155 -72q-100 0 -160 63t-60 168q0 104 69 170q71 66 176 66q78 0 130 -39v280h52v-700z"/>
<glyph glyph-name="e" horiz-adv-x="524" unicode="e" d="M270 410q-72 0 -116.5 -42t-51.5 -111h324q-1 71 -43 112t-113 41zM435 95l17 -40q-61 -64 -166 -64q-108 0 -173 64q-66 65 -66 170q0 102 60 168q61 66 168 66q87 0 146 -56q58 -55 58 -147q0 -24 -3 -42h-371q3 -81 53 -127.5t131 -46.5q94 0 146 55z"/>
<glyph glyph-name="f" horiz-adv-x="335" unicode="f" d="M145 0h-52v523q0 186 155 186q73 0 117 -38l-20 -40q-37 29 -89 29q-111 0 -111 -146v-64h172v-49h-172v-401z"/>
<glyph glyph-name="g" horiz-adv-x="490" unicode="g" d="M148 380q-35 -32 -35 -80t35 -80t90 -32t90 32t35 80t-36 80q-35 32 -89 32q-53 0 -90 -32zM67 -66q0 -44 46 -69q47 -26 126 -26q78 0 125 26t47 69q0 44 -46.5 70.5t-125.5 26.5q-78 0 -125 -26t-47 -71zM14 -66q0 51 36 86t102 49q-15 18 -15 43t17 45q-44 19 -69 57 t-25 86q0 69 49 114t129 45q64 0 113 -34h1l128 34v-49l-91 -23q27 -41 27 -87q0 -67 -50 -114q-50 -45 -128 -45q-28 0 -45 4q-9 -13 -9 -33q0 -23 13 -36q38 2 42 2q103 0 164 -38t61 -106q0 -67 -61 -104.5t-164 -37.5q-104 0 -164.5 37t-60.5 105z"/>
<glyph glyph-name="h" horiz-adv-x="551" unicode="h" d="M131 0h-52v700h52v-311q27 30 72 49.5t90 19.5q188 0 188 -202v-256h-52v248q0 161 -148 161q-43 0 -84.5 -19.5t-65.5 -49.5v-340z"/>
<glyph glyph-name="i" horiz-adv-x="261" unicode="i" d="M95 625q0 15 11 24t26 9q13 0 23.5 -9.5t10.5 -23.5q0 -17 -9.5 -27t-24.5 -10q-16 0 -26.5 10t-10.5 27zM156 0h-52v450h52v-450z"/>
<glyph glyph-name="j" horiz-adv-x="260" unicode="j" d="M97 625q0 15 11 24t26 9q13 0 23.5 -9.5t10.5 -23.5q0 -17 -9.5 -27t-24.5 -10q-16 0 -26.5 10t-10.5 27zM107 450h52v-483q0 -175 -141 -175q-58 0 -92 28l16 42q31 -21 65 -21q100 0 100 130v479z"/>
<glyph glyph-name="k" horiz-adv-x="473" unicode="k" d="M131 0h-52v700h52v-700zM366 450h68l-210 -211l229 -239h-70l-223 235z"/>
<glyph glyph-name="l" horiz-adv-x="282" unicode="l" d="M79 116v584h52v-556q0 -53 15 -77t50 -24q34 0 63 22l13 -41q-39 -30 -95 -30q-98 0 -98 122z"/>
<glyph glyph-name="m" horiz-adv-x="805" unicode="m" d="M735 295v-295h-52v281q0 128 -114 128q-93 0 -138 -75q2 -10 2 -32v-302h-52v304q0 49 -30 77t-83 28q-87 0 -137 -71v-338h-52v450h52v-63q26 32 68.5 51.5t87.5 19.5q53 0 89.5 -22t48.5 -61q25 38 69.5 60.5t94.5 22.5q146 0 146 -163z"/>
<glyph glyph-name="n" horiz-adv-x="551" unicode="n" d="M131 0h-52v450h52v-63q28 31 72.5 51t89.5 20q94 0 141 -49t47 -152v-257h-52v247q0 162 -148 162q-43 0 -84 -19.5t-66 -49.5v-340z"/>
<glyph glyph-name="o" horiz-adv-x="567" unicode="o" d="M283 40q81 0 130 51q51 53 51 134t-51 133t-130 52q-78 0 -130 -52q-51 -52 -51 -133t51 -133t130 -52zM113 57q-66 66 -66 168t66 168t170 66t170 -66t66 -168t-66 -168t-170 -66t-170 66z"/>
<glyph glyph-name="p" horiz-adv-x="554" unicode="p" d="M282 410q-44 0 -85.5 -20t-65.5 -50v-259q62 -41 140 -41q80 0 130 53t50 136t-45 132t-124 49zM131 -200h-52v650h52v-60q27 30 72.5 49.5t92.5 19.5q96 0 153 -63t57 -164q0 -105 -64 -173q-65 -68 -167 -68q-91 0 -144 38v-229z"/>
<glyph glyph-name="q" horiz-adv-x="555" unicode="q" d="M282 40q40 0 80 19.5t61 46.5v271q-58 33 -128 33q-83 0 -138 -54t-55 -133q0 -83 49 -133t131 -50zM475 -200h-52v249q-61 -58 -147 -58q-104 0 -167 63q-62 65 -62 171q0 98 71 166t178 68q103 0 179 -49v-610z"/>
<glyph glyph-name="r" horiz-adv-x="329" unicode="r" d="M131 0h-52v450h52v-60q45 68 121 68q47 0 70 -17l-18 -49q-29 17 -63 17q-67 0 -110 -73v-336z"/>
<glyph glyph-name="s" horiz-adv-x="418" unicode="s" d="M312 118q0 31 -25.5 50t-62 30t-73.5 24.5t-62.5 43t-25.5 74.5q0 54 40 86.5t105 32.5q93 0 141 -50l-22 -39q-46 43 -118 43q-40 0 -65.5 -20.5t-25.5 -51.5q0 -32 25.5 -52.5t62 -32t73.5 -24.5t62.5 -41t25.5 -71q0 -61 -45.5 -95t-116.5 -34q-44 0 -92 20 q-45 19 -62 45l29 34q19 -23 57 -38q39 -15 74 -15q44 0 72.5 21.5t28.5 59.5z"/>
<glyph glyph-name="t" horiz-adv-x="348" unicode="t" d="M69 171v404h52v-125h181v-49h-181v-222q0 -136 101 -136q40 0 72 24l17 -41q-41 -32 -101 -32q-141 0 -141 177z"/>
<glyph glyph-name="u" horiz-adv-x="544" unicode="u" d="M412 450h52v-450h-52v71q-28 -35 -74.5 -57.5t-96.5 -22.5q-172 0 -172 198v261h52v-250q0 -160 139 -160q42 0 84.5 22.5t67.5 55.5v332z"/>
<glyph glyph-name="v" horiz-adv-x="472" unicode="v" d="M406 450h55l-203 -456h-36l-211 456h61l129 -283q28 -63 41 -99q17 48 40 102z"/>
<glyph glyph-name="w" horiz-adv-x="694" unicode="w" d="M627 450h53l-146 -456h-43l-124 327q-17 47 -20 57q-13 -44 -20 -60l-121 -324h-41l-151 456h56l102 -315l19 -66q17 53 22 66l115 315h43l117 -314l12 -36l11 -32q2 8 11 40l10 33z"/>
<glyph glyph-name="x" horiz-adv-x="495" unicode="x" d="M393 450h61l-169 -218l179 -232h-64l-154 199l-154 -199h-61l179 230l-169 220h64l143 -186z"/>
<glyph glyph-name="y" horiz-adv-x="481" unicode="y" d="M408 450h59l-182 -450q-49 -119 -85 -158q-36 -42 -84 -42q-37 0 -77 23l17 40q31 -15 53 -15q34 0 61 29.5t56 98.5l10 24l-222 450h62l154 -318l32 -70q1 4 25 72z"/>
<glyph glyph-name="z" horiz-adv-x="481" unicode="z" d="M358 401h-296v49h372v-34l-312 -367h307v-49h-382v34z"/>
<glyph glyph-name="braceleft" horiz-adv-x="313" unicode="{" d="M110 -73v177q0 50 -24.5 74t-62.5 24h-3v46q39 0 64.5 27t25.5 83v161q0 67 28.5 99t93.5 32h61v-49h-49q-45 0 -63.5 -23t-18.5 -75v-163q0 -48 -20.5 -78.5t-54.5 -35.5q75 -9 75 -114v-166q0 -50 21.5 -73.5t66.5 -23.5h43v-49h-61q-122 0 -122 127z"/>
<glyph glyph-name="bar" horiz-adv-x="322" unicode="|" d="M187 0h-52v700h52v-700z"/>
<glyph glyph-name="braceright" horiz-adv-x="313" unicode="}" d="M203 104v-177q0 -127 -122 -127h-61v49h43q45 0 66.5 23.5t21.5 73.5v166q0 105 75 114q-34 5 -54.5 35.5t-20.5 78.5v163q0 52 -18.5 75t-63.5 23h-49v49h61q65 0 93.5 -32t28.5 -99v-161q0 -56 25.5 -83t64.5 -27v-46h-3q-38 0 -62.5 -24t-24.5 -74z"/>
<glyph glyph-name="asciitilde" horiz-adv-x="589" unicode="~" d="M82 322l-25 34q64 64 128 64q42 0 117 -37q76 -36 114 -36q47 0 93 46l22 -36q-59 -56 -116 -56q-41 0 -116 36q-74 37 -112 37q-53 0 -105 -52z"/>
<glyph glyph-name="uni00A0" horiz-adv-x="235" unicode=" "/>
<glyph glyph-name="exclamdown" horiz-adv-x="310" unicode="¡" d="M195 419q0 -15 -11.5 -25.5t-28.5 -10.5q-15 0 -26 11t-11 25q0 16 11 28t26 12q17 0 28.5 -12t11.5 -28zM129 264h55v-507h-55v507z"/>
<glyph glyph-name="cent" horiz-adv-x="589" unicode="¢" d="M473 102l26 -38q-53 -65 -152 -72v-112h-52v113q-92 11 -148 73q-56 64 -56 159q0 94 58 159q58 67 146 74v109h52v-109q91 -6 143 -55l-25 -42q-53 49 -142 49q-72 0 -125 -53q-52 -52 -52 -132q0 -84 53 -135q53 -50 134 -50q87 0 140 62z"/>
<glyph glyph-name="sterling" horiz-adv-x="589" unicode="£" d="M172 283h-91v43h79q-5 14 -22 49q-34 69 -34 139q0 79 57 136q57 58 151 58q121 0 187 -73l-30 -40q-61 61 -157 61q-67 0 -109 -43q-41 -44 -41 -102q0 -37 9 -69q6 -22 25 -63t23 -53h172v-43h-163q3 -16 3 -35q0 -81 -52 -148h7q39 0 115 -26t112 -26q59 0 110 48 l25 -40q-60 -60 -137 -60q-38 0 -114 26t-114 26q-60 0 -115 -55l-24 41q36 36 78 54q54 68 54 152q0 20 -4 43z"/>
<glyph glyph-name="currency" horiz-adv-x="589" unicode="¤" d="M120 347q0 -75 48 -128t127 -53q80 0 127 53q48 53 48 128t-48 128t-127 53t-127 -53t-48 -128zM118 490l-89 91l32 33l90 -90q61 50 144 50t144 -50l95 94l32 -32l-95 -96q48 -62 48 -143q0 -83 -48 -144l92 -91l-33 -32l-90 90q-61 -50 -145 -50q-83 0 -144 50l-96 -95 l-32 32l95 97q-47 64 -47 143t47 143z"/>
<glyph glyph-name="yen" horiz-adv-x="589" unicode="¥" d="M266 305h-195v43h169l-215 352h64l206 -342l207 342h61l-216 -352h170v-43h-196v-123h196v-43h-196v-139h-55v139h-195v43h195v123z"/>
<glyph glyph-name="brokenbar" horiz-adv-x="322" unicode="¦" d="M135 0v260h52v-260h-52zM187 700v-260h-52v260h52z"/>
<glyph glyph-name="section" horiz-adv-x="524" unicode="§" d="M123 249q0 -57 41 -96q40 -39 98 -39t99 38q40 39 40 97q0 57 -41 96q-40 40 -98 40t-99 -39q-40 -39 -40 -97zM71 249q0 66 39 114.5t104 62.5q-93 45 -93 135q0 61 42.5 100t110.5 39q83 0 129 -61l-31 -36q-4 4 -8 8.5t-8.5 8.5t-5.5 5q-26 26 -76 26q-42 0 -71.5 -29 t-29.5 -70q0 -78 104 -122q79 -4 127 -55q49 -50 49 -126q0 -66 -39 -114.5t-105 -61.5q92 -47 92 -134q0 -61 -42.5 -100t-110.5 -39q-83 0 -129 61l31 36q4 -4 8 -8.5t8.5 -8.5t5.5 -5q26 -26 76 -26q42 0 71.5 29t29.5 70q0 78 -105 120q-77 6 -125 56q-48 51 -48 125z "/>
<glyph glyph-name="dieresis" horiz-adv-x="393" unicode="¨" d="M268 618q0 15 9.5 24t24.5 9q12 0 21.5 -9.5t9.5 -23.5q0 -15 -9.5 -25t-21.5 -10q-14 0 -24 9.5t-10 25.5zM60 618q0 15 9.5 24t24.5 9q12 0 21.5 -9.5t9.5 -23.5q0 -15 -9.5 -25t-21.5 -10q-14 0 -24 9.5t-10 25.5z"/>
<glyph glyph-name="copyright" horiz-adv-x="1018" unicode="©" d="M661 102l26 -38q-27 -35 -72.5 -54t-97.5 -19q-105 0 -172 64q-66 65 -66 170q0 99 64 166q65 68 160 68q116 0 175 -56l-25 -42q-53 49 -142 49q-72 0 -125 -53q-52 -52 -52 -132q0 -84 53 -135q53 -50 134 -50q87 0 140 62zM233 494q-110 -113 -110 -273t110 -273 q111 -113 276 -113t275 113q111 112 111 273t-111 273q-110 113 -275 113t-276 -113zM201 -85q-124 124 -124 306t124 306q125 126 308 126q184 0 308 -126q124 -124 124 -306t-124 -306q-124 -126 -308 -126q-183 0 -308 126z"/>
<glyph glyph-name="ordfeminine" horiz-adv-x="409" unicode="ª" d="M185 375q59 0 104 45v58q-44 24 -97 24q-39 0 -64 -17.5t-25 -46.5q0 -28 23.5 -45.5t58.5 -17.5zM108 590l-21 31q49 37 117 37q61 0 96 -32t35 -91v-196h-46v52q-43 -55 -124 -55q-49 0 -80 28t-31 70q0 48 33 75t91 27q66 0 111 -27v15q0 94 -93 94q-48 0 -88 -28z "/>
<glyph glyph-name="guillemotleft" horiz-adv-x="506" unicode="«" d="M265 69l-34 -32l-180 211v4l182 209l34 -30l-156 -181zM439 69l-34 -32l-180 211v4l182 209l34 -30l-156 -181z"/>
<glyph glyph-name="logicalnot" horiz-adv-x="589" unicode="¬" d="M477 337h-412v46h458v-177h-46v131z"/>
<glyph glyph-name="uni00AD" horiz-adv-x="399" unicode="­" d="M314 247h-229v49h229v-49z"/>
<glyph glyph-name="registered" horiz-adv-x="582" unicode="®" d="M282 612h-42v-113h47q27 0 46 17t19 41q0 55 -70 55zM240 471v-111h-37v280h83q103 0 103 -83q0 -28 -18 -50t-48 -29l87 -118h-45l-80 111h-45zM154 633q-57 -57 -57 -137t57 -137t137 -57t137 57t57 137t-57 137t-137 57t-137 -57zM54 497q0 98 69 167q71 69 169 69 t167 -70q69 -69 69 -166q0 -99 -69 -169q-69 -69 -167 -69q-100 0 -169 69t-69 169z"/>
<glyph glyph-name="overscore" horiz-adv-x="372" unicode="¯" d="M312 604h-252v43h252v-43z"/>
<glyph glyph-name="degree" horiz-adv-x="398" unicode="°" d="M129 639q-29 -29 -29 -69q0 -41 29 -70t70 -29t70 29t29 70q0 40 -29 69q-30 30 -70 30t-70 -30zM54 569q0 61 42 103q42 43 102 43q61 0 103 -42q43 -40 43 -102q0 -61 -43 -104q-42 -42 -103 -42q-60 0 -102 42t-42 102z"/>
<glyph glyph-name="plusminus" horiz-adv-x="589" unicode="±" d="M517 173h-446v46h446v-46zM269 416h-198v46h198v199h49v-199h199v-46h-199v-139h-49v139z"/>
<glyph glyph-name="twosuperior" horiz-adv-x="339" unicode="²" d="M307 350h-268v34l31 22l40 28q4 4 35 28q26 19 38 33l27 32q29 32 29 69q0 30 -20 49t-54 19q-30 0 -54 -17.5t-28 -45.5l-40 13q7 41 42 65.5t83 24.5q58 0 89 -28.5t31 -75.5q0 -99 -187 -210h206v-40z"/>
<glyph glyph-name="threesuperior" horiz-adv-x="342" unicode="³" d="M164 345q-100 0 -133 67l28 24q13 -24 40 -38t60 -14q41 0 65.5 18.5t24.5 48.5q0 26 -22.5 43t-59.5 17h-36v34h32q29 0 50 18.5t21 45.5t-20.5 42t-55.5 15q-66 0 -92 -48l-24 25q32 62 125 62q54 0 85 -23.5t31 -64.5q0 -29 -19 -52t-52 -33v-1q39 -4 62.5 -27.5 t23.5 -56.5q0 -45 -38 -73.5t-96 -28.5z"/>
<glyph glyph-name="acute" horiz-adv-x="268" unicode="´" d="M168 716l40 -31l-116 -143l-32 23z"/>
<glyph glyph-name="mu" horiz-adv-x="547" unicode="µ" d="M415 450h52v-450h-52v71q-28 -35 -74.5 -57.5t-96.5 -22.5q-77 0 -120 41v-232h-52v650h52v-250q0 -160 139 -160q42 0 84.5 22.5t67.5 55.5v332z"/>
<glyph glyph-name="mu" horiz-adv-x="547" unicode="μ" d="M415 450h52v-450h-52v71q-28 -35 -74.5 -57.5t-96.5 -22.5q-77 0 -120 41v-232h-52v650h52v-250q0 -160 139 -160q42 0 84.5 22.5t67.5 55.5v332z"/>
<glyph glyph-name="paragraph" horiz-adv-x="437" unicode="¶" d="M51 481q0 102 56 160.5t152 58.5h144v-49h-94v-680q0 -179 -147 -179q-61 0 -101 35l22 38q31 -24 75 -24q55 0 77 32.5t22 98.5v291q-91 2 -148 59q-58 58 -58 159z"/>
<glyph glyph-name="middot" horiz-adv-x="235" unicode="·" d="M79 297q0 15 11.5 25.5t28.5 10.5q15 0 25.5 -11t10.5 -25q0 -16 -10.5 -28t-25.5 -12q-17 0 -28.5 12t-11.5 28z"/>
<glyph glyph-name="cedilla" horiz-adv-x="330" unicode="¸" d="M60 -174l16 27q35 -22 72 -22q31 0 50.5 12.5t19.5 33.5q0 47 -71 47h-6v76h30v-50q99 -3 99 -76q0 -34 -31 -55.5t-84 -21.5q-46 0 -95 29z"/>
<glyph glyph-name="onesuperior" horiz-adv-x="239" unicode="¹" d="M46 603l-19 32l99 67h32v-352h-46v297z"/>
<glyph glyph-name="ordmasculine" horiz-adv-x="458" unicode="º" d="M106 496q0 -52 36 -87q38 -33 87 -33q52 0 87.5 34t35.5 86t-37 85q-35 34 -86 34q-50 0 -87 -34q-36 -33 -36 -85zM106 379q-49 46 -49 117t49 116q49 46 123 46t123 -46q49 -45 49 -116t-49 -117t-123 -46t-123 46z"/>
<glyph glyph-name="guillemotright" horiz-adv-x="506" unicode="»" d="M281 252v-4l-180 -211l-35 32l155 181l-156 181l34 30zM455 252v-4l-180 -211l-35 32l155 181l-156 181l34 30z"/>
<glyph glyph-name="onequarter" horiz-adv-x="657" unicode="¼" d="M85 -9l-31 22l521 696l31 -22zM60 603l-19 32l99 67h32v-352h-46v297zM575 0h-43v87h-195v29l179 234h45l-175 -226h146v101h43v-101h62v-37h-62v-87z"/>
<glyph glyph-name="onehalf" horiz-adv-x="673" unicode="½" d="M57 -9l-31 22l521 696l31 -22zM60 603l-19 32l99 67h32v-352h-46v297zM633 0h-268v34l31 22l40 28q3 4 35 28q26 19 38 33l27 32q29 32 29 69q0 30 -20 49t-54 19q-30 0 -54 -17.5t-28 -45.5l-40 13q7 41 42 65.5t83 24.5q58 0 89 -28.5t31 -75.5q0 -99 -187 -210h206 v-40z"/>
<glyph glyph-name="threequarters" horiz-adv-x="699" unicode="¾" d="M167 345q-99 0 -133 67l28 24q13 -24 40 -38t60 -14q41 0 65.5 18.5t24.5 48.5q0 26 -22.5 43t-59.5 17h-36v34h32q29 0 50 18.5t21 45.5t-20.5 42t-55.5 15q-67 0 -92 -48l-24 25q32 62 125 62q54 0 85 -23.5t31 -64.5q0 -29 -19 -52t-52 -33v-1q39 -4 62.5 -27.5 t23.5 -56.5q0 -45 -38 -73.5t-96 -28.5zM617 0h-43v87h-195v29l179 234h45l-175 -226h146v101h43v-101h62v-37h-62v-87zM137 -9l-31 22l521 696l31 -22z"/>
<glyph glyph-name="questiondown" horiz-adv-x="460" unicode="¿" d="M297 419q0 -15 -11 -25.5t-28 -10.5q-15 0 -26 11t-11 25q0 16 11 28t26 12q17 0 28 -12t11 -28zM89 -71q0 -54 41 -92q40 -37 104 -37q96 0 154 81l32 -33q-28 -45 -79.5 -72.5t-110.5 -27.5q-92 0 -144 49t-52 121q0 96 71 152q10 8 35 26.5t37.5 29.5t29 28.5 t23.5 36.5t7 41q0 12 -4 33l47 2q5 -30 5 -43q0 -74 -69 -125q-4 -3 -24 -17.5t-26 -19.5t-22.5 -18.5t-23 -23.5t-15.5 -25t-12.5 -31.5t-3.5 -34.5z"/>
<glyph glyph-name="Agrave" horiz-adv-x="697" unicode="À" d="M398 769l-15 -31l-183 86l20 44zM492 290l-145 340l-146 -340h291zM77 0h-56l305 706h45l305 -706h-59l-102 238h-336z"/>
<glyph glyph-name="Aacute" horiz-adv-x="697" unicode="Á" d="M480 868l19 -44l-182 -86l-16 31zM492 290l-145 340l-146 -340h291zM77 0h-56l305 706h45l305 -706h-59l-102 238h-336z"/>
<glyph glyph-name="Acircumflex" horiz-adv-x="697" unicode="Â" d="M197 737l-20 30l168 98h4l170 -98l-23 -30l-149 81zM492 290l-145 340l-146 -340h291zM77 0h-56l305 706h45l305 -706h-59l-102 238h-336z"/>
<glyph glyph-name="Atilde" horiz-adv-x="697" unicode="Ã" d="M198 767l-18 33q40 40 90 40q32 0 80 -22t76 -22q43 0 74 33l16 -33q-39 -46 -93 -46q-28 0 -79 22q-50 22 -80 22q-33 0 -66 -27zM492 290l-145 340l-146 -340h291zM77 0h-56l305 706h45l305 -706h-59l-102 238h-336z"/>
<glyph glyph-name="Adieresis" horiz-adv-x="697" unicode="Ä" d="M428 804q0 15 11.5 23.5t27.5 8.5q15 0 25 -9t10 -23q0 -15 -10 -24.5t-25 -9.5q-17 0 -28 9t-11 25zM195 804q0 15 11 23.5t27 8.5q15 0 25.5 -9t10.5 -23q0 -15 -10.5 -24.5t-25.5 -9.5q-16 0 -27 9.5t-11 24.5zM492 290l-145 340l-146 -340h291zM77 0h-56l305 706h45 l305 -706h-59l-102 238h-336z"/>
<glyph glyph-name="Aring" horiz-adv-x="697" unicode="Å" d="M276 785q0 -28 20 -45q21 -15 52 -15t52 15q20 17 20 45q0 57 -72 57t-72 -57zM492 290l-145 340l-146 -340h291zM236 785q0 43 30 65.5t81 22.5q52 0 82.5 -22.5t30.5 -65.5q0 -36 -23 -59.5t-62 -29.5l301 -696h-59l-102 238h-336l-102 -238h-56l300 696 q-39 5 -62 28.5t-23 60.5z"/>
<glyph glyph-name="AE" horiz-adv-x="960" unicode="Æ" d="M496 296v321l-227 -321h227zM496 700h387v-52h-332v-267h302v-52h-302v-277h342v-52h-397v244h-264l-172 -244h-65z"/>
<glyph glyph-name="Ccedilla" horiz-adv-x="656" unicode="Ç" d="M293 -173l17 28q42 -24 74 -24q31 0 50.5 12.5t19.5 33.5q0 47 -71 47h-6v68q-147 9 -235 106t-88 252t94 256q94 103 249 103q133 0 212 -66l-26 -41q-71 55 -185 55q-128 0 -207 -87q-79 -85 -79 -220q0 -137 82 -222t215 -85q110 0 191 66l22 -41q-35 -35 -93 -55.5 t-122 -21.5v-41q102 -3 102 -76q0 -34 -31 -55q-31 -22 -83 -22q-53 0 -102 30z"/>
<glyph glyph-name="Egrave" horiz-adv-x="575" unicode="È" d="M373 769l-15 -31l-183 86l20 44zM508 0h-397v700h387v-52h-332v-267h302v-52h-302v-277h342v-52z"/>
<glyph glyph-name="Eacute" horiz-adv-x="575" unicode="É" d="M416 868l19 -44l-182 -86l-16 31zM508 0h-397v700h387v-52h-332v-267h302v-52h-302v-277h342v-52z"/>
<glyph glyph-name="Ecircumflex" horiz-adv-x="575" unicode="Ê" d="M508 0h-397v700h387v-52h-332v-267h302v-52h-302v-277h342v-52zM155 737l-20 30l168 98h4l170 -98l-23 -30l-149 81z"/>
<glyph glyph-name="Edieresis" horiz-adv-x="575" unicode="Ë" d="M508 0h-397v700h387v-52h-332v-267h302v-52h-302v-277h342v-52zM387 804q0 15 11.5 23.5t27.5 8.5q15 0 25 -9t10 -23q0 -15 -10 -24.5t-25 -9.5q-17 0 -28 9t-11 25zM154 804q0 15 11 23.5t27 8.5q15 0 25.5 -9t10.5 -23q0 -15 -10.5 -24.5t-25.5 -9.5q-16 0 -27 9.5 t-11 24.5z"/>
<glyph glyph-name="Igrave" horiz-adv-x="325" unicode="Ì" d="M201 769l-15 -31l-183 86l20 44zM190 0h-55v700h55v-700z"/>
<glyph glyph-name="Iacute" horiz-adv-x="325" unicode="Í" d="M303 868l19 -44l-182 -86l-16 31zM190 0h-55v700h55v-700z"/>
<glyph glyph-name="Icircumflex" horiz-adv-x="325" unicode="Î" d="M190 0h-55v700h55v-700zM12 737l-20 30l168 98h4l170 -98l-23 -30l-149 81z"/>
<glyph glyph-name="Idieresis" horiz-adv-x="325" unicode="Ï" d="M190 0h-55v700h55v-700zM242 804q0 15 11.5 23.5t27.5 8.5q15 0 25 -9t10 -23q0 -15 -10 -24.5t-25 -9.5q-17 0 -28 9t-11 25zM9 804q0 15 11 23.5t27 8.5q15 0 25.5 -9t10.5 -23q0 -15 -10.5 -24.5t-25.5 -9.5q-16 0 -27 9.5t-11 24.5z"/>
<glyph glyph-name="Eth" horiz-adv-x="758" unicode="Ð" d="M309 651q-22 0 -64.5 -1.5t-57.5 -1.5v-267h198v-49h-198v-280q33 0 62 -0.5t42 -1t14 -0.5q163 0 252 86q89 87 89 224q0 129 -85 210t-252 81zM132 332h-122v49h122v319h11q43 0 80 1q74 2 88 2h3q101 0 178 -28t122 -76.5t67.5 -108.5t22.5 -130q0 -158 -105 -260 q-103 -102 -296 -102q-43 0 -79 1t-83 1h-9v332z"/>
<glyph glyph-name="Ntilde" horiz-adv-x="797" unicode="Ñ" d="M254 767l-18 33q40 40 90 40q32 0 80 -22t76 -22q42 0 74 33l16 -33q-39 -46 -93 -46q-28 0 -79 22q-50 22 -80 22q-33 0 -66 -27zM686 700v-700h-44l-479 602v-602h-52v700h44l479 -604v604h52z"/>
<glyph glyph-name="Ograve" horiz-adv-x="810" unicode="Ò" d="M493 769l-15 -31l-183 86l20 44zM112 350q0 -130 84 -219q85 -88 209 -88q128 0 210 88q83 89 83 219q0 133 -85 219q-84 88 -208 88q-125 0 -209 -88q-84 -87 -84 -219zM54 350q0 153 100 256t251 103q149 0 250 -102q101 -101 101 -257q0 -153 -101 -257 q-101 -102 -250 -102q-150 0 -251 101q-100 101 -100 258z"/>
<glyph glyph-name="Oacute" horiz-adv-x="810" unicode="Ó" d="M522 868l19 -44l-182 -86l-16 31zM112 350q0 -130 84 -219q85 -88 209 -88q128 0 210 88q83 89 83 219q0 133 -85 219q-84 88 -208 88q-125 0 -209 -88q-84 -87 -84 -219zM54 350q0 153 100 256t251 103q149 0 250 -102q101 -101 101 -257q0 -153 -101 -257 q-101 -102 -250 -102q-150 0 -251 101q-100 101 -100 258z"/>
<glyph glyph-name="Ocircumflex" horiz-adv-x="810" unicode="Ô" d="M112 350q0 -130 84 -219q85 -88 209 -88q128 0 210 88q83 89 83 219q0 133 -85 219q-84 88 -208 88q-125 0 -209 -88q-84 -87 -84 -219zM54 350q0 153 100 256t251 103q149 0 250 -102q101 -101 101 -257q0 -153 -101 -257q-101 -102 -250 -102q-150 0 -251 101 q-100 101 -100 258zM258 737l-20 30l168 98h4l170 -98l-23 -30l-149 81z"/>
<glyph glyph-name="Otilde" horiz-adv-x="810" unicode="Õ" d="M256 767l-18 33q40 40 90 40q32 0 80 -22t76 -22q42 0 74 33l16 -33q-39 -46 -93 -46q-28 0 -79 22q-50 22 -80 22q-33 0 -66 -27zM112 350q0 -130 84 -219q85 -88 209 -88q128 0 210 88q83 89 83 219q0 133 -85 219q-84 88 -208 88q-125 0 -209 -88q-84 -87 -84 -219z M54 350q0 153 100 256t251 103q149 0 250 -102q101 -101 101 -257q0 -153 -101 -257q-101 -102 -250 -102q-150 0 -251 101q-100 101 -100 258z"/>
<glyph glyph-name="Odieresis" horiz-adv-x="810" unicode="Ö" d="M485 804q0 15 11.5 23.5t27.5 8.5q15 0 25 -9t10 -23q0 -15 -10 -24.5t-25 -9.5q-17 0 -28 9t-11 25zM252 804q0 15 11 23.5t27 8.5q15 0 25.5 -9t10.5 -23q0 -15 -10.5 -24.5t-25.5 -9.5q-16 0 -27 9.5t-11 24.5zM112 350q0 -130 84 -219q85 -88 209 -88q128 0 210 88 q83 89 83 219q0 133 -85 219q-84 88 -208 88q-125 0 -209 -88q-84 -87 -84 -219zM54 350q0 153 100 256t251 103q149 0 250 -102q101 -101 101 -257q0 -153 -101 -257q-101 -102 -250 -102q-150 0 -251 101q-100 101 -100 258z"/>
<glyph glyph-name="multiply" horiz-adv-x="589" unicode="×" d="M262 360l-141 141l33 33l140 -142l141 142l32 -33l-140 -141l142 -142l-32 -32l-143 141l-142 -141l-32 32z"/>
<glyph glyph-name="Oslash" horiz-adv-x="810" unicode="Ø" d="M112 350q0 -109 60 -190l431 420q-83 77 -198 77q-125 0 -209 -88q-84 -87 -84 -219zM698 350q0 112 -66 198l-431 -422q83 -83 204 -83q128 0 210 88q83 89 83 219zM54 350q0 153 100 256t251 103q141 0 238 -90l48 46l30 -30l-48 -47q83 -100 83 -238q0 -153 -101 -257 q-101 -102 -250 -102q-144 0 -245 95l-47 -46l-31 32l49 47q-77 97 -77 231z"/>
<glyph glyph-name="Ugrave" horiz-adv-x="751" unicode="Ù" d="M450 769l-15 -31l-183 86l20 44zM595 700h55v-407q0 -151 -75 -226t-190 -75q-127 0 -206 79q-78 79 -78 229v400h55v-390q0 -125 61.5 -195.5t167.5 -70.5q98 0 154 67t56 194v395z"/>
<glyph glyph-name="Uacute" horiz-adv-x="751" unicode="Ú" d="M489 868l19 -44l-182 -86l-16 31zM595 700h55v-407q0 -151 -75 -226t-190 -75q-127 0 -206 79q-78 79 -78 229v400h55v-390q0 -125 61.5 -195.5t167.5 -70.5q98 0 154 67t56 194v395z"/>
<glyph glyph-name="Ucircumflex" horiz-adv-x="751" unicode="Û" d="M595 700h55v-407q0 -151 -75 -226t-190 -75q-127 0 -206 79q-78 79 -78 229v400h55v-390q0 -125 61.5 -195.5t167.5 -70.5q98 0 154 67t56 194v395zM224 737l-20 30l168 98h4l170 -98l-23 -30l-149 81z"/>
<glyph glyph-name="Udieresis" horiz-adv-x="751" unicode="Ü" d="M595 700h55v-407q0 -151 -75 -226t-190 -75q-127 0 -206 79q-78 79 -78 229v400h55v-390q0 -125 61.5 -195.5t167.5 -70.5q98 0 154 67t56 194v395zM452 804q0 15 11.5 23.5t27.5 8.5q15 0 25 -9t10 -23q0 -15 -10 -24.5t-25 -9.5q-17 0 -28 9t-11 25zM219 804 q0 15 11 23.5t27 8.5q15 0 25.5 -9t10.5 -23q0 -15 -10.5 -24.5t-25.5 -9.5q-16 0 -27 9.5t-11 24.5z"/>
<glyph glyph-name="Yacute" horiz-adv-x="584" unicode="Ý" d="M411 868l19 -44l-182 -86l-16 31zM509 700h61l-252 -394v-306h-55v306l-249 394h64l215 -342z"/>
<glyph glyph-name="Thorn" horiz-adv-x="585" unicode="Þ" d="M283 543q-77 0 -117 -3v-313q72 -5 114 -5q92 0 142.5 44t50.5 119q0 74 -48 116t-142 42zM166 174v-174h-55v700h55v-107q31 0 60 1t56 1q70 0 120.5 -18t77.5 -49t39 -66.5t12 -77.5q0 -90 -63 -152q-64 -62 -186 -62q-69 0 -116 4z"/>
<glyph glyph-name="germandbls" horiz-adv-x="542" unicode="ß" d="M439 149q0 34 -20.5 61t-49.5 46t-58.5 37.5t-50 45t-20.5 59.5q0 25 10.5 46.5t26 36.5t31 29.5t26 33t10.5 39.5q0 33 -27 55t-65 22q-59 0 -87 -37.5t-28 -118.5v-507h-52v517q0 195 173 195q60 0 100 -34q41 -33 41 -83q0 -60 -52 -102t-52 -83q0 -53 70 -96 q68 -40 91 -66q38 -41 38 -97q0 -69 -43 -113q-44 -44 -107 -44q-91 0 -141 70l20 39q47 -60 109 -60q44 0 75.5 30.5t31.5 78.5z"/>
<glyph glyph-name="agrave" horiz-adv-x="459" unicode="à" d="M287 565l-33 -23l-116 142l41 31zM199 43q84 0 138 71v75q-49 36 -117 36q-51 0 -86 -25t-35 -69q0 -40 28 -64t72 -24zM93 375l-14 43q67 41 143 41q88 0 127.5 -44t39.5 -136v-279h-52v69q-55 -75 -154 -75q-63 0 -101 36.5t-38 97.5q0 66 48 103q47 37 123 37t122 -34 q0 70 -10 107q-8 36 -32.5 51t-75.5 18q-61 0 -126 -35z"/>
<glyph glyph-name="aacute" horiz-adv-x="459" unicode="á" d="M284 716l40 -31l-116 -143l-32 23zM199 43q84 0 138 71v75q-49 36 -117 36q-51 0 -86 -25t-35 -69q0 -40 28 -64t72 -24zM93 375l-14 43q67 41 143 41q88 0 127.5 -44t39.5 -136v-279h-52v69q-55 -75 -154 -75q-63 0 -101 36.5t-38 97.5q0 66 48 103q47 37 123 37 t122 -34q0 70 -10 107q-8 36 -32.5 51t-75.5 18q-61 0 -126 -35z"/>
<glyph glyph-name="acircumflex" horiz-adv-x="459" unicode="â" d="M228 707h4l128 -131l-25 -32l-105 105l-107 -104l-26 31zM199 43q84 0 138 71v75q-49 36 -117 36q-51 0 -86 -25t-35 -69q0 -40 28 -64t72 -24zM93 375l-14 43q67 41 143 41q88 0 127.5 -44t39.5 -136v-279h-52v69q-55 -75 -154 -75q-63 0 -101 36.5t-38 97.5 q0 66 48 103q47 37 123 37t122 -34q0 70 -10 107q-8 36 -32.5 51t-75.5 18q-61 0 -126 -35z"/>
<glyph glyph-name="atilde" horiz-adv-x="459" unicode="ã" d="M98 573l-23 25q52 52 101 52q23 0 57 -23q35 -23 54 -23q30 0 74 38l19 -27q-52 -54 -98 -54q-21 0 -56 23q-34 23 -56 23q-29 0 -72 -34zM199 43q84 0 138 71v75q-49 36 -117 36q-51 0 -86 -25t-35 -69q0 -40 28 -64t72 -24zM93 375l-14 43q67 41 143 41q88 0 127.5 -44 t39.5 -136v-279h-52v69q-55 -75 -154 -75q-63 0 -101 36.5t-38 97.5q0 66 48 103q47 37 123 37t122 -34q0 70 -10 107q-8 36 -32.5 51t-75.5 18q-61 0 -126 -35z"/>
<glyph glyph-name="adieresis" horiz-adv-x="459" unicode="ä" d="M297 618q0 15 9.5 24t24.5 9q12 0 21.5 -9.5t9.5 -23.5q0 -15 -9.5 -25t-21.5 -10q-15 0 -24.5 9.5t-9.5 25.5zM89 618q0 15 9.5 24t24.5 9q12 0 21.5 -9.5t9.5 -23.5q0 -15 -9.5 -25t-21.5 -10q-15 0 -24.5 9.5t-9.5 25.5zM199 43q84 0 138 71v75q-49 36 -117 36 q-51 0 -86 -25t-35 -69q0 -40 28 -64t72 -24zM93 375l-14 43q67 41 143 41q88 0 127.5 -44t39.5 -136v-279h-52v69q-55 -75 -154 -75q-63 0 -101 36.5t-38 97.5q0 66 48 103q47 37 123 37t122 -34q0 70 -10 107q-8 36 -32.5 51t-75.5 18q-61 0 -126 -35z"/>
<glyph glyph-name="aring" horiz-adv-x="459" unicode="å" d="M175 665q-20 -20 -20 -51t20 -51q21 -21 51 -21q29 0 50 21t21 51t-21 51q-22 22 -50 22q-29 0 -51 -22zM225 718q45 0 76 -30.5t31 -73.5t-31 -73t-76 -30q-44 0 -74.5 30t-30.5 73t30.5 73.5t74.5 30.5zM199 43q84 0 138 71v75q-49 36 -117 36q-51 0 -86 -25t-35 -69 q0 -40 28 -64t72 -24zM93 375l-14 43q67 41 143 41q88 0 127.5 -44t39.5 -136v-279h-52v69q-55 -75 -154 -75q-63 0 -101 36.5t-38 97.5q0 66 48 103q47 37 123 37t122 -34q0 70 -10 107q-8 36 -32.5 51t-75.5 18q-61 0 -126 -35z"/>
<glyph glyph-name="ae" horiz-adv-x="789" unicode="æ" d="M199 43q84 0 138 71v98q-62 13 -117 13q-51 0 -86 -25t-35 -69q0 -40 28 -64t72 -24zM389 279v-22h302q-1 71 -43 112t-113 41q-102 0 -149 -83q3 -23 3 -48zM222 459q108 0 146 -71q62 71 172 71q87 0 146 -56q58 -55 58 -147q0 -24 -3 -42h-352v-89q49 -85 165 -85 q94 0 146 55l17 -40q-61 -64 -166 -64q-120 0 -188 80q-74 -77 -171 -77q-69 0 -108.5 36t-39.5 98q0 65 47.5 102.5t123.5 37.5q70 0 122 -13q1 9 1 26q0 66 -28 97.5t-91 31.5q-61 0 -126 -35l-14 43q67 41 143 41z"/>
<glyph glyph-name="ccedilla" horiz-adv-x="490" unicode="ç" d="M175 -174l16 27q35 -22 72 -22q31 0 50.5 12.5t19.5 33.5q0 47 -71 47h-6v69q-93 7 -152 71q-57 63 -57 161q0 99 64 166q65 68 160 68q116 0 175 -56l-25 -42q-53 49 -142 49q-72 0 -125 -53q-52 -52 -52 -132q0 -84 53 -135q53 -50 134 -50q87 0 140 62l26 -38 q-27 -35 -72.5 -54t-96.5 -19v-41q99 -3 99 -76q0 -34 -31 -55.5t-84 -21.5q-46 0 -95 29z"/>
<glyph glyph-name="egrave" horiz-adv-x="524" unicode="è" d="M270 410q-72 0 -116.5 -42t-51.5 -111h324q-1 71 -43 112t-113 41zM435 95l17 -40q-61 -64 -166 -64q-108 0 -173 64q-66 65 -66 170q0 102 60 168q61 66 168 66q87 0 146 -56q58 -55 58 -147q0 -24 -3 -42h-371q3 -81 53 -127.5t131 -46.5q94 0 146 55zM319 565l-33 -23 l-116 142l41 31z"/>
<glyph glyph-name="eacute" horiz-adv-x="524" unicode="é" d="M344 716l40 -31l-116 -143l-32 23zM270 410q-72 0 -116.5 -42t-51.5 -111h324q-1 71 -43 112t-113 41zM435 95l17 -40q-61 -64 -166 -64q-108 0 -173 64q-66 65 -66 170q0 102 60 168q61 66 168 66q87 0 146 -56q58 -55 58 -147q0 -24 -3 -42h-371q3 -81 53 -127.5 t131 -46.5q94 0 146 55z"/>
<glyph glyph-name="ecircumflex" horiz-adv-x="524" unicode="ê" d="M270 410q-72 0 -116.5 -42t-51.5 -111h324q-1 71 -43 112t-113 41zM435 95l17 -40q-61 -64 -166 -64q-108 0 -173 64q-66 65 -66 170q0 102 60 168q61 66 168 66q87 0 146 -56q58 -55 58 -147q0 -24 -3 -42h-371q3 -81 53 -127.5t131 -46.5q94 0 146 55zM271 707h4 l128 -131l-25 -32l-105 105l-107 -104l-26 31z"/>
<glyph glyph-name="edieresis" horiz-adv-x="524" unicode="ë" d="M337 618q0 15 9.5 24t24.5 9q12 0 21.5 -9.5t9.5 -23.5q0 -15 -9.5 -25t-21.5 -10q-15 0 -24.5 9.5t-9.5 25.5zM129 618q0 15 9.5 24t24.5 9q12 0 21.5 -9.5t9.5 -23.5q0 -15 -9.5 -25t-21.5 -10q-15 0 -24.5 9.5t-9.5 25.5zM270 410q-72 0 -116.5 -42t-51.5 -111h324 q-1 71 -43 112t-113 41zM435 95l17 -40q-61 -64 -166 -64q-108 0 -173 64q-66 65 -66 170q0 102 60 168q61 66 168 66q87 0 146 -56q58 -55 58 -147q0 -24 -3 -42h-371q3 -81 53 -127.5t131 -46.5q94 0 146 55z"/>
<glyph glyph-name="igrave" horiz-adv-x="261" unicode="ì" d="M156 0h-52v450h52v-450zM163 565l-33 -23l-116 142l41 31z"/>
<glyph glyph-name="iacute" horiz-adv-x="261" unicode="í" d="M197 716l40 -31l-116 -143l-32 23zM156 0h-52v450h52v-450z"/>
<glyph glyph-name="icircumflex" horiz-adv-x="261" unicode="î" d="M156 0h-52v450h52v-450zM130 707h4l128 -131l-25 -32l-105 105l-107 -104l-26 31z"/>
<glyph glyph-name="idieresis" horiz-adv-x="261" unicode="ï" d="M156 0h-52v450h52v-450zM202 618q0 15 9.5 24t24.5 9q12 0 21.5 -9.5t9.5 -23.5q0 -15 -9.5 -25t-21.5 -10q-14 0 -24 9.5t-10 25.5zM-6 618q0 15 9.5 24t24.5 9q12 0 21.5 -9.5t9.5 -23.5q0 -15 -9.5 -25t-21.5 -10q-14 0 -24 9.5t-10 25.5z"/>
<glyph glyph-name="eth" horiz-adv-x="567" unicode="ð" d="M283 40q83 0 132 60q49 59 49 156v6q-11 61 -59 103q-49 45 -122 45q-78 0 -130 -52q-51 -52 -51 -133t51 -133t130 -52zM330 589l-127 -61l-16 46l106 50q-53 46 -114 73l58 12q54 -26 100 -64l105 51l16 -46l-83 -40q69 -71 106.5 -163.5t37.5 -188.5q0 -122 -65 -195 q-64 -72 -171 -72q-104 0 -170 66t-66 168t66 168t170 66q55 0 99.5 -28t68.5 -77q-26 132 -121 235z"/>
<glyph glyph-name="ntilde" horiz-adv-x="551" unicode="ñ" d="M144 573l-23 25q52 52 101 52q23 0 57 -23q35 -23 54 -23q30 0 74 38l19 -27q-52 -54 -98 -54q-21 0 -56 23q-34 23 -56 23q-29 0 -72 -34zM131 0h-52v450h52v-63q28 31 72.5 51t89.5 20q94 0 141 -49t47 -152v-257h-52v247q0 162 -148 162q-43 0 -84 -19.5t-66 -49.5 v-340z"/>
<glyph glyph-name="ograve" horiz-adv-x="567" unicode="ò" d="M283 40q81 0 130 51q51 53 51 134t-51 133t-130 52q-78 0 -130 -52q-51 -52 -51 -133t51 -133t130 -52zM113 57q-66 66 -66 168t66 168t170 66t170 -66t66 -168t-66 -168t-170 -66t-170 66zM330 565l-33 -23l-116 142l41 31z"/>
<glyph glyph-name="oacute" horiz-adv-x="567" unicode="ó" d="M346 716l40 -31l-116 -143l-32 23zM283 40q81 0 130 51q51 53 51 134t-51 133t-130 52q-78 0 -130 -52q-51 -52 -51 -133t51 -133t130 -52zM113 57q-66 66 -66 168t66 168t170 66t170 -66t66 -168t-66 -168t-170 -66t-170 66z"/>
<glyph glyph-name="ocircumflex" horiz-adv-x="567" unicode="ô" d="M283 40q81 0 130 51q51 53 51 134t-51 133t-130 52q-78 0 -130 -52q-51 -52 -51 -133t51 -133t130 -52zM113 57q-66 66 -66 168t66 168t170 66t170 -66t66 -168t-66 -168t-170 -66t-170 66zM282 707h4l128 -131l-25 -32l-105 105l-107 -104l-26 31z"/>
<glyph glyph-name="otilde" horiz-adv-x="567" unicode="õ" d="M152 573l-23 25q52 52 101 52q23 0 57 -23q35 -23 54 -23q30 0 74 38l19 -27q-52 -54 -98 -54q-21 0 -56 23q-34 23 -56 23q-29 0 -72 -34zM283 40q81 0 130 51q51 53 51 134t-51 133t-130 52q-78 0 -130 -52q-51 -52 -51 -133t51 -133t130 -52zM113 57q-66 66 -66 168 t66 168t170 66t170 -66t66 -168t-66 -168t-170 -66t-170 66z"/>
<glyph glyph-name="odieresis" horiz-adv-x="567" unicode="ö" d="M358 618q0 15 9.5 24t24.5 9q12 0 21.5 -9.5t9.5 -23.5q0 -15 -9.5 -25t-21.5 -10q-14 0 -24 9.5t-10 25.5zM150 618q0 15 9.5 24t24.5 9q12 0 21.5 -9.5t9.5 -23.5q0 -15 -9.5 -25t-21.5 -10q-14 0 -24 9.5t-10 25.5zM283 40q81 0 130 51q51 53 51 134t-51 133t-130 52 q-78 0 -130 -52q-51 -52 -51 -133t51 -133t130 -52zM113 57q-66 66 -66 168t66 168t170 66t170 -66t66 -168t-66 -168t-170 -66t-170 66z"/>
<glyph glyph-name="divide" horiz-adv-x="589" unicode="÷" d="M517 337h-446v46h446v-46zM260 151q0 13 10 23t25 10q14 0 24 -10t10 -23q0 -15 -9.5 -25.5t-24.5 -10.5t-25 10.5t-10 25.5zM260 570q0 13 10 23.5t25 10.5q14 0 24 -10.5t10 -23.5q0 -15 -9.5 -25.5t-24.5 -10.5t-25 10.5t-10 25.5z"/>
<glyph glyph-name="oslash" horiz-adv-x="567" unicode="ø" d="M464 225q0 62 -31 108l-262 -257q47 -36 112 -36q81 0 130 51q51 53 51 134zM102 225q0 -71 37 -118l265 259q-50 44 -121 44q-78 0 -130 -52q-51 -52 -51 -133zM47 225q0 102 66 168t170 66q92 0 159 -56l51 50l29 -32l-50 -50q47 -62 47 -146q0 -102 -66 -168t-170 -66 q-85 0 -150 48l-53 -52l-30 33l51 50q-54 62 -54 155z"/>
<glyph glyph-name="ugrave" horiz-adv-x="544" unicode="ù" d="M412 450h52v-450h-52v71q-28 -35 -74.5 -57.5t-96.5 -22.5q-172 0 -172 198v261h52v-250q0 -160 139 -160q42 0 84.5 22.5t67.5 55.5v332zM317 565l-33 -23l-116 142l41 31z"/>
<glyph glyph-name="uacute" horiz-adv-x="544" unicode="ú" d="M336 716l40 -31l-116 -143l-32 23zM412 450h52v-450h-52v71q-28 -35 -74.5 -57.5t-96.5 -22.5q-172 0 -172 198v261h52v-250q0 -160 139 -160q42 0 84.5 22.5t67.5 55.5v332z"/>
<glyph glyph-name="ucircumflex" horiz-adv-x="544" unicode="û" d="M412 450h52v-450h-52v71q-28 -35 -74.5 -57.5t-96.5 -22.5q-172 0 -172 198v261h52v-250q0 -160 139 -160q42 0 84.5 22.5t67.5 55.5v332zM267 707h4l128 -131l-25 -32l-105 105l-107 -104l-26 31z"/>
<glyph glyph-name="udieresis" horiz-adv-x="544" unicode="ü" d="M343 618q0 15 9.5 24t24.5 9q12 0 21.5 -9.5t9.5 -23.5q0 -15 -9.5 -25t-21.5 -10q-15 0 -24.5 9.5t-9.5 25.5zM135 618q0 15 9.5 24t24.5 9q12 0 21.5 -9.5t9.5 -23.5q0 -15 -9.5 -25t-21.5 -10q-15 0 -24.5 9.5t-9.5 25.5zM412 450h52v-450h-52v71q-28 -35 -74.5 -57.5 t-96.5 -22.5q-172 0 -172 198v261h52v-250q0 -160 139 -160q42 0 84.5 22.5t67.5 55.5v332z"/>
<glyph glyph-name="yacute" horiz-adv-x="481" unicode="ý" d="M302 716l40 -31l-116 -143l-32 23zM408 450h59l-182 -450q-49 -119 -85 -158q-36 -42 -84 -42q-37 0 -77 23l17 40q31 -15 53 -15q34 0 61 29.5t56 98.5l10 24l-222 450h62l154 -318l32 -70q1 4 25 72z"/>
<glyph glyph-name="thorn" horiz-adv-x="554" unicode="þ" d="M282 410q-44 0 -85.5 -20t-65.5 -50v-259q62 -41 140 -41q80 0 130 53t50 136t-45 132t-124 49zM131 -200h-52v900h52v-307q28 30 73 48t92 18q96 0 153 -63t57 -164q0 -105 -64 -173q-65 -68 -167 -68q-91 0 -144 38v-229z"/>
<glyph glyph-name="ydieresis" horiz-adv-x="481" unicode="ÿ" d="M315 618q0 15 9.5 24t24.5 9q12 0 21.5 -9.5t9.5 -23.5q0 -15 -9.5 -25t-21.5 -10q-15 0 -24.5 9.5t-9.5 25.5zM107 618q0 15 9.5 24t24.5 9q12 0 21.5 -9.5t9.5 -23.5q0 -15 -9.5 -25t-21.5 -10q-15 0 -24.5 9.5t-9.5 25.5zM408 450h59l-182 -450q-49 -119 -85 -158 q-36 -42 -84 -42q-37 0 -77 23l17 40q31 -15 53 -15q34 0 61 29.5t56 98.5l10 24l-222 450h62l154 -318l32 -70q1 4 25 72z"/>
<glyph glyph-name="Amacron" horiz-adv-x="697" unicode="Ā" d="M498 778h-300v43h300v-43zM492 290l-145 340l-146 -340h291zM77 0h-56l305 706h45l305 -706h-59l-102 238h-336z"/>
<glyph glyph-name="amacron" horiz-adv-x="459" unicode="ā" d="M357 604h-252v43h252v-43zM199 43q84 0 138 71v75q-49 36 -117 36q-51 0 -86 -25t-35 -69q0 -40 28 -64t72 -24zM93 375l-14 43q67 41 143 41q88 0 127.5 -44t39.5 -136v-279h-52v69q-55 -75 -154 -75q-63 0 -101 36.5t-38 97.5q0 66 48 103q47 37 123 37t122 -34 q0 70 -10 107q-8 36 -32.5 51t-75.5 18q-61 0 -126 -35z"/>
<glyph glyph-name="Abreve" horiz-adv-x="697" unicode="Ă" d="M184 837l24 27q57 -67 143 -67q85 0 140 67l21 -28q-25 -38 -68 -61.5t-93 -23.5q-58 0 -103 27q-45 28 -64 59zM492 290l-145 340l-146 -340h291zM77 0h-56l305 706h45l305 -706h-59l-102 238h-336z"/>
<glyph glyph-name="abreve" horiz-adv-x="459" unicode="ă" d="M88 654l24 27q56 -65 118 -65q65 0 117 64l20 -26q-59 -81 -139 -81q-89 0 -140 81zM199 43q84 0 138 71v75q-49 36 -117 36q-51 0 -86 -25t-35 -69q0 -40 28 -64t72 -24zM93 375l-14 43q67 41 143 41q88 0 127.5 -44t39.5 -136v-279h-52v69q-55 -75 -154 -75 q-63 0 -101 36.5t-38 97.5q0 66 48 103q47 37 123 37t122 -34q0 70 -10 107q-8 36 -32.5 51t-75.5 18q-61 0 -126 -35z"/>
<glyph glyph-name="Aogonek" horiz-adv-x="697" unicode="Ą" d="M492 290l-145 340l-146 -340h291zM655 -148l16 -33q-28 -19 -73 -19q-49 0 -81 23t-32 68q0 44 35.5 75t92.5 43l-98 229h-336l-102 -238h-56l305 706h45l305 -706h-12q-49 0 -88 -27t-39 -66q0 -33 21.5 -48.5t51.5 -15.5q26 0 45 9z"/>
<glyph glyph-name="aogonek" horiz-adv-x="459" unicode="ą" d="M199 43q84 0 138 71v75q-49 36 -117 36q-51 0 -86 -25t-35 -69q0 -40 28 -64t72 -24zM380 -148l16 -33q-28 -19 -73 -19q-49 0 -81 23t-32 68q0 44 35.5 75t91.5 43v60q-55 -75 -154 -75q-63 0 -101 36.5t-38 97.5q0 66 48 103q47 37 123 37t122 -34q0 70 -10 107 q-8 36 -32.5 51t-75.5 18q-61 0 -126 -35l-14 43q67 41 143 41q88 0 127.5 -44t39.5 -136v-279q-49 0 -88 -27t-39 -66q0 -33 21.5 -48.5t51.5 -15.5q25 0 45 9z"/>
<glyph glyph-name="Cacute" horiz-adv-x="656" unicode="Ć" d="M503 868l19 -44l-182 -86l-16 31zM600 109l22 -41q-36 -36 -94.5 -56.5t-122.5 -20.5q-156 0 -254 98q-97 97 -97 261q0 155 94 256q94 103 249 103q133 0 212 -66l-26 -41q-71 55 -185 55q-128 0 -207 -87q-79 -85 -79 -220q0 -137 82 -222t215 -85q110 0 191 66z"/>
<glyph glyph-name="cacute" horiz-adv-x="490" unicode="ć" d="M336 716l40 -31l-116 -143l-32 23zM429 102l26 -38q-27 -35 -72.5 -54t-97.5 -19q-105 0 -172 64q-66 65 -66 170q0 99 64 166q65 68 160 68q116 0 175 -56l-25 -42q-53 49 -142 49q-72 0 -125 -53q-52 -52 -52 -132q0 -84 53 -135q53 -50 134 -50q87 0 140 62z"/>
<glyph glyph-name="Ccircumflex" horiz-adv-x="656" unicode="Ĉ" d="M600 109l22 -41q-36 -36 -94.5 -56.5t-122.5 -20.5q-156 0 -254 98q-97 97 -97 261q0 155 94 256q94 103 249 103q133 0 212 -66l-26 -41q-71 55 -185 55q-128 0 -207 -87q-79 -85 -79 -220q0 -137 82 -222t215 -85q110 0 191 66zM242 737l-20 30l168 98h4l170 -98 l-23 -30l-149 81z"/>
<glyph glyph-name="ccircumflex" horiz-adv-x="490" unicode="ĉ" d="M429 102l26 -38q-27 -35 -72.5 -54t-97.5 -19q-105 0 -172 64q-66 65 -66 170q0 99 64 166q65 68 160 68q116 0 175 -56l-25 -42q-53 49 -142 49q-72 0 -125 -53q-52 -52 -52 -132q0 -84 53 -135q53 -50 134 -50q87 0 140 62zM276 707h4l128 -131l-25 -32l-105 105 l-107 -104l-26 31z"/>
<glyph glyph-name="Cdotaccent" horiz-adv-x="656" unicode="Ċ" d="M342 806q0 15 11.5 25.5t27.5 10.5q15 0 26.5 -10.5t11.5 -25.5q0 -17 -11 -27t-27 -10q-17 0 -28 10t-11 27zM600 109l22 -41q-36 -36 -94.5 -56.5t-122.5 -20.5q-156 0 -254 98q-97 97 -97 261q0 155 94 256q94 103 249 103q133 0 212 -66l-26 -41q-71 55 -185 55 q-128 0 -207 -87q-79 -85 -79 -220q0 -137 82 -222t215 -85q110 0 191 66z"/>
<glyph glyph-name="cdotaccent" horiz-adv-x="490" unicode="ċ" d="M245 625q0 15 11 24t26 9q13 0 23.5 -9.5t10.5 -23.5q0 -17 -9.5 -27t-24.5 -10q-16 0 -26.5 10t-10.5 27zM429 102l26 -38q-27 -35 -72.5 -54t-97.5 -19q-105 0 -172 64q-66 65 -66 170q0 99 64 166q65 68 160 68q116 0 175 -56l-25 -42q-53 49 -142 49q-72 0 -125 -53 q-52 -52 -52 -132q0 -84 53 -135q53 -50 134 -50q87 0 140 62z"/>
<glyph glyph-name="Ccaron" horiz-adv-x="656" unicode="Č" d="M600 109l22 -41q-36 -36 -94.5 -56.5t-122.5 -20.5q-156 0 -254 98q-97 97 -97 261q0 155 94 256q94 103 249 103q133 0 212 -66l-26 -41q-71 55 -185 55q-128 0 -207 -87q-79 -85 -79 -220q0 -137 82 -222t215 -85q110 0 191 66zM396 740h-4l-171 98l23 30l150 -83 l149 83l21 -29z"/>
<glyph glyph-name="ccaron" horiz-adv-x="490" unicode="č" d="M429 102l26 -38q-27 -35 -72.5 -54t-97.5 -19q-105 0 -172 64q-66 65 -66 170q0 99 64 166q65 68 160 68q116 0 175 -56l-25 -42q-53 49 -142 49q-72 0 -125 -53q-52 -52 -52 -132q0 -84 53 -135q53 -50 134 -50q87 0 140 62zM283 546h-4l-130 132l26 31l106 -111 l106 111l25 -31z"/>
<glyph glyph-name="Dcaron" horiz-adv-x="737" unicode="Ď" d="M288 651q-22 0 -64.5 -1.5t-57.5 -1.5v-596q33 0 62 -0.5t42 -1t14 -0.5q163 0 252 86q89 87 89 224q0 129 -85 210q-86 81 -252 81zM120 0h-9v700h11q43 0 80 1q74 2 88 2h3q101 0 178 -28t122 -76.5t67.5 -108.5t22.5 -130q0 -158 -105 -260q-104 -102 -296 -102 q-43 0 -79 1t-83 1zM339 740h-4l-171 98l23 30l150 -83l149 83l21 -29z"/>
<glyph glyph-name="dcaron" horiz-adv-x="553" unicode="ď" d="M578 700h50q9 -15 9 -40q0 -49 -20.5 -85t-54.5 -52l-23 24q49 37 49 107q0 27 -10 46zM277 41q41 0 80.5 20t64.5 51v257q-62 41 -129 41q-81 0 -136 -52q-55 -51 -55 -133q0 -84 48 -134t127 -50zM474 0h-52v64q-63 -72 -155 -72q-100 0 -160 63t-60 168q0 104 69 170 q71 66 176 66q78 0 130 -39v280h52v-700z"/>
<glyph glyph-name="Dcroat" horiz-adv-x="758" unicode="Đ" d="M309 651q-22 0 -64.5 -1.5t-57.5 -1.5v-267h198v-49h-198v-280q33 0 62 -0.5t42 -1t14 -0.5q163 0 252 86q89 87 89 224q0 129 -85 210t-252 81zM132 332h-122v49h122v319h11q43 0 80 1q74 2 88 2h3q101 0 178 -28t122 -76.5t67.5 -108.5t22.5 -130q0 -158 -105 -260 q-103 -102 -296 -102q-43 0 -79 1t-83 1h-9v332z"/>
<glyph glyph-name="dslash" horiz-adv-x="553" unicode="đ" d="M277 41q41 0 80.5 20t64.5 51v257q-62 41 -129 41q-81 0 -136 -52q-55 -51 -55 -133q0 -84 48 -134t127 -50zM422 545h-178v43h178v112h52v-112h103v-43h-103v-545h-52v64q-63 -72 -155 -72q-100 0 -160 63t-60 168q0 104 69 170q71 66 176 66q78 0 130 -39v125z"/>
<glyph glyph-name="Emacron" horiz-adv-x="575" unicode="Ē" d="M454 778h-300v43h300v-43zM508 0h-397v700h387v-52h-332v-267h302v-52h-302v-277h342v-52z"/>
<glyph glyph-name="emacron" horiz-adv-x="524" unicode="ē" d="M391 604h-252v43h252v-43zM270 410q-72 0 -116.5 -42t-51.5 -111h324q-1 71 -43 112t-113 41zM435 95l17 -40q-61 -64 -166 -64q-108 0 -173 64q-66 65 -66 170q0 102 60 168q61 66 168 66q87 0 146 -56q58 -55 58 -147q0 -24 -3 -42h-371q3 -81 53 -127.5t131 -46.5 q94 0 146 55z"/>
<glyph glyph-name="Edotaccent" horiz-adv-x="575" unicode="Ė" d="M269 806q0 15 11.5 25.5t27.5 10.5q15 0 26.5 -10.5t11.5 -25.5q0 -17 -11 -27t-27 -10q-17 0 -28 10t-11 27zM508 0h-397v700h387v-52h-332v-267h302v-52h-302v-277h342v-52z"/>
<glyph glyph-name="edotaccent" horiz-adv-x="524" unicode="ė" d="M229 625q0 15 11 24t26 9q13 0 23.5 -9.5t10.5 -23.5q0 -17 -9.5 -27t-24.5 -10q-16 0 -26.5 10t-10.5 27zM270 410q-72 0 -116.5 -42t-51.5 -111h324q-1 71 -43 112t-113 41zM435 95l17 -40q-61 -64 -166 -64q-108 0 -173 64q-66 65 -66 170q0 102 60 168q61 66 168 66 q87 0 146 -56q58 -55 58 -147q0 -24 -3 -42h-371q3 -81 53 -127.5t131 -46.5q94 0 146 55z"/>
<glyph glyph-name="Eogonek" horiz-adv-x="575" unicode="Ę" d="M425 0h-314v700h387v-52h-332v-267h302v-52h-302v-277h342v-52q-49 0 -88 -27t-39 -66q0 -33 21.5 -48.5t51.5 -15.5q26 0 45 9l16 -33q-28 -19 -73 -19q-49 0 -81 23t-32 68q0 75 96 109z"/>
<glyph glyph-name="eogonek" horiz-adv-x="524" unicode="ę" d="M270 410q-72 0 -116.5 -42t-51.5 -111h324q-1 71 -43 112t-113 41zM435 95l17 -40q-30 -32 -79 -49q-73 -46 -73 -99q0 -31 21.5 -47.5t50.5 -16.5q26 0 46 9l16 -33q-28 -19 -73 -19q-49 0 -81 23t-32 68q0 60 70 102q-30 -2 -32 -2q-108 0 -173 64q-66 65 -66 170 q0 102 60 168q61 66 168 66q87 0 146 -56q58 -55 58 -147q0 -24 -3 -42h-371q3 -81 53 -127.5t131 -46.5q94 0 146 55z"/>
<glyph glyph-name="Ecaron" horiz-adv-x="575" unicode="Ě" d="M508 0h-397v700h387v-52h-332v-267h302v-52h-302v-277h342v-52zM316 740h-4l-171 98l23 30l150 -83l149 83l21 -29z"/>
<glyph glyph-name="ecaron" horiz-adv-x="524" unicode="ě" d="M270 410q-72 0 -116.5 -42t-51.5 -111h324q-1 71 -43 112t-113 41zM435 95l17 -40q-61 -64 -166 -64q-108 0 -173 64q-66 65 -66 170q0 102 60 168q61 66 168 66q87 0 146 -56q58 -55 58 -147q0 -24 -3 -42h-371q3 -81 53 -127.5t131 -46.5q94 0 146 55zM277 546h-4 l-130 132l26 31l106 -111l106 111l25 -31z"/>
<glyph glyph-name="Gcircumflex" horiz-adv-x="727" unicode="Ĝ" d="M242 737l-20 30l168 98h4l170 -98l-23 -30l-149 81zM611 287h-205v52h257v-252q-45 -45 -119 -71q-72 -25 -143 -25q-157 0 -252 98t-95 261q0 155 94 256q94 103 246 103q132 0 216 -66l-25 -43q-67 57 -185 57q-128 0 -208 -86t-80 -221q0 -138 80 -223q81 -84 211 -84 q56 0 116 20q59 19 92 53v171z"/>
<glyph glyph-name="gcircumflex" horiz-adv-x="490" unicode="ĝ" d="M148 380q-35 -32 -35 -80t35 -80t90 -32t90 32t35 80t-36 80q-35 32 -89 32q-53 0 -90 -32zM67 -66q0 -44 46 -69q47 -26 126 -26q78 0 125 26t47 69q0 44 -46.5 70.5t-125.5 26.5q-78 0 -125 -26t-47 -71zM14 -66q0 51 36 86t102 49q-15 18 -15 43t17 45q-44 19 -69 57 t-25 86q0 69 49 114t129 45q64 0 113 -34h1l128 34v-49l-91 -23q27 -41 27 -87q0 -67 -50 -114q-50 -45 -128 -45q-28 0 -45 4q-9 -13 -9 -33q0 -23 13 -36q38 2 42 2q103 0 164 -38t61 -106q0 -67 -61 -104.5t-164 -37.5q-104 0 -164.5 37t-60.5 105zM241 707h4l128 -131 l-25 -32l-105 105l-107 -104l-26 31z"/>
<glyph glyph-name="Gbreve" horiz-adv-x="727" unicode="Ğ" d="M236 837l24 27q57 -67 143 -67q85 0 140 67l21 -28q-25 -38 -68 -61.5t-93 -23.5q-58 0 -103 27q-45 28 -64 59zM611 287h-205v52h257v-252q-45 -45 -119 -71q-72 -25 -143 -25q-157 0 -252 98t-95 261q0 155 94 256q94 103 246 103q132 0 216 -66l-25 -43 q-67 57 -185 57q-128 0 -208 -86t-80 -221q0 -138 80 -223q81 -84 211 -84q56 0 116 20q59 19 92 53v171z"/>
<glyph glyph-name="gbreve" horiz-adv-x="490" unicode="ğ" d="M148 380q-35 -32 -35 -80t35 -80t90 -32t90 32t35 80t-36 80q-35 32 -89 32q-53 0 -90 -32zM67 -66q0 -44 46 -69q47 -26 126 -26q78 0 125 26t47 69q0 44 -46.5 70.5t-125.5 26.5q-78 0 -125 -26t-47 -71zM14 -66q0 51 36 86t102 49q-15 18 -15 43t17 45q-44 19 -69 57 t-25 86q0 69 49 114t129 45q64 0 113 -34h1l128 34v-49l-91 -23q27 -41 27 -87q0 -67 -50 -114q-50 -45 -128 -45q-28 0 -45 4q-9 -13 -9 -33q0 -23 13 -36q38 2 42 2q103 0 164 -38t61 -106q0 -67 -61 -104.5t-164 -37.5q-104 0 -164.5 37t-60.5 105zM101 654l24 27 q56 -65 118 -65q65 0 117 64l20 -26q-59 -81 -139 -81q-89 0 -140 81z"/>
<glyph glyph-name="Gdotaccent" horiz-adv-x="727" unicode="Ġ" d="M346 806q0 15 11.5 25.5t27.5 10.5q15 0 26.5 -10.5t11.5 -25.5q0 -17 -11 -27t-27 -10q-17 0 -28 10t-11 27zM611 287h-205v52h257v-252q-45 -45 -119 -71q-72 -25 -143 -25q-157 0 -252 98t-95 261q0 155 94 256q94 103 246 103q132 0 216 -66l-25 -43q-67 57 -185 57 q-128 0 -208 -86t-80 -221q0 -138 80 -223q81 -84 211 -84q56 0 116 20q59 19 92 53v171z"/>
<glyph glyph-name="gdotaccent" horiz-adv-x="490" unicode="ġ" d="M205 625q0 15 11 24t26 9q13 0 23.5 -9.5t10.5 -23.5q0 -17 -9.5 -27t-24.5 -10q-16 0 -26.5 10t-10.5 27zM148 380q-35 -32 -35 -80t35 -80t90 -32t90 32t35 80t-36 80q-35 32 -89 32q-53 0 -90 -32zM67 -66q0 -44 46 -69q47 -26 126 -26q78 0 125 26t47 69 q0 44 -46.5 70.5t-125.5 26.5q-78 0 -125 -26t-47 -71zM14 -66q0 51 36 86t102 49q-15 18 -15 43t17 45q-44 19 -69 57t-25 86q0 69 49 114t129 45q64 0 113 -34h1l128 34v-49l-91 -23q27 -41 27 -87q0 -67 -50 -114q-50 -45 -128 -45q-28 0 -45 4q-9 -13 -9 -33 q0 -23 13 -36q38 2 42 2q103 0 164 -38t61 -106q0 -67 -61 -104.5t-164 -37.5q-104 0 -164.5 37t-60.5 105z"/>
<glyph glyph-name="Gcommaaccent" horiz-adv-x="727" unicode="Ģ" d="M362 -71l45 16q35 -8 35 -50q0 -75 -85 -97l-15 24q48 20 48 65q0 33 -28 42zM611 287h-205v52h257v-252q-45 -45 -119 -71q-72 -25 -143 -25q-157 0 -252 98t-95 261q0 155 94 256q94 103 246 103q132 0 216 -66l-25 -43q-67 57 -185 57q-128 0 -208 -86t-80 -221 q0 -138 80 -223q81 -84 211 -84q56 0 116 20q59 19 92 53v171z"/>
<glyph glyph-name="gcommaaccent" horiz-adv-x="490" unicode="ģ" d="M274 568l-45 -16q-35 8 -35 50q0 75 85 97l15 -24q-48 -19 -48 -65q0 -33 28 -42zM148 380q-35 -32 -35 -80t35 -80t90 -32t90 32t35 80t-36 80q-35 32 -89 32q-53 0 -90 -32zM67 -66q0 -44 46 -69q47 -26 126 -26q78 0 125 26t47 69q0 44 -46.5 70.5t-125.5 26.5 q-78 0 -125 -26t-47 -71zM14 -66q0 51 36 86t102 49q-15 18 -15 43t17 45q-44 19 -69 57t-25 86q0 69 49 114t129 45q64 0 113 -34h1l128 34v-49l-91 -23q27 -41 27 -87q0 -67 -50 -114q-50 -45 -128 -45q-28 0 -45 4q-9 -13 -9 -33q0 -23 13 -36q38 2 42 2q103 0 164 -38 t61 -106q0 -67 -61 -104.5t-164 -37.5q-104 0 -164.5 37t-60.5 105z"/>
<glyph glyph-name="Hcircumflex" horiz-adv-x="769" unicode="Ĥ" d="M658 0h-55v331h-437v-331h-55v700h55v-317h437v317h55v-700zM234 737l-20 30l168 98h4l170 -98l-23 -30l-149 81z"/>
<glyph glyph-name="hcircumflex" horiz-adv-x="551" unicode="ĥ" d="M131 0h-52v700h52v-311q27 30 72 49.5t90 19.5q188 0 188 -202v-256h-52v248q0 161 -148 161q-43 0 -84.5 -19.5t-65.5 -49.5v-340zM10 737l-20 30l168 98h4l170 -98l-23 -30l-149 81z"/>
<glyph glyph-name="Hbar" horiz-adv-x="779" unicode="Ħ" d="M171 521v-138h437v138h-437zM116 521h-89v49h89v130h55v-130h437v130h55v-130h89v-49h-89v-521h-55v331h-437v-331h-55v521z"/>
<glyph glyph-name="hbar" horiz-adv-x="566" unicode="ħ" d="M94 532h-126v49h126v119h52v-119h173v-49h-173v-143q27 30 72 49.5t90 19.5q188 0 188 -202v-256h-52v248q0 161 -148 161q-43 0 -84.5 -19.5t-65.5 -49.5v-340h-52v532z"/>
<glyph glyph-name="Imacron" horiz-adv-x="325" unicode="Ī" d="M314 778h-300v43h300v-43zM190 0h-55v700h55v-700z"/>
<glyph glyph-name="imacron" horiz-adv-x="261" unicode="ī" d="M256 604h-252v43h252v-43zM156 0h-52v450h52v-450z"/>
<glyph glyph-name="Iogonek" horiz-adv-x="325" unicode="Į" d="M181 -148l16 -33q-28 -19 -73 -19q-49 0 -81 23t-32 68q0 43 34.5 74t89.5 43v692h55v-700h-5q-47 -1 -86 -28q-36 -27 -36 -65q0 -33 21.5 -48.5t51.5 -15.5q26 0 45 9z"/>
<glyph glyph-name="iogonek" horiz-adv-x="261" unicode="į" d="M93 625q0 15 11 24t26 9q13 0 23.5 -9.5t10.5 -23.5q0 -17 -9.5 -27t-24.5 -10q-16 0 -26.5 10t-10.5 27zM147 -148l16 -33q-28 -19 -73 -19q-49 0 -81 23t-32 68q0 44 35.5 75t91.5 43v441h52v-450h-5q-47 -1 -86 -28q-36 -27 -36 -65q0 -33 21.5 -48.5t51.5 -15.5 q26 0 45 9z"/>
<glyph glyph-name="Idot" horiz-adv-x="325" unicode="İ" d="M190 0h-55v700h55v-700zM125 806q0 15 11.5 25.5t27.5 10.5q15 0 26.5 -10.5t11.5 -25.5q0 -17 -11 -27t-27 -10q-17 0 -28 10t-11 27z"/>
<glyph glyph-name="dotlessi" horiz-adv-x="261" unicode="ı" d="M156 0h-52v450h52v-450z"/>
<glyph glyph-name="Jcircumflex" horiz-adv-x="361" unicode="Ĵ" d="M195 700h55v-546q0 -163 -140 -163q-59 0 -96 32l20 43q32 -23 69 -23q50 0 71 29.5t21 89.5v538zM65 737l-20 30l168 98h4l170 -98l-23 -30l-149 81z"/>
<glyph glyph-name="jcircumflex" horiz-adv-x="260" unicode="ĵ" d="M107 450h52v-483q0 -175 -141 -175q-58 0 -92 28l16 42q31 -21 65 -21q100 0 100 130v479zM132 707h4l128 -131l-25 -32l-105 105l-107 -104l-26 31z"/>
<glyph glyph-name="Kcommaaccent" horiz-adv-x="637" unicode="Ķ" d="M274 -71l45 16q35 -8 35 -50q0 -75 -85 -97l-15 24q48 20 48 65q0 33 -28 42zM166 0h-55v700h55v-700zM528 700h67l-331 -331l345 -369h-71l-339 365z"/>
<glyph glyph-name="kcommaaccent" horiz-adv-x="473" unicode="ķ" d="M192 -71l45 16q35 -8 35 -50q0 -75 -85 -97l-15 24q48 20 48 65q0 33 -28 42zM131 0h-52v700h52v-700zM366 450h68l-210 -211l229 -239h-70l-223 235z"/>
<glyph glyph-name="Lacute" horiz-adv-x="552" unicode="Ĺ" d="M407 868l19 -44l-182 -86l-16 31zM535 0h-424v700h55v-648h369v-52z"/>
<glyph glyph-name="lacute" horiz-adv-x="282" unicode="ĺ" d="M249 868l19 -44l-182 -86l-16 31zM79 116v584h52v-556q0 -53 15 -77t50 -24q34 0 63 22l13 -41q-39 -30 -95 -30q-98 0 -98 122z"/>
<glyph glyph-name="Lcommaaccent" horiz-adv-x="552" unicode="Ļ" d="M535 0h-424v700h55v-648h369v-52zM276 -71l45 16q35 -8 35 -50q0 -75 -85 -97l-15 24q48 20 48 65q0 33 -28 42z"/>
<glyph glyph-name="lcommaaccent" horiz-adv-x="282" unicode="ļ" d="M126 -71l45 16q35 -8 35 -50q0 -75 -85 -97l-15 24q48 20 48 65q0 33 -28 42zM79 116v584h52v-556q0 -53 15 -77t50 -24q34 0 63 22l13 -41q-39 -30 -95 -30q-98 0 -98 122z"/>
<glyph glyph-name="Lcaron" horiz-adv-x="552" unicode="Ľ" d="M535 0h-424v700h55v-648h369v-52zM357 700h50q9 -15 9 -40q0 -49 -20.5 -85t-54.5 -52l-23 24q49 37 49 107q0 27 -10 46z"/>
<glyph glyph-name="lcaron" horiz-adv-x="282" unicode="ľ" d="M239 700h50q9 -15 9 -40q0 -49 -20.5 -85t-54.5 -52l-23 24q49 37 49 107q0 27 -10 46zM79 116v584h52v-556q0 -53 15 -77t50 -24q34 0 63 22l13 -41q-39 -30 -95 -30q-98 0 -98 122z"/>
<glyph glyph-name="Ldot" horiz-adv-x="552" unicode="Ŀ" d="M535 0h-424v700h55v-648h369v-52zM378 374q0 15 11.5 25.5t28.5 10.5q15 0 25.5 -11t10.5 -25q0 -16 -10.5 -28t-25.5 -12q-17 0 -28.5 12t-11.5 28z"/>
<glyph glyph-name="ldot" horiz-adv-x="303" unicode="ŀ" d="M224 317q0 15 11 24t26 9q13 0 23.5 -9.5t10.5 -23.5q0 -17 -10.5 -27t-23.5 -10q-16 0 -26.5 10t-10.5 27zM79 116v584h52v-556q0 -53 15 -77t50 -24q34 0 63 22l13 -41q-39 -30 -95 -30q-98 0 -98 122z"/>
<glyph glyph-name="Lslash" horiz-adv-x="562" unicode="Ł" d="M121 278l-94 -47v55l94 47v367h55v-339l187 94v-54l-187 -95v-254h369v-52h-424v278z"/>
<glyph glyph-name="lslash" horiz-adv-x="312" unicode="ł" d="M99 279l-82 -41v55l82 41v366h52v-340l113 57v-54l-113 -57v-162q0 -53 15 -77t50 -24q34 0 63 22l13 -41q-39 -30 -95 -30q-98 0 -98 122v163z"/>
<glyph glyph-name="Nacute" horiz-adv-x="797" unicode="Ń" d="M530 868l19 -44l-182 -86l-16 31zM686 700v-700h-44l-479 602v-602h-52v700h44l479 -604v604h52z"/>
<glyph glyph-name="nacute" horiz-adv-x="551" unicode="ń" d="M131 0h-52v450h52v-63q28 31 72.5 51t89.5 20q94 0 141 -49t47 -152v-257h-52v247q0 162 -148 162q-43 0 -84 -19.5t-66 -49.5v-340zM341 716l40 -31l-116 -143l-32 23z"/>
<glyph glyph-name="Ncommaaccent" horiz-adv-x="797" unicode="Ņ" d="M359 -71l45 16q35 -8 35 -50q0 -75 -85 -97l-15 24q48 20 48 65q0 33 -28 42zM686 700v-700h-44l-479 602v-602h-52v700h44l479 -604v604h52z"/>
<glyph glyph-name="ncommaaccent" horiz-adv-x="551" unicode="ņ" d="M240 -71l45 16q35 -8 35 -50q0 -75 -85 -97l-15 24q48 20 48 65q0 33 -28 42zM131 0h-52v450h52v-63q28 31 72.5 51t89.5 20q94 0 141 -49t47 -152v-257h-52v247q0 162 -148 162q-43 0 -84 -19.5t-66 -49.5v-340z"/>
<glyph glyph-name="Ncaron" horiz-adv-x="797" unicode="Ň" d="M686 700v-700h-44l-479 602v-602h-52v700h44l479 -604v604h52zM401 740h-4l-171 98l23 30l150 -83l149 83l21 -29z"/>
<glyph glyph-name="ncaron" horiz-adv-x="551" unicode="ň" d="M131 0h-52v450h52v-63q28 31 72.5 51t89.5 20q94 0 141 -49t47 -152v-257h-52v247q0 162 -148 162q-43 0 -84 -19.5t-66 -49.5v-340zM277 546h-4l-130 132l26 31l106 -111l106 111l25 -31z"/>
<glyph glyph-name="Omacron" horiz-adv-x="810" unicode="Ō" d="M558 778h-300v43h300v-43zM112 350q0 -130 84 -219q85 -88 209 -88q128 0 210 88q83 89 83 219q0 133 -85 219q-84 88 -208 88q-125 0 -209 -88q-84 -87 -84 -219zM54 350q0 153 100 256t251 103q149 0 250 -102q101 -101 101 -257q0 -153 -101 -257q-101 -102 -250 -102 q-150 0 -251 101q-100 101 -100 258z"/>
<glyph glyph-name="omacron" horiz-adv-x="567" unicode="ō" d="M412 604h-252v43h252v-43zM283 40q81 0 130 51q51 53 51 134t-51 133t-130 52q-78 0 -130 -52q-51 -52 -51 -133t51 -133t130 -52zM113 57q-66 66 -66 168t66 168t170 66t170 -66t66 -168t-66 -168t-170 -66t-170 66z"/>
<glyph glyph-name="Ohungarumlaut" horiz-adv-x="810" unicode="Ő" d="M422 868l42 -25l-158 -105l-23 22zM614 868l35 -33l-169 -97l-22 24zM112 350q0 -130 84 -219q85 -88 209 -88q128 0 210 88q83 89 83 219q0 133 -85 219q-84 88 -208 88q-125 0 -209 -88q-84 -87 -84 -219zM54 350q0 153 100 256t251 103q149 0 250 -102 q101 -101 101 -257q0 -153 -101 -257q-101 -102 -250 -102q-150 0 -251 101q-100 101 -100 258z"/>
<glyph glyph-name="ohungarumlaut" horiz-adv-x="567" unicode="ő" d="M283 40q81 0 130 51q51 53 51 134t-51 133t-130 52q-78 0 -130 -52q-51 -52 -51 -133t51 -133t130 -52zM113 57q-66 66 -66 168t66 168t170 66t170 -66t66 -168t-66 -168t-170 -66t-170 66zM280 716l38 -28l-112 -146l-32 23zM436 712l38 -29l-119 -141l-32 23z"/>
<glyph glyph-name="OE" horiz-adv-x="1045" unicode="Œ" d="M409 43q101 0 172 52v508q-73 54 -183 54q-128 0 -207 -87q-79 -85 -79 -220q0 -137 82 -222t215 -85zM978 0h-397v36q-73 -45 -176 -45q-156 0 -254 98q-97 97 -97 261q0 155 94 256q94 103 249 103q111 0 184 -46v37h387v-52h-332v-267h302v-52h-302v-277h342v-52z"/>
<glyph glyph-name="oe" horiz-adv-x="843" unicode="œ" d="M589 410q-73 0 -117.5 -41.5t-50.5 -111.5h323q-1 71 -43 112t-112 41zM283 40q72 0 124 44q-41 59 -41 141q0 83 39 142q-50 43 -122 43q-79 0 -130 -52t-51 -133t51 -133t130 -52zM753 95l17 -40q-61 -64 -166 -64q-99 0 -162 54q-63 -54 -159 -54q-104 0 -170 66 t-66 168t66 168t170 66q91 0 156 -53q59 53 154 53q87 0 146 -56t59 -147q0 -21 -4 -42h-370q3 -81 53 -127.5t131 -46.5q93 0 145 55z"/>
<glyph glyph-name="Racute" horiz-adv-x="631" unicode="Ŕ" d="M388 868l19 -44l-182 -86l-16 31zM276 650q-22 0 -110 -2v-302h121q71 0 124 43q55 43 55 111q0 150 -190 150zM166 294v-294h-55v700q45 0 91 1t77 1q245 0 245 -202q0 -72 -47 -127q-47 -53 -119 -68l245 -305h-68l-233 294h-136z"/>
<glyph glyph-name="racute" horiz-adv-x="329" unicode="ŕ" d="M131 0h-52v450h52v-60q45 68 121 68q47 0 70 -17l-18 -49q-29 17 -63 17q-67 0 -110 -73v-336zM257 716l40 -31l-116 -143l-32 23z"/>
<glyph glyph-name="Rcommaaccent" horiz-adv-x="631" unicode="Ŗ" d="M271 -71l45 16q35 -8 35 -50q0 -75 -85 -97l-15 24q48 20 48 65q0 33 -28 42zM276 650q-22 0 -110 -2v-302h121q71 0 124 43q55 43 55 111q0 150 -190 150zM166 294v-294h-55v700q45 0 91 1t77 1q245 0 245 -202q0 -72 -47 -127q-47 -53 -119 -68l245 -305h-68l-233 294 h-136z"/>
<glyph glyph-name="rcommaaccent" horiz-adv-x="329" unicode="ŗ" d="M115 -71l45 16q35 -8 35 -50q0 -75 -85 -97l-15 24q48 20 48 65q0 33 -28 42zM131 0h-52v450h52v-60q45 68 121 68q47 0 70 -17l-18 -49q-29 17 -63 17q-67 0 -110 -73v-336z"/>
<glyph glyph-name="Rcaron" horiz-adv-x="631" unicode="Ř" d="M284 740h-4l-171 98l23 30l150 -83l149 83l21 -29zM276 650q-22 0 -110 -2v-302h121q71 0 124 43q55 43 55 111q0 150 -190 150zM166 294v-294h-55v700q45 0 91 1t77 1q245 0 245 -202q0 -72 -47 -127q-47 -53 -119 -68l245 -305h-68l-233 294h-136z"/>
<glyph glyph-name="rcaron" horiz-adv-x="329" unicode="ř" d="M131 0h-52v450h52v-60q45 68 121 68q47 0 70 -17l-18 -49q-29 17 -63 17q-67 0 -110 -73v-336zM193 546h-4l-130 132l26 31l106 -111l106 111l25 -31z"/>
<glyph glyph-name="Sacute" horiz-adv-x="546" unicode="Ś" d="M401 868l19 -44l-182 -86l-16 31zM434 174q0 46 -27 79t-67 50t-87 37.5t-87 40.5t-67 59.5t-27 93.5q0 76 55 125q56 50 150 50q123 0 188 -71l-30 -41q-60 60 -156 60q-69 0 -109 -33.5t-40 -89.5q0 -45 27 -77.5t67 -48.5t87 -35.5t87 -39.5t67 -60.5t27 -97.5 q0 -82 -64 -133t-159 -51q-65 0 -128 27q-62 29 -87 74l33 38q30 -39 80 -63t101 -24q68 0 117 35q49 34 49 96z"/>
<glyph glyph-name="sacute" horiz-adv-x="418" unicode="ś" d="M312 118q0 31 -25.5 50t-62 30t-73.5 24.5t-62.5 43t-25.5 74.5q0 54 40 86.5t105 32.5q93 0 141 -50l-22 -39q-46 43 -118 43q-40 0 -65.5 -20.5t-25.5 -51.5q0 -32 25.5 -52.5t62 -32t73.5 -24.5t62.5 -41t25.5 -71q0 -61 -45.5 -95t-116.5 -34q-44 0 -92 20 q-45 19 -62 45l29 34q19 -23 57 -38q39 -15 74 -15q44 0 72.5 21.5t28.5 59.5zM275 716l40 -31l-116 -143l-32 23z"/>
<glyph glyph-name="Scircumflex" horiz-adv-x="546" unicode="Ŝ" d="M122 737l-20 30l168 98h4l170 -98l-23 -30l-149 81zM434 174q0 46 -27 79t-67 50t-87 37.5t-87 40.5t-67 59.5t-27 93.5q0 76 55 125q56 50 150 50q123 0 188 -71l-30 -41q-60 60 -156 60q-69 0 -109 -33.5t-40 -89.5q0 -45 27 -77.5t67 -48.5t87 -35.5t87 -39.5 t67 -60.5t27 -97.5q0 -82 -64 -133t-159 -51q-65 0 -128 27q-62 29 -87 74l33 38q30 -39 80 -63t101 -24q68 0 117 35q49 34 49 96z"/>
<glyph glyph-name="scircumflex" horiz-adv-x="418" unicode="ŝ" d="M312 118q0 31 -25.5 50t-62 30t-73.5 24.5t-62.5 43t-25.5 74.5q0 54 40 86.5t105 32.5q93 0 141 -50l-22 -39q-46 43 -118 43q-40 0 -65.5 -20.5t-25.5 -51.5q0 -32 25.5 -52.5t62 -32t73.5 -24.5t62.5 -41t25.5 -71q0 -61 -45.5 -95t-116.5 -34q-44 0 -92 20 q-45 19 -62 45l29 34q19 -23 57 -38q39 -15 74 -15q44 0 72.5 21.5t28.5 59.5zM211 707h4l128 -131l-25 -32l-105 105l-107 -104l-26 31z"/>
<glyph glyph-name="Scedilla" horiz-adv-x="546" unicode="Ş" d="M165 -173l17 28q42 -24 74 -24q31 0 50.5 12.5t19.5 33.5q0 47 -71 47h-6v68q-63 5 -117 31q-56 27 -78 69l33 38q30 -39 80 -63t101 -24q68 0 117 35q49 34 49 96q0 46 -27 79t-67 50t-87 37.5t-87 40.5t-67 59.5t-27 93.5q0 76 55 125q56 50 150 50q123 0 188 -71 l-30 -41q-60 60 -156 60q-69 0 -109 -33.5t-40 -89.5q0 -45 27 -77.5t67 -48.5t87 -35.5t87 -39.5t67 -60.5t27 -97.5q0 -80 -61 -131q-62 -50 -152 -53v-41q102 -3 102 -76q0 -34 -31 -55q-31 -22 -83 -22q-53 0 -102 30z"/>
<glyph glyph-name="scedilla" horiz-adv-x="418" unicode="ş" d="M102 -174l16 27q35 -22 72 -22q31 0 50.5 12.5t19.5 33.5q0 47 -71 47h-6v69q-41 4 -79 22.5t-53 40.5l29 34q19 -23 57 -38q39 -15 74 -15q44 0 72.5 21.5t28.5 59.5q0 31 -25.5 50t-62 30t-73.5 24.5t-62.5 43t-25.5 74.5q0 54 40 86.5t105 32.5q93 0 141 -50l-22 -39 q-46 43 -118 43q-40 0 -65.5 -20.5t-25.5 -51.5q0 -32 25.5 -52.5t62 -32t73.5 -24.5t62.5 -41t25.5 -71q0 -59 -43 -93t-111 -36v-41q99 -3 99 -76q0 -34 -31 -55.5t-84 -21.5q-46 0 -95 29z"/>
<glyph glyph-name="Scaron" horiz-adv-x="546" unicode="Š" d="M281 740h-4l-171 98l23 30l150 -83l149 83l21 -29zM434 174q0 46 -27 79t-67 50t-87 37.5t-87 40.5t-67 59.5t-27 93.5q0 76 55 125q56 50 150 50q123 0 188 -71l-30 -41q-60 60 -156 60q-69 0 -109 -33.5t-40 -89.5q0 -45 27 -77.5t67 -48.5t87 -35.5t87 -39.5t67 -60.5 t27 -97.5q0 -82 -64 -133t-159 -51q-65 0 -128 27q-62 29 -87 74l33 38q30 -39 80 -63t101 -24q68 0 117 35q49 34 49 96z"/>
<glyph glyph-name="scaron" horiz-adv-x="418" unicode="š" d="M312 118q0 31 -25.5 50t-62 30t-73.5 24.5t-62.5 43t-25.5 74.5q0 54 40 86.5t105 32.5q93 0 141 -50l-22 -39q-46 43 -118 43q-40 0 -65.5 -20.5t-25.5 -51.5q0 -32 25.5 -52.5t62 -32t73.5 -24.5t62.5 -41t25.5 -71q0 -61 -45.5 -95t-116.5 -34q-44 0 -92 20 q-45 19 -62 45l29 34q19 -23 57 -38q39 -15 74 -15q44 0 72.5 21.5t28.5 59.5zM211 546h-4l-130 132l26 31l106 -111l106 111l25 -31z"/>
<glyph glyph-name="Tcedilla" horiz-adv-x="593" unicode="Ţ" d="M198 -173l17 28q42 -24 74 -24q31 0 50.5 12.5t19.5 33.5q0 47 -71 47h-6v76h-13v648h-259v52h573v-52h-259v-648h-12v-50q102 -3 102 -76q0 -34 -31 -55q-31 -22 -83 -22t-102 30z"/>
<glyph glyph-name="tcedilla" horiz-adv-x="348" unicode="ţ" d="M82 -174l16 27q35 -22 72 -22q31 0 50.5 12.5t19.5 33.5q0 47 -71 47h-6v76q-94 24 -94 171v404h52v-125h181v-49h-181v-222q0 -136 101 -136q40 0 72 24l17 -41q-41 -32 -101 -32q-14 0 -17 1v-45q99 -3 99 -76q0 -34 -31 -55.5t-84 -21.5q-46 0 -95 29z"/>
<glyph glyph-name="Tcaron" horiz-adv-x="593" unicode="Ť" d="M269 648h-259v52h573v-52h-259v-648h-55v648zM298 740h-4l-171 98l23 30l150 -83l149 83l21 -29z"/>
<glyph glyph-name="tcaron" horiz-adv-x="348" unicode="ť" d="M243 700h50q9 -15 9 -40q0 -49 -20.5 -85t-54.5 -52l-23 24q49 37 49 107q0 27 -10 46zM69 171v404h52v-125h181v-49h-181v-222q0 -136 101 -136q40 0 72 24l17 -41q-41 -32 -101 -32q-141 0 -141 177z"/>
<glyph glyph-name="Umacron" horiz-adv-x="751" unicode="Ū" d="M528 778h-300v43h300v-43zM595 700h55v-407q0 -151 -75 -226t-190 -75q-127 0 -206 79q-78 79 -78 229v400h55v-390q0 -125 61.5 -195.5t167.5 -70.5q98 0 154 67t56 194v395z"/>
<glyph glyph-name="umacron" horiz-adv-x="544" unicode="ū" d="M396 604h-252v43h252v-43zM412 450h52v-450h-52v71q-28 -35 -74.5 -57.5t-96.5 -22.5q-172 0 -172 198v261h52v-250q0 -160 139 -160q42 0 84.5 22.5t67.5 55.5v332z"/>
<glyph glyph-name="Ubreve" horiz-adv-x="751" unicode="Ŭ" d="M210 837l24 27q57 -67 143 -67q85 0 140 67l21 -28q-25 -38 -68 -61.5t-93 -23.5q-58 0 -103 27q-45 28 -64 59zM595 700h55v-407q0 -151 -75 -226t-190 -75q-127 0 -206 79q-78 79 -78 229v400h55v-390q0 -125 61.5 -195.5t167.5 -70.5q98 0 154 67t56 194v395z"/>
<glyph glyph-name="ubreve" horiz-adv-x="544" unicode="ŭ" d="M412 450h52v-450h-52v71q-28 -35 -74.5 -57.5t-96.5 -22.5q-172 0 -172 198v261h52v-250q0 -160 139 -160q42 0 84.5 22.5t67.5 55.5v332zM130 654l24 27q56 -65 118 -65q65 0 117 64l20 -26q-59 -81 -139 -81q-89 0 -140 81z"/>
<glyph glyph-name="Uring" horiz-adv-x="751" unicode="Ů" d="M304 785q0 -29 19.5 -44.5t52.5 -15.5q32 0 52 16t20 44q0 57 -72 57t-72 -57zM264 785q0 43 30 65.5t81 22.5q52 0 82.5 -22.5t30.5 -65.5q0 -42 -31.5 -66.5t-81.5 -24.5q-49 0 -80 24.5t-31 66.5zM595 700h55v-407q0 -151 -75 -226t-190 -75q-127 0 -206 79 q-78 79 -78 229v400h55v-390q0 -125 61.5 -195.5t167.5 -70.5q98 0 154 67t56 194v395z"/>
<glyph glyph-name="uring" horiz-adv-x="544" unicode="ů" d="M219 665q-20 -20 -20 -51t20 -51q21 -21 51 -21q29 0 50 21t21 51t-21 51q-22 22 -50 22q-29 0 -51 -22zM269 718q45 0 76 -30.5t31 -73.5t-31 -73t-76 -30q-44 0 -74.5 30t-30.5 73t30.5 73.5t74.5 30.5zM412 450h52v-450h-52v71q-28 -35 -74.5 -57.5t-96.5 -22.5 q-172 0 -172 198v261h52v-250q0 -160 139 -160q42 0 84.5 22.5t67.5 55.5v332z"/>
<glyph glyph-name="Uhungarumlaut" horiz-adv-x="751" unicode="Ű" d="M379 868l42 -25l-158 -105l-23 22zM571 868l35 -33l-169 -97l-22 24zM595 700h55v-407q0 -151 -75 -226t-190 -75q-127 0 -206 79q-78 79 -78 229v400h55v-390q0 -125 61.5 -195.5t167.5 -70.5q98 0 154 67t56 194v395z"/>
<glyph glyph-name="uhungarumlaut" horiz-adv-x="544" unicode="ű" d="M412 450h52v-450h-52v71q-28 -35 -74.5 -57.5t-96.5 -22.5q-172 0 -172 198v261h52v-250q0 -160 139 -160q42 0 84.5 22.5t67.5 55.5v332zM267 716l38 -28l-112 -146l-32 23zM423 712l38 -29l-119 -141l-32 23z"/>
<glyph glyph-name="Uogonek" horiz-adv-x="751" unicode="Ų" d="M595 700h55v-407q0 -125 -53 -200t-145 -94q-84 -35 -84 -92q0 -33 21.5 -48.5t51.5 -15.5q25 0 45 9l16 -33q-28 -19 -73 -19q-49 0 -81 23t-32 68q0 64 79 101h-10q-127 0 -206 79q-78 79 -78 229v400h55v-390q0 -125 61.5 -195.5t167.5 -70.5q98 0 154 67t56 194v395z "/>
<glyph glyph-name="uogonek" horiz-adv-x="544" unicode="ų" d="M455 -148l16 -33q-28 -19 -73 -19q-49 0 -81 23t-32 68q0 44 35.5 75t91.5 43v62q-28 -35 -74.5 -57.5t-96.5 -22.5q-172 0 -172 198v261h52v-250q0 -160 139 -160q42 0 84.5 22.5t67.5 55.5v332h52v-450q-49 0 -88 -27t-39 -66q0 -33 21.5 -48.5t51.5 -15.5q26 0 45 9z "/>
<glyph glyph-name="Ydieresis" horiz-adv-x="584" unicode="Ÿ" d="M372 804q0 15 11.5 23.5t27.5 8.5q15 0 25 -9t10 -23q0 -15 -10 -24.5t-25 -9.5q-17 0 -28 9t-11 25zM139 804q0 15 11 23.5t27 8.5q15 0 25.5 -9t10.5 -23q0 -15 -10.5 -24.5t-25.5 -9.5q-16 0 -27 9.5t-11 24.5zM509 700h61l-252 -394v-306h-55v306l-249 394h64 l215 -342z"/>
<glyph glyph-name="Zacute" horiz-adv-x="629" unicode="Ź" d="M439 868l19 -44l-182 -86l-16 31zM501 648h-441v52h519v-35l-463 -613h473v-52h-549v35z"/>
<glyph glyph-name="zacute" horiz-adv-x="481" unicode="ź" d="M358 401h-296v49h372v-34l-312 -367h307v-49h-382v34zM310 716l40 -31l-116 -143l-32 23z"/>
<glyph glyph-name="Zdotaccent" horiz-adv-x="629" unicode="Ż" d="M271 806q0 15 11.5 25.5t27.5 10.5q15 0 26.5 -10.5t11.5 -25.5q0 -17 -11 -27t-27 -10q-17 0 -28 10t-11 27zM501 648h-441v52h519v-35l-463 -613h473v-52h-549v35z"/>
<glyph glyph-name="zdotaccent" horiz-adv-x="481" unicode="ż" d="M203 625q0 15 11 24t26 9q13 0 23.5 -9.5t10.5 -23.5q0 -17 -9.5 -27t-24.5 -10q-16 0 -26.5 10t-10.5 27zM358 401h-296v49h372v-34l-312 -367h307v-49h-382v34z"/>
<glyph glyph-name="Zcaron" horiz-adv-x="629" unicode="Ž" d="M501 648h-441v52h519v-35l-463 -613h473v-52h-549v35zM318 740h-4l-171 98l23 30l150 -83l149 83l21 -29z"/>
<glyph glyph-name="zcaron" horiz-adv-x="481" unicode="ž" d="M358 401h-296v49h372v-34l-312 -367h307v-49h-382v34zM246 546h-4l-130 132l26 31l106 -111l106 111l25 -31z"/>
<glyph glyph-name="longs" horiz-adv-x="254" unicode="ſ" d="M145 0h-52v523q0 186 155 186q73 0 117 -38l-20 -40q-37 29 -89 29q-111 0 -111 -146v-514z"/>
<glyph glyph-name="uni018F" horiz-adv-x="778" unicode="Ə" d="M389 43q126 0 203 80q75 78 83 208h-561q5 -124 78 -206q75 -82 197 -82zM57 383h616q-9 127 -91 200q-82 74 -212 74q-113 0 -187 -59l-22 41q79 70 221 70q160 0 254 -97q96 -96 96 -259q0 -159 -93 -261q-93 -101 -248 -101q-157 0 -250 109q-85 102 -85 257 q0 4 0.5 12.5t0.5 13.5z"/>
<glyph glyph-name="florin" horiz-adv-x="589" unicode="ƒ" d="M357 514l-12 -64h165v-49h-174l-77 -434q-16 -91 -52.5 -133t-106.5 -42q-58 0 -92 28l16 42q32 -21 65 -21q51 0 78.5 32t39.5 100l76 428h-156v49h165l13 73q18 98 58 142t112 44q73 0 116 -38l-19 -40q-38 29 -89 29q-54 0 -83 -34t-43 -112z"/>
<glyph glyph-name="uni01DD" horiz-adv-x="524" unicode="ǝ" d="M258 40q71 0 116 45q46 46 47 115h-323q0 -77 42 -118.5t118 -41.5zM92 355l-17 40q29 30 76.5 47t96.5 17q106 0 167 -64q61 -62 61 -170q0 -101 -59 -168q-59 -66 -163 -66q-92 0 -151 56t-59 147q0 28 4 49h370q-1 71 -49 119q-47 48 -124 48q-44 0 -86.5 -15.5 t-66.5 -39.5z"/>
<glyph glyph-name="Scommaaccent" horiz-adv-x="546" unicode="Ș" d="M237 -71l45 16q35 -8 35 -50q0 -75 -85 -97l-15 24q48 20 48 65q0 33 -28 42zM434 174q0 46 -27 79t-67 50t-87 37.5t-87 40.5t-67 59.5t-27 93.5q0 76 55 125q56 50 150 50q123 0 188 -71l-30 -41q-60 60 -156 60q-69 0 -109 -33.5t-40 -89.5q0 -45 27 -77.5t67 -48.5 t87 -35.5t87 -39.5t67 -60.5t27 -97.5q0 -82 -64 -133t-159 -51q-65 0 -128 27q-62 29 -87 74l33 38q30 -39 80 -63t101 -24q68 0 117 35q49 34 49 96z"/>
<glyph glyph-name="scommaaccent" horiz-adv-x="418" unicode="ș" d="M177 -71l45 16q35 -8 35 -50q0 -75 -85 -97l-15 24q48 20 48 65q0 33 -28 42zM312 118q0 31 -25.5 50t-62 30t-73.5 24.5t-62.5 43t-25.5 74.5q0 54 40 86.5t105 32.5q93 0 141 -50l-22 -39q-46 43 -118 43q-40 0 -65.5 -20.5t-25.5 -51.5q0 -32 25.5 -52.5t62 -32 t73.5 -24.5t62.5 -41t25.5 -71q0 -61 -45.5 -95t-116.5 -34q-44 0 -92 20q-45 19 -62 45l29 34q19 -23 57 -38q39 -15 74 -15q44 0 72.5 21.5t28.5 59.5z"/>
<glyph glyph-name="Tcommaaccent" horiz-adv-x="593" unicode="Ț" d="M261 -71l45 16q35 -8 35 -50q0 -75 -85 -97l-15 24q48 20 48 65q0 33 -28 42zM269 648h-259v52h573v-52h-259v-648h-55v648z"/>
<glyph glyph-name="tcommaaccent" horiz-adv-x="348" unicode="ț" d="M153 -71l45 16q35 -8 35 -50q0 -75 -85 -97l-15 24q48 20 48 65q0 33 -28 42zM69 171v404h52v-125h181v-49h-181v-222q0 -136 101 -136q40 0 72 24l17 -41q-41 -32 -101 -32q-141 0 -141 177z"/>
<glyph glyph-name="uni0237" horiz-adv-x="260" unicode="ȷ" d="M107 450h52v-483q0 -175 -141 -175q-58 0 -92 28l16 42q31 -21 65 -21q100 0 100 130v479z"/>
<glyph glyph-name="uni0259" horiz-adv-x="524" unicode="ə" d="M258 40q71 0 116 45q46 46 47 115h-323q0 -77 42 -118.5t118 -41.5zM92 355l-17 40q29 30 76.5 47t96.5 17q106 0 167 -64q61 -62 61 -170q0 -101 -59 -168q-59 -66 -163 -66q-92 0 -151 56t-59 147q0 28 4 49h370q-1 71 -49 119q-47 48 -124 48q-44 0 -86.5 -15.5 t-66.5 -39.5z"/>
<glyph glyph-name="afii57929" horiz-adv-x="218" unicode="ʼ" d="M89 631l43 28q26 -31 26 -73q0 -91 -74 -132l-24 25q49 28 49 96q0 36 -20 56z"/>
<glyph glyph-name="circumflex" horiz-adv-x="383" unicode="ˆ" d="M191 707h4l128 -131l-25 -32l-105 105l-107 -104l-26 31z"/>
<glyph glyph-name="caron" horiz-adv-x="383" unicode="ˇ" d="M194 546h-4l-130 132l26 31l106 -111l106 111l25 -31z"/>
<glyph glyph-name="breve" horiz-adv-x="399" unicode="˘" d="M60 654l24 27q56 -65 118 -65q65 0 117 64l20 -26q-59 -81 -139 -81q-89 0 -140 81z"/>
<glyph glyph-name="dotaccent" horiz-adv-x="191" unicode="˙" d="M60 625q0 15 11 24t26 9q13 0 23.5 -9.5t10.5 -23.5q0 -17 -10.5 -27t-23.5 -10q-16 0 -26.5 10t-10.5 27z"/>
<glyph glyph-name="ring" horiz-adv-x="332" unicode="˚" d="M115 665q-20 -20 -20 -51t20 -51q21 -21 51 -21q29 0 50 21t21 51t-21 51q-22 22 -50 22q-29 0 -51 -22zM165 718q45 0 76 -30.5t31 -73.5t-31 -73t-76 -30q-44 0 -74.5 30t-30.5 73t30.5 73.5t74.5 30.5z"/>
<glyph glyph-name="ogonek" horiz-adv-x="306" unicode="˛" d="M230 -148l16 -33q-28 -19 -73 -19q-49 0 -81 23t-32 68q0 56 55 90q55 33 124 33v-14q-49 0 -88 -27t-39 -66q0 -33 21.5 -48.5t51.5 -15.5q25 0 45 9z"/>
<glyph glyph-name="tilde" horiz-adv-x="425" unicode="˜" d="M83 573l-23 25q52 52 101 52q23 0 57 -23q35 -23 54 -23q30 0 74 38l19 -27q-53 -54 -98 -54q-21 0 -56 23q-34 23 -56 23q-29 0 -72 -34z"/>
<glyph glyph-name="hungarumlaut" horiz-adv-x="420" unicode="˝" d="M166 716l38 -28l-112 -146l-32 23zM322 712l38 -29l-119 -141l-32 23z"/>
<glyph glyph-name="gravecomb" horiz-adv-x="0" unicode="̀" d="M-230 565l-33 -23l-116 142l41 31z"/>
<glyph glyph-name="acutecomb" horiz-adv-x="0" unicode="́" d="M-207 716l40 -31l-116 -143l-32 23z"/>
<glyph glyph-name="uni0394" horiz-adv-x="714" unicode="Δ" d="M597 52l-245 562l-238 -562h483zM680 0h-646l303 708h33z"/>
<glyph glyph-name="uni0394" horiz-adv-x="714" unicode="∆" d="M597 52l-245 562l-238 -562h483zM680 0h-646l303 708h33z"/>
<glyph glyph-name="uni03A9" horiz-adv-x="811" unicode="Ω" d="M344 0h-264v52h179q-84 28 -143 114q-58 85 -58 196q0 152 100 249q101 98 248 98q148 0 248 -98q100 -97 100 -249q0 -114 -58 -197q-59 -85 -144 -113h179v-52h-264v52q102 24 165 108q64 83 64 194q0 129 -82 215q-82 88 -208 88q-127 0 -209 -88q-81 -87 -81 -216 q0 -107 63 -193q65 -86 165 -108v-52z"/>
<glyph glyph-name="uni03A9" horiz-adv-x="811" unicode="Ω" d="M344 0h-264v52h179q-84 28 -143 114q-58 85 -58 196q0 152 100 249q101 98 248 98q148 0 248 -98q100 -97 100 -249q0 -114 -58 -197q-59 -85 -144 -113h179v-52h-264v52q102 24 165 108q64 83 64 194q0 129 -82 215q-82 88 -208 88q-127 0 -209 -88q-81 -87 -81 -216 q0 -107 63 -193q65 -86 165 -108v-52z"/>
<glyph glyph-name="pi" horiz-adv-x="641" unicode="π" d="M153 401h-103v49h537v-49h-100v-271q0 -48 10.5 -67.5t37.5 -19.5q30 0 59 22l13 -41q-39 -30 -91 -30q-81 0 -81 108v299h-231v-73q0 -131 -21 -206q-20 -72 -53.5 -99t-91.5 -27l-4 51h3q52 0 83 58q30 58 32 210z"/>
<glyph glyph-name="afii10023" horiz-adv-x="575" unicode="Ё" d="M508 0h-397v700h387v-52h-332v-267h302v-52h-302v-277h342v-52zM388 804q0 15 11.5 23.5t27.5 8.5q15 0 25 -9t10 -23q0 -15 -10 -24.5t-25 -9.5q-17 0 -28 9t-11 25zM155 804q0 15 11 23.5t27 8.5q15 0 25.5 -9t10.5 -23q0 -15 -10.5 -24.5t-25.5 -9.5q-16 0 -27 9.5 t-11 24.5z"/>
<glyph glyph-name="afii10051" horiz-adv-x="760" unicode="Ђ" d="M706 204q0 -107 -44.5 -160t-124.5 -53q-28 0 -55.5 10t-39.5 22l20 43q32 -23 69 -23q120 0 120 160q0 168 -163 168q-51 0 -98 -20q-14 -5 -36 -18q-1 0 -3 -1.5t-5.5 -4t-7.5 -4.5q-11 -6 -14 -9v-314h-55v648h-259v52h573v-52h-259v-282q82 57 175 57q207 0 207 -219 z"/>
<glyph glyph-name="afii10052" horiz-adv-x="503" unicode="Ѓ" d="M442 868l19 -44l-182 -86l-16 31zM166 0h-55v700h386v-52h-331v-648z"/>
<glyph glyph-name="afii10053" horiz-adv-x="680" unicode="Є" d="M110 383h371v-52h-372q8 -133 92 -210q85 -78 217 -78q106 0 198 66l23 -45q-95 -73 -226 -73q-160 0 -260 98q-99 97 -99 261q0 158 96 258q98 101 254 101q142 0 221 -70l-25 -41q-74 59 -187 59q-130 0 -211 -75q-82 -76 -92 -199z"/>
<glyph glyph-name="afii10054" horiz-adv-x="546" unicode="Ѕ" d="M434 174q0 46 -27 79t-67 50t-87 37.5t-87 40.5t-67 59.5t-27 93.5q0 76 55 125q56 50 150 50q123 0 188 -71l-30 -41q-60 60 -156 60q-69 0 -109 -33.5t-40 -89.5q0 -45 27 -77.5t67 -48.5t87 -35.5t87 -39.5t67 -60.5t27 -97.5q0 -82 -64 -133t-159 -51q-65 0 -128 27 q-62 29 -87 74l33 38q30 -39 80 -63t101 -24q68 0 117 35q49 34 49 96z"/>
<glyph glyph-name="afii10055" horiz-adv-x="325" unicode="І" d="M190 0h-55v700h55v-700z"/>
<glyph glyph-name="afii10056" horiz-adv-x="325" unicode="Ї" d="M190 0h-55v700h55v-700zM203 804q0 14 10 23t25 9q13 0 22.5 -9t9.5 -23q0 -15 -9.5 -24.5t-22.5 -9.5q-15 0 -25 9.5t-10 24.5zM56 804q0 14 10 23t24 9q13 0 23 -9t10 -23q0 -15 -10 -24.5t-23 -9.5q-14 0 -24 9.5t-10 24.5z"/>
<glyph glyph-name="afii10057" horiz-adv-x="361" unicode="Ј" d="M195 700h55v-546q0 -163 -140 -163q-59 0 -96 32l20 43q32 -23 69 -23q50 0 71 29.5t21 89.5v538z"/>
<glyph glyph-name="afii10058" horiz-adv-x="1033" unicode="Љ" d="M716 377q-54 0 -103 -6v-318q90 -3 99 -3q102 0 155.5 43t53.5 127q0 75 -53 116t-152 41zM558 0v648h-294l-12 -132q-23 -265 -71 -390q-19 -54 -48 -84q-40 -43 -87 -43q-12 0 -19 1l1 55h7q34 0 64 38q23 29 41 79q43 122 62 388l10 140h401v-276q80 5 106 5 q128 0 194 -54t66 -154q0 -107 -71.5 -165t-201.5 -58q-47 0 -80 1t-68 1z"/>
<glyph glyph-name="afii10059" horiz-adv-x="1068" unicode="Њ" d="M648 358v-305q93 -3 99 -3q102 0 155.5 41.5t53.5 122.5q0 73 -52 111.5t-153 38.5q-53 0 -103 -6zM166 0h-55v700h55v-292h427v292h55v-289q80 5 106 5q128 0 194 -52.5t66 -149.5q0 -104 -71.5 -160t-201.5 -56q-38 0 -65 1t-57 1h-26v356h-427v-356z"/>
<glyph glyph-name="afii10060" horiz-adv-x="760" unicode="Ћ" d="M269 648h-259v52h573v-52h-259v-283q79 58 182 58q94 0 147 -56.5t53 -167.5v-199h-55v187q0 184 -159 184q-78 0 -168 -57v-314h-55v648z"/>
<glyph glyph-name="afii10061" horiz-adv-x="637" unicode="Ќ" d="M460 868l19 -44l-182 -86l-16 31zM166 0h-55v700h55v-700zM528 700h67l-331 -331l345 -369h-71l-339 365z"/>
<glyph glyph-name="afii10062" horiz-adv-x="652" unicode="Ў" d="M161 852h52q35 -71 125 -71q43 0 77 19.5t44 51.5h52q-10 -48 -60 -80q-49 -31 -113 -31q-67 0 -115.5 31t-61.5 80zM579 700h56l-244 -542q-37 -84 -74.5 -121t-87.5 -37q-48 0 -77 23l20 47q28 -19 56 -19q57 0 99 88l13 28l-323 533h62l288 -478z"/>
<glyph glyph-name="afii10145" horiz-adv-x="756" unicode="Џ" d="M351 0h-240v700h55v-648h424v648h55v-700h-242v-157h-52v157z"/>
<glyph glyph-name="afii10017" horiz-adv-x="697" unicode="А" d="M492 290l-145 340l-146 -340h291zM77 0h-56l305 706h45l305 -706h-59l-102 238h-336z"/>
<glyph glyph-name="afii10018" horiz-adv-x="610" unicode="Б" d="M282 365q-64 0 -116 -6v-307q99 -3 110 -3q101 0 153 42t52 121q0 73 -51 113t-148 40zM111 0v700h386v-52h-331v-237q62 6 118 6q121 0 186.5 -53t65.5 -149q0 -105 -70 -161.5t-198 -56.5q-17 0 -87 2q-35 1 -70 1z"/>
<glyph glyph-name="afii10019" horiz-adv-x="617" unicode="В" d="M293 651q-43 0 -127 -3v-266h136q69 0 113 37q46 37 46 100q0 132 -168 132zM299 333h-133v-280q100 -4 130 -4q93 0 142.5 38t49.5 112q0 64 -49 99t-140 35zM111 1v698q139 4 184 4q221 0 221 -173q0 -64 -37 -106.5t-99 -57.5v-2q78 -9 120.5 -52.5t42.5 -115.5 q0 -98 -66.5 -148.5t-182.5 -50.5q-110 0 -183 4z"/>
<glyph glyph-name="afii10020" horiz-adv-x="503" unicode="Г" d="M166 0h-55v700h386v-52h-331v-648z"/>
<glyph glyph-name="afii10021" horiz-adv-x="743" unicode="Д" d="M273 648l-8 -128q-13 -190 -48 -312q-34 -120 -64 -156h406v596h-286zM69 -134h-52v186h75q34 44 72 171q39 133 49 337l7 140h394v-648h95v-186h-52v134h-588v-134z"/>
<glyph glyph-name="afii10022" horiz-adv-x="575" unicode="Е" d="M508 0h-397v700h387v-52h-332v-267h302v-52h-302v-277h342v-52z"/>
<glyph glyph-name="afii10024" horiz-adv-x="918" unicode="Ж" d="M28 0l310 365l-299 335h65l295 -335l-306 -365h-65zM486 0h-55v700h55v-700zM814 700h65l-299 -334l310 -366h-65l-306 365z"/>
<glyph glyph-name="afii10025" horiz-adv-x="573" unicode="З" d="M265 -9q-69 0 -130 30q-63 31 -91 73l31 37q33 -39 86 -63.5t100 -24.5q83 0 133 42.5t50 115.5q0 60 -40 95.5t-109 35.5h-87v52h81q50 0 89 40t39 100q0 63 -40 98t-107 35q-103 0 -174 -80l-32 35q36 45 91.5 71t118.5 26q91 0 144.5 -48.5t53.5 -132.5 q0 -51 -28.5 -96.5t-77.5 -68.5v-3q61 -9 97 -54.5t36 -109.5q0 -95 -67 -150t-167 -55z"/>
<glyph glyph-name="afii10026" horiz-adv-x="797" unicode="И" d="M631 610l-471 -610h-49v700h55v-610l471 610h49v-700h-55v610z"/>
<glyph glyph-name="afii10027" horiz-adv-x="797" unicode="Й" d="M224 852h52q36 -71 125 -71q43 0 77 19.5t44 51.5h52q-10 -48 -60 -80q-49 -31 -113 -31q-67 0 -115.5 31t-61.5 80zM631 610l-471 -610h-49v700h55v-610l471 610h49v-700h-55v610z"/>
<glyph glyph-name="afii10028" horiz-adv-x="637" unicode="К" d="M166 0h-55v700h55v-700zM528 700h67l-331 -331l345 -369h-71l-339 365z"/>
<glyph glyph-name="afii10029" horiz-adv-x="724" unicode="Л" d="M613 0h-55v648h-294l-12 -132q-23 -265 -71 -390q-19 -54 -48 -84q-40 -43 -87 -43q-12 0 -19 1l1 55h7q34 0 64 38q23 29 41 79q43 122 62 388l10 140h401v-700z"/>
<glyph glyph-name="afii10030" horiz-adv-x="884" unicode="М" d="M166 0h-55v700h56l282 -384l271 384h53v-700h-55v614l-269 -378h-9l-274 375v-611z"/>
<glyph glyph-name="afii10031" horiz-adv-x="769" unicode="Н" d="M658 0h-55v331h-437v-331h-55v700h55v-317h437v317h55v-700z"/>
<glyph glyph-name="afii10032" horiz-adv-x="810" unicode="О" d="M112 350q0 -130 84 -219q85 -88 209 -88q128 0 210 88q83 89 83 219q0 133 -85 219q-84 88 -208 88q-125 0 -209 -88q-84 -87 -84 -219zM54 350q0 153 100 256t251 103q149 0 250 -102q101 -101 101 -257q0 -153 -101 -257q-101 -102 -250 -102q-150 0 -251 101 q-100 101 -100 258z"/>
<glyph glyph-name="afii10033" horiz-adv-x="766" unicode="П" d="M655 0h-55v648h-434v-648h-55v700h544v-700z"/>
<glyph glyph-name="afii10034" horiz-adv-x="585" unicode="Р" d="M287 650q-33 0 -121 -2v-314q72 -5 114 -5q92 0 142.5 44t50.5 119q0 74 -46.5 116t-139.5 42zM166 281v-281h-55v700q41 0 85 1t86 1q70 0 120.5 -18t77.5 -49t39 -66.5t12 -77.5q0 -91 -63 -152q-64 -62 -186 -62q-69 0 -116 4z"/>
<glyph glyph-name="afii10035" horiz-adv-x="656" unicode="С" d="M600 109l22 -41q-36 -36 -94.5 -56.5t-122.5 -20.5q-156 0 -254 98q-97 97 -97 261q0 155 94 256q94 103 249 103q133 0 212 -66l-26 -41q-71 55 -185 55q-128 0 -207 -87q-79 -85 -79 -220q0 -137 82 -222t215 -85q110 0 191 66z"/>
<glyph glyph-name="afii10036" horiz-adv-x="593" unicode="Т" d="M269 648h-259v52h573v-52h-259v-648h-55v648z"/>
<glyph glyph-name="afii10037" horiz-adv-x="652" unicode="У" d="M579 700h56l-244 -542q-37 -84 -74.5 -121t-87.5 -37q-48 0 -77 23l20 47q28 -19 56 -19q57 0 99 88l13 28l-323 533h62l288 -478z"/>
<glyph glyph-name="afii10038" horiz-adv-x="830" unicode="Ф" d="M102 360q0 -109 76 -167q77 -59 204 -59h4v452h-2q-130 0 -206 -60q-76 -58 -76 -166zM445 586h-4v-452h7q130 0 205 58.5t75 167.5q0 107 -75.5 166.5t-207.5 59.5zM441 -8h-55v91h-5q-153 0 -245 73q-92 74 -92 204t92 204q92 73 249 73h1v71h55v-71h2q158 0 250 -74 q93 -73 93 -203t-93 -204q-92 -73 -245 -73h-7v-91z"/>
<glyph glyph-name="afii10039" horiz-adv-x="660" unicode="Х" d="M557 700h66l-257 -344l266 -356h-66l-236 314l-237 -314h-65l267 356l-256 344h65l227 -302z"/>
<glyph glyph-name="afii10040" horiz-adv-x="779" unicode="Ц" d="M693 0h-582v700h55v-648h429v648h55v-648h95v-186h-52v134z"/>
<glyph glyph-name="afii10041" horiz-adv-x="636" unicode="Ч" d="M470 700h55v-700h-55v321q-86 -59 -199 -59q-96 0 -152 56.5t-56 167.5v214h55v-202q0 -91 43.5 -137.5t123.5 -46.5q90 0 185 59v327z"/>
<glyph glyph-name="afii10042" horiz-adv-x="993" unicode="Ш" d="M882 0h-771v700h55v-648h303v648h55v-648h303v648h55v-700z"/>
<glyph glyph-name="afii10043" horiz-adv-x="1011" unicode="Щ" d="M925 0h-814v700h55v-648h303v648h55v-648h303v648h55v-648h95v-186h-52v134z"/>
<glyph glyph-name="afii10044" horiz-adv-x="666" unicode="Ъ" d="M346 377q-60 0 -110 -6v-318q90 -3 106 -3q103 0 157.5 43.5t54.5 126.5q0 76 -53.5 116.5t-154.5 40.5zM181 648h-178v52h233v-276q80 5 113 5q130 0 196.5 -54t66.5 -154q0 -107 -72.5 -165t-203.5 -58q-48 0 -83 1t-72 1v648z"/>
<glyph glyph-name="afii10045" horiz-adv-x="829" unicode="Ы" d="M111 700h55v-276q80 5 106 5q128 0 194 -54t66 -154q0 -107 -72 -165t-201 -58q-47 0 -80 1t-68 1v700zM269 377q-53 0 -103 -6v-318q93 -3 99 -3q102 0 155.5 43t53.5 127q0 76 -52.5 116.5t-152.5 40.5zM718 0h-55v700h55v-700z"/>
<glyph glyph-name="afii10046" horiz-adv-x="596" unicode="Ь" d="M111 700h55v-276q80 5 113 5q130 0 196.5 -54t66.5 -154q0 -107 -72.5 -165t-203.5 -58q-48 0 -83 1t-72 1v700zM276 377q-60 0 -110 -6v-318q93 -3 106 -3q103 0 157.5 43.5t54.5 126.5q0 76 -53.5 116.5t-154.5 40.5z"/>
<glyph glyph-name="afii10047" horiz-adv-x="680" unicode="Э" d="M570 331h-372v52h372q-10 127 -92 200q-83 74 -214 74q-113 0 -187 -59l-23 41q79 70 222 70q158 0 254 -97q96 -96 96 -259q0 -159 -97 -260q-97 -102 -256 -102q-137 0 -232 73l25 45q93 -66 206 -66q129 0 209 79q81 78 89 209z"/>
<glyph glyph-name="afii10048" horiz-adv-x="1076" unicode="Ю" d="M401 350q0 -131 80 -220q79 -87 201 -87q128 0 204 87q78 87 78 220q0 134 -79 220q-80 87 -203 87q-122 0 -202 -87q-79 -86 -79 -220zM166 0h-55v700h55v-317h178q11 141 104 233q94 93 233 93q149 0 245 -101q96 -100 96 -258q0 -155 -96 -257t-245 -102 q-141 0 -236 95q-94 96 -102 245h-177v-331z"/>
<glyph glyph-name="afii10049" horiz-adv-x="615" unicode="Я" d="M286 326h163v322q-84 3 -110 3q-92 0 -143 -46.5t-51 -122.5q0 -60 42 -104q43 -43 99 -52zM504 0h-55v274h-156l-199 -274h-63l208 282q-65 21 -108 73q-44 53 -44 124q0 98 67 161q68 63 195 63q6 0 80 -2q37 -1 75 -1v-700z"/>
<glyph glyph-name="afii10065" horiz-adv-x="459" unicode="а" d="M199 43q84 0 138 71v75q-49 36 -117 36q-51 0 -86 -25t-35 -69q0 -40 28 -64t72 -24zM93 375l-14 43q67 41 143 41q88 0 127.5 -44t39.5 -136v-279h-52v69q-55 -75 -154 -75q-63 0 -101 36.5t-38 97.5q0 66 48 103q47 37 123 37t122 -34q0 70 -10 107q-8 36 -32.5 51 t-75.5 18q-61 0 -126 -35z"/>
<glyph glyph-name="afii10066" horiz-adv-x="555" unicode="б" d="M101 259q0 -101 49 -160t128 -59q76 0 125 52q50 53 50 127q0 81 -46 130t-125 49q-72 0 -121 -42q-48 -42 -60 -97zM435 710l29 -39q-23 -33 -56 -45q-41 -12 -87 -19q-52 -7 -94 -26q-115 -49 -129 -256h2q23 55 77 88.5t117 33.5q98 0 156 -61.5t58 -164.5 q0 -95 -65 -163q-64 -67 -163 -67q-106 0 -171 74q-63 74 -63 203q0 296 165 363q42 17 93 25q60 10 86 19.5t45 34.5z"/>
<glyph glyph-name="afii10067" horiz-adv-x="481" unicode="в" d="M230 404q-33 0 -99 -2v-152h119q49 0 77 21.5t28 57.5q0 75 -125 75zM239 207h-108v-159q78 -2 101 -2q140 0 140 83q0 78 -133 78zM79 0v450q33 0 64 1q64 2 81 2q186 0 186 -116q0 -39 -24.5 -67.5t-66.5 -35.5v-2q108 -16 108 -108q0 -127 -201 -127q-13 0 -79 2 q-33 1 -68 1z"/>
<glyph glyph-name="afii10068" horiz-adv-x="353" unicode="г" d="M131 0h-52v450h271v-49h-219v-401z"/>
<glyph glyph-name="afii10069" horiz-adv-x="525" unicode="д" d="M195 401l-6 -98q-8 -92 -28 -160q-19 -66 -40 -94h260v352h-186zM59 -114h-49v163h56q26 33 46.5 107t26.5 167l7 127h287v-401h75v-163h-49v114h-400v-114z"/>
<glyph glyph-name="afii10070" horiz-adv-x="524" unicode="е" d="M270 410q-72 0 -116.5 -42t-51.5 -111h324q-1 71 -43 112t-113 41zM435 95l17 -40q-61 -64 -166 -64q-108 0 -173 64q-66 65 -66 170q0 102 60 168q61 66 168 66q87 0 146 -56q58 -55 58 -147q0 -24 -3 -42h-371q3 -81 53 -127.5t131 -46.5q94 0 146 55z"/>
<glyph glyph-name="afii10072" horiz-adv-x="655" unicode="ж" d="M21 0l189 234l-180 216h64l174 -216l-184 -234h-63zM352 0h-52v450h52v-450zM559 450h63l-180 -216l192 -234h-63l-187 234z"/>
<glyph glyph-name="afii10073" horiz-adv-x="458" unicode="з" d="M218 -9q-46 0 -102 17q-53 16 -75 43l27 40q26 -24 65.5 -37.5t76.5 -13.5q63 0 101 25t38 67q0 35 -28 55t-76 20h-76v43h71q38 0 65 24t27 58q0 38 -30 58t-84 20q-79 0 -141 -50l-21 40q57 59 169 59q77 0 119.5 -31.5t42.5 -86.5q0 -79 -81 -108v-2q46 -4 72 -33.5 t26 -72.5q0 -62 -51 -98t-135 -36z"/>
<glyph glyph-name="afii10074" horiz-adv-x="562" unicode="и" d="M431 375l-300 -375h-52v450h52v-375l300 375h52v-450h-52v375z"/>
<glyph glyph-name="afii10075" horiz-adv-x="562" unicode="й" d="M148 684h47q0 -37 26 -62.5t67 -25.5q39 0 64 25.5t25 62.5h47q0 -55 -38 -91.5t-98 -36.5q-64 0 -102 35.5t-38 92.5zM431 375l-300 -375h-52v450h52v-375l300 375h52v-450h-52v375z"/>
<glyph glyph-name="afii10076" horiz-adv-x="484" unicode="к" d="M131 0h-52v450h52v-450zM379 450h67l-222 -215l240 -235h-70l-233 232z"/>
<glyph glyph-name="afii10077" horiz-adv-x="527" unicode="л" d="M448 0h-52v398h-190l-6 -98q-13 -190 -63 -252q-40 -52 -99 -52l-4 51q26 0 49 24q55 51 67 239l7 140h291v-450z"/>
<glyph glyph-name="afii10078" horiz-adv-x="622" unicode="м" d="M131 0h-52v450h49l187 -251l180 251h47v-450h-52v371l-175 -243h-3l-181 243v-371z"/>
<glyph glyph-name="afii10079" horiz-adv-x="554" unicode="н" d="M475 0h-52v204h-292v-204h-52v450h52v-197h292v197h52v-450z"/>
<glyph glyph-name="afii10080" horiz-adv-x="567" unicode="о" d="M283 40q81 0 130 51q51 53 51 134t-51 133t-130 52q-78 0 -130 -52q-51 -52 -51 -133t51 -133t130 -52zM113 57q-66 66 -66 168t66 168t170 66t170 -66t66 -168t-66 -168t-170 -66t-170 66z"/>
<glyph glyph-name="afii10081" horiz-adv-x="549" unicode="п" d="M470 0h-52v401h-287v-401h-52v450h391v-450z"/>
<glyph glyph-name="afii10082" horiz-adv-x="554" unicode="р" d="M282 410q-44 0 -85.5 -20t-65.5 -50v-259q62 -41 140 -41q80 0 130 53t50 136t-45 132t-124 49zM131 -200h-52v650h52v-60q27 30 72.5 49.5t92.5 19.5q96 0 153 -63t57 -164q0 -105 -64 -173q-65 -68 -167 -68q-91 0 -144 38v-229z"/>
<glyph glyph-name="afii10083" horiz-adv-x="490" unicode="с" d="M429 102l26 -38q-27 -35 -72.5 -54t-97.5 -19q-105 0 -172 64q-66 65 -66 170q0 99 64 166q65 68 160 68q116 0 175 -56l-25 -42q-53 49 -142 49q-72 0 -125 -53q-52 -52 -52 -132q0 -84 53 -135q53 -50 134 -50q87 0 140 62z"/>
<glyph glyph-name="afii10084" horiz-adv-x="436" unicode="т" d="M192 398h-179v52h410v-52h-179v-398h-52v398z"/>
<glyph glyph-name="afii10085" horiz-adv-x="481" unicode="у" d="M408 450h59l-182 -450q-49 -119 -85 -158q-36 -42 -84 -42q-37 0 -77 23l17 40q31 -15 53 -15q34 0 61 29.5t56 98.5l10 24l-222 450h62l154 -318l32 -70q1 4 25 72z"/>
<glyph glyph-name="afii10086" horiz-adv-x="665" unicode="ф" d="M375 410h-17v-370h13q89 0 140 50.5t51 134.5q0 77 -51 131q-49 54 -136 54zM102 225q0 -81 51 -134q53 -51 141 -51h12v370h-17q-86 0 -137 -53q-50 -53 -50 -132zM358 -200h-52v191h-15q-111 0 -178 65q-66 66 -66 169q0 96 66 165q67 69 177 69h16v241h52v-241h17 q108 0 175 -67q67 -66 67 -167q0 -102 -65 -169q-65 -65 -177 -65h-17v-191z"/>
<glyph glyph-name="afii10087" horiz-adv-x="495" unicode="х" d="M393 450h61l-169 -218l179 -232h-64l-154 199l-154 -199h-61l179 230l-169 220h64l143 -186z"/>
<glyph glyph-name="afii10088" horiz-adv-x="559" unicode="ц" d="M493 0h-414v450h52v-401h284v401h52v-401h75v-163h-49v114z"/>
<glyph glyph-name="afii10089" horiz-adv-x="475" unicode="ч" d="M344 450h52v-450h-52v190q-56 -38 -135 -38q-158 0 -158 169v129h55v-125q0 -124 117 -124q71 0 121 36v213z"/>
<glyph glyph-name="afii10090" horiz-adv-x="705" unicode="ш" d="M625 0h-546v450h52v-401h195v401h52v-401h195v401h52v-450z"/>
<glyph glyph-name="afii10091" horiz-adv-x="717" unicode="щ" d="M651 0h-572v450h52v-401h195v401h52v-401h195v401h52v-401h75v-163h-49v114z"/>
<glyph glyph-name="afii10092" horiz-adv-x="500" unicode="ъ" d="M272 250h-78v-201h77q70 0 101.5 25t31.5 76q0 100 -132 100zM142 401h-139v49h191v-151h87q178 0 178 -148q0 -70 -45.5 -110.5t-139.5 -40.5h-132v401z"/>
<glyph glyph-name="afii10093" horiz-adv-x="621" unicode="ы" d="M542 0h-52v450h52v-450zM200 250h-69v-201h68q71 0 102 25t31 76q0 100 -132 100zM203 0h-124v450h52v-151h78q178 0 178 -148q0 -70 -45 -110.5t-139 -40.5z"/>
<glyph glyph-name="afii10094" horiz-adv-x="437" unicode="ь" d="M209 250h-78v-201h77q70 0 101.5 25t31.5 76q0 100 -132 100zM211 0h-132v450h52v-151h87q178 0 178 -148q0 -70 -45.5 -110.5t-139.5 -40.5z"/>
<glyph glyph-name="afii10095" horiz-adv-x="491" unicode="э" d="M390 208h-238v43h237q-7 75 -56.5 117t-126.5 42q-90 0 -146 -56l-23 39q29 30 75 48t93 18q106 0 171 -64q67 -64 67 -170q0 -100 -64 -167t-160 -67q-119 0 -177 55l25 39q51 -45 148 -45q73 0 121.5 46t53.5 122z"/>
<glyph glyph-name="afii10096" horiz-adv-x="750" unicode="ю" d="M352 356q-47 -50 -47 -131q0 -80 47 -132q48 -50 123 -50t122 50q47 52 47 132q0 81 -47 131q-47 51 -122 51t-123 -51zM134 0h-55v450h55v-194h114q11 92 71 146q61 57 154 57q101 0 165 -66q64 -65 64 -168t-64 -168q-64 -66 -165 -66q-95 0 -157 59q-62 60 -69 154 h-113v-204z"/>
<glyph glyph-name="afii10097" horiz-adv-x="477" unicode="я" d="M130 307q0 -40 31 -65t66 -25h119v184h-91q-62 0 -93.5 -25.5t-31.5 -68.5zM264 450h134v-450h-52v168h-112l-129 -168h-64l142 180q-45 7 -76.5 42.5t-31.5 85.5q0 65 47 103.5t142 38.5z"/>
<glyph glyph-name="afii10071" horiz-adv-x="524" unicode="ё" d="M339 618q0 15 9.5 24t24.5 9q12 0 21.5 -9.5t9.5 -23.5q0 -15 -9.5 -25t-21.5 -10q-15 0 -24.5 9.5t-9.5 25.5zM131 618q0 15 9.5 24t24.5 9q12 0 21.5 -9.5t9.5 -23.5q0 -15 -9.5 -25t-21.5 -10q-15 0 -24.5 9.5t-9.5 25.5zM270 410q-72 0 -116.5 -42t-51.5 -111h324 q-1 71 -43 112t-113 41zM435 95l17 -40q-61 -64 -166 -64q-108 0 -173 64q-66 65 -66 170q0 102 60 168q61 66 168 66q87 0 146 -56q58 -55 58 -147q0 -24 -3 -42h-371q3 -81 53 -127.5t131 -46.5q94 0 146 55z"/>
<glyph glyph-name="afii10099" horiz-adv-x="601" unicode="ђ" d="M143 482h-140v43h140v175h52v-175h198v-43h-198v-178q28 30 72 49t89 19q189 0 189 -201q0 -119 -46 -218q-47 -102 -132 -153h-59q97 62 140 158q45 96 45 200q0 165 -148 165q-43 0 -84.5 -19.5t-65.5 -49.5v-254h-52v482z"/>
<glyph glyph-name="afii10100" horiz-adv-x="353" unicode="ѓ" d="M293 716l40 -31l-116 -143l-32 23zM131 0h-52v450h271v-49h-219v-401z"/>
<glyph glyph-name="afii10101" horiz-adv-x="490" unicode="є" d="M100 251h238v-43h-239q6 -78 58 -123t131 -45q87 0 138 45l22 -39q-58 -55 -169 -55q-102 0 -167 65q-65 67 -65 169q0 105 66 170q67 64 172 64q47 0 93 -18t75 -48l-23 -39q-56 56 -146 56q-76 0 -126 -42.5t-58 -116.5z"/>
<glyph glyph-name="afii10102" horiz-adv-x="418" unicode="ѕ" d="M312 118q0 31 -25.5 50t-62 30t-73.5 24.5t-62.5 43t-25.5 74.5q0 54 40 86.5t105 32.5q93 0 141 -50l-22 -39q-46 43 -118 43q-40 0 -65.5 -20.5t-25.5 -51.5q0 -32 25.5 -52.5t62 -32t73.5 -24.5t62.5 -41t25.5 -71q0 -61 -45.5 -95t-116.5 -34q-44 0 -92 20 q-45 19 -62 45l29 34q19 -23 57 -38q39 -15 74 -15q44 0 72.5 21.5t28.5 59.5z"/>
<glyph glyph-name="afii10103" horiz-adv-x="261" unicode="і" d="M95 625q0 15 11 24t26 9q13 0 23.5 -9.5t10.5 -23.5q0 -17 -9.5 -27t-24.5 -10q-16 0 -26.5 10t-10.5 27zM156 0h-52v450h52v-450z"/>
<glyph glyph-name="afii10104" horiz-adv-x="276" unicode="ї" d="M163 0h-52v450h52v-450zM173 617q0 13 9 21.5t22 8.5q12 0 20.5 -8.5t8.5 -21.5q0 -14 -8.5 -22.5t-20.5 -8.5q-13 0 -22 8.5t-9 22.5zM44 617q0 13 9 21.5t22 8.5q11 0 20 -8.5t9 -21.5q0 -14 -8.5 -22.5t-20.5 -8.5q-13 0 -22 8.5t-9 22.5z"/>
<glyph glyph-name="afii10105" horiz-adv-x="264" unicode="ј" d="M97 625q0 15 11 24t26 9q13 0 23.5 -9.5t10.5 -23.5q0 -17 -9.5 -27t-24.5 -10q-16 0 -26.5 10t-10.5 27zM107 450h52v-483q0 -175 -141 -175q-58 0 -92 28l16 42q31 -21 65 -21q100 0 100 130v479z"/>
<glyph glyph-name="afii10106" horiz-adv-x="742" unicode="љ" d="M514 250h-66v-201h65q70 0 101.5 25t31.5 76q0 100 -132 100zM516 0h-120v398h-190l-6 -98q-13 -190 -63 -252q-40 -52 -99 -52l-4 51q26 0 49 24q55 51 67 239l7 140h291v-151h75q178 0 178 -148q0 -70 -45.5 -110.5t-139.5 -40.5z"/>
<glyph glyph-name="afii10107" horiz-adv-x="769" unicode="њ" d="M541 236h-66v-187h65q72 0 102.5 22.5t30.5 71.5q0 48 -31.5 70.5t-100.5 22.5zM131 0h-52v450h52v-183h292v183h52v-165h75q178 0 178 -141q0 -144 -185 -144h-120v218h-292v-218z"/>
<glyph glyph-name="afii10108" horiz-adv-x="601" unicode="ћ" d="M143 482h-140v43h140v175h52v-175h198v-43h-198v-178q28 30 72 49t89 19q189 0 189 -202v-170h-52v162q0 161 -148 161q-43 0 -84.5 -19.5t-65.5 -49.5v-254h-52v482z"/>
<glyph glyph-name="afii10109" horiz-adv-x="484" unicode="ќ" d="M311 716l40 -31l-116 -143l-32 23zM131 0h-52v450h52v-450zM379 450h67l-222 -215l240 -235h-70l-233 232z"/>
<glyph glyph-name="afii10110" horiz-adv-x="481" unicode="ў" d="M108 684h47q0 -37 26 -62.5t67 -25.5q39 0 64 25.5t25 62.5h47q0 -55 -38 -91.5t-98 -36.5q-64 0 -102 35.5t-38 92.5zM408 450h59l-182 -450q-49 -119 -85 -158q-36 -42 -84 -42q-37 0 -77 23l17 40q31 -15 53 -15q34 0 61 29.5t56 98.5l10 24l-222 450h62l154 -318 l32 -70q1 4 25 72z"/>
<glyph glyph-name="afii10193" horiz-adv-x="539" unicode="џ" d="M245 0h-166v450h52v-401h277v401h52v-450h-166v-131h-49v131z"/>
<glyph glyph-name="afii10146" horiz-adv-x="632" unicode="Ѣ" d="M312 365q-60 0 -110 -6v-306q90 -3 106 -3q212 0 212 164q0 151 -208 151zM147 700h55v-116h165v-52h-165v-120q80 5 113 5q263 0 263 -202q0 -106 -71.5 -161.5t-204.5 -55.5q-48 0 -83 1t-72 1v532h-141v52h141v116z"/>
<glyph glyph-name="afii10194" horiz-adv-x="498" unicode="ѣ" d="M279 232h-85v-183h84q65 0 94.5 23t29.5 69q0 91 -123 91zM142 401h-139v49h139v250h52v-250h160v-49h-160v-120h85q178 0 178 -143q0 -138 -185 -138h-130v401z"/>
<glyph glyph-name="afii10147" horiz-adv-x="810" unicode="Ѳ" d="M548 334q37 0 77.5 18t69.5 43q-15 114 -96 188q-82 74 -194 74q-123 0 -207 -85q-83 -86 -86 -214q79 63 164 63q58 0 138 -44q80 -43 134 -43zM274 372q-42 0 -86 -22q-44 -21 -73 -47q15 -113 96 -187q82 -73 194 -73q125 0 207 85q83 86 86 213q-80 -56 -154 -56 q-58 0 -137 43q-80 44 -133 44zM54 350q0 153 100 256t251 103q149 0 250 -102q101 -101 101 -257q0 -153 -101 -257q-101 -102 -250 -102q-150 0 -251 101q-100 101 -100 258z"/>
<glyph glyph-name="afii10195" horiz-adv-x="567" unicode="ѳ" d="M395 211q35 0 69 24q-5 77 -55 126q-49 49 -126 49q-69 0 -118 -41t-60 -108q41 26 81 26q41 0 109 -38t100 -38zM185 238q-43 0 -83 -32q6 -73 56 -120q50 -46 125 -46q68 0 116 39t61 103q-35 -20 -70 -20q-39 0 -106 38t-99 38zM113 57q-66 66 -66 168t66 168t170 66 t170 -66t66 -168t-66 -168t-170 -66t-170 66z"/>
<glyph glyph-name="afii10148" horiz-adv-x="657" unicode="Ѵ" d="M535 508l-184 -514h-39l-301 706h59l263 -620l162 466q39 111 77 140q24 19 57 19q21 0 48 -8l-9 -48q-19 7 -32 7q-24 0 -41 -20q-25 -30 -60 -128z"/>
<glyph glyph-name="afii10196" horiz-adv-x="479" unicode="ѵ" d="M386 304l-121 -310h-36l-218 456h61l136 -283q24 -56 40 -96l35 99l64 166q33 86 64 108q16 12 41 12q20 0 47 -9l-9 -48q-13 7 -26 7q-21 0 -38 -23.5t-40 -78.5z"/>
<glyph glyph-name="afii10050" horiz-adv-x="503" unicode="Ґ" d="M166 0h-55v700h334v131h52v-183h-331v-648z"/>
<glyph glyph-name="afii10098" horiz-adv-x="353" unicode="ґ" d="M131 0h-52v450h222v111h49v-160h-219v-401z"/>
<glyph glyph-name="uni1E9E" horiz-adv-x="620" unicode="ẞ" d="M505 164q0 51 -44 108q-17 21 -50 51q-26 24 -58 48q-41 31 -67 49l136 199q-43 38 -111 38q-67 0 -106 -40.5t-39 -118.5v-501h-55v504q0 100 55 154t148 54q102 0 177 -76l-139 -196q103 -71 157 -138t54 -142q0 -72 -50 -119t-114 -47q-86 0 -152 60l27 42l32 -26 q33 -24 81 -24q46 0 82 33q36 35 36 88z"/>
<glyph glyph-name="uni2010" horiz-adv-x="399" unicode="‐" d="M314 247h-229v49h229v-49z"/>
<glyph glyph-name="uni2011" horiz-adv-x="399" unicode="‑" d="M314 247h-229v49h229v-49z"/>
<glyph glyph-name="figuredash" horiz-adv-x="590" unicode="‒" d="M496 331h-402v46h402v-46z"/>
<glyph glyph-name="endash" horiz-adv-x="590" unicode="–" d="M496 247h-402v46h402v-46z"/>
<glyph glyph-name="emdash" horiz-adv-x="796" unicode="—" d="M702 247h-608v46h608v-46z"/>
<glyph glyph-name="afii00208" horiz-adv-x="796" unicode="―" d="M702 247h-608v46h608v-46z"/>
<glyph glyph-name="quoteleft" horiz-adv-x="238" unicode="‘" d="M148 553l-43 -27q-26 29 -26 72q0 91 74 132l24 -24q-49 -31 -49 -96q0 -34 20 -57z"/>
<glyph glyph-name="quoteright" horiz-adv-x="238" unicode="’" d="M90 701l43 28q26 -31 26 -73q0 -91 -74 -132l-24 25q49 28 49 96q0 36 -20 56z"/>
<glyph glyph-name="quotesinglbase" horiz-adv-x="238" unicode="‚" d="M90 36l43 28q26 -31 26 -73q0 -91 -74 -132l-24 25q49 28 49 96q0 36 -20 56z"/>
<glyph glyph-name="quotedblleft" horiz-adv-x="369" unicode="“" d="M148 553l-43 -27q-26 29 -26 72q0 91 74 132l24 -24q-49 -31 -49 -96q0 -34 20 -57zM279 553l-43 -27q-26 29 -26 72q0 91 74 132l24 -24q-49 -31 -49 -96q0 -34 20 -57z"/>
<glyph glyph-name="quotedblright" horiz-adv-x="369" unicode="”" d="M90 701l43 28q26 -31 26 -73q0 -91 -74 -132l-24 25q49 28 49 96q0 36 -20 56zM221 701l43 28q26 -31 26 -73q0 -91 -74 -132l-24 25q49 28 49 96q0 36 -20 56z"/>
<glyph glyph-name="quotedblbase" horiz-adv-x="369" unicode="„" d="M90 36l43 28q26 -31 26 -73q0 -91 -74 -132l-24 25q49 28 49 96q0 36 -20 56zM221 36l43 28q26 -31 26 -73q0 -91 -74 -132l-24 25q49 28 49 96q0 36 -20 56z"/>
<glyph glyph-name="dagger" horiz-adv-x="433" unicode="†" d="M192 422h-152v46h152v232h49v-232h152v-46h-152v-522h-49v522z"/>
<glyph glyph-name="daggerdbl" horiz-adv-x="433" unicode="‡" d="M192 422h-152v46h152v232h49v-232h152v-46h-152v-214h152v-46h-152v-262h-49v262h-152v46h152v214z"/>
<glyph glyph-name="bullet" horiz-adv-x="186" unicode="•" d="M51 220q-17 17 -17 42q0 24 17 41q18 18 42 18q23 0 41 -18t18 -41q0 -24 -18 -42q-17 -17 -41 -17q-25 0 -42 17z"/>
<glyph glyph-name="ellipsis" horiz-adv-x="840" unicode="…" d="M82 38q0 15 11.5 25.5t28.5 10.5q15 0 25.5 -11t10.5 -25q0 -16 -10.5 -28t-25.5 -12q-17 0 -28.5 12t-11.5 28zM382 38q0 15 11.5 25.5t28.5 10.5q15 0 25.5 -11t10.5 -25q0 -16 -10.5 -28t-25.5 -12q-17 0 -28.5 12t-11.5 28zM682 38q0 15 11.5 25.5t28.5 10.5 q15 0 25.5 -11t10.5 -25q0 -16 -10.5 -28t-25.5 -12q-17 0 -28.5 12t-11.5 28z"/>
<glyph glyph-name="perthousand" horiz-adv-x="1264" unicode="‰" d="M504 159q0 -53 36 -87q38 -33 87 -33q52 0 87.5 34t35.5 86t-37 85q-35 34 -86 34q-50 0 -87 -34q-36 -33 -36 -85zM504 42q-49 46 -49 117t49 116q49 46 123 46t123 -46q49 -45 49 -116t-49 -117t-123 -46t-123 46zM100 542q0 -52 36 -87q38 -33 87 -33q52 0 87.5 34 t35.5 86t-37 85q-35 34 -86 34q-50 0 -87 -34q-36 -33 -36 -85zM100 425q-49 46 -49 117t49 116q49 46 123 46t123 -46q49 -45 49 -116t-49 -117t-123 -46t-123 46zM182 -9l-31 22l521 696l31 -22zM918 159q0 -53 36 -87q38 -33 87 -33q52 0 87.5 34t35.5 86t-37 85 q-35 34 -86 34q-50 0 -87 -34q-36 -33 -36 -85zM918 42q-49 46 -49 117t49 116q49 46 123 46t123 -46q49 -45 49 -116t-49 -117t-123 -46t-123 46z"/>
<glyph glyph-name="guilsinglleft" horiz-adv-x="332" unicode="‹" d="M265 69l-34 -32l-180 211v4l182 209l34 -30l-156 -181z"/>
<glyph glyph-name="guilsinglright" horiz-adv-x="332" unicode="›" d="M281 252v-4l-180 -211l-35 32l155 181l-156 181l34 30z"/>
<glyph glyph-name="fraction" horiz-adv-x="192" unicode="⁄" d="M-149 -9l-31 22l521 696l31 -22z"/>
<glyph glyph-name="uni2070" horiz-adv-x="373" unicode="⁰" d="M187 386q93 0 93 139q0 66 -24 102q-24 37 -70 37t-70 -37q-23 -38 -23 -102q0 -65 25 -102t69 -37zM44 525q0 81 37.5 130t104.5 49q68 0 106 -50q37 -49 37 -129t-37 -129q-36 -50 -105 -50q-68 0 -105.5 48.5t-37.5 130.5z"/>
<glyph glyph-name="uni2074" horiz-adv-x="337" unicode="⁴" d="M255 350h-43v87h-195v29l179 234h45l-175 -226h146v101h43v-101h62v-37h-62v-87z"/>
<glyph glyph-name="uni2075" horiz-adv-x="329" unicode="⁵" d="M71 524l23 176h194v-37h-162l-16 -104q24 7 50 7q59 0 94.5 -28.5t35.5 -76.5q0 -52 -37.5 -84t-95.5 -32q-93 0 -130 58l26 25q31 -46 97 -46q40 0 65.5 21.5t25.5 55.5q0 33 -28.5 53t-76.5 20q-39 0 -65 -8z"/>
<glyph glyph-name="uni2076" horiz-adv-x="369" unicode="⁶" d="M91 472q1 -38 29 -64t75 -26q36 0 61 22t25 52q0 34 -24.5 55t-66.5 21q-35 0 -62 -17.5t-37 -42.5zM42 478q0 90 67 154t157 73l10 -32q-70 -10 -120 -53t-64 -109q16 24 45.5 39.5t66.5 15.5q57 0 91.5 -30t34.5 -78t-40 -81q-40 -32 -95 -32q-72 0 -112.5 37t-40.5 96 z"/>
<glyph glyph-name="uni2077" horiz-adv-x="300" unicode="⁷" d="M225 660h-205v40h259v-27l-160 -323h-51z"/>
<glyph glyph-name="uni2078" horiz-adv-x="379" unicode="⁸" d="M47 441q0 32 22 56t60 32v2q-30 8 -49 31t-19 52q0 41 36 66t92 25q57 0 93 -25t36 -66q0 -28 -19 -50.5t-52 -32.5v-1q38 -5 61.5 -28.5t23.5 -57.5q0 -45 -40 -72t-102 -27t-102.5 26.5t-40.5 69.5zM198 513h-15q-37 0 -63.5 -18.5t-26.5 -45.5q0 -30 27 -48.5 t69 -18.5t69.5 18.5t27.5 48.5q0 29 -25 46.5t-63 17.5zM181 547h17q30 0 52 17.5t22 42.5q0 26 -24.5 43.5t-58.5 17.5t-58 -17t-24 -44q0 -25 22 -42.5t52 -17.5z"/>
<glyph glyph-name="uni2079" horiz-adv-x="369" unicode="⁹" d="M277 575q-1 40 -28.5 66.5t-74.5 26.5q-36 0 -61 -22t-25 -52q0 -34 24.5 -56.5t65.5 -22.5q36 0 62.5 17.5t36.5 42.5zM326 567q0 -94 -65 -156q-65 -61 -165 -66l-7 33q79 7 132 53q54 47 55 108q-13 -26 -43 -42t-68 -16q-56 0 -91 30.5t-35 78.5q0 50 39 82 q39 33 95 33q74 0 113.5 -37t39.5 -101z"/>
<glyph glyph-name="uni207A" horiz-adv-x="360" unicode="⁺" d="M160 511h-113v37h113v113h37v-113h116v-37h-116v-113h-37v113z"/>
<glyph glyph-name="uni207B" horiz-adv-x="360" unicode="⁻" d="M313 511h-266v37h266v-37z"/>
<glyph glyph-name="uni207C" horiz-adv-x="360" unicode="⁼" d="M313 577h-266v37h266v-37zM313 445h-266v37h266v-37z"/>
<glyph glyph-name="uni207D" horiz-adv-x="195" unicode="⁽" d="M185 334l-28 -27q-63 35 -95 93t-32 123q0 131 128 215l25 -26q-107 -74 -107 -189q0 -57 29 -107t80 -82z"/>
<glyph glyph-name="uni207E" horiz-adv-x="195" unicode="⁾" d="M10 711l28 27q63 -35 95 -93t32 -123q0 -129 -128 -215l-25 26q107 72 107 189q0 57 -28 106.5t-81 82.5z"/>
<glyph glyph-name="uni2080" horiz-adv-x="373" unicode="₀" d="M187 36q93 0 93 139q0 66 -24 102q-24 37 -70 37t-70 -37q-23 -38 -23 -102q0 -65 25 -102t69 -37zM44 175q0 81 37.5 130t104.5 49q68 0 106 -50q37 -49 37 -129t-37 -129q-36 -50 -105 -50q-68 0 -105.5 48.5t-37.5 130.5z"/>
<glyph glyph-name="uni2081" horiz-adv-x="239" unicode="₁" d="M46 253l-19 32l99 67h32v-352h-46v297z"/>
<glyph glyph-name="uni2082" horiz-adv-x="339" unicode="₂" d="M307 0h-268v34l31 22l40 28q4 4 35 28q26 19 38 33l27 32q29 32 29 69q0 30 -20 49t-54 19q-30 0 -54 -17.5t-28 -45.5l-40 13q7 41 42 65.5t83 24.5q58 0 89 -28.5t31 -75.5q0 -99 -187 -210h206v-40z"/>
<glyph glyph-name="uni2083" horiz-adv-x="342" unicode="₃" d="M164 -5q-100 0 -133 67l28 24q13 -24 40 -38t60 -14q41 0 65.5 18.5t24.5 48.5q0 26 -22.5 43t-59.5 17h-36v34h32q29 0 50 18.5t21 45.5t-20.5 42t-55.5 15q-66 0 -92 -48l-24 25q32 62 125 62q54 0 85 -23.5t31 -64.5q0 -29 -19 -52t-52 -33v-1q39 -4 62.5 -27.5 t23.5 -56.5q0 -45 -38 -73.5t-96 -28.5z"/>
<glyph glyph-name="uni2084" horiz-adv-x="337" unicode="₄" d="M255 0h-43v87h-195v29l179 234h45l-175 -226h146v101h43v-101h62v-37h-62v-87z"/>
<glyph glyph-name="uni2085" horiz-adv-x="329" unicode="₅" d="M71 174l23 176h194v-37h-162l-16 -104q24 7 50 7q59 0 94.5 -28.5t35.5 -76.5q0 -52 -37.5 -84t-95.5 -32q-93 0 -130 58l26 25q31 -46 97 -46q40 0 65.5 21.5t25.5 55.5q0 33 -28.5 53t-76.5 20q-39 0 -65 -8z"/>
<glyph glyph-name="uni2086" horiz-adv-x="369" unicode="₆" d="M91 122q1 -38 29 -64t75 -26q36 0 61 22t25 52q0 34 -24.5 55t-66.5 21q-35 0 -62 -17.5t-37 -42.5zM42 128q0 90 67 154t157 73l10 -32q-70 -10 -120 -53t-64 -109q16 24 45.5 39.5t66.5 15.5q57 0 91.5 -30t34.5 -78t-40 -81q-40 -32 -95 -32q-72 0 -112.5 37t-40.5 96 z"/>
<glyph glyph-name="uni2087" horiz-adv-x="300" unicode="₇" d="M225 310h-205v40h259v-27l-160 -323h-51z"/>
<glyph glyph-name="uni2088" horiz-adv-x="379" unicode="₈" d="M47 91q0 32 22 56t60 32v2q-30 8 -49 31t-19 52q0 41 36 66t92 25q57 0 93 -25t36 -66q0 -28 -19 -50.5t-52 -32.5v-1q38 -5 61.5 -28.5t23.5 -57.5q0 -45 -40 -72t-102 -27t-102.5 26.5t-40.5 69.5zM198 163h-15q-37 0 -63.5 -18.5t-26.5 -45.5q0 -30 27 -48.5t69 -18.5 t69.5 18.5t27.5 48.5q0 29 -25 46.5t-63 17.5zM181 197h17q30 0 52 17.5t22 42.5q0 26 -24.5 43.5t-58.5 17.5t-58 -17t-24 -44q0 -25 22 -42.5t52 -17.5z"/>
<glyph glyph-name="uni2089" horiz-adv-x="369" unicode="₉" d="M277 225q-1 40 -28.5 66.5t-74.5 26.5q-36 0 -61 -22t-25 -52q0 -34 24.5 -56.5t65.5 -22.5q36 0 62.5 17.5t36.5 42.5zM326 217q0 -94 -65 -156q-65 -61 -165 -66l-7 33q79 7 132 53q54 47 55 108q-13 -26 -43 -42t-68 -16q-56 0 -91 30.5t-35 78.5q0 50 39 82 q39 33 95 33q74 0 113.5 -37t39.5 -101z"/>
<glyph glyph-name="uni208A" horiz-adv-x="360" unicode="₊" d="M160 161h-113v37h113v113h37v-113h116v-37h-116v-113h-37v113z"/>
<glyph glyph-name="uni208B" horiz-adv-x="360" unicode="₋" d="M313 161h-266v37h266v-37z"/>
<glyph glyph-name="uni208C" horiz-adv-x="360" unicode="₌" d="M313 227h-266v37h266v-37zM313 95h-266v37h266v-37z"/>
<glyph glyph-name="uni208D" horiz-adv-x="195" unicode="₍" d="M185 -16l-28 -27q-63 35 -95 93t-32 123q0 131 128 215l25 -26q-107 -74 -107 -189q0 -57 29 -107t80 -82z"/>
<glyph glyph-name="uni208E" horiz-adv-x="195" unicode="₎" d="M10 361l28 27q63 -35 95 -93t32 -123q0 -129 -128 -215l-25 26q107 72 107 189q0 57 -28 106.5t-81 82.5z"/>
<glyph glyph-name="Euro" horiz-adv-x="589" unicode="€" d="M102 420h-83l17 43h76q32 111 116 178q86 68 207 68q82 0 137 -29l-20 -48q-49 25 -116 25q-95 0 -165 -52t-99 -142h335l-15 -43h-331q-6 -34 -6 -70q0 -28 3 -53h302l-14 -43h-279q26 -98 101 -155q77 -56 180 -56q65 0 104 21l10 -51q-35 -22 -118 -22q-129 0 -220 70 q-90 70 -117 193h-87l17 43h63q-3 25 -3 53t5 70z"/>
<glyph glyph-name="uni20B4" horiz-adv-x="600" unicode="₴" d="M357 421h-280v43h315q28 45 28 89t-33 74t-82 30q-90 0 -147 -57l-27 39q61 70 174 70q80 0 127 -40.5t47 -107.5q0 -54 -35 -97h79v-43h-107q-28 -28 -87 -64q-63 -39 -84 -59h278v-43h-317q-39 -41 -39 -96q0 -53 41.5 -84.5t104.5 -31.5q102 0 157 79l29 -36 q-30 -46 -80.5 -70.5t-113.5 -24.5q-80 0 -135 43t-55 117q0 58 38 104h-76v43h108q29 27 86 62q65 41 86 61z"/>
<glyph glyph-name="uni20B6" horiz-adv-x="600" unicode="₶" d="M312 650q-33 0 -121 -2v-288h114q95 0 144 37.5t49 107.5q0 145 -186 145zM136 317h-112v43h112v340q41 0 85 1t86 1q249 0 249 -193q0 -89 -63.5 -140.5t-185.5 -51.5h-116v-123h181v-43h-181v-151h-55v151h-112v43h112v123z"/>
<glyph glyph-name="uni20B6" horiz-adv-x="600" unicode="⃏" d="M312 650q-33 0 -121 -2v-288h114q95 0 144 37.5t49 107.5q0 145 -186 145zM136 317h-112v43h112v340q41 0 85 1t86 1q249 0 249 -193q0 -89 -63.5 -140.5t-185.5 -51.5h-116v-123h181v-43h-181v-151h-55v151h-112v43h112v123z"/>
<glyph glyph-name="uni20B6" horiz-adv-x="600" unicode="⃎" d="M312 650q-33 0 -121 -2v-288h114q95 0 144 37.5t49 107.5q0 145 -186 145zM136 317h-112v43h112v340q41 0 85 1t86 1q249 0 249 -193q0 -89 -63.5 -140.5t-185.5 -51.5h-116v-123h181v-43h-181v-151h-55v151h-112v43h112v123z"/>
<glyph glyph-name="uni20B6" horiz-adv-x="600" unicode="⃍" d="M312 650q-33 0 -121 -2v-288h114q95 0 144 37.5t49 107.5q0 145 -186 145zM136 317h-112v43h112v340q41 0 85 1t86 1q249 0 249 -193q0 -89 -63.5 -140.5t-185.5 -51.5h-116v-123h181v-43h-181v-151h-55v151h-112v43h112v123z"/>
<glyph glyph-name="uni20B6" horiz-adv-x="600" unicode="⃌" d="M312 650q-33 0 -121 -2v-288h114q95 0 144 37.5t49 107.5q0 145 -186 145zM136 317h-112v43h112v340q41 0 85 1t86 1q249 0 249 -193q0 -89 -63.5 -140.5t-185.5 -51.5h-116v-123h181v-43h-181v-151h-55v151h-112v43h112v123z"/>
<glyph glyph-name="uni20B6" horiz-adv-x="600" unicode="⃋" d="M312 650q-33 0 -121 -2v-288h114q95 0 144 37.5t49 107.5q0 145 -186 145zM136 317h-112v43h112v340q41 0 85 1t86 1q249 0 249 -193q0 -89 -63.5 -140.5t-185.5 -51.5h-116v-123h181v-43h-181v-151h-55v151h-112v43h112v123z"/>
<glyph glyph-name="uni20B6" horiz-adv-x="600" unicode="⃊" d="M312 650q-33 0 -121 -2v-288h114q95 0 144 37.5t49 107.5q0 145 -186 145zM136 317h-112v43h112v340q41 0 85 1t86 1q249 0 249 -193q0 -89 -63.5 -140.5t-185.5 -51.5h-116v-123h181v-43h-181v-151h-55v151h-112v43h112v123z"/>
<glyph glyph-name="uni20B6" horiz-adv-x="600" unicode="⃉" d="M312 650q-33 0 -121 -2v-288h114q95 0 144 37.5t49 107.5q0 145 -186 145zM136 317h-112v43h112v340q41 0 85 1t86 1q249 0 249 -193q0 -89 -63.5 -140.5t-185.5 -51.5h-116v-123h181v-43h-181v-151h-55v151h-112v43h112v123z"/>
<glyph glyph-name="uni20B6" horiz-adv-x="600" unicode="⃈" d="M312 650q-33 0 -121 -2v-288h114q95 0 144 37.5t49 107.5q0 145 -186 145zM136 317h-112v43h112v340q41 0 85 1t86 1q249 0 249 -193q0 -89 -63.5 -140.5t-185.5 -51.5h-116v-123h181v-43h-181v-151h-55v151h-112v43h112v123z"/>
<glyph glyph-name="uni20B6" horiz-adv-x="600" unicode="⃇" d="M312 650q-33 0 -121 -2v-288h114q95 0 144 37.5t49 107.5q0 145 -186 145zM136 317h-112v43h112v340q41 0 85 1t86 1q249 0 249 -193q0 -89 -63.5 -140.5t-185.5 -51.5h-116v-123h181v-43h-181v-151h-55v151h-112v43h112v123z"/>
<glyph glyph-name="uni20B6" horiz-adv-x="600" unicode="⃆" d="M312 650q-33 0 -121 -2v-288h114q95 0 144 37.5t49 107.5q0 145 -186 145zM136 317h-112v43h112v340q41 0 85 1t86 1q249 0 249 -193q0 -89 -63.5 -140.5t-185.5 -51.5h-116v-123h181v-43h-181v-151h-55v151h-112v43h112v123z"/>
<glyph glyph-name="uni20B6" horiz-adv-x="600" unicode="⃅" d="M312 650q-33 0 -121 -2v-288h114q95 0 144 37.5t49 107.5q0 145 -186 145zM136 317h-112v43h112v340q41 0 85 1t86 1q249 0 249 -193q0 -89 -63.5 -140.5t-185.5 -51.5h-116v-123h181v-43h-181v-151h-55v151h-112v43h112v123z"/>
<glyph glyph-name="uni20B6" horiz-adv-x="600" unicode="⃄" d="M312 650q-33 0 -121 -2v-288h114q95 0 144 37.5t49 107.5q0 145 -186 145zM136 317h-112v43h112v340q41 0 85 1t86 1q249 0 249 -193q0 -89 -63.5 -140.5t-185.5 -51.5h-116v-123h181v-43h-181v-151h-55v151h-112v43h112v123z"/>
<glyph glyph-name="uni20B6" horiz-adv-x="600" unicode="⃃" d="M312 650q-33 0 -121 -2v-288h114q95 0 144 37.5t49 107.5q0 145 -186 145zM136 317h-112v43h112v340q41 0 85 1t86 1q249 0 249 -193q0 -89 -63.5 -140.5t-185.5 -51.5h-116v-123h181v-43h-181v-151h-55v151h-112v43h112v123z"/>
<glyph glyph-name="uni20B6" horiz-adv-x="600" unicode="⃂" d="M312 650q-33 0 -121 -2v-288h114q95 0 144 37.5t49 107.5q0 145 -186 145zM136 317h-112v43h112v340q41 0 85 1t86 1q249 0 249 -193q0 -89 -63.5 -140.5t-185.5 -51.5h-116v-123h181v-43h-181v-151h-55v151h-112v43h112v123z"/>
<glyph glyph-name="uni20B6" horiz-adv-x="600" unicode="⃁" d="M312 650q-33 0 -121 -2v-288h114q95 0 144 37.5t49 107.5q0 145 -186 145zM136 317h-112v43h112v340q41 0 85 1t86 1q249 0 249 -193q0 -89 -63.5 -140.5t-185.5 -51.5h-116v-123h181v-43h-181v-151h-55v151h-112v43h112v123z"/>
<glyph glyph-name="uni20B6" horiz-adv-x="600" unicode="⃀" d="M312 650q-33 0 -121 -2v-288h114q95 0 144 37.5t49 107.5q0 145 -186 145zM136 317h-112v43h112v340q41 0 85 1t86 1q249 0 249 -193q0 -89 -63.5 -140.5t-185.5 -51.5h-116v-123h181v-43h-181v-151h-55v151h-112v43h112v123z"/>
<glyph glyph-name="uni20B6" horiz-adv-x="600" unicode="₿" d="M312 650q-33 0 -121 -2v-288h114q95 0 144 37.5t49 107.5q0 145 -186 145zM136 317h-112v43h112v340q41 0 85 1t86 1q249 0 249 -193q0 -89 -63.5 -140.5t-185.5 -51.5h-116v-123h181v-43h-181v-151h-55v151h-112v43h112v123z"/>
<glyph glyph-name="uni20B6" horiz-adv-x="600" unicode="₾" d="M312 650q-33 0 -121 -2v-288h114q95 0 144 37.5t49 107.5q0 145 -186 145zM136 317h-112v43h112v340q41 0 85 1t86 1q249 0 249 -193q0 -89 -63.5 -140.5t-185.5 -51.5h-116v-123h181v-43h-181v-151h-55v151h-112v43h112v123z"/>
<glyph glyph-name="uni20B6" horiz-adv-x="600" unicode="₽" d="M312 650q-33 0 -121 -2v-288h114q95 0 144 37.5t49 107.5q0 145 -186 145zM136 317h-112v43h112v340q41 0 85 1t86 1q249 0 249 -193q0 -89 -63.5 -140.5t-185.5 -51.5h-116v-123h181v-43h-181v-151h-55v151h-112v43h112v123z"/>
<glyph glyph-name="uni20B6" horiz-adv-x="600" unicode="₼" d="M312 650q-33 0 -121 -2v-288h114q95 0 144 37.5t49 107.5q0 145 -186 145zM136 317h-112v43h112v340q41 0 85 1t86 1q249 0 249 -193q0 -89 -63.5 -140.5t-185.5 -51.5h-116v-123h181v-43h-181v-151h-55v151h-112v43h112v123z"/>
<glyph glyph-name="uni20B6" horiz-adv-x="600" unicode="₻" d="M312 650q-33 0 -121 -2v-288h114q95 0 144 37.5t49 107.5q0 145 -186 145zM136 317h-112v43h112v340q41 0 85 1t86 1q249 0 249 -193q0 -89 -63.5 -140.5t-185.5 -51.5h-116v-123h181v-43h-181v-151h-55v151h-112v43h112v123z"/>
<glyph glyph-name="uni20B6" horiz-adv-x="600" unicode="₺" d="M312 650q-33 0 -121 -2v-288h114q95 0 144 37.5t49 107.5q0 145 -186 145zM136 317h-112v43h112v340q41 0 85 1t86 1q249 0 249 -193q0 -89 -63.5 -140.5t-185.5 -51.5h-116v-123h181v-43h-181v-151h-55v151h-112v43h112v123z"/>
<glyph glyph-name="uni20B6" horiz-adv-x="600" unicode="₹" d="M312 650q-33 0 -121 -2v-288h114q95 0 144 37.5t49 107.5q0 145 -186 145zM136 317h-112v43h112v340q41 0 85 1t86 1q249 0 249 -193q0 -89 -63.5 -140.5t-185.5 -51.5h-116v-123h181v-43h-181v-151h-55v151h-112v43h112v123z"/>
<glyph glyph-name="uni20B6" horiz-adv-x="600" unicode="₷" d="M312 650q-33 0 -121 -2v-288h114q95 0 144 37.5t49 107.5q0 145 -186 145zM136 317h-112v43h112v340q41 0 85 1t86 1q249 0 249 -193q0 -89 -63.5 -140.5t-185.5 -51.5h-116v-123h181v-43h-181v-151h-55v151h-112v43h112v123z"/>
<glyph glyph-name="afii61352" horiz-adv-x="1166" unicode="№" d="M1059 217h-278v49h278v-49zM797 496q0 -52 36 -87q37 -33 87 -33q52 0 87.5 34t35.5 86t-37 85q-35 34 -86 34q-50 0 -87 -34q-36 -33 -36 -85zM797 379q-49 46 -49 117t49 116q49 46 123 46t123 -46q49 -45 49 -116t-49 -117t-123 -46t-123 46zM666 700v-700h-44 l-459 602v-602h-52v700h44l459 -604v604h52z"/>
<glyph glyph-name="trademark" horiz-adv-x="832" unicode="™" d="M145 652h-132v48h314v-48h-133v-267h-49v267zM431 385h-49v315h45l144 -165l138 165h44v-315h-50v252l-133 -160h-2l-137 160v-252z"/>
<glyph glyph-name="arrowleft" horiz-adv-x="643" unicode="←" d="M40 273l283 282l37 -36l-220 -219h463v-52h-464l221 -221l-37 -37z"/>
<glyph glyph-name="arrowup" horiz-adv-x="645" unicode="↑" d="M296 463l-219 -220l-37 37l282 283l283 -283l-36 -37l-221 221v-464h-52v463z"/>
<glyph glyph-name="arrowright" horiz-adv-x="643" unicode="→" d="M503 300l-220 219l37 36l283 -282l-283 -283l-37 37l221 221h-464v52h463z"/>
<glyph glyph-name="arrowdown" horiz-adv-x="645" unicode="↓" d="M322 -20l-282 283l37 37l219 -220v463h52v-464l221 221l36 -37z"/>
<glyph glyph-name="partialdiff" horiz-adv-x="583" unicode="∂" d="M102 207q0 -69 45 -119q47 -48 119 -48q90 0 145 76q57 76 66 177q-55 117 -183 117q-80 0 -136 -60q-56 -61 -56 -143zM47 203q0 106 70 180q70 76 175 76q69 0 119 -32t69 -79q0 129 -67 215q-68 89 -211 99l8 47q154 -7 239 -104q86 -97 86 -259q0 -142 -74 -249 q-73 -106 -201 -106q-93 0 -153 60t-60 152z"/>
<glyph glyph-name="product" horiz-adv-x="878" unicode="∏" d="M767 -200h-55v848h-546v-848h-55v900h656v-900z"/>
<glyph glyph-name="summation" horiz-adv-x="629" unicode="∑" d="M40 -165l313 415l-313 415v35h549v-52h-470l298 -398l-301 -398h473v-52h-549v35z"/>
<glyph glyph-name="minus" horiz-adv-x="589" unicode="−" d="M517 337h-446v46h446v-46z"/>
<glyph glyph-name="uni2215" horiz-adv-x="317" unicode="∕" d="M12 -208l-42 16l336 901l41 -15z"/>
<glyph glyph-name="radical" horiz-adv-x="587" unicode="√" d="M114 398h-111v52h147l182 -362l137 612h266v-52h-220l-150 -654h-42z"/>
<glyph glyph-name="infinity" horiz-adv-x="738" unicode="∞" d="M207 241q40 0 69.5 23t64.5 75q-27 37 -42 53q-17 20 -42 35.5t-48 15.5q-46 0 -76 -29.5t-30 -72.5q0 -45 33 -73q33 -27 71 -27zM533 443q-40 0 -71 -23.5t-67 -75.5q42 -55 73.5 -79t70.5 -24q43 0 69.5 29t26.5 68q0 46 -27.5 75.5t-74.5 29.5zM543 195q-50 0 -90 27 t-85 83q-41 -57 -78 -83.5t-87 -26.5q-57 0 -103 40t-46 106q0 61 43 104q44 44 109 44q45 0 81 -26t81 -84q40 56 79 83t95 27q65 0 103.5 -42.5t38.5 -109.5q0 -55 -38 -99q-37 -43 -103 -43z"/>
<glyph glyph-name="integral" horiz-adv-x="335" unicode="∫" d="M145 514v-537q0 -166 -109 -182q-20 -2 -47 -2q-46 3 -77 27l16 42q32 -21 65 -21q100 0 100 138v544q0 163 123 183q9 2 27 2q14 0 21 -1q61 -2 101 -36l-20 -40q-35 26 -80 28h-7q-34 0 -56 -12q-57 -29 -57 -133z"/>
<glyph glyph-name="approxequal" horiz-adv-x="589" unicode="≈" d="M82 408l-25 34q64 64 128 64q42 0 117 -37q76 -36 114 -36q47 0 93 46l22 -36q-59 -56 -116 -56q-41 0 -116 36q-74 37 -112 37q-53 0 -105 -52zM82 236l-25 34q64 64 128 64q42 0 117 -37q76 -36 114 -36q47 0 93 46l22 -36q-59 -56 -116 -56q-41 0 -116 36 q-74 37 -112 37q-53 0 -105 -52z"/>
<glyph glyph-name="notequal" horiz-adv-x="589" unicode="≠" d="M290 423h-219v46h236l90 240l41 -15l-84 -225h163v-46h-180l-47 -126h227v-46h-244l-96 -260l-42 15l91 245h-155v46h172z"/>
<glyph glyph-name="lessequal" horiz-adv-x="589" unicode="≤" d="M484 232v-57l-420 262v22l420 260v-57l-347 -214zM484 3l-420 262v50l420 -261v-51z"/>
<glyph glyph-name="greaterequal" horiz-adv-x="589" unicode="≥" d="M524 459v-22l-419 -262v57l347 216l-347 214v57zM105 54l419 261v-50l-419 -262v51z"/>
<glyph glyph-name="lozenge" horiz-adv-x="470" unicode="◊" d="M235 464l-134 -214l134 -205l134 215zM254 -6h-39l-167 255l168 268h39l167 -257z"/>
<glyph glyph-name="spade" horiz-adv-x="632" unicode="♠" d="M316 510q88 -55 172 -151t84 -160q0 -44 -31 -74t-86 -30q-78 0 -131 72q29 -120 107 -167h-230q74 53 105 164q-51 -69 -129 -69q-55 0 -86 30t-31 75q0 63 84 159t172 151z"/>
<glyph glyph-name="club" horiz-adv-x="612" unicode="♣" d="M177 381q0 53 38 91t91 38t91 -38t38 -91q0 -3 -2 -19q51 -5 84 -41q35 -38 35 -87q0 -53 -38 -91t-91 -38q-66 0 -104 53q31 -114 102 -158h-230q62 43 100 156q-41 -51 -102 -51q-53 0 -91 38t-38 91q0 50 34 87q33 36 84 41q-1 4 -1 19z"/>
<glyph glyph-name="heart" horiz-adv-x="649" unicode="♥" d="M325 0q-95 72 -179 181q-86 113 -86 189q0 56 31.5 93t89.5 37q88 0 144 -104q54 104 143 104q57 0 89 -36.5t32 -92.5q0 -76 -86 -189q-87 -113 -178 -182z"/>
<glyph glyph-name="diamond" horiz-adv-x="583" unicode="♦" d="M523 249q-109 -109 -232 -268q-102 134 -231 268q106 110 231 269q124 -158 232 -269z"/>
<glyph glyph-name="uniF350" horiz-adv-x="574" unicode="" d="M397 218l-112 243l-112 -243h224zM73 0h-56l247 529h46l247 -529h-59l-77 167h-271z"/>
<glyph glyph-name="uniF351" horiz-adv-x="507" unicode="" d="M237 265q-54 0 -93 -4v-210q22 0 42 -1q21 -1 50 -1q157 0 157 112q0 104 -156 104zM89 0v525h327v-52h-272v-161q36 4 98 4q100 0 153 -40t53 -113q0 -81 -56.5 -123.5t-161.5 -42.5q-13 0 -79 2q-32 1 -62 1z"/>
<glyph glyph-name="uniF352" horiz-adv-x="512" unicode="" d="M249 476q-39 0 -105 -3v-181h112q52 0 86.5 26t34.5 67q0 91 -128 91zM255 243h-111v-190q75 -4 107 -4q147 0 147 102q0 44 -37 68t-106 24zM89 1v523q111 4 161 4q182 0 182 -130q0 -48 -30 -81.5t-79 -42.5v-1q63 -7 96.5 -38.5t33.5 -85.5q0 -76 -56 -114t-149 -38 q-100 0 -159 4z"/>
<glyph glyph-name="uniF353" horiz-adv-x="416" unicode="" d="M144 0h-55v525h321v-52h-266v-473z"/>
<glyph glyph-name="uniF354" horiz-adv-x="608" unicode="" d="M230 473l-7 -89q-11 -138 -37 -221q-27 -85 -50 -111h313v421h-219zM65 -99h-52v151h62q31 37 59.5 134t36.5 234l6 105h327v-473h77v-151h-52v99h-464v-99z"/>
<glyph glyph-name="uniF355" horiz-adv-x="481" unicode="" d="M421 0h-332v525h324v-52h-269v-181h245v-52h-245v-188h277v-52z"/>
<glyph glyph-name="uniF356" horiz-adv-x="756" unicode="" d="M22 0l245 274l-236 251h67l232 -251l-241 -274h-67zM406 0h-55v525h55v-525zM659 525h67l-237 -249l246 -276h-67l-240 274z"/>
<glyph glyph-name="uniF357" horiz-adv-x="478" unicode="" d="M223 -8q-59 0 -111 24q-53 24 -77 57l31 36q27 -30 70 -47.5t86 -17.5q66 0 104 29t38 78q0 42 -31 66.5t-86 24.5h-78v51h73q40 0 69 28q31 28 31 68q0 43 -30.5 67t-82.5 24q-90 0 -146 -59l-32 36q61 75 178 75q77 0 122.5 -37t45.5 -102q0 -40 -22 -73t-60 -47v-3 q47 -7 75.5 -41.5t28.5 -82.5q0 -71 -54 -112.5t-142 -41.5z"/>
<glyph glyph-name="uniF358" horiz-adv-x="650" unicode="" d="M506 438l-368 -438h-49v525h55v-438l368 438h49v-525h-55v438z"/>
<glyph glyph-name="uniF359" horiz-adv-x="650" unicode="" d="M183 664h49q0 -36 24 -55.5t67 -19.5q40 0 63.5 19.5t23.5 55.5h49q0 -54 -36.5 -84.5t-99.5 -30.5q-67 0 -103.5 30t-36.5 85zM506 438l-368 -438h-49v525h55v-438l368 438h49v-525h-55v438z"/>
<glyph glyph-name="uniF35A" horiz-adv-x="529" unicode="" d="M144 0h-55v525h55v-525zM425 525h72l-263 -247l274 -278h-75l-267 274z"/>
<glyph glyph-name="uniF35B" horiz-adv-x="591" unicode="" d="M503 0h-55v473h-228l-9 -99q-23 -246 -77 -319q-43 -56 -97 -56q-2 0 -7.5 0.5t-8.5 0.5l1 53h8q26 0 50 28q19 22 32 58q33 84 49 281l8 105h334v-525z"/>
<glyph glyph-name="uniF35C" horiz-adv-x="724" unicode="" d="M144 0h-55v525h56l223 -276l214 276h53v-525h-55v442l-212 -270h-8l-216 267v-439z"/>
<glyph glyph-name="uniF35D" horiz-adv-x="633" unicode="" d="M544 0h-55v242h-345v-242h-55v525h55v-231h345v231h55v-525z"/>
<glyph glyph-name="uniF35E" horiz-adv-x="650" unicode="" d="M101 262q0 -93 64 -156q65 -62 160 -62q99 0 161 62q63 62 63 156t-65 156t-159 62q-95 0 -160 -62q-64 -61 -64 -156zM43 262q0 115 80 192q80 78 202 78t201 -76q81 -76 81 -194q0 -116 -81 -193q-80 -77 -201 -77q-123 0 -202 76q-80 77 -80 194z"/>
<glyph glyph-name="uniF35F" horiz-adv-x="632" unicode="" d="M543 0h-55v473h-344v-473h-55v525h454v-525z"/>
<glyph glyph-name="uniF360" horiz-adv-x="481" unicode="" d="M237 475q-31 0 -93 -2v-224q53 -4 88 -4q71 0 109.5 31t38.5 85q0 114 -143 114zM144 196v-196h-55v525q33 0 70 1t73 1q106 0 156 -44.5t50 -121.5q0 -75 -53 -121.5t-150 -46.5q-45 0 -91 3z"/>
<glyph glyph-name="uniF361" horiz-adv-x="535" unicode="" d="M484 92l22 -42q-29 -27 -77.5 -42.5t-100.5 -15.5q-130 0 -207 73q-78 73 -78 197q0 116 75 192q76 78 204 78q103 0 173 -50l-26 -41q-61 39 -147 39q-99 0 -160 -61t-61 -157q0 -98 63 -158q64 -60 168 -60q88 0 152 48z"/>
<glyph glyph-name="uniF362" horiz-adv-x="484" unicode="" d="M214 473h-206v52h468v-52h-207v-473h-55v473z"/>
<glyph glyph-name="uniF363" horiz-adv-x="530" unicode="" d="M461 525h57l-198 -404q-30 -64 -62.5 -92.5t-74.5 -28.5q-37 0 -63 18l20 47q23 -14 45 -14q41 0 74 63l11 19l-257 392h68l217 -337z"/>
<glyph glyph-name="uniF364" horiz-adv-x="678" unicode="" d="M93 270q0 -75 58.5 -119t156.5 -44h2v326h-1q-99 0 -157.5 -44.5t-58.5 -118.5zM367 433h-2v-326h4q100 0 158 43t58 120q0 75 -58.5 119t-159.5 44zM365 -6h-55v63h-2q-123 0 -199 56q-74 57 -74 157q0 99 74 155.5t201 57.5v48h55v-48h1q129 0 203 -56t74 -157 q0 -100 -75 -157q-76 -56 -198 -56h-5v-63z"/>
<glyph glyph-name="uniF365" horiz-adv-x="539" unicode="" d="M443 525h68l-206 -258l214 -267h-68l-182 225l-181 -225h-68l214 267l-205 258h68l173 -216z"/>
<glyph glyph-name="uniF366" horiz-adv-x="640" unicode="" d="M562 0h-473v525h55v-473h337v473h55v-473h77v-151h-51v99z"/>
<glyph glyph-name="uniF367" horiz-adv-x="526" unicode="" d="M382 525h55v-525h-55v234q-64 -42 -157 -42q-79 0 -126 42.5t-47 125.5v165h55v-148q0 -66 34 -99.5t95 -33.5q76 0 146 41v240z"/>
<glyph glyph-name="uniF368" horiz-adv-x="811" unicode="" d="M722 0h-633v525h55v-473h233v473h55v-473h235v473h55v-525z"/>
<glyph glyph-name="uniF369" horiz-adv-x="826" unicode="" d="M747 0h-658v525h55v-473h233v473h55v-473h235v473h55v-473h77v-151h-52v99z"/>
<glyph glyph-name="uniF36A" horiz-adv-x="544" unicode="" d="M283 277q-36 0 -84 -3v-222q64 -2 85 -2q76 0 117.5 30.5t41.5 87.5q0 109 -160 109zM144 473h-141v52h196v-199q51 3 88 3q106 0 160 -41.5t54 -118.5q0 -81 -60 -126t-167 -45q-41 0 -71 1q-29 1 -59 1v473z"/>
<glyph glyph-name="uniF36B" horiz-adv-x="682" unicode="" d="M89 525h55v-199q49 3 82 3q104 0 157.5 -41.5t53.5 -118.5q0 -81 -59 -126t-164 -45q-40 0 -68 1t-57 1v525zM223 277q-33 0 -79 -3v-222q64 -2 76 -2q159 0 159 118q0 53 -40 81t-116 28zM593 0h-55v525h55v-525z"/>
<glyph glyph-name="uniF36C" horiz-adv-x="489" unicode="" d="M89 525h55v-199q50 3 87 3q106 0 160.5 -41.5t54.5 -118.5q0 -81 -60.5 -126t-167.5 -45q-40 0 -70 1q-29 1 -59 1v525zM227 277q-37 0 -83 -3v-222q20 0 38 -1t42 -1q79 0 121.5 30.5t42.5 87.5q0 109 -161 109z"/>
<glyph glyph-name="uniF36D" horiz-adv-x="554" unicode="" d="M455 242h-295v52h294q-9 88 -70 137t-161 49t-159 -43l-23 41q67 54 184 54q128 0 207 -73t79 -195q0 -119 -80 -196q-79 -75 -210 -75q-115 0 -189 55l24 45q72 -48 171 -48q96 0 158 53q63 55 70 144z"/>
<glyph glyph-name="uniF36E" horiz-adv-x="866" unicode="" d="M337 263q0 -94 59 -156q60 -62 154 -62q98 0 156 61q59 62 59 157t-60 156t-155 61q-94 0 -154 -61q-59 -62 -59 -156zM144 0h-55v525h55v-231h137q11 105 83 171q73 67 185 67q121 0 198 -75q76 -75 76 -194q0 -118 -76 -194t-198 -76q-113 0 -188 69q-73 69 -81 180 h-136v-242z"/>
<glyph glyph-name="uniF36F" horiz-adv-x="514" unicode="" d="M236 248h134v225q-66 3 -92 3q-72 0 -111.5 -33t-39.5 -86q0 -41 33 -72q32 -31 76 -37zM425 0h-55v196h-128l-153 -196h-65l161 205q-51 19 -83.5 58.5t-32.5 90.5q0 78 56.5 126t158.5 48q11 0 77 -2q33 -1 64 -1v-525z"/>
<glyph glyph-name="uniF371" horiz-adv-x="481" unicode="" d="M421 0h-332v525h324v-52h-269v-181h245v-52h-245v-188h277v-52zM304 661q0 13 9.5 22t23.5 9q12 0 21.5 -9t9.5 -22q0 -15 -9 -24t-22 -9q-14 0 -23.5 9t-9.5 24zM128 661q0 13 9.5 22t23.5 9q12 0 21.5 -9t9.5 -22q0 -14 -9.5 -23.5t-21.5 -9.5q-14 0 -23.5 9t-9.5 24z "/>
<glyph glyph-name="uniF372" horiz-adv-x="620" unicode="" d="M577 156q0 -163 -139 -163q-23 0 -46.5 8t-34.5 18l20 43q23 -17 55 -17q90 0 90 109q0 114 -124 114q-46 0 -77 -15q-9 -3 -19 -8q-29 -17 -33 -18v-227h-55v473h-206v52h468v-52h-207v-192q77 39 139 39q80 0 124.5 -40.5t44.5 -123.5z"/>
<glyph glyph-name="uniF373" horiz-adv-x="416" unicode="" d="M316 758l32 -39l-125 -131l-27 28zM144 0h-55v525h321v-52h-266v-473z"/>
<glyph glyph-name="uniF374" horiz-adv-x="554" unicode="" d="M99 293h294v-52h-295q8 -91 72 -144q65 -52 167 -52q89 0 163 48l22 -45q-74 -55 -185 -55q-134 0 -214 73q-80 74 -80 197q0 119 79 194q80 75 206 75q116 0 184 -54l-25 -41q-59 43 -156 43q-102 0 -162.5 -49.5t-69.5 -137.5z"/>
<glyph glyph-name="uniF375" horiz-adv-x="473" unicode="" d="M371 136q0 65 -111 100q-103 31 -139 54q-64 40 -64 106q0 62 48.5 99t137.5 37q47 0 97 -18q50 -16 75 -43l-26 -41q-26 23 -67.5 36.5t-81.5 13.5q-57 0 -91 -23.5t-34 -62.5q0 -60 111 -95q36 -10 55.5 -16t52.5 -20.5t50.5 -30t31.5 -40.5t14 -56q0 -66 -54 -105 q-52 -39 -132 -39q-65 0 -120 21t-84 56l32 38q64 -63 175 -63q52 0 88 25t36 67z"/>
<glyph glyph-name="uniF376" horiz-adv-x="268" unicode="" d="M161 0h-55v525h55v-525z"/>
<glyph glyph-name="uniF377" horiz-adv-x="278" unicode="" d="M166 0h-55v525h55v-525zM174 660q0 13 9.5 21.5t22.5 8.5q12 0 20.5 -9t8.5 -21q0 -14 -8.5 -22.5t-20.5 -8.5q-13 0 -22.5 8.5t-9.5 22.5zM45 660q0 13 9 21.5t22 8.5q12 0 20.5 -8.5t8.5 -21.5q0 -14 -8.5 -22.5t-20.5 -8.5q-13 0 -22 8.5t-9 22.5z"/>
<glyph glyph-name="uniF378" horiz-adv-x="299" unicode="" d="M155 525h55v-407q0 -125 -118 -125q-51 0 -82 26l19 43q26 -17 55 -17q38 0 54.5 20t16.5 61v399z"/>
<glyph glyph-name="uniF379" horiz-adv-x="838" unicode="" d="M581 277q-31 0 -78 -3v-222q5 0 34 -1t41 -1q159 0 159 118q0 53 -40 81t-116 28zM448 0v473h-227l-10 -99q-11 -114 -29 -191t-41.5 -115.5t-47 -53.5t-54.5 -15q-12 0 -18 1l1 55h8q25 0 50 27q19 22 32 57q33 84 49 281l8 105h334v-199q48 3 81 3q104 0 157.5 -41.5 t53.5 -118.5q0 -82 -59 -126.5t-165 -44.5q-39 0 -67 1t-56 1z"/>
<glyph glyph-name="uniF37A" horiz-adv-x="872" unicode="" d="M536 263v-211q7 0 35.5 -1t39.5 -1q160 0 160 113q0 50 -40.5 77t-116.5 27q-42 0 -78 -4zM144 0h-55v525h55v-213h337v213h55v-210q50 3 81 3q104 0 158 -40t54 -114q0 -80 -59 -123t-165 -43q-39 0 -68 1q-28 1 -56 1v260h-337v-260z"/>
<glyph glyph-name="uniF37B" horiz-adv-x="620" unicode="" d="M214 473h-206v52h468v-52h-207v-196q59 40 144 40q77 0 120.5 -42t43.5 -126v-149h-55v136q0 129 -121 129q-67 0 -132 -39v-226h-55v473z"/>
<glyph glyph-name="uniF37C" horiz-adv-x="529" unicode="" d="M342 758l32 -39l-125 -131l-27 28zM144 0h-55v525h55v-525zM425 525h72l-263 -247l274 -278h-75l-267 274z"/>
<glyph glyph-name="uniF37E" horiz-adv-x="530" unicode="" d="M134 664h49q0 -36 24 -55.5t67 -19.5q40 0 63.5 19.5t23.5 55.5h49q0 -54 -36.5 -84.5t-99.5 -30.5q-67 0 -103.5 30t-36.5 85zM461 525h57l-198 -404q-30 -64 -62.5 -92.5t-74.5 -28.5q-37 0 -63 18l20 47q23 -14 45 -14q41 0 74 63l11 19l-257 392h68l217 -337z"/>
<glyph glyph-name="uniF37F" horiz-adv-x="624" unicode="" d="M286 0h-197v525h55v-473h336v473h55v-525h-197v-117h-52v117z"/>
<glyph glyph-name="uniF381" horiz-adv-x="506" unicode="" d="M244 268q-36 0 -83 -3v-216q20 0 38 -1t42 -1q164 0 164 115q0 106 -161 106zM106 396h-103v46h103v83h55v-83h136v-46h-136v-82q49 3 87 3q215 0 215 -154q0 -80 -59.5 -122.5t-168.5 -42.5q-40 0 -70 1q-29 1 -59 1v396z"/>
<glyph glyph-name="uniF389" horiz-adv-x="650" unicode="" d="M452 243q51 0 96 42q-7 84 -71 140q-62 55 -152 55q-88 0 -150 -53q-61 -53 -72 -135q53 41 108 41q49 0 124 -45q77 -45 117 -45zM209 284q-57 0 -107 -47q9 -83 72 -139q63 -54 151 -54q90 0 151 52q60 51 71 136q-52 -38 -100 -38q-47 0 -123 45q-75 45 -115 45z M43 262q0 115 80 192q80 78 202 78t201 -76q81 -76 81 -194q0 -116 -81 -193q-80 -77 -201 -77q-123 0 -202 76q-80 77 -80 194z"/>
<glyph glyph-name="uniF38A" horiz-adv-x="535" unicode="" d="M444 381l-153 -385h-40l-244 529h62l204 -452l126 331q27 69 53 98t64 29q22 0 43 -7v-45q-11 4 -24 4q-51 0 -91 -102z"/>
<glyph glyph-name="uniF393" horiz-adv-x="419" unicode="" d="M144 0h-55v525h272v96h52v-148h-269v-473z"/>
<glyph glyph-name="uniF3CF" horiz-adv-x="954" unicode="" d="M867 148h-232v49h232v-49zM656 372q0 -36 28 -59.5t67 -23.5q40 0 67.5 23.5t27.5 59.5q0 35 -27.5 58.5t-67.5 23.5t-67.5 -23.5t-27.5 -58.5zM751 497q63 0 103.5 -35t40.5 -90t-40.5 -90.5t-103.5 -35.5q-62 0 -103 35q-41 36 -41 91t41 90t103 35zM545 525v-525h-44 l-360 434v-434h-52v525h44l360 -435v435h52z"/>
<glyph glyph-name="uniF3D0" horiz-adv-x="396" unicode="" d="M60 664h49q0 -36 24 -55.5t67 -19.5q40 0 63.5 19.5t23.5 55.5h49q0 -54 -36.5 -84.5t-99.5 -30.5q-67 0 -103.5 30t-36.5 85z"/>
<glyph glyph-name="uniF400" horiz-adv-x="0" unicode="" d="M-207 716l40 -31l-116 -143l-32 23z"/>
<glyph glyph-name="uniF401" horiz-adv-x="0" unicode="" d="M-277 868l19 -44l-182 -86l-16 31z"/>
<glyph glyph-name="uniF406" horiz-adv-x="448" unicode="" d="M60 837l24 27q57 -67 143 -67q85 0 140 67l21 -28q-25 -38 -68 -61.5t-93 -23.5q-58 0 -103 27q-45 28 -64 59z"/>
<glyph glyph-name="uniF407" horiz-adv-x="336" unicode="" d="M60 -173l17 28q42 -24 74 -24q31 0 50.5 12.5t19.5 33.5q0 47 -71 47h-6v76h30v-50q102 -3 102 -76q0 -34 -31 -55q-31 -22 -83 -22t-102 30z"/>
<glyph glyph-name="uniF408" horiz-adv-x="462" unicode="" d="M80 737l-20 30l168 98h4l170 -98l-23 -30l-149 81z"/>
<glyph glyph-name="uniF409" horiz-adv-x="220" unicode="" d="M80 -71l45 16q35 -8 35 -50q0 -75 -85 -97l-15 24q48 20 48 65q0 33 -28 42z"/>
<glyph glyph-name="uniF40A" horiz-adv-x="218" unicode="" d="M89 719l43 28q26 -31 26 -73q0 -91 -74 -132l-24 25q49 28 49 96q0 36 -20 56z"/>
<glyph glyph-name="uniF40B" horiz-adv-x="197" unicode="" d="M60 806q0 15 11.5 25.5t27.5 10.5q15 0 26.5 -10.5t11.5 -25.5q0 -17 -11 -27t-27 -10q-17 0 -28 10t-11 27z"/>
<glyph glyph-name="uniF40C" horiz-adv-x="344" unicode="" d="M100 785q0 -28 20 -45q21 -15 52 -15t52 15q20 17 20 45q0 57 -72 57t-72 -57zM60 785q0 43 30 65.5t81 22.5q52 0 82.5 -22.5t30.5 -65.5q0 -42 -31.5 -66.5t-81.5 -24.5q-49 0 -80 24.5t-31 66.5z"/>
<glyph glyph-name="uniF40D" horiz-adv-x="456" unicode="" d="M78 767l-18 33q40 40 90 40q32 0 80 -22t76 -22q42 0 74 33l16 -33q-39 -46 -93 -46q-28 0 -79 22q-50 22 -80 22q-33 0 -66 -27z"/>
<glyph glyph-name="uniF40E" horiz-adv-x="306" unicode="" d="M230 -148l16 -33q-28 -19 -73 -19q-49 0 -81 23t-32 68q0 56 55 90q55 33 124 33v-14q-49 0 -88 -27t-39 -66q0 -33 21.5 -48.5t51.5 -15.5q25 0 45 9z"/>
<glyph glyph-name="uniF410" horiz-adv-x="0" unicode="" d="M-324 769l-15 -31l-183 86l20 44z"/>
<glyph glyph-name="uniF416" horiz-adv-x="220" unicode="" d="M80 -71l45 16q35 -8 35 -50q0 -75 -85 -97l-15 24q48 20 48 65q0 33 -28 42z"/>
<glyph glyph-name="uniF418" horiz-adv-x="218" unicode="" d="M89 527l43 28q26 -31 26 -73q0 -91 -74 -132l-24 25q49 28 49 96q0 36 -20 56z"/>
<glyph glyph-name="uniF447" horiz-adv-x="484" unicode="" d="M145 -174l16 27q35 -22 72 -22q31 0 50.5 12.5t19.5 33.5q0 47 -71 47h-6v76h-12v473h-206v52h468v-52h-207v-473h-13v-50q99 -3 99 -76q0 -34 -31 -55.5t-84 -21.5q-46 0 -95 29z"/>
<glyph glyph-name="uniF44E" horiz-adv-x="623" unicode="" d="M313 44q97 0 155 54t62 143h-426q1 -83 59 -141q58 -56 150 -56zM47 293h481q-7 87 -68 137t-158 50q-90 0 -149 -43l-22 41q69 54 177 54q128 0 204 -73t76 -196q0 -120 -76 -196q-75 -75 -199 -75q-127 0 -201 83q-66 75 -66 193q0 4 0.5 12t0.5 13z"/>
<glyph glyph-name="uniF639" horiz-adv-x="589" unicode="" d="M128 350q0 -309 168 -309q164 0 164 309t-166 309t-166 -309zM515 350q0 -164 -54 -262q-53 -96 -165 -96q-113 0 -168 97t-55 261t54 261q55 97 167 97t166 -97q55 -97 55 -261z"/>
<glyph glyph-name="uniF63A" horiz-adv-x="589" unicode="" d="M503 0h-417v43l80 79q19 19 84 91q53 61 85 108q29 41 56 102q26 58 26 103q0 56 -35.5 93t-98.5 37q-53 0 -94 -33.5t-50 -93.5l-44 17q10 75 66 119q55 43 126 43q91 0 137 -52q48 -51 48 -120q0 -54 -29 -121q-31 -71 -65 -119q-36 -50 -88 -110q-48 -54 -80 -84 q-55 -52 -56 -53h349v-49z"/>
<glyph glyph-name="uniF63B" horiz-adv-x="589" unicode="" d="M287 -9q-71 0 -125 31t-80 90l31 36q24 -51 70.5 -78t102.5 -27q71 0 114.5 42t43.5 108q0 62 -43 100.5t-109 38.5h-60v52h54q50 0 91 41q40 40 40 101q0 62 -35.5 96.5t-98.5 34.5q-107 0 -152 -96l-31 33q21 55 70.5 85t116.5 30q86 0 135.5 -47t49.5 -129 q0 -57 -29.5 -102.5t-81.5 -66.5v-3q64 -9 101 -58t37 -112q0 -90 -60 -146q-60 -54 -152 -54z"/>
<glyph glyph-name="uniF63C" horiz-adv-x="589" unicode="" d="M438 0h-52v185h-325v35l306 480h60l-297 -463h256v213h52v-213h103v-52h-103v-185z"/>
<glyph glyph-name="uniF63D" horiz-adv-x="589" unicode="" d="M142 364l43 336h304v-52h-259l-30 -228q31 9 68 9q99 0 160 -58q62 -59 62 -154q0 -103 -63 -164q-64 -62 -154 -62q-63 0 -116.5 29t-82.5 82l31 37q26 -45 72.5 -70.5t96.5 -25.5q68 0 115 48q46 49 46 124q0 73 -52 119q-51 48 -135 48q-61 0 -106 -18z"/>
<glyph glyph-name="uniF63E" horiz-adv-x="589" unicode="" d="M123 248q0 -85 47 -146q47 -59 134 -59q64 0 109 49q45 50 45 117q0 76 -44 123.5t-120 47.5q-66 0 -112 -41t-59 -91zM68 248q0 90 30 173t80 142q106 120 227 146l22 -39q-108 -25 -194 -119q-85 -93 -105 -236q24 52 71 83t111 31q90 0 146 -60q57 -60 57 -156 q0 -95 -63 -159q-62 -63 -145 -63q-112 0 -175 74q-62 74 -62 183z"/>
<glyph glyph-name="uniF63F" horiz-adv-x="589" unicode="" d="M438 648h-340v52h404v-32l-266 -668h-58z"/>
<glyph glyph-name="uniF640" horiz-adv-x="589" unicode="" d="M70 181q0 64 39 113t103 64v3q-49 15 -84 62q-34 47 -34 104q0 82 58 131q58 51 142 51t143 -51q58 -49 58 -131q0 -54 -33 -99.5t-88 -65.5v-3q64 -8 104.5 -56.5t40.5 -117.5q0 -89 -66 -142q-64 -52 -158 -52t-159 52q-66 53 -66 138zM309 334h-26q-65 0 -112 -42 q-46 -40 -46 -102q0 -63 49 -105q50 -42 120 -42q75 0 122 40q50 41 48 107q0 65 -44 104.5t-111 39.5zM280 386h31q50 0 89 39q40 40 40 96q0 61 -44 99q-43 37 -103 37q-58 0 -102 -38q-42 -37 -42 -98q0 -56 40 -96q41 -39 91 -39z"/>
<glyph glyph-name="uniF641" horiz-adv-x="589" unicode="" d="M464 449q0 86 -44 147q-43 61 -130 61q-65 0 -114 -49q-48 -48 -48 -115q0 -70 44 -120q43 -49 121 -49q69 0 112 37q45 38 59 88zM519 449q0 -192 -96 -315q-97 -122 -247 -143l-18 41q126 22 207 114q80 91 94 236q-21 -49 -68 -78t-110 -29q-91 0 -150 62 q-58 61 -58 152q0 94 66 157t150 63q113 0 171 -73q59 -74 59 -187z"/>
<glyph glyph-name="uniF643" horiz-adv-x="589" unicode="" d="M93 250q0 -86 55 -147q56 -60 146 -60t146 60q55 61 55 147t-56 147q-55 60 -145 60t-146 -60q-55 -59 -55 -147zM108 67q-70 76 -70 183q0 106 70 182q71 77 186 77t186 -77q70 -76 70 -182q0 -107 -70 -183t-186 -76t-186 76z"/>
<glyph glyph-name="uniF644" horiz-adv-x="589" unicode="" d="M167 352l-19 46l156 110h35v-508h-55v439z"/>
<glyph glyph-name="uniF645" horiz-adv-x="589" unicode="" d="M503 0h-417v40q105 42 208 109q123 84 123 180q0 59 -34.5 94t-97.5 35q-54 0 -96.5 -32.5t-54.5 -90.5l-36 30q14 68 68 106q56 39 119 39q90 0 137 -46.5t47 -124.5q0 -84 -71 -160q-23 -26 -67 -59q-64 -47 -120 -68h292v-52z"/>
<glyph glyph-name="uniF646" horiz-adv-x="589" unicode="" d="M286 -209q-71 0 -124.5 30.5t-79.5 90.5l31 36q25 -52 71 -78.5t102 -26.5q71 0 114.5 42t43.5 108q0 62 -43 100.5t-109 38.5h-60v52h54q50 0 91 41q40 40 40 101q0 62 -35.5 96.5t-98.5 34.5q-107 0 -152 -96l-31 33q21 55 70.5 85t116.5 30q86 0 135.5 -47t49.5 -129 q0 -57 -29.5 -102.5t-81.5 -66.5v-3q64 -9 101 -58t37 -112q0 -91 -60 -145q-59 -55 -153 -55z"/>
<glyph glyph-name="uniF647" horiz-adv-x="589" unicode="" d="M438 -200h-52v200h-325v35l298 465h60l-288 -448h255v213h52v-213h103v-52h-103v-200z"/>
<glyph glyph-name="uniF648" horiz-adv-x="589" unicode="" d="M142 164l43 336h304v-52h-259l-30 -228q32 9 69 9q98 0 159 -58q62 -59 62 -154q0 -102 -63 -164q-64 -62 -154 -62q-62 0 -115.5 29t-83.5 82l31 37q26 -45 72.5 -70.5t96.5 -25.5q69 0 115 49q46 47 46 123q0 73 -52 119q-51 48 -135 48q-59 0 -106 -18z"/>
<glyph glyph-name="uniF649" horiz-adv-x="589" unicode="" d="M123 248q0 -85 47 -146q47 -59 134 -59q64 0 109 49q45 50 45 117q0 76 -44 123.5t-120 47.5q-66 0 -112 -41t-59 -91zM68 248q0 90 30 173t80 142q106 120 227 146l22 -39q-108 -25 -194 -119q-85 -93 -105 -236q24 52 71 83t111 31q90 0 146 -60q57 -60 57 -156 q0 -95 -63 -159q-62 -63 -145 -63q-112 0 -175 74q-62 74 -62 183z"/>
<glyph glyph-name="uniF64A" horiz-adv-x="589" unicode="" d="M438 448h-340v52h404v-32l-266 -668h-58z"/>
<glyph glyph-name="uniF64B" horiz-adv-x="589" unicode="" d="M70 181q0 64 39 113t103 64v3q-49 15 -84 62q-34 47 -34 104q0 82 58 131q58 51 142 51t143 -51q58 -49 58 -131q0 -54 -33 -99.5t-88 -65.5v-3q64 -8 104 -57q41 -49 41 -117q0 -89 -66 -142q-64 -52 -158 -52t-159 52q-66 53 -66 138zM309 334h-26q-65 0 -112 -42 q-46 -40 -46 -102q0 -64 49 -106q50 -41 120 -41q74 0 121 40q49 40 49 107q0 65 -44 104.5t-111 39.5zM279 386h31q50 0 90 39q40 40 40 96q0 61 -44 99q-43 37 -103 37q-61 0 -102 -37q-42 -38 -42 -99q0 -56 40 -96q41 -39 90 -39z"/>
<glyph glyph-name="uniF64C" horiz-adv-x="589" unicode="" d="M464 249q0 86 -44 147q-43 61 -129 61q-65 0 -114 -49q-49 -48 -49 -115q0 -70 44 -120q43 -49 122 -49q69 0 112 37q44 37 58 88zM519 249q0 -191 -96 -314t-246 -144l-19 41q125 22 207 115q80 91 94 235q-21 -49 -68 -78t-110 -29q-91 0 -150 62q-58 61 -58 152 q0 94 66 157t150 63q113 0 171 -73q59 -74 59 -187z"/>
<glyph glyph-name="uniF66D" horiz-adv-x="574" unicode="" d="M147 697l24 27q56 -65 118 -65q65 0 117 64l20 -26q-58 -81 -139 -81q-89 0 -140 81zM397 218l-112 243l-112 -243h224zM73 0h-56l247 529h46l247 -529h-59l-77 167h-271z"/>
<glyph glyph-name="uniF66E" horiz-adv-x="574" unicode="" d="M413 647h-252v43h252v-43zM397 218l-112 243l-112 -243h224zM73 0h-56l247 529h46l247 -529h-59l-77 167h-271z"/>
<glyph glyph-name="uniF66F" horiz-adv-x="574" unicode="" d="M397 218l-112 243l-112 -243h224zM535 -148l16 -33q-28 -19 -73 -19q-49 0 -81 23t-32 68q0 44 36.5 76t92.5 42l-73 158h-271l-77 -167h-56l247 529h46l247 -529h-13q-49 0 -88 -27t-39 -66q0 -33 21.5 -48.5t51.5 -15.5q26 0 45 9z"/>
<glyph glyph-name="uniF671" horiz-adv-x="535" unicode="" d="M383 758l32 -39l-125 -131l-27 28zM484 92l22 -42q-29 -27 -77.5 -42.5t-100.5 -15.5q-130 0 -207 73q-78 73 -78 197q0 116 75 192q76 78 204 78q103 0 173 -50l-26 -41q-61 39 -147 39q-99 0 -160 -61t-61 -157q0 -98 63 -158q64 -60 168 -60q88 0 152 48z"/>
<glyph glyph-name="uniF672" horiz-adv-x="535" unicode="" d="M484 92l22 -42q-29 -27 -77.5 -42.5t-100.5 -15.5q-130 0 -207 73q-78 73 -78 197q0 116 75 192q76 78 204 78q103 0 173 -50l-26 -41q-61 39 -147 39q-99 0 -160 -61t-61 -157q0 -98 63 -158q64 -60 168 -60q88 0 152 48zM312 592h-4l-137 115l26 31l113 -95l113 95 l25 -31z"/>
<glyph glyph-name="uniF673" horiz-adv-x="535" unicode="" d="M484 92l22 -42q-29 -27 -77.5 -42.5t-100.5 -15.5q-130 0 -207 73q-78 73 -78 197q0 116 75 192q76 78 204 78q103 0 173 -50l-26 -41q-61 39 -147 39q-99 0 -160 -61t-61 -157q0 -98 63 -158q64 -60 168 -60q88 0 152 48zM309 736h4l142 -114l-25 -32l-119 96l-121 -95 l-26 31z"/>
<glyph glyph-name="uniF674" horiz-adv-x="535" unicode="" d="M271 668q0 15 11 24t26 9q13 0 23.5 -9.5t10.5 -23.5q0 -16 -10 -26.5t-24 -10.5q-16 0 -26.5 10t-10.5 27zM484 92l22 -42q-29 -27 -77.5 -42.5t-100.5 -15.5q-130 0 -207 73q-78 73 -78 197q0 116 75 192q76 78 204 78q103 0 173 -50l-26 -41q-61 39 -147 39 q-99 0 -160 -61t-61 -157q0 -98 63 -158q64 -60 168 -60q88 0 152 48z"/>
<glyph glyph-name="uniF675" horiz-adv-x="602" unicode="" d="M237 475q-11 0 -93 -2v-421q25 0 47 -0.5t32 -1t11 -0.5q127 0 197 60q70 61 70 159q0 95 -67.5 150.5t-196.5 55.5zM96 0h-7v525h9q35 0 67 1t74 1q161 0 241 -72q79 -70 79 -186q0 -119 -85 -195t-242 -76q-34 0 -65 1t-71 1zM275 592h-4l-137 115l26 31l113 -95 l113 95l25 -31z"/>
<glyph glyph-name="uniF676" horiz-adv-x="617" unicode="" d="M260 475q-3 0 -102 -3v-179h159v-49h-159v-192h24.5t25 -0.5t22 -1t16.5 -0.5h7q127 0 194 61q69 61 69 158q0 95 -66 150.5t-190 55.5zM103 244h-95v49h95v232h10q35 0 68 1t79 1q158 0 235 -73q79 -73 79 -185q0 -118 -84 -194q-83 -77 -234 -77q-41 0 -74 1 q-32 1 -71 1h-8v244z"/>
<glyph glyph-name="uniF678" horiz-adv-x="481" unicode="" d="M421 0h-332v525h324v-52h-269v-181h245v-52h-245v-188h277v-52zM255 592h-4l-137 115l26 31l113 -95l113 95l25 -31z"/>
<glyph glyph-name="uniF679" horiz-adv-x="481" unicode="" d="M214 668q0 15 11 24t26 9q13 0 23.5 -9.5t10.5 -23.5q0 -15 -10.5 -26t-23.5 -11q-16 0 -26.5 10t-10.5 27zM421 0h-332v525h324v-52h-269v-181h245v-52h-245v-188h277v-52z"/>
<glyph glyph-name="uniF67A" horiz-adv-x="481" unicode="" d="M374 647h-252v43h252v-43zM421 0h-332v525h324v-52h-269v-181h245v-52h-245v-188h277v-52z"/>
<glyph glyph-name="uniF67C" horiz-adv-x="481" unicode="" d="M334 0h-245v525h324v-52h-269v-181h245v-52h-245v-188h277v-52h-9q-47 -1 -86 -28q-36 -27 -36 -65q0 -33 21.5 -48.5t51.5 -15.5q25 0 45 9l16 -33q-28 -19 -73 -19q-49 0 -81 23t-32 68q0 75 96 109z"/>
<glyph glyph-name="uniF67D" horiz-adv-x="593" unicode="" d="M167 697l24 27q56 -65 118 -65q65 0 117 64l20 -26q-59 -81 -139 -81q-89 0 -140 81zM490 212h-162v49h214v-197q-37 -34 -97 -53t-116 -19q-131 0 -208 73q-78 73 -78 197q0 115 77 192q76 78 201 78q107 0 178 -50l-25 -44q-55 42 -146 42q-102 0 -164 -61 q-63 -60 -63 -157q0 -99 63 -159q65 -59 166 -59t160 50v118z"/>
<glyph glyph-name="uniF67E" horiz-adv-x="593" unicode="" d="M319 736h4l142 -114l-25 -32l-119 96l-121 -95l-26 31zM490 212h-162v49h214v-197q-37 -34 -97 -53t-116 -19q-131 0 -208 73q-78 73 -78 197q0 115 77 192q76 78 201 78q107 0 178 -50l-25 -44q-55 42 -146 42q-102 0 -164 -61q-63 -60 -63 -157q0 -99 63 -159 q65 -59 166 -59t160 50v118z"/>
<glyph glyph-name="uniF67F" horiz-adv-x="593" unicode="" d="M285 -71l45 16q35 -8 35 -50q0 -75 -85 -97l-15 24q48 20 48 65q0 33 -28 42zM490 212h-162v49h214v-197q-37 -34 -97 -53t-116 -19q-131 0 -208 73q-78 73 -78 197q0 115 77 192q76 78 201 78q107 0 178 -50l-25 -44q-55 42 -146 42q-102 0 -164 -61q-63 -60 -63 -157 q0 -99 63 -159q65 -59 166 -59t160 50v118z"/>
<glyph glyph-name="uniF680" horiz-adv-x="593" unicode="" d="M277 668q0 15 11 24t26 9q13 0 23.5 -9.5t10.5 -23.5q0 -16 -10 -26.5t-24 -10.5q-16 0 -26.5 10t-10.5 27zM490 212h-162v49h214v-197q-37 -34 -97 -53t-116 -19q-131 0 -208 73q-78 73 -78 197q0 115 77 192q76 78 201 78q107 0 178 -50l-25 -44q-55 42 -146 42 q-102 0 -164 -61q-63 -60 -63 -157q0 -99 63 -159q65 -59 166 -59t160 50v118z"/>
<glyph glyph-name="uniF681" horiz-adv-x="632" unicode="" d="M144 390v-96h345v96h-345zM89 390h-59v49h59v86h55v-86h345v86h55v-86h58v-49h-58v-390h-55v242h-345v-242h-55v390z"/>
<glyph glyph-name="uniF682" horiz-adv-x="633" unicode="" d="M544 0h-55v242h-345v-242h-55v525h55v-231h345v231h55v-525zM315 736h4l142 -114l-25 -32l-119 96l-121 -95l-26 31z"/>
<glyph glyph-name="uniF685" horiz-adv-x="268" unicode="" d="M260 647h-252v43h252v-43zM161 0h-55v525h55v-525z"/>
<glyph glyph-name="uniF686" horiz-adv-x="268" unicode="" d="M149 -148l16 -33q-28 -19 -73 -19q-49 0 -81 23t-32 68q0 44 35.5 75t91.5 43v516h55v-525h-8q-47 -1 -86 -28q-36 -27 -36 -65q0 -33 21.5 -48.5t51.5 -15.5q26 0 45 9z"/>
<glyph glyph-name="uniF688" horiz-adv-x="299" unicode="" d="M155 525h55v-407q0 -125 -118 -125q-51 0 -82 26l19 43q26 -17 55 -17q38 0 54.5 20t16.5 61v399zM175 736h4l142 -114l-25 -32l-119 96l-121 -95l-26 31z"/>
<glyph glyph-name="uniF689" horiz-adv-x="529" unicode="" d="M221 -71l45 16q35 -8 35 -50q0 -75 -85 -97l-15 24q48 20 48 65q0 33 -28 42zM144 0h-55v525h55v-525zM425 525h72l-263 -247l274 -278h-75l-267 274z"/>
<glyph glyph-name="uniF68A" horiz-adv-x="453" unicode="" d="M275 758l32 -39l-125 -131l-27 28zM436 0h-347v525h55v-470h292v-55z"/>
<glyph glyph-name="uniF68B" horiz-adv-x="453" unicode="" d="M304 525h50q9 -15 9 -40q0 -49 -20.5 -85t-54.5 -52l-23 24q49 37 49 107q0 27 -10 46zM436 0h-347v525h55v-470h292v-55z"/>
<glyph glyph-name="uniF68C" horiz-adv-x="453" unicode="" d="M225 -71l45 16q35 -8 35 -50q0 -75 -85 -97l-15 24q48 20 48 65q0 33 -28 42zM436 0h-347v525h55v-470h292v-55z"/>
<glyph glyph-name="uniF68D" horiz-adv-x="453" unicode="" d="M436 0h-347v525h55v-470h292v-55zM307 293q0 15 11.5 25.5t28.5 10.5q15 0 25.5 -11t10.5 -25q0 -16 -10.5 -28t-25.5 -12q-17 0 -28.5 12t-11.5 28z"/>
<glyph glyph-name="uniF68E" horiz-adv-x="650" unicode="" d="M406 758l32 -39l-125 -131l-27 28zM561 525v-525h-44l-376 434v-434h-52v525h44l376 -435v435h52z"/>
<glyph glyph-name="uniF68F" horiz-adv-x="650" unicode="" d="M561 525v-525h-44l-376 434v-434h-52v525h44l376 -435v435h52zM327 592h-4l-137 115l26 31l113 -95l113 95l25 -31z"/>
<glyph glyph-name="uniF690" horiz-adv-x="650" unicode="" d="M278 -71l45 16q35 -8 35 -50q0 -75 -85 -97l-15 24q48 20 48 65q0 33 -28 42zM561 525v-525h-44l-376 434v-434h-52v525h44l376 -435v435h52z"/>
<glyph glyph-name="uniF692" horiz-adv-x="650" unicode="" d="M319 759l38 -28l-115 -142l-29 19zM475 755l38 -29l-129 -137l-25 19zM101 262q0 -93 64 -156q65 -62 160 -62q99 0 161 62q63 62 63 156t-65 156t-159 62q-95 0 -160 -62q-64 -61 -64 -156zM43 262q0 115 80 192q80 78 202 78t201 -76q81 -76 81 -194q0 -116 -81 -193 q-80 -77 -201 -77q-123 0 -202 76q-80 77 -80 194z"/>
<glyph glyph-name="uniF693" horiz-adv-x="650" unicode="" d="M451 647h-252v43h252v-43zM101 262q0 -93 64 -156q65 -62 160 -62q99 0 161 62q63 62 63 156t-65 156t-159 62q-95 0 -160 -62q-64 -61 -64 -156zM43 262q0 115 80 192q80 78 202 78t201 -76q81 -76 81 -194q0 -116 -81 -193q-80 -77 -201 -77q-123 0 -202 76 q-80 77 -80 194z"/>
<glyph glyph-name="uniF695" horiz-adv-x="517" unicode="" d="M311 758l32 -39l-125 -131l-27 28zM229 475q-29 0 -85 -2v-213h95q55 0 95 30q41 32 41 79q0 106 -146 106zM144 208v-208h-55v525q33 0 68 1q36 1 70 1q206 0 206 -158q0 -56 -35 -96t-91 -52l185 -221h-70l-172 208h-106z"/>
<glyph glyph-name="uniF696" horiz-adv-x="517" unicode="" d="M230 592h-4l-137 115l26 31l113 -95l113 95l25 -31zM229 475q-29 0 -85 -2v-213h95q55 0 95 30q41 32 41 79q0 106 -146 106zM144 208v-208h-55v525q33 0 68 1q36 1 70 1q206 0 206 -158q0 -56 -35 -96t-91 -52l185 -221h-70l-172 208h-106z"/>
<glyph glyph-name="uniF697" horiz-adv-x="517" unicode="" d="M225 -71l45 16q35 -8 35 -50q0 -75 -85 -97l-15 24q48 20 48 65q0 33 -28 42zM229 475q-29 0 -85 -2v-213h95q55 0 95 30q41 32 41 79q0 106 -146 106zM144 208v-208h-55v525q33 0 68 1q36 1 70 1q206 0 206 -158q0 -56 -35 -96t-91 -52l185 -221h-70l-172 208h-106z"/>
<glyph glyph-name="uniF698" horiz-adv-x="473" unicode="" d="M322 758l32 -39l-125 -131l-27 28zM371 136q0 65 -111 100q-103 31 -139 54q-64 40 -64 106q0 62 48.5 99t137.5 37q47 0 97 -18q50 -16 75 -43l-26 -41q-26 23 -67.5 36.5t-81.5 13.5q-57 0 -91 -23.5t-34 -62.5q0 -60 111 -95q36 -10 55.5 -16t52.5 -20.5t50.5 -30 t31.5 -40.5t14 -56q0 -66 -54 -105q-52 -39 -132 -39q-65 0 -120 21t-84 56l32 38q64 -63 175 -63q52 0 88 25t36 67z"/>
<glyph glyph-name="uniF699" horiz-adv-x="473" unicode="" d="M139 -174l16 27q35 -22 72 -22q31 0 50.5 12.5t19.5 33.5q0 47 -71 47h-6v69q-58 4 -106 24t-74 52l32 38q64 -63 175 -63q52 0 88 25t36 67q0 65 -111 100q-103 31 -139 54q-64 40 -64 106q0 62 48.5 99t137.5 37q47 0 97 -18q50 -16 75 -43l-26 -41q-26 23 -67.5 36.5 t-81.5 13.5q-57 0 -91 -23.5t-34 -62.5q0 -60 111 -95q36 -10 55.5 -16t52.5 -20.5t50.5 -30t31.5 -40.5t14 -56q0 -65 -52 -104t-128 -40v-42q99 -3 99 -76q0 -34 -31 -55.5t-84 -21.5q-46 0 -95 29z"/>
<glyph glyph-name="uniF69A" horiz-adv-x="473" unicode="" d="M235 736h4l142 -114l-25 -32l-119 96l-121 -95l-26 31zM371 136q0 65 -111 100q-103 31 -139 54q-64 40 -64 106q0 62 48.5 99t137.5 37q47 0 97 -18q50 -16 75 -43l-26 -41q-26 23 -67.5 36.5t-81.5 13.5q-57 0 -91 -23.5t-34 -62.5q0 -60 111 -95q36 -10 55.5 -16 t52.5 -20.5t50.5 -30t31.5 -40.5t14 -56q0 -66 -54 -105q-52 -39 -132 -39q-65 0 -120 21t-84 56l32 38q64 -63 175 -63q52 0 88 25t36 67z"/>
<glyph glyph-name="uniF69B" horiz-adv-x="473" unicode="" d="M208 -71l45 16q35 -8 35 -50q0 -75 -85 -97l-15 24q48 20 48 65q0 33 -28 42zM371 136q0 65 -111 100q-103 31 -139 54q-64 40 -64 106q0 62 48.5 99t137.5 37q47 0 97 -18q50 -16 75 -43l-26 -41q-26 23 -67.5 36.5t-81.5 13.5q-57 0 -91 -23.5t-34 -62.5q0 -60 111 -95 q36 -10 55.5 -16t52.5 -20.5t50.5 -30t31.5 -40.5t14 -56q0 -66 -54 -105q-52 -39 -132 -39q-65 0 -120 21t-84 56l32 38q64 -63 175 -63q52 0 88 25t36 67z"/>
<glyph glyph-name="uniF69D" horiz-adv-x="484" unicode="" d="M214 473h-206v52h468v-52h-207v-473h-55v473zM245 592h-4l-137 115l26 31l113 -95l113 95l25 -31z"/>
<glyph glyph-name="uniF69E" horiz-adv-x="484" unicode="" d="M212 -71l45 16q35 -8 35 -50q0 -75 -85 -97l-15 24q48 20 48 65q0 33 -28 42zM214 473h-206v52h468v-52h-207v-473h-55v473z"/>
<glyph glyph-name="uniF69F" horiz-adv-x="613" unicode="" d="M167 697l24 27q56 -65 118 -65q65 0 117 64l20 -26q-59 -81 -139 -81q-89 0 -140 81zM477 525h55v-306q0 -113 -62 -170q-62 -56 -156 -56q-104 0 -169 60t-65 171v301h55v-290q0 -89 48 -139.5t131 -50.5q77 0 120 47.5t43 138.5v294z"/>
<glyph glyph-name="uniF6A0" horiz-adv-x="613" unicode="" d="M302 759l38 -28l-115 -142l-29 19zM458 755l38 -29l-129 -137l-25 19zM477 525h55v-306q0 -113 -62 -170q-62 -56 -156 -56q-104 0 -169 60t-65 171v301h55v-290q0 -89 48 -139.5t131 -50.5q77 0 120 47.5t43 138.5v294z"/>
<glyph glyph-name="uniF6A1" horiz-adv-x="613" unicode="" d="M432 647h-252v43h252v-43zM477 525h55v-306q0 -113 -62 -170q-62 -56 -156 -56q-104 0 -169 60t-65 171v301h55v-290q0 -89 48 -139.5t131 -50.5q77 0 120 47.5t43 138.5v294z"/>
<glyph glyph-name="uniF6A2" horiz-adv-x="613" unicode="" d="M477 525h55v-306q0 -82 -35 -136t-97 -76q-87 -49 -87 -100q0 -33 21.5 -48.5t51.5 -15.5q26 0 45 9l16 -33q-28 -19 -73 -19q-49 0 -81 23t-32 68q0 35 21.5 58.5t66.5 45.5q-32 -2 -35 -2q-104 0 -169 60t-65 171v301h55v-290q0 -89 48 -139.5t131 -50.5q77 0 120 47.5 t43 138.5v294z"/>
<glyph glyph-name="uniF6A3" horiz-adv-x="613" unicode="" d="M477 525h55v-306q0 -113 -62 -170q-62 -56 -156 -56q-104 0 -169 60t-65 171v301h55v-290q0 -89 48 -139.5t131 -50.5q77 0 120 47.5t43 138.5v294zM236 655q0 -31 20.5 -51.5t50.5 -20.5t50.5 20.5t20.5 51.5q0 30 -20.5 51t-50.5 21t-50.5 -21t-20.5 -51zM306 758 q45 0 76 -30.5t31 -73.5t-31 -72.5t-76 -29.5q-44 0 -74.5 29.5t-30.5 72.5t30.5 73.5t74.5 30.5z"/>
<glyph glyph-name="uniF6AB" horiz-adv-x="514" unicode="" d="M339 758l32 -39l-125 -131l-27 28zM392 473h-343v52h425v-36l-360 -437h368v-52h-449v36z"/>
<glyph glyph-name="uniF6AC" horiz-adv-x="514" unicode="" d="M222 668q0 15 11 24t26 9q13 0 23.5 -9.5t10.5 -23.5q0 -15 -10.5 -26t-23.5 -11q-16 0 -26.5 10t-10.5 27zM392 473h-343v52h425v-36l-360 -437h368v-52h-449v36z"/>
<glyph glyph-name="uniF6AD" horiz-adv-x="268" unicode="" d="M99 668q0 15 11 24t26 9q13 0 23.5 -9.5t10.5 -23.5q0 -16 -10 -26.5t-24 -10.5q-16 0 -26.5 10t-10.5 27zM161 0h-55v525h55v-525z"/>
<glyph glyph-name="uniF6BA" horiz-adv-x="399" unicode="" d="M314 329h-229v49h229v-49z"/>
<glyph glyph-name="uniF6BB" horiz-adv-x="590" unicode="" d="M496 331h-402v46h402v-46z"/>
<glyph glyph-name="uniF6BC" horiz-adv-x="796" unicode="" d="M702 331h-608v46h608v-46z"/>
<glyph glyph-name="uniF6C3" horiz-adv-x="220" unicode="" d="M80 -71l45 16q35 -8 35 -50q0 -75 -85 -97l-15 24q48 20 48 65q0 33 -28 42z"/>
<glyph glyph-name="uniF6C9" horiz-adv-x="318" unicode="" d="M239 868l19 -44l-182 -86l-16 31z"/>
<glyph glyph-name="uniF6CA" horiz-adv-x="463" unicode="" d="M235 740h-4l-171 98l23 30l150 -83l149 83l21 -29z"/>
<glyph glyph-name="uniF6CB" horiz-adv-x="427" unicode="" d="M293 804q0 15 11.5 23.5t27.5 8.5q15 0 25 -9t10 -23q0 -15 -10 -24.5t-25 -9.5q-17 0 -28 9t-11 25zM60 804q0 15 11 23.5t27 8.5q15 0 25.5 -9t10.5 -23q0 -15 -10.5 -24.5t-25.5 -9.5q-16 0 -27 9.5t-11 24.5z"/>
<glyph glyph-name="uniF6CE" horiz-adv-x="318" unicode="" d="M258 769l-15 -31l-183 86l20 44z"/>
<glyph glyph-name="uniF6CF" horiz-adv-x="486" unicode="" d="M199 868l42 -25l-158 -105l-23 22zM391 868l35 -33l-169 -97l-22 24z"/>
<glyph glyph-name="uniF6D0" horiz-adv-x="420" unicode="" d="M360 778h-300v43h300v-43z"/>
<glyph glyph-name="uniF6D1" horiz-adv-x="470" unicode="" d="M60 852h52q36 -71 125 -71q43 0 77 19.5t44 51.5h52q-10 -48 -60 -80q-49 -31 -113 -31q-67 0 -115.5 31t-61.5 80z"/>
<glyph glyph-name="uniF6D4" horiz-adv-x="396" unicode="" d="M60 684h47q0 -37 26 -62.5t67 -25.5q39 0 64 25.5t25 62.5h47q0 -55 -38 -91.5t-98 -36.5q-64 0 -102 35.5t-38 92.5z"/>
<glyph glyph-name="uniF6DC" horiz-adv-x="589" unicode="" d="M176 537l-28 42l159 127h36v-706h-52v630z"/>
<glyph glyph-name="uniF6DE" horiz-adv-x="597" unicode="" d="M526 247h-456v46h456v-46z"/>
<glyph glyph-name="uniF6F4" horiz-adv-x="399" unicode="" d="M60 697l24 27q56 -65 118 -65q65 0 117 64l20 -26q-59 -81 -139 -81q-89 0 -140 81z"/>
<glyph glyph-name="uniF6F5" horiz-adv-x="397" unicode="" d="M201 592h-4l-137 115l26 31l113 -95l113 95l25 -31z"/>
<glyph glyph-name="uniF6F6" horiz-adv-x="411" unicode="" d="M205 736h4l142 -114l-25 -32l-119 96l-121 -95l-26 31z"/>
<glyph glyph-name="uniF6F7" horiz-adv-x="191" unicode="" d="M60 668q0 15 11 24t26 9q13 0 23.5 -9.5t10.5 -23.5q0 -15 -10.5 -26t-23.5 -11q-16 0 -26.5 10t-10.5 27z"/>
<glyph glyph-name="uniF6F8" horiz-adv-x="420" unicode="" d="M166 759l38 -28l-115 -142l-29 19zM322 755l38 -29l-129 -137l-25 19z"/>
<glyph glyph-name="uniF6F9" horiz-adv-x="453" unicode="" d="M89 198l-69 -34v55l69 34v272h55v-244l119 59v-54l-119 -60v-171h292v-55h-347v198z"/>
<glyph glyph-name="uniF6FA" horiz-adv-x="856" unicode="" d="M326 44q80 0 139 42v353q-56 41 -143 41q-99 0 -160 -61t-61 -157q0 -98 62 -158q63 -60 163 -60zM797 0h-332v29q-61 -37 -143 -37q-125 0 -202 74t-77 196q0 116 75 193t200 77q82 0 147 -36v29h324v-52h-269v-181h244v-52h-244v-188h277v-52z"/>
<glyph glyph-name="uniF6FB" horiz-adv-x="306" unicode="" d="M230 -148l16 -33q-28 -19 -73 -19q-49 0 -81 23t-32 68q0 56 55 90q55 33 124 33v-14q-49 0 -88 -27t-39 -66q0 -33 21.5 -48.5t51.5 -15.5q25 0 45 9z"/>
<glyph glyph-name="uniF6FC" horiz-adv-x="332" unicode="" d="M95 655q0 -31 20.5 -51.5t50.5 -20.5t50.5 20.5t20.5 51.5q0 30 -20.5 51t-50.5 21t-50.5 -21t-20.5 -51zM165 758q45 0 76 -30.5t31 -73.5t-31 -72.5t-76 -29.5q-44 0 -74.5 29.5t-30.5 72.5t30.5 73.5t74.5 30.5z"/>
<glyph glyph-name="uniF6FD" horiz-adv-x="473" unicode="" d="M238 592h-4l-137 115l26 31l113 -95l113 95l25 -31zM371 136q0 65 -111 100q-103 31 -139 54q-64 40 -64 106q0 62 48.5 99t137.5 37q47 0 97 -18q50 -16 75 -43l-26 -41q-26 23 -67.5 36.5t-81.5 13.5q-57 0 -91 -23.5t-34 -62.5q0 -60 111 -95q36 -10 55.5 -16 t52.5 -20.5t50.5 -30t31.5 -40.5t14 -56q0 -66 -54 -105q-52 -39 -132 -39q-65 0 -120 21t-84 56l32 38q64 -63 175 -63q52 0 88 25t36 67z"/>
<glyph glyph-name="uniF6FE" horiz-adv-x="425" unicode="" d="M83 616l-23 25q52 52 101 52q23 0 57 -23q35 -23 54 -23q30 0 74 38l19 -27q-53 -54 -98 -54q-21 0 -56 23q-34 23 -56 23q-29 0 -72 -34z"/>
<glyph glyph-name="uniF6FF" horiz-adv-x="514" unicode="" d="M392 473h-343v52h425v-36l-360 -437h368v-52h-449v36zM258 592h-4l-137 115l26 31l113 -95l113 95l25 -31z"/>
<glyph glyph-name="uniF730" horiz-adv-x="620" unicode="" d="M109 250q0 -86 55 -147q56 -60 146 -60t146 60q55 61 55 147t-56 147q-56 60 -145 60q-90 0 -146 -60q-55 -59 -55 -147zM124 67q-70 76 -70 183q0 106 70 182q71 77 186 77t186 -77q70 -76 70 -182q0 -107 -70 -183t-186 -76t-186 76z"/>
<glyph glyph-name="uniF731" horiz-adv-x="368" unicode="" d="M67 352l-19 46l156 110h35v-508h-55v439z"/>
<glyph glyph-name="uniF732" horiz-adv-x="526" unicode="" d="M468 0h-417v40q105 42 208 109q123 84 123 180q0 59 -34.5 94t-97.5 35q-54 0 -96.5 -32.5t-54.5 -90.5l-36 30q14 68 68 106q55 39 119 39q90 0 137 -46.5t47 -124.5q0 -84 -71 -160q-23 -26 -67 -59q-64 -47 -120 -68h292v-52z"/>
<glyph glyph-name="uniF733" horiz-adv-x="533" unicode="" d="M249 -209q-71 0 -124.5 30.5t-79.5 90.5l31 36q25 -52 71 -78.5t102 -26.5q71 0 114.5 42t43.5 108q0 62 -43 100.5t-109 38.5h-60v52h54q50 0 91 41q40 40 40 101q0 62 -35.5 96.5t-98.5 34.5q-107 0 -152 -96l-31 33q21 55 70.5 85t116.5 30q86 0 135.5 -47t49.5 -129 q0 -57 -29.5 -102.5t-81.5 -66.5v-3q64 -9 101 -58t37 -112q0 -91 -60 -145q-59 -55 -153 -55z"/>
<glyph glyph-name="uniF734" horiz-adv-x="538" unicode="" d="M401 -200h-52v200h-325v35l298 465h60l-288 -448h255v213h52v-213h103v-52h-103v-200z"/>
<glyph glyph-name="uniF735" horiz-adv-x="518" unicode="" d="M113 164l43 336h304v-52h-259l-30 -228q31 9 69 9q98 0 159 -58q62 -59 62 -154q0 -102 -63 -164q-64 -62 -154 -62q-62 0 -115.5 29t-83.5 82l31 37q26 -45 72.5 -70.5t96.5 -25.5q69 0 115 49q46 47 46 123q0 73 -52 119q-51 48 -135 48q-59 0 -106 -18z"/>
<glyph glyph-name="uniF736" horiz-adv-x="550" unicode="" d="M109 248q0 -85 47 -146q47 -59 134 -59q64 0 109 49q45 50 45 117q0 76 -44 123.5t-120 47.5q-66 0 -112 -41t-59 -91zM54 248q0 90 30 173t80 142q106 120 227 146l22 -39q-108 -25 -194 -119q-85 -93 -105 -236q24 52 71 83t111 31q90 0 146 -60q57 -60 57 -156 q0 -95 -63 -159q-62 -63 -145 -63q-112 0 -175 74q-62 74 -62 183z"/>
<glyph glyph-name="uniF737" horiz-adv-x="475" unicode="" d="M374 448h-340v52h404v-32l-266 -668h-58z"/>
<glyph glyph-name="uniF738" horiz-adv-x="591" unicode="" d="M71 181q0 64 39 113t103 64v3q-49 15 -84 62q-34 47 -34 104q0 82 58 131q59 51 142 51q85 0 143 -51q58 -49 58 -131q0 -54 -33 -99.5t-88 -65.5v-3q64 -8 104 -57q41 -49 41 -117q0 -89 -66 -142q-64 -52 -158 -52t-159 52q-66 53 -66 138zM310 334h-26q-66 0 -112 -42 q-46 -40 -46 -102q0 -64 49 -106q50 -41 120 -41q74 0 121 40q49 40 49 107q0 65 -44 104.5t-111 39.5zM280 386h31q49 0 90 39q40 40 40 96q0 61 -44 99q-43 37 -103 37q-61 0 -102 -37q-42 -38 -42 -99q0 -56 40 -96q40 -39 90 -39z"/>
<glyph glyph-name="uniF739" horiz-adv-x="548" unicode="" d="M439 249q0 86 -44 147q-43 61 -129 61q-65 0 -114 -49q-49 -48 -49 -115q0 -70 44 -120q43 -49 122 -49q69 0 112 37q44 37 58 88zM494 249q0 -191 -96 -314t-246 -144l-19 41q125 22 207 115q80 91 94 235q-21 -49 -68 -78t-110 -29q-91 0 -150 62q-58 61 -58 152 q0 94 66 157t150 63q113 0 171 -73q59 -74 59 -187z"/>
<glyph glyph-name="uniF760" horiz-adv-x="272" unicode="" d="M212 616l-27 -28l-125 131l33 39z"/>
<glyph glyph-name="uniF761" horiz-adv-x="574" unicode="" d="M397 218l-112 243l-112 -243h224zM73 0h-56l247 529h46l247 -529h-59l-77 167h-271z"/>
<glyph glyph-name="uniF762" horiz-adv-x="512" unicode="" d="M249 476q-39 0 -105 -3v-181h112q52 0 86.5 26t34.5 67q0 91 -128 91zM255 243h-111v-190q75 -4 107 -4q147 0 147 102q0 44 -37 68t-106 24zM89 1v523q111 4 161 4q182 0 182 -130q0 -48 -30 -81.5t-79 -42.5v-1q63 -7 96.5 -38.5t33.5 -85.5q0 -76 -56 -114t-149 -38 q-100 0 -159 4z"/>
<glyph glyph-name="uniF763" horiz-adv-x="535" unicode="" d="M484 92l22 -42q-29 -27 -77.5 -42.5t-100.5 -15.5q-130 0 -207 73q-78 73 -78 197q0 116 75 192q76 78 204 78q103 0 173 -50l-26 -41q-61 39 -147 39q-99 0 -160 -61t-61 -157q0 -98 63 -158q64 -60 168 -60q88 0 152 48z"/>
<glyph glyph-name="uniF764" horiz-adv-x="602" unicode="" d="M237 475q-11 0 -93 -2v-421q25 0 47 -0.5t32 -1t11 -0.5q127 0 197 60q70 61 70 159q0 95 -67.5 150.5t-196.5 55.5zM96 0h-7v525h9q35 0 67 1t74 1q161 0 241 -72q79 -70 79 -186q0 -119 -85 -195t-242 -76q-34 0 -65 1t-71 1z"/>
<glyph glyph-name="uniF765" horiz-adv-x="481" unicode="" d="M421 0h-332v525h324v-52h-269v-181h245v-52h-245v-188h277v-52z"/>
<glyph glyph-name="uniF766" horiz-adv-x="447" unicode="" d="M144 0h-55v525h325v-52h-270v-197h246v-52h-246v-224z"/>
<glyph glyph-name="uniF767" horiz-adv-x="593" unicode="" d="M490 212h-162v49h214v-197q-37 -34 -97 -53t-116 -19q-131 0 -208 73q-78 73 -78 197q0 115 77 192q76 78 201 78q107 0 178 -50l-25 -44q-55 42 -146 42q-102 0 -164 -61q-63 -60 -63 -157q0 -99 63 -159q65 -59 166 -59t160 50v118z"/>
<glyph glyph-name="uniF768" horiz-adv-x="633" unicode="" d="M544 0h-55v242h-345v-242h-55v525h55v-231h345v231h55v-525z"/>
<glyph glyph-name="uniF769" horiz-adv-x="268" unicode="" d="M161 0h-55v525h55v-525z"/>
<glyph glyph-name="uniF76A" horiz-adv-x="299" unicode="" d="M155 525h55v-407q0 -125 -118 -125q-51 0 -82 26l19 43q26 -17 55 -17q38 0 54.5 20t16.5 61v399z"/>
<glyph glyph-name="uniF76B" horiz-adv-x="529" unicode="" d="M144 0h-55v525h55v-525zM425 525h72l-263 -247l274 -278h-75l-267 274z"/>
<glyph glyph-name="uniF76C" horiz-adv-x="453" unicode="" d="M436 0h-347v525h55v-470h292v-55z"/>
<glyph glyph-name="uniF76D" horiz-adv-x="724" unicode="" d="M144 0h-55v525h56l223 -276l214 276h53v-525h-55v442l-212 -270h-8l-216 267v-439z"/>
<glyph glyph-name="uniF76E" horiz-adv-x="650" unicode="" d="M561 525v-525h-44l-376 434v-434h-52v525h44l376 -435v435h52z"/>
<glyph glyph-name="uniF76F" horiz-adv-x="650" unicode="" d="M101 262q0 -93 64 -156q65 -62 160 -62q99 0 161 62q63 62 63 156t-65 156t-159 62q-95 0 -160 -62q-64 -61 -64 -156zM43 262q0 115 80 192q80 78 202 78t201 -76q81 -76 81 -194q0 -116 -81 -193q-80 -77 -201 -77q-123 0 -202 76q-80 77 -80 194z"/>
<glyph glyph-name="uniF770" horiz-adv-x="481" unicode="" d="M237 475q-31 0 -93 -2v-224q53 -4 88 -4q71 0 109.5 31t38.5 85q0 114 -143 114zM144 196v-196h-55v525q33 0 70 1t73 1q106 0 156 -44.5t50 -121.5q0 -75 -53 -121.5t-150 -46.5q-45 0 -91 3z"/>
<glyph glyph-name="uniF771" horiz-adv-x="650" unicode="" d="M101 262q0 -93 64 -156q65 -62 160 -62q71 0 123 33l-48 54l37 33l50 -57q62 62 62 155q0 94 -65 156t-159 62q-95 0 -160 -62q-64 -61 -64 -156zM43 262q0 115 80 192q80 78 202 78t201 -76q81 -76 81 -194q0 -117 -84 -196l60 -66h-65l-33 36q-71 -44 -160 -44 q-123 0 -202 76q-80 77 -80 194z"/>
<glyph glyph-name="uniF772" horiz-adv-x="517" unicode="" d="M229 475q-29 0 -85 -2v-213h95q55 0 95 30q41 32 41 79q0 106 -146 106zM144 208v-208h-55v525q33 0 68 1q36 1 70 1q206 0 206 -158q0 -56 -35 -96t-91 -52l185 -221h-70l-172 208h-106z"/>
<glyph glyph-name="uniF773" horiz-adv-x="473" unicode="" d="M371 136q0 65 -111 100q-103 31 -139 54q-64 40 -64 106q0 62 48.5 99t137.5 37q47 0 97 -18q50 -16 75 -43l-26 -41q-26 23 -67.5 36.5t-81.5 13.5q-57 0 -91 -23.5t-34 -62.5q0 -60 111 -95q36 -10 55.5 -16t52.5 -20.5t50.5 -30t31.5 -40.5t14 -56q0 -66 -54 -105 q-52 -39 -132 -39q-65 0 -120 21t-84 56l32 38q64 -63 175 -63q52 0 88 25t36 67z"/>
<glyph glyph-name="uniF774" horiz-adv-x="484" unicode="" d="M214 473h-206v52h468v-52h-207v-473h-55v473z"/>
<glyph glyph-name="uniF775" horiz-adv-x="613" unicode="" d="M477 525h55v-306q0 -113 -62 -170q-62 -56 -156 -56q-104 0 -169 60t-65 171v301h55v-290q0 -89 48 -139.5t131 -50.5q77 0 120 47.5t43 138.5v294z"/>
<glyph glyph-name="uniF776" horiz-adv-x="536" unicode="" d="M469 525h59l-237 -529h-40l-244 529h62l204 -452z"/>
<glyph glyph-name="uniF777" horiz-adv-x="785" unicode="" d="M720 525h55l-166 -525h-49l-165 435l-160 -435h-51l-174 525h62l142 -436l157 436h52l161 -437z"/>
<glyph glyph-name="uniF778" horiz-adv-x="539" unicode="" d="M443 525h68l-206 -258l214 -267h-68l-182 225l-181 -225h-68l214 267l-205 258h68l173 -216z"/>
<glyph glyph-name="uniF779" horiz-adv-x="483" unicode="" d="M410 525h63l-205 -298v-227h-55v227l-203 298h67l166 -246z"/>
<glyph glyph-name="uniF77A" horiz-adv-x="514" unicode="" d="M392 473h-343v52h425v-36l-360 -437h368v-52h-449v36z"/>
<glyph glyph-name="uniF7A8" horiz-adv-x="360" unicode="" d="M236 661q0 13 9.5 22t23.5 9q12 0 21.5 -9t9.5 -22q0 -15 -9 -24t-22 -9q-14 0 -23.5 9t-9.5 24zM60 661q0 13 9.5 22t23.5 9q12 0 21.5 -9t9.5 -22q0 -14 -9.5 -23.5t-21.5 -9.5q-14 0 -23.5 9t-9.5 24z"/>
<glyph glyph-name="uniF7AF" horiz-adv-x="372" unicode="" d="M312 647h-252v43h252v-43z"/>
<glyph glyph-name="uniF7B4" horiz-adv-x="272" unicode="" d="M180 758l32 -39l-125 -131l-27 28z"/>
<glyph glyph-name="uniF7B8" horiz-adv-x="330" unicode="" d="M60 -174l16 27q35 -22 72 -22q31 0 50.5 12.5t19.5 33.5q0 47 -71 47h-6v76h30v-50q99 -3 99 -76q0 -34 -31 -55.5t-84 -21.5q-46 0 -95 29z"/>
<glyph glyph-name="uniF7E0" horiz-adv-x="574" unicode="" d="M338 616l-27 -28l-125 131l33 39zM397 218l-112 243l-112 -243h224zM73 0h-56l247 529h46l247 -529h-59l-77 167h-271z"/>
<glyph glyph-name="uniF7E1" horiz-adv-x="574" unicode="" d="M360 758l32 -39l-125 -131l-27 28zM397 218l-112 243l-112 -243h224zM73 0h-56l247 529h46l247 -529h-59l-77 167h-271z"/>
<glyph glyph-name="uniF7E2" horiz-adv-x="574" unicode="" d="M286 736h4l142 -114l-25 -32l-119 96l-121 -95l-26 31zM397 218l-112 243l-112 -243h224zM73 0h-56l247 529h46l247 -529h-59l-77 167h-271z"/>
<glyph glyph-name="uniF7E3" horiz-adv-x="574" unicode="" d="M157 616l-23 25q52 52 101 52q23 0 57 -23q35 -23 54 -23q30 0 74 38l19 -27q-53 -54 -98 -54q-21 0 -56 23q-34 23 -56 23q-29 0 -72 -34zM397 218l-112 243l-112 -243h224zM73 0h-56l247 529h46l247 -529h-59l-77 167h-271z"/>
<glyph glyph-name="uniF7E4" horiz-adv-x="574" unicode="" d="M343 661q0 13 9.5 22t23.5 9q12 0 21.5 -9t9.5 -22q0 -15 -9.5 -24t-21.5 -9q-14 0 -23.5 9t-9.5 24zM167 661q0 13 9.5 22t23.5 9q12 0 21.5 -9t9.5 -22q0 -14 -9.5 -23.5t-21.5 -9.5q-14 0 -23.5 9t-9.5 24zM397 218l-112 243l-112 -243h224zM73 0h-56l247 529h46 l247 -529h-59l-77 167h-271z"/>
<glyph glyph-name="uniF7E5" horiz-adv-x="574" unicode="" d="M216 659q0 -31 20.5 -51.5t50.5 -20.5t50.5 20.5t20.5 51.5q0 30 -20.5 51t-50.5 21t-50.5 -21t-20.5 -51zM286 762q45 0 76 -30.5t31 -73.5t-31 -72.5t-76 -29.5q-44 0 -74.5 29.5t-30.5 72.5t30.5 73.5t74.5 30.5zM397 218l-112 243l-112 -243h224zM73 0h-56l247 529 h46l247 -529h-59l-77 167h-271z"/>
<glyph glyph-name="uniF7E6" horiz-adv-x="786" unicode="" d="M401 222v224l-173 -224h173zM727 0h-326v170h-215l-130 -170h-64l170 217l240 308h316v-52h-262v-181h238v-52h-238v-188h271v-52z"/>
<glyph glyph-name="uniF7E7" horiz-adv-x="535" unicode="" d="M206 -174l16 27q35 -22 72 -22q31 0 50.5 12.5t19.5 33.5q0 47 -71 47h-6v71q-111 10 -178 82q-66 72 -66 185q0 116 75 192q76 78 204 78q103 0 173 -50l-26 -41q-61 39 -147 39q-99 0 -160 -61t-61 -157q0 -98 63 -158q64 -60 168 -60q88 0 152 48l22 -42 q-29 -27 -77.5 -42.5t-100.5 -15.5h-11v-42q99 -3 99 -76q0 -34 -31 -55.5t-84 -21.5q-46 0 -95 29z"/>
<glyph glyph-name="uniF7E8" horiz-adv-x="481" unicode="" d="M304 616l-27 -28l-125 131l33 39zM421 0h-332v525h324v-52h-269v-181h245v-52h-245v-188h277v-52z"/>
<glyph glyph-name="uniF7E9" horiz-adv-x="481" unicode="" d="M327 758l32 -39l-125 -131l-27 28zM421 0h-332v525h324v-52h-269v-181h245v-52h-245v-188h277v-52z"/>
<glyph glyph-name="uniF7EA" horiz-adv-x="481" unicode="" d="M421 0h-332v525h324v-52h-269v-181h245v-52h-245v-188h277v-52zM252 736h4l142 -114l-25 -32l-119 96l-121 -95l-26 31z"/>
<glyph glyph-name="uniF7EB" horiz-adv-x="481" unicode="" d="M305 661q0 13 9.5 22t23.5 9q12 0 21.5 -9t9.5 -22q0 -15 -9.5 -24t-21.5 -9q-14 0 -23.5 9t-9.5 24zM129 661q0 13 9.5 22t23.5 9q12 0 21.5 -9t9.5 -22q0 -14 -9.5 -23.5t-21.5 -9.5q-14 0 -23.5 9t-9.5 24zM421 0h-332v525h324v-52h-269v-181h245v-52h-245v-188h277 v-52z"/>
<glyph glyph-name="uniF7EC" horiz-adv-x="268" unicode="" d="M161 0h-55v525h55v-525zM180 616l-27 -28l-125 131l33 39z"/>
<glyph glyph-name="uniF7ED" horiz-adv-x="268" unicode="" d="M219 758l32 -39l-125 -131l-27 28zM161 0h-55v525h55v-525z"/>
<glyph glyph-name="uniF7EE" horiz-adv-x="268" unicode="" d="M161 0h-55v525h55v-525zM134 736h4l142 -114l-25 -32l-119 96l-121 -95l-26 31z"/>
<glyph glyph-name="uniF7EF" horiz-adv-x="268" unicode="" d="M161 0h-55v525h55v-525zM190 661q0 13 9.5 22t23.5 9q12 0 21.5 -9t9.5 -22q0 -15 -9 -24t-22 -9q-14 0 -23.5 9t-9.5 24zM14 661q0 13 9.5 22t23.5 9q12 0 21.5 -9t9.5 -22q0 -14 -9.5 -23.5t-21.5 -9.5q-14 0 -23.5 9t-9.5 24z"/>
<glyph glyph-name="uniF7F0" horiz-adv-x="617" unicode="" d="M260 475q-3 0 -102 -3v-179h159v-49h-159v-192h24.5t25 -0.5t22 -1t16.5 -0.5h7q127 0 194 61q69 61 69 158q0 95 -66 150.5t-190 55.5zM103 244h-95v49h95v232h10q35 0 68 1t79 1q158 0 235 -73q79 -73 79 -185q0 -118 -84 -194q-83 -77 -234 -77q-41 0 -74 1 q-32 1 -71 1h-8v244z"/>
<glyph glyph-name="uniF7F1" horiz-adv-x="650" unicode="" d="M191 616l-23 25q52 52 101 52q23 0 57 -23q35 -23 54 -23q30 0 74 38l19 -27q-53 -54 -98 -54q-21 0 -56 23q-34 23 -56 23q-29 0 -72 -34zM561 525v-525h-44l-376 434v-434h-52v525h44l376 -435v435h52z"/>
<glyph glyph-name="uniF7F2" horiz-adv-x="650" unicode="" d="M368 616l-27 -28l-125 131l33 39zM101 262q0 -93 64 -156q65 -62 160 -62q99 0 161 62q63 62 63 156t-65 156t-159 62q-95 0 -160 -62q-64 -61 -64 -156zM43 262q0 115 80 192q80 78 202 78t201 -76q81 -76 81 -194q0 -116 -81 -193q-80 -77 -201 -77q-123 0 -202 76 q-80 77 -80 194z"/>
<glyph glyph-name="uniF7F3" horiz-adv-x="650" unicode="" d="M403 758l32 -39l-125 -131l-27 28zM101 262q0 -93 64 -156q65 -62 160 -62q99 0 161 62q63 62 63 156t-65 156t-159 62q-95 0 -160 -62q-64 -61 -64 -156zM43 262q0 115 80 192q80 78 202 78t201 -76q81 -76 81 -194q0 -116 -81 -193q-80 -77 -201 -77q-123 0 -202 76 q-80 77 -80 194z"/>
<glyph glyph-name="uniF7F4" horiz-adv-x="650" unicode="" d="M101 262q0 -93 64 -156q65 -62 160 -62q99 0 161 62q63 62 63 156t-65 156t-159 62q-95 0 -160 -62q-64 -61 -64 -156zM43 262q0 115 80 192q80 78 202 78t201 -76q81 -76 81 -194q0 -116 -81 -193q-80 -77 -201 -77q-123 0 -202 76q-80 77 -80 194zM325 736h4l142 -114 l-25 -32l-119 96l-121 -95l-26 31z"/>
<glyph glyph-name="uniF7F5" horiz-adv-x="650" unicode="" d="M196 616l-23 25q52 52 101 52q23 0 57 -23q35 -23 54 -23q30 0 74 38l19 -27q-52 -54 -98 -54q-21 0 -56 23q-34 23 -56 23q-29 0 -72 -34zM101 262q0 -93 64 -156q65 -62 160 -62q99 0 161 62q63 62 63 156t-65 156t-159 62q-95 0 -160 -62q-64 -61 -64 -156zM43 262 q0 115 80 192q80 78 202 78t201 -76q81 -76 81 -194q0 -116 -81 -193q-80 -77 -201 -77q-123 0 -202 76q-80 77 -80 194z"/>
<glyph glyph-name="uniF7F6" horiz-adv-x="650" unicode="" d="M382 661q0 13 9.5 22t23.5 9q12 0 21.5 -9t9.5 -22q0 -15 -9 -24t-22 -9q-14 0 -23.5 9t-9.5 24zM206 661q0 13 9.5 22t23.5 9q12 0 21.5 -9t9.5 -22q0 -14 -9.5 -23.5t-21.5 -9.5q-14 0 -23.5 9t-9.5 24zM101 262q0 -93 64 -156q65 -62 160 -62q99 0 161 62 q63 62 63 156t-65 156t-159 62q-95 0 -160 -62q-64 -61 -64 -156zM43 262q0 115 80 192q80 78 202 78t201 -76q81 -76 81 -194q0 -116 -81 -193q-80 -77 -201 -77q-123 0 -202 76q-80 77 -80 194z"/>
<glyph glyph-name="uniF7F8" horiz-adv-x="650" unicode="" d="M549 262q0 75 -44 133l-316 -308q58 -43 136 -43q99 0 161 62q63 62 63 156zM101 262q0 -85 56 -147l318 311q-65 54 -150 54q-95 0 -160 -62q-64 -61 -64 -156zM43 262q0 115 80 192q80 78 202 78q113 0 190 -66l59 57l30 -31l-58 -57q61 -71 61 -173q0 -116 -81 -193 q-80 -77 -201 -77q-104 0 -177 55l-56 -55l-30 31l53 52q-72 75 -72 187z"/>
<glyph glyph-name="uniF7F9" horiz-adv-x="613" unicode="" d="M348 616l-27 -28l-125 131l33 39zM477 525h55v-306q0 -113 -62 -170q-62 -56 -156 -56q-104 0 -169 60t-65 171v301h55v-290q0 -89 48 -139.5t131 -50.5q77 0 120 47.5t43 138.5v294z"/>
<glyph glyph-name="uniF7FA" horiz-adv-x="613" unicode="" d="M379 758l32 -39l-125 -131l-27 28zM477 525h55v-306q0 -113 -62 -170q-62 -56 -156 -56q-104 0 -169 60t-65 171v301h55v-290q0 -89 48 -139.5t131 -50.5q77 0 120 47.5t43 138.5v294z"/>
<glyph glyph-name="uniF7FB" horiz-adv-x="613" unicode="" d="M477 525h55v-306q0 -113 -62 -170q-62 -56 -156 -56q-104 0 -169 60t-65 171v301h55v-290q0 -89 48 -139.5t131 -50.5q77 0 120 47.5t43 138.5v294zM306 736h4l142 -114l-25 -32l-119 96l-121 -95l-26 31z"/>
<glyph glyph-name="uniF7FC" horiz-adv-x="613" unicode="" d="M363 661q0 13 9.5 22t23.5 9q12 0 21.5 -9t9.5 -22q0 -15 -9.5 -24t-21.5 -9q-14 0 -23.5 9t-9.5 24zM187 661q0 13 9.5 22t23.5 9q12 0 21.5 -9t9.5 -22q0 -14 -9.5 -23.5t-21.5 -9.5q-14 0 -23.5 9t-9.5 24zM477 525h55v-306q0 -113 -62 -170q-62 -56 -156 -56 q-104 0 -169 60t-65 171v301h55v-290q0 -89 48 -139.5t131 -50.5q77 0 120 47.5t43 138.5v294z"/>
<glyph glyph-name="uniF7FD" horiz-adv-x="483" unicode="" d="M322 758l32 -39l-125 -131l-27 28zM410 525h63l-205 -298v-227h-55v227l-203 298h67l166 -246z"/>
<glyph glyph-name="uniF7FE" horiz-adv-x="481" unicode="" d="M237 401q-65 0 -93 -2v-226q36 -4 86 -4q72 0 111 32.5t39 85.5t-35.5 83.5t-107.5 30.5zM144 121v-121h-55v525h55v-73h46q24 1 48 1q107 0 153 -49q47 -49 47 -118q0 -70 -51 -120q-50 -49 -151 -49q-56 0 -92 4z"/>
<glyph glyph-name="uniF7FF" horiz-adv-x="483" unicode="" d="M298 661q0 13 9.5 22t23.5 9q12 0 21.5 -9t9.5 -22q0 -15 -9 -24t-22 -9q-14 0 -23.5 9t-9.5 24zM122 661q0 13 9.5 22t23.5 9q12 0 21.5 -9t9.5 -22q0 -14 -9.5 -23.5t-21.5 -9.5q-14 0 -23.5 9t-9.5 24zM410 525h63l-205 -298v-227h-55v227l-203 298h67l166 -246z"/>
<glyph glyph-name="NULL" horiz-adv-x="0"/>
<glyph glyph-name="CR" horiz-adv-x="333"/>
<glyph glyph-name="P.alt02.swsh01a" d="M261 648v-352q85 7 134.5 57.5t49.5 125.5q0 74 -49.5 121.5t-134.5 47.5zM261 244v-244h-55v648h-15q-77 0 -124.5 -42.5t-47.5 -112.5q0 -38 24 -70.5t60 -49.5l-27 -40q-49 19 -80.5 63t-31.5 97q0 98 66 152q67 55 163 55h61q65 0 114.5 -19.5t78 -52.5t42.5 -71 t14 -79q0 -89 -64 -156q-65 -68 -178 -78z" horiz-adv-x="563"/>
<glyph glyph-name="P.swsh0110" d="M487 650q-33 0 -121 -2v-314q72 -5 114 -5q92 0 142.5 44t50.5 119q0 74 -46.5 116t-139.5 42zM311 -7v655h-87q-208 0 -208 -144q0 -44 29.5 -73.5t69.5 -29.5q31 0 50 16.5t19 45.5q0 18 -12.5 30.5t-30.5 12.5q-16 0 -30 -14l-15 39q22 24 57 24q36 0 59.5 -25 t23.5 -64q0 -54 -34 -85.5t-91 -31.5q-64 0 -106 45q-41 46 -41 109q0 197 270 197h81q41 0 84 1t83 1q70 0 120.5 -18t77.5 -49t39 -66.5t12 -77.5q0 -91 -63 -152q-64 -62 -186 -62q-69 0 -116 4v-291q0 -81 -51 -133q-49 -52 -134 -52q-87 0 -138 52q-50 52 -50 123 q0 62 36 105q36 44 98 44q45 0 74.5 -26.5t29.5 -67.5q0 -62 -53 -79l-30 28q34 7 34 45q0 21 -16 36t-40 15q-36 0 -58.5 -28t-22.5 -73q0 -47 36 -84q36 -38 100 -38q57 0 93.5 37.5t36.5 98.5z" horiz-adv-x="785"/>
<glyph glyph-name="P.alt02.swsh10" d="M337 648v-352q85 7 135 57.5t50 125.5q0 74 -49.5 121.5t-135.5 47.5zM282 -7v707h48q125 0 187.5 -66.5t62.5 -155.5t-64 -156q-65 -68 -179 -78v-254q0 -81 -51 -133q-49 -52 -134 -52q-87 0 -138 52q-50 52 -50 123q0 62 36 105q36 44 98 44q45 0 74.5 -26.5 t29.5 -67.5q0 -62 -53 -79l-30 28q34 7 34 45q0 21 -16 36t-39 15q-36 0 -59 -28t-23 -73q0 -47 36 -84q36 -38 100 -38q57 0 93.5 37.5t36.5 98.5z" horiz-adv-x="640"/>
<glyph glyph-name="P.swsh01" d="M487 650q-33 0 -121 -2v-314q72 -5 114 -5q92 0 142.5 44t50.5 119q0 74 -46.5 116t-139.5 42zM366 281v-281h-55v648h-87q-208 0 -208 -144q0 -44 29.5 -73.5t69.5 -29.5q31 0 50 16.5t19 45.5q0 18 -12.5 30.5t-30.5 12.5q-16 0 -30 -14l-15 39q22 24 57 24 q36 0 59.5 -25t23.5 -64q0 -54 -34 -85.5t-91 -31.5q-64 0 -106 45q-41 46 -41 109q0 197 270 197h77q41 0 85 1t86 1q70 0 120.5 -18t77.5 -49t39 -66.5t12 -77.5q0 -91 -63 -152q-64 -62 -186 -62q-69 0 -116 4z" horiz-adv-x="785"/>
<glyph glyph-name="uniF770.alt02" d="M144 473v-245q63 5 100.5 40.5t37.5 87.5q0 50 -37.5 83.5t-100.5 33.5zM144 176v-176h-55v525h40q107 0 159 -51q52 -49 52 -119q0 -67 -52 -119q-51 -52 -144 -60z" horiz-adv-x="389"/>
<glyph glyph-name="P.alt02.swsh36" d="M166 648v-352q85 7 134.5 57.5t49.5 125.5q0 74 -49.5 121.5t-134.5 47.5zM-145 -85l39 26q32 -74 110 -74q49 0 78 33.5t29 91.5v708h48q65 0 114.5 -19.5t78 -52.5t42.5 -71t14 -79q0 -89 -64 -156q-65 -68 -178 -78v-259q0 -76 -42.5 -123t-114.5 -47q-112 0 -154 100 z" horiz-adv-x="468"/>
<glyph glyph-name="P.alt01.swsh10" d="M282 -6v458q0 144 78 204q69 53 150 53q112 0 169 -66q58 -65 58 -155q0 -110 -66 -169q-65 -59 -155 -59q-80 0 -127 34l17 47q44 -29 108 -29q66 0 115 45q50 45 50 131q0 70 -45 119q-45 50 -121 50q-72 0 -125 -53q-51 -52 -51 -164v-449q0 -81 -51 -133 q-49 -52 -134 -52q-87 0 -138 52q-50 52 -50 123q0 61 36 105t98 44q45 0 74.5 -26.5t29.5 -67.5q0 -62 -53 -79l-30 28q34 7 34 45q0 21 -16 36t-39 15q-36 0 -59 -28t-23 -73q0 -46 36 -84t100 -38q57 0 93.5 37.5t36.5 98.5z" horiz-adv-x="777"/>
<glyph glyph-name="P.swsh36" d="M287 650q-33 0 -121 -2v-314q72 -5 114 -5q92 0 142.5 44t50.5 119q0 74 -46.5 116t-139.5 42zM-145 -85l39 26q32 -74 110 -74q49 0 78 33.5t29 91.5v708q41 0 85 1t86 1q70 0 120.5 -18t77.5 -49t39 -66.5t12 -77.5q0 -91 -63 -152q-64 -62 -186 -62q-69 0 -116 4v-296 q0 -76 -42.5 -123t-114.5 -47q-112 0 -154 100z" horiz-adv-x="585"/>
<glyph glyph-name="Q.swsh32" d="M112 350q0 -130 84 -219q85 -88 209 -88q92 0 165 49l-62 75l37 33l63 -76q90 88 90 226q0 133 -85 219q-84 88 -208 88q-125 0 -209 -88q-84 -87 -84 -219zM54 350q0 153 100 256t251 103q149 0 250 -102q101 -101 101 -257q0 -163 -113 -268l69 -82l9 -10 q43 -51 101 -91q58 -42 124 -42q98 0 167 112l35 -30q-77 -131 -205 -131q-67 0 -139 42q-30 18 -59 46q-24 21 -46 46q-29 32 -41 46l-12 14l-42 49q-88 -60 -199 -60q-150 0 -251 101q-100 101 -100 258z" horiz-adv-x="810"/>
<glyph glyph-name="P.alt01" d="M163 440v-440h-55v452q0 144 78 204q69 53 150 53q110 0 169 -66q58 -65 58 -155q0 -110 -66 -169q-65 -59 -155 -59q-80 0 -127 34l17 47q44 -29 108 -29q66 0 115 45q50 45 50 131q0 70 -45 119q-45 50 -121 50q-72 0 -125 -53q-51 -52 -51 -164z" horiz-adv-x="603"/>
<glyph glyph-name="uniF771.alt01" d="M53 -8l-23 44q61 55 138 55q3 0 35 -2q68 12 131 40q61 28 101 78t40 111q0 74 -51 117q-49 45 -130 45q-72 0 -125 -42q-51 -40 -51 -107q0 -57 35 -96.5t95 -51.5l-43 -31q-65 15 -105 63.5t-40 112.5q0 90 67 147t172 57q40 0 79 -12t75 -36t58 -67t22 -98 q0 -97 -72 -158q-71 -61 -180 -90q114 -32 159 -32q69 0 115 43l24 -40q-58 -52 -139 -55h-5q-43 0 -134 25q-91 27 -134 27q-70 0 -114 -47z" horiz-adv-x="603"/>
<glyph glyph-name="uniF771.alt02" d="M101 262q0 -93 64 -156q65 -62 160 -62q99 0 161 62q63 62 63 156t-65 156t-159 62q-95 0 -160 -62q-64 -61 -64 -156zM43 262q0 115 80 192q80 78 202 78t201 -76q81 -76 81 -194q0 -100 -63 -174q-61 -73 -161 -91q69 -92 178 -138q111 -47 232 -47q138 0 230 50 q93 50 139 117l35 -34q-45 -70 -150 -127q-104 -58 -254 -58q-148 0 -278 63q-132 64 -197 169q-118 1 -197 77q-78 76 -78 193z" horiz-adv-x="650"/>
<glyph glyph-name="P.swsh0137" d="M487 650q-33 0 -121 -2v-314q72 -5 114 -5q92 0 142.5 44t50.5 119q0 74 -46.5 116t-139.5 42zM55 -85l39 26q32 -74 110 -74q49 0 78 33.5t29 91.5v656h-87q-208 0 -208 -144q0 -44 29.5 -73.5t69.5 -29.5q31 0 50 16.5t19 45.5q0 18 -12.5 30.5t-30.5 12.5 q-16 0 -30 -14l-15 39q22 24 57 24q36 0 59.5 -25t23.5 -64q0 -54 -34 -85.5t-91 -31.5q-64 0 -106 45q-41 46 -41 109q0 197 270 197h81q41 0 84 1t83 1q70 0 120.5 -18t77.5 -49t39 -66.5t12 -77.5q0 -91 -63 -152q-64 -62 -186 -62q-69 0 -116 4v-296q0 -76 -42.5 -123 t-114.5 -47q-112 0 -154 100z" horiz-adv-x="785"/>
</font>
</defs>
</svg>
