<?xml version="1.0" encoding="UTF-8" standalone="no"?>
<!DOCTYPE svg  PUBLIC '-//W3C//DTD SVG 1.1//EN'  'http://www.w3.org/Graphics/SVG/1.1/DTD/svg11.dtd'>
<svg xmlns="http://www.w3.org/2000/svg">
<defs>
<font id="Circe-Regular" horiz-adv-x="592">
<font-face underline-position="-50" font-weight="400" descent="-200" panose-1="2 11 5 2 2 2 3 2 2 3" units-per-em="1000" unicode-range="U+0020-FB02" bbox="-534 -392 1681 1005" x-height="450" underline-thickness="50" font-family="Circe" ascent="800" cap-height="700"/>
<missing-glyph horiz-adv-x="225"/>
<glyph glyph-name="uniF350.var.accented" horiz-adv-x="590" unicode="`" d="M360 766l49 -61l-135 -125l-40 44zM387 220l-94 206l-95 -206h189zM98 0h-86l246 528h74l246 -528h-91l-64 140h-261z"/>
<glyph glyph-name="uniF355.var.accented" horiz-adv-x="488" unicode="`" d="M318 766l49 -61l-135 -125l-40 44zM432 0h-348v525h340v-80h-255v-140h230v-80h-230v-145h263v-80z"/>
<glyph glyph-name="uniF358.var.accented" horiz-adv-x="656" unicode="`" d="M388 766l49 -61l-135 -125l-40 44zM487 390l-328 -390h-75v525h85v-390l328 390h75v-525h-85v390z"/>
<glyph glyph-name="uniF35E.var.accented" horiz-adv-x="655" unicode="`" d="M399 766l49 -61l-135 -125l-40 44zM130 262q0 -80 57 -136q56 -55 141 -55q91 0 143 54q54 54 54 137q0 84 -57 136q-56 54 -140 54q-85 0 -142 -54q-56 -53 -56 -136zM40 262q0 116 81 192q81 78 207 78q124 0 205 -75q82 -75 82 -195q0 -119 -82 -195q-80 -76 -205 -76 q-124 0 -207 75q-81 75 -81 196z"/>
<glyph glyph-name="uniF363.var.accented" horiz-adv-x="546" unicode="`" d="M348 766l49 -61l-135 -125l-40 44zM449 525h87l-197 -401q-31 -64 -67.5 -94t-84.5 -30q-41 0 -69 20l30 72q22 -13 43 -13q35 0 61 48l10 18l-251 380h106l189 -296z"/>
<glyph glyph-name="uniF36B.var.accented" horiz-adv-x="706" unicode="`" d="M398 766l49 -61l-135 -125l-40 44zM84 525h85v-183q42 3 71 3q104 0 158 -44t54 -124q0 -83 -61.5 -131t-169.5 -48q-44 0 -75 1t-62 1v525zM233 265q-25 0 -64 -3v-182q54 -2 62 -2q131 0 131 97q0 90 -129 90zM622 0h-85v525h85v-525z"/>
<glyph glyph-name="uniF36D.var.accented" horiz-adv-x="557" unicode="`" d="M298 766l49 -61l-135 -125l-40 44zM430 228h-273v80h272q-14 70 -67 107.5t-138 37.5q-98 0 -157 -41l-34 64q75 57 195 57q129 0 209 -74q81 -74 81 -196q0 -124 -82 -197q-82 -74 -217 -74q-122 0 -193 55l37 71q65 -46 166 -46q84 0 137.5 41t63.5 115z"/>
<glyph glyph-name="uniF36E.var.accented" horiz-adv-x="871" unicode="`" d="M489 766l49 -61l-135 -125l-40 44zM368 263q0 -84 52 -137q52 -54 134 -54q86 0 136 54q51 54 51 137q0 85 -52 137q-51 53 -135 53q-81 0 -134 -53q-52 -52 -52 -137zM169 0h-85v525h85v-217h112q13 99 87 162t184 63q126 0 203 -74q76 -73 76 -196q0 -119 -77 -196 q-76 -75 -202 -75q-112 0 -186 64q-75 65 -86 172h-111v-228z"/>
<glyph glyph-name="uniF36F.var.accented" horiz-adv-x="534" unicode="`" d="M348 766l49 -61l-135 -125l-40 44zM245 260h120v185q-51 3 -83 3q-61 0 -94.5 -27t-33.5 -71q0 -34 26.5 -59t64.5 -31zM450 0h-85v180h-112l-134 -180h-101l149 197q-47 21 -75 59.5t-28 88.5q0 82 59 132.5t167 50.5q13 0 89 -2q38 -1 71 -1v-525z"/>
<glyph glyph-name="uniF371.var.accented" horiz-adv-x="488" unicode="`" d="M432 0h-348v525h340v-80h-255v-140h230v-80h-230v-145h263v-80zM268 766l69 -43l-109 -143l-45 28zM332 654q0 18 13.5 30.5t32.5 12.5q18 0 31 -12.5t13 -30.5q0 -20 -13 -33t-31 -13q-19 0 -32.5 13t-13.5 33zM84 654q0 19 14 31t34 12q18 0 30.5 -12.5t12.5 -30.5 q0 -20 -12.5 -33t-30.5 -13q-21 0 -34.5 12.5t-13.5 33.5z"/>
<glyph glyph-name="afii10017.var.accented" horiz-adv-x="705" unicode="А`" d="M483 887l30 -68l-202 -84l-23 48zM476 292l-126 299l-126 -299h252zM101 0h-86l301 704h73l301 -704h-91l-90 212h-319z"/>
<glyph glyph-name="afii10022.var.accented" horiz-adv-x="575" unicode="Е`" d="M433 887l30 -68l-202 -84l-23 48zM510 0h-405v700h395v-80h-310v-226h280v-80h-280v-234h320v-80z"/>
<glyph glyph-name="afii10026.var.accented" horiz-adv-x="795" unicode="И`" d="M523 887l30 -68l-202 -84l-23 48zM605 560l-425 -560h-75v700h85v-560l425 560h75v-700h-85v560z"/>
<glyph glyph-name="afii10032.var.accented" horiz-adv-x="814" unicode="О`" d="M533 887l30 -68l-202 -84l-23 48zM140 350q0 -118 77 -200q77 -80 190 -80q118 0 192 80q75 80 75 200t-77 200t-190 80q-115 0 -191 -79t-76 -201zM50 350q0 152 101 256t256 104q154 0 255 -101q102 -100 102 -259q0 -154 -102 -258q-102 -102 -255 -102t-256 101 q-101 101 -101 259z"/>
<glyph glyph-name="afii10037.var.accented" horiz-adv-x="666" unicode="У`" d="M478 887l30 -68l-202 -84l-23 48zM565 700h86l-242 -540q-37 -84 -77.5 -122t-96.5 -38q-54 0 -85 25l30 72q26 -18 54 -18q51 0 86 71l12 26l-317 524h96l262 -439z"/>
<glyph glyph-name="afii10045.var.accented" horiz-adv-x="845" unicode="Ы`" d="M533 887l30 -68l-202 -84l-23 48zM105 700h85v-260q70 5 93 5q127 0 193 -56.5t66 -159.5q0 -110 -73 -170.5t-205 -60.5q-50 0 -87 1q-36 1 -72 1v700zM277 365q-35 0 -87 -6v-278q81 -3 84 -3q178 0 178 149q0 67 -45 102.5t-130 35.5zM740 0h-85v700h85v-700z"/>
<glyph glyph-name="afii10047.var.accented" horiz-adv-x="677" unicode="Э`" d="M413 887l30 -68l-202 -84l-23 48zM540 317h-347v80h346q-13 108 -89 170.5t-194 62.5q-104 0 -177 -57l-33 64q82 73 230 73q156 0 254 -98q97 -97 97 -260q0 -161 -98 -262q-97 -100 -261 -100q-142 0 -233 73l37 71q85 -64 194 -64q112 0 187 66q77 68 87 181z"/>
<glyph glyph-name="afii10048.var.accented" horiz-adv-x="1078" unicode="Ю`" d="M683 887l30 -68l-202 -84l-23 48zM429 350q0 -119 72 -200q74 -80 182 -80q119 0 186 79q69 79 69 201t-71 201q-70 79 -184 79q-110 0 -182 -79t-72 -201zM190 0h-85v700h85v-303h151q15 137 108 225q94 88 232 88q152 0 250 -101q97 -100 97 -259q0 -155 -98 -258 q-98 -102 -249 -102q-138 0 -235 91q-96 91 -106 236h-150v-317z"/>
<glyph glyph-name="afii10049.var.accented" horiz-adv-x="623" unicode="Я`" d="M488 887l30 -68l-202 -84l-23 48zM292 340h141v280q-69 3 -95 3q-78 0 -122.5 -40.5t-44.5 -106.5q0 -53 36 -91t85 -45zM518 0h-85v260h-131l-181 -260h-96l194 275q-62 25 -100 76.5t-38 119.5q0 101 69 166q69 66 204 66q4 0 84 -2q40 -1 80 -1v-700z"/>
<glyph glyph-name="afii10023.var.accented" horiz-adv-x="575" unicode="Ё`" d="M510 0h-405v700h395v-80h-310v-226h280v-80h-280v-234h320v-80zM336 887l67 -21l-139 -125l-29 15zM403 813q0 20 13 32.5t31 12.5t29.5 -12.5t11.5 -32.5q0 -23 -11.5 -36t-29.5 -13q-19 0 -31.5 13t-12.5 36zM124 813q0 21 12 33t31 12q18 0 29.5 -12.5t11.5 -32.5 q0 -23 -11.5 -36t-29.5 -13q-19 0 -31 13t-12 36z"/>
<glyph glyph-name="afii10065.var.accented" horiz-adv-x="460" unicode="а`" d="M206 65q67 0 116 58v57q-42 30 -101 30q-41 0 -68.5 -19.5t-27.5 -54.5q0 -33 21.5 -52t59.5 -19zM96 355l-21 64q67 41 150 41q91 0 132 -45t41 -139v-276h-76v58q-53 -65 -144 -65q-62 0 -100 37.5t-38 101.5q0 66 47 104.5t123 38.5q71 0 112 -29q0 76 -21 109t-81 33 q-61 0 -124 -33zM293 722l62 -48l-120 -143l-48 34z"/>
<glyph glyph-name="afii10070.var.accented" horiz-adv-x="520" unicode="е`" d="M322 722l62 -48l-120 -143l-48 34zM270 385q-59 0 -97.5 -33t-45.5 -87h273q-3 56 -37.5 88t-92.5 32zM427 112l25 -63q-65 -59 -169 -59q-110 0 -175 64q-66 64 -66 171q0 101 62 168q61 67 170 67q90 0 149 -58q60 -57 60 -148q0 -29 -5 -54h-346q5 -63 47.5 -99 t109.5 -36q88 0 138 47z"/>
<glyph glyph-name="afii10074.var.accented" horiz-adv-x="565" unicode="и`" d="M330 722l62 -48l-120 -143l-48 34zM412 335l-260 -335h-80v450h80v-335l260 335h80v-450h-80v335z"/>
<glyph glyph-name="afii10080.var.accented" horiz-adv-x="565" unicode="о`" d="M335 722l62 -48l-120 -143l-48 34zM127 225q0 -71 43 -115q44 -45 112 -45t111.5 44.5t43.5 115.5q0 69 -44 115q-43 45 -111 45t-111 -45q-44 -44 -44 -115zM108 56q-66 68 -66 169q0 102 66 168q67 67 174 67t173 -67q67 -66 67 -168t-67 -169q-66 -66 -173 -66 q-106 0 -174 66z"/>
<glyph glyph-name="afii10085.var.accented" horiz-adv-x="491" unicode="у`" d="M390 450h91l-180 -450q-49 -119 -85 -158q-38 -42 -87 -42q-44 0 -85 28l26 61q31 -15 50 -15q28 0 50.5 24t45.5 78l10 24l-216 450h96l132 -286q4 -7 27 -68q9 33 21 69zM308 722l62 -48l-120 -143l-48 34z"/>
<glyph glyph-name="afii10093.var.accented" horiz-adv-x="642" unicode="ы`" d="M358 722l62 -48l-120 -143l-48 34zM211 240h-59v-165h58q57 0 83 20t26 62q0 83 -108 83zM570 0h-80v450h80v-450zM217 0h-145v450h80v-135h74q92 0 135 -41.5t43 -113.5q0 -68 -45 -114q-43 -46 -142 -46z"/>
<glyph glyph-name="afii10095.var.accented" horiz-adv-x="489" unicode="э`" d="M270 722l62 -48l-120 -143l-48 34zM364 196h-222v65h221q-9 60 -50.5 92t-105.5 32q-83 0 -138 -49l-34 60q29 29 77 46.5t94 17.5q108 0 173 -64q67 -64 67 -171q0 -99 -65 -167t-163 -68q-122 0 -181 57l38 59q46 -41 138 -41q63 0 103 34.5t48 96.5z"/>
<glyph glyph-name="afii10096.var.accented" horiz-adv-x="760" unicode="ю`" d="M435 722l62 -48l-120 -143l-48 34zM342 225q0 -69 40 -112t103 -43t102.5 42.5t39.5 112.5q0 69 -39 112t-103 43q-63 0 -103 -43t-40 -112zM157 0h-85v450h85v-180h98q14 86 75.5 138t151.5 52q106 0 170 -67q65 -67 65 -168t-66 -169q-65 -66 -169 -66q-95 0 -156 55 t-72 145h-97v-190z"/>
<glyph glyph-name="afii10097.var.accented" horiz-adv-x="482" unicode="я`" d="M331 722l62 -48l-120 -143l-48 34zM153 298q0 -32 25 -52.5t59 -20.5h92v150h-73q-51 0 -77 -21t-26 -56zM269 450h140v-450h-80v150h-87l-110 -150h-97l130 170q-41 9 -69 44.5t-28 85.5q0 69 50 109.5t151 40.5z"/>
<glyph glyph-name="afii10071.var.accented" horiz-adv-x="520" unicode="ё`" d="M270 385q-59 0 -97.5 -33t-45.5 -87h273q-3 56 -37.5 88t-92.5 32zM427 112l25 -63q-65 -59 -169 -59q-110 0 -175 64q-66 64 -66 171q0 101 62 168q61 67 170 67q90 0 149 -58q60 -57 60 -148q0 -29 -5 -54h-346q5 -63 47.5 -99t109.5 -36q88 0 138 47zM308 715l52 -41 l-120 -143l-39 27zM360 602q0 17 12 28t28 11q15 0 26 -11t11 -28q0 -18 -11 -29.5t-26 -11.5q-18 0 -29 11.5t-11 29.5zM96 602q0 18 11 28.5t29 10.5q15 0 26 -11t11 -28q0 -18 -11 -29.5t-26 -11.5q-18 0 -29 11.5t-11 29.5z"/>
<glyph glyph-name="fi" horiz-adv-x="514" unicode="fi" d="M444 0h-80v375h-202v-375h-80v511q0 98 49.5 148.5t138.5 50.5q109 0 165 -74l-58 -47q-34 46 -94 46q-121 0 -121 -133v-52h282v-450z"/>
<glyph glyph-name="fl" horiz-adv-x="561" unicode="fl" d="M344 120v487q-37 28 -82 28q-100 0 -100 -121v-64h103v-75h-103v-375h-80v523q0 92 41 139.5t117 47.5q71 0 114 -32h70v-522q0 -89 53 -89q25 0 56 20l18 -61q-40 -34 -106 -34q-101 0 -101 128z"/>
<glyph glyph-name=".notdef" horiz-adv-x="225"/>
<glyph glyph-name=".null" horiz-adv-x="0"/>
<glyph glyph-name="nonmarkingreturn" horiz-adv-x="333"/>
<glyph glyph-name="space" horiz-adv-x="225" unicode=" "/>
<glyph glyph-name="exclam" horiz-adv-x="310" unicode="!" d="M99 54q0 22 16 37.5t42 15.5q21 0 37 -16t16 -37q0 -24 -15 -40.5t-38 -16.5q-26 0 -42 16.5t-16 40.5zM197 215h-85v485h85v-485z"/>
<glyph glyph-name="quotedbl" horiz-adv-x="415" unicode='&quot;' d="M165 477h-80v223h80v-223zM330 477h-80v223h80v-223z"/>
<glyph glyph-name="numbersign" horiz-adv-x="704" unicode="#" d="M473 435h-184l-63 -170h184zM379 -10l-62 22l67 183h-184l-76 -205l-63 22l68 183h-89v70h115l63 170h-178v70h204l76 205l63 -23l-68 -182h184l76 205l63 -22l-68 -183h94v-70h-120l-63 -170h183v-70h-209z"/>
<glyph glyph-name="dollar" d="M430 179q0 35 -19 61t-49 42.5t-66.5 31.5t-73 32.5t-66.5 39.5t-49 58t-19 83q0 69 47 118.5t127 61.5v83h80v-82q101 -12 155 -71l-46 -64q-57 57 -142 57q-62 0 -96.5 -27.5t-34.5 -75.5q0 -35 19 -61t49 -42t66.5 -30.5t73 -31.5t66.5 -38.5t49 -58.5t19 -85 q0 -73 -49 -124t-129 -62v-94h-80v92q-62 7 -113.5 35t-72.5 68l49 58q29 -38 77 -60.5t96 -22.5q58 0 95 29.5t37 79.5z" unicode="$"/>
<glyph glyph-name="percent" horiz-adv-x="877" unicode="%" d="M206 -10l-47 33l514 687l46 -34zM541 164q0 -46 31.5 -75.5t76.5 -29.5q46 0 77 29.5t31 75.5q0 45 -31 74.5t-77 29.5t-77 -29.5t-31 -74.5zM518 41q-52 48 -52 123q0 76 51 122q53 47 132 47t131 -47q52 -46 52 -122q0 -75 -52 -123q-53 -47 -131 -47t-131 47zM120 537 q0 -46 31.5 -75.5t76.5 -29.5q46 0 77 29.5t31 75.5q0 45 -31 74.5t-77 29.5t-77 -29.5t-31 -74.5zM97 414q-52 48 -52 123t51 122q53 47 132 47t131 -47q52 -46 52 -122q0 -75 -52 -123q-53 -47 -131 -47t-131 47z"/>
<glyph glyph-name="ampersand" horiz-adv-x="744" unicode="&amp;" d="M218 565q0 -32 23 -55.5t56 -23.5t56.5 23t23.5 56t-23.5 56.5t-56.5 23.5t-56 -23t-23 -57zM298 70q105 0 164 86l-175 230q-65 -50 -96 -91.5t-31 -88.5q0 -59 40 -98q41 -38 98 -38zM684 0h-100l-73 92q-79 -102 -215 -102q-98 0 -163 56q-63 57 -63 144 q0 75 41.5 131t124.5 112q-43 15 -68 49.5t-25 82.5q0 63 45 104q47 41 109 41t109 -41q46 -40 46 -104q0 -49 -31 -87q-31 -39 -73 -46l170 -219q58 101 58 237h79q0 -176 -88 -301z"/>
<glyph glyph-name="quotesingle" horiz-adv-x="250" unicode="&apos;" d="M165 477h-80v223h80v-223z"/>
<glyph glyph-name="parenleft" horiz-adv-x="293" unicode="(" d="M293 -162l-51 -44q-202 174 -202 431q0 248 203 431l50 -44q-90 -86 -131.5 -179.5t-41.5 -207.5q0 -111 45 -212t128 -175z"/>
<glyph glyph-name="parenright" horiz-adv-x="293" unicode=")" d="M51 -206l-51 44q83 74 128 175t45 212q0 114 -41.5 207.5t-131.5 179.5l50 44q203 -183 203 -431q0 -257 -202 -431z"/>
<glyph glyph-name="asterisk" horiz-adv-x="479" unicode="*" d="M71 584q0 22 15 37.5t36 15.5q22 0 37 -15.5t15 -37.5q0 -21 -15 -36.5t-37 -15.5q-21 0 -36 15.5t-15 36.5zM122 503q22 0 37 -15t15 -37t-15 -37.5t-37 -15.5q-21 0 -36 15.5t-15 37.5t15 37t36 15zM355 503q22 0 37.5 -15t15.5 -37t-15.5 -37.5t-37.5 -15.5 q-21 0 -35.5 15.5t-14.5 37.5t14.5 37t35.5 15zM305 584q0 22 14.5 37.5t35.5 15.5q22 0 37.5 -15.5t15.5 -37.5q0 -21 -15.5 -36.5t-37.5 -15.5q-21 0 -35.5 15.5t-14.5 36.5zM187 375q0 22 15.5 38t36.5 16t37 -16t16 -38q0 -20 -16 -36t-37 -16q-20 0 -36 16t-16 36z M240 709q22 0 37.5 -15.5t15.5 -36.5q0 -22 -15 -36.5t-38 -14.5q-21 0 -36 15t-15 36t15.5 36.5t35.5 15.5z"/>
<glyph glyph-name="plus" d="M257 325h-188v70h188v191h75v-191h191v-70h-191v-193h-75v193z" unicode="+"/>
<glyph glyph-name="comma" horiz-adv-x="223" unicode="," d="M54 46q0 24 15 38.5t42 14.5q32 0 52 -26.5t20 -70.5q0 -54 -29.5 -93.5t-80.5 -54.5l-22 38q52 16 64 67q4 22 4 28q0 12 -5 22q-6 -9 -22 -9q-15 0 -26.5 13.5t-11.5 32.5z"/>
<glyph glyph-name="hyphen" horiz-adv-x="389" unicode="-" d="M314 235h-239v75h239v-75z"/>
<glyph glyph-name="period" horiz-adv-x="210" unicode="." d="M50 54q0 21 16.5 37t40.5 16q21 0 37 -16t16 -37q0 -24 -15 -40.5t-38 -16.5q-24 0 -40.5 16.5t-16.5 40.5z"/>
<glyph glyph-name="slash" horiz-adv-x="335" unicode="/" d="M33 -208l-63 23l333 895l62 -23z"/>
<glyph glyph-name="zero" horiz-adv-x="564" unicode="0" d="M284 67q73 0 106.5 70t33.5 213q0 142 -34.5 212.5t-107.5 70.5q-142 0 -142 -283t144 -283zM509 350q0 -170 -56.5 -264t-168.5 -94q-114 0 -172 96q-57 97 -57 262q0 164 56 261q57 97 171 97q115 0 170 -97q57 -96 57 -261z"/>
<glyph glyph-name="one" horiz-adv-x="379" unicode="1" d="M77 509l-42 65l168 130h56v-704h-80v589z"/>
<glyph glyph-name="two" horiz-adv-x="527" unicode="2" d="M472 0h-427v65q136 133 200 212q113 142 113 238q0 50 -30.5 81.5t-83.5 31.5q-46 0 -80.5 -29.5t-44.5 -82.5l-68 28q12 75 67.5 119.5t132.5 44.5q92 0 142 -53t50 -124q0 -135 -129 -287q-58 -68 -93 -102q-30 -30 -72 -67h323v-75z"/>
<glyph glyph-name="three" horiz-adv-x="532" unicode="3" d="M247 -10q-74 0 -129.5 31t-82.5 89l46 57q24 -46 68 -71.5t95 -25.5q63 0 100.5 35t37.5 91t-39.5 89t-103.5 33h-55v80h50q49 0 84 34q37 34 37 87q0 52 -30.5 81.5t-83.5 29.5q-95 0 -144 -87l-45 55q24 53 75.5 82.5t119.5 29.5q88 0 140.5 -48t52.5 -129 q0 -58 -28 -102t-81 -66v-3q62 -10 99 -57t37 -112q0 -92 -62 -148q-61 -55 -158 -55z"/>
<glyph glyph-name="four" horiz-adv-x="550" unicode="4" d="M423 0h-80v175h-323v57l290 468h92l-277 -445h218v195h80v-195h97v-80h-97v-175z"/>
<glyph glyph-name="five" horiz-adv-x="516" unicode="5" d="M99 348l44 352h316v-80h-246l-26 -189q24 7 56 7q97 0 159 -60q62 -59 62 -157q0 -105 -66 -168t-162 -63q-62 0 -117 28t-84 78l46 59q24 -39 67.5 -62t89.5 -23q60 0 100 42q41 43 41 106q0 64 -47 106q-46 42 -123 42q-63 0 -110 -18z"/>
<glyph glyph-name="six" horiz-adv-x="554" unicode="6" d="M135 248q0 -75 41 -127q41 -51 116 -51q56 0 94 41q38 43 38 99q0 65 -37.5 105.5t-104.5 40.5q-53 0 -92.5 -31t-54.5 -77zM50 248q0 90 30.5 173t81.5 141q105 119 228 148l33 -61q-99 -25 -179 -107q-77 -80 -100 -204q50 93 165 93q87 0 143 -60q57 -60 57 -155 q0 -98 -65 -163q-64 -63 -151 -63q-113 0 -178 74q-65 76 -65 184z"/>
<glyph glyph-name="seven" horiz-adv-x="485" unicode="7" d="M353 620h-323v80h420v-52l-258 -648h-88z"/>
<glyph glyph-name="eight" horiz-adv-x="595" unicode="8" d="M65 181q0 63 36 111.5t96 65.5v3q-48 16 -79 62.5t-31 103.5q0 81 60 132q61 51 150 51t150 -51t61 -132q0 -53 -31.5 -98.5t-83.5 -66.5v-3q60 -10 98.5 -57.5t38.5 -114.5q0 -92 -67 -144q-68 -53 -165 -53q-99 0 -166 52t-67 139zM310 320h-22q-57 0 -98 -35 q-40 -34 -40 -89t41.5 -90.5t105.5 -35.5q67 0 107.5 34.5t40.5 91.5q-1 56 -39 90t-96 34zM285 400h26q45 0 78 34q34 34 34 81q0 52 -36 83.5t-91 31.5q-54 0 -89 -32t-35 -83q0 -47 34 -81t79 -34z"/>
<glyph glyph-name="nine" horiz-adv-x="551" unicode="9" d="M416 447q0 77 -39 130t-113 53q-58 0 -98 -42q-41 -41 -41 -98q0 -62 39.5 -104t104.5 -42q54 0 93 29t54 74zM501 447q0 -193 -99 -316q-97 -121 -251 -141l-27 63q119 23 193 102t90 201q-47 -87 -158 -87q-92 0 -150 61q-59 62 -59 154q0 99 68 162q67 64 155 64 q113 0 175 -74q63 -74 63 -189z"/>
<glyph glyph-name="colon" horiz-adv-x="320" unicode=":" d="M105 54q0 21 16.5 37t40.5 16q21 0 37 -16t16 -37q0 -24 -15 -40.5t-38 -16.5q-24 0 -40.5 16.5t-16.5 40.5zM105 406q0 21 16.5 37t40.5 16q21 0 37 -16t16 -37q0 -24 -15 -40.5t-38 -16.5q-24 0 -40.5 16.5t-16.5 40.5z"/>
<glyph glyph-name="semicolon" horiz-adv-x="324" unicode=";" d="M105 406q0 21 16.5 37t40.5 16q21 0 37 -16t16 -37q0 -24 -15 -40.5t-38 -16.5q-24 0 -40.5 16.5t-16.5 40.5zM105 46q0 24 15 38.5t42 14.5q32 0 52 -26.5t20 -70.5q0 -54 -29.5 -93.5t-80.5 -54.5l-22 38q52 16 64 67q4 22 4 28q0 12 -5 22q-6 -9 -22 -9 q-15 0 -26.5 13.5t-11.5 32.5z"/>
<glyph glyph-name="less" d="M497 166v-87l-440 266v34l440 264v-87l-329 -194z" unicode="&lt;"/>
<glyph glyph-name="equal" d="M523 235h-454v70h454v-70zM523 415h-454v70h454v-70z" unicode="="/>
<glyph glyph-name="greater" d="M534 379v-34l-439 -266v87l329 196l-329 194v87z" unicode="&gt;"/>
<glyph glyph-name="question" horiz-adv-x="466" unicode="?" d="M152 54q0 22 16 37.5t42 15.5q21 0 37 -16t16 -37q0 -24 -15 -40.5t-38 -16.5q-26 0 -42 16.5t-16 40.5zM350 520q0 46 -34.5 78t-87.5 32q-86 0 -140 -74l-48 53q28 46 80 73.5t113 27.5q93 0 148 -50q55 -49 55 -123q0 -47 -16 -83q-4 -10 -9 -19t-12 -17.5t-11.5 -14 t-14.5 -14t-13.5 -12t-15.5 -13t-15 -11.5q-5 -4 -21 -17.5t-21.5 -18.5t-17 -17t-16 -21t-8.5 -22.5t-4 -27.5q0 -13 3 -26l-72 -1q-4 26 -4 38q0 68 51 111q10 8 33.5 25.5t36.5 29t29.5 29.5t24 39t7.5 46z"/>
<glyph glyph-name="at" horiz-adv-x="1006" unicode="@" d="M502 65q35 0 69.5 17t56.5 42v232q-52 29 -110 29q-74 0 -121 -48q-46 -46 -46 -116q0 -72 41 -114t110 -42zM711 0h-83v47q-57 -57 -139 -57q-102 0 -163 64q-60 64 -60 171q0 99 72 167q73 68 181 68t189 -51v-334h21q62 0 99 55q38 56 38 140q0 136 -99 227 q-97 91 -254 91q-161 0 -267 -102q-106 -100 -106 -261q0 -155 107 -259q109 -104 266 -104q57 0 108 12l5 -74q-56 -13 -113 -13q-193 0 -321 125q-127 124 -127 313q0 185 127 311q127 127 321 127q184 0 306 -110t122 -282q0 -111 -61 -191q-62 -80 -169 -80z"/>
<glyph glyph-name="A" horiz-adv-x="705" unicode="A" d="M476 292l-126 299l-126 -299h252zM101 0h-86l301 704h73l301 -704h-91l-90 212h-319z"/>
<glyph glyph-name="B" horiz-adv-x="617" unicode="B" d="M295 623q-30 0 -105 -3v-226h112q59 0 97 31.5t38 85.5q0 112 -142 112zM303 319h-113v-238q41 -4 108 -4q79 0 121.5 32.5t42.5 95.5q0 55 -41.5 84.5t-117.5 29.5zM105 1v698q139 4 192 4q114 0 169.5 -45.5t55.5 -127.5q0 -61 -32 -102t-88 -60v-2q68 -11 106.5 -54 t38.5 -112q0 -100 -68 -151.5t-186 -51.5q-115 0 -188 4z"/>
<glyph glyph-name="C" horiz-adv-x="656" unicode="C" d="M592 132l34 -64q-35 -36 -95 -57t-126 -21q-157 0 -257 98q-98 100 -98 262q0 156 94 257q94 103 255 103q133 0 213 -68l-39 -64q-70 52 -173 52q-113 0 -187 -78q-73 -77 -73 -202t75 -203q77 -77 198 -77q102 0 179 62z"/>
<glyph glyph-name="D" horiz-adv-x="739" unicode="D" d="M294 623q-18 0 -54.5 -1.5t-49.5 -1.5v-540q26 0 50.5 -0.5t36.5 -1t14 -0.5q145 0 227 77q81 78 81 204q0 118 -79 191t-226 73zM116 0h-11v700h12q43 0 85 1q86 2 94 2q102 0 179 -27.5t123 -76t68.5 -109t22.5 -131.5q0 -157 -105 -259q-103 -102 -296 -102 q-42 0 -82 1q-39 1 -90 1z"/>
<glyph glyph-name="E" horiz-adv-x="575" unicode="E" d="M510 0h-405v700h395v-80h-310v-226h280v-80h-280v-234h320v-80z"/>
<glyph glyph-name="F" horiz-adv-x="540" unicode="F" d="M190 0h-85v700h395v-80h-310v-248h280v-80h-280v-292z"/>
<glyph glyph-name="G" horiz-adv-x="727" unicode="G" d="M587 276h-189v80h269v-269q-45 -45 -119 -71q-75 -26 -143 -26q-163 0 -259 98t-96 262q0 153 95 257q94 103 249 103q134 0 220 -68l-37 -68q-62 56 -173 56q-117 0 -191 -77q-73 -76 -73 -203q0 -128 73 -204t194 -76q48 0 101 17q50 18 79 45v144z"/>
<glyph glyph-name="H" horiz-adv-x="765" unicode="H" d="M660 0h-85v317h-385v-317h-85v700h85v-303h385v303h85v-700z"/>
<glyph glyph-name="I" horiz-adv-x="335" unicode="I" d="M210 0h-85v700h85v-700z"/>
<glyph glyph-name="J" horiz-adv-x="374" unicode="J" d="M184 700h85v-541q0 -169 -153 -169q-69 0 -106 37l29 65q28 -22 66 -22q79 0 79 103v527z"/>
<glyph glyph-name="K" horiz-adv-x="653" unicode="K" d="M190 0h-85v700h85v-700zM514 700h103l-312 -329l328 -371h-109l-317 365z"/>
<glyph glyph-name="L" horiz-adv-x="550" unicode="L" d="M535 0h-430v700h85v-620h345v-80z"/>
<glyph glyph-name="M" horiz-adv-x="892" unicode="M" d="M190 0h-85v700h86l263 -359l252 359h81v-700h-85v566l-248 -348h-13l-251 345v-563z"/>
<glyph glyph-name="N" horiz-adv-x="795" unicode="N" d="M690 700v-700h-68l-437 550v-550h-80v700h68l437 -552v552h80z"/>
<glyph glyph-name="O" horiz-adv-x="814" unicode="O" d="M140 350q0 -118 77 -200q77 -80 190 -80q118 0 192 80q75 80 75 200t-77 200t-190 80q-115 0 -191 -79t-76 -201zM50 350q0 152 101 256t256 104q154 0 255 -101q102 -100 102 -259q0 -154 -102 -258q-102 -102 -255 -102t-256 101q-101 101 -101 259z"/>
<glyph glyph-name="P" horiz-adv-x="597" unicode="P" d="M296 622q-18 0 -106 -2v-270q63 -5 102 -5q77 0 121 37.5t44 103.5q0 65 -40.5 100.5t-120.5 35.5zM190 269v-269h-85v700q42 0 89 1t94 1q138 0 198 -62q61 -61 61 -155q0 -91 -66 -156q-64 -64 -186 -64q-64 0 -105 4z"/>
<glyph glyph-name="Q" horiz-adv-x="814" unicode="Q" d="M140 350q0 -118 77 -200q77 -80 190 -80q77 0 138 36l-61 73l56 51l64 -75q70 79 70 195q0 120 -77 200t-190 80q-115 0 -191 -79t-76 -201zM50 350q0 152 101 256t256 104q154 0 255 -101q102 -100 102 -259q0 -156 -105 -260l77 -90h-100l-37 43q-86 -53 -192 -53 q-153 0 -256 101q-101 101 -101 259z"/>
<glyph glyph-name="R" horiz-adv-x="643" unicode="R" d="M288 622q-10 0 -98 -2v-260h103q65 0 111 36q48 38 48 97q0 129 -164 129zM190 280v-280h-85v700q48 0 101 1t87 1q249 0 249 -208q0 -78 -45 -130q-42 -51 -107 -68l233 -296h-104l-215 280h-114z"/>
<glyph glyph-name="S" horiz-adv-x="549" unicode="S" d="M409 179q0 35 -19 61t-49 42.5t-66.5 31.5t-73 32.5t-66.5 39.5t-49 58t-19 83q0 77 57 130q58 53 154 53q59 0 111 -20t82 -53l-46 -64q-57 57 -142 57q-58 0 -92 -28t-34 -75q0 -35 19 -61t49 -42t66.5 -30.5t73 -31.5t66.5 -38.5t49 -58.5t19 -85q0 -86 -66 -138 q-64 -52 -162 -52q-69 0 -132 28t-89 77l49 58q29 -38 77 -60.5t96 -22.5q59 0 98 29.5t39 79.5z"/>
<glyph glyph-name="T" horiz-adv-x="595" unicode="T" d="M255 620h-245v80h575v-80h-245v-620h-85v620z"/>
<glyph glyph-name="U" horiz-adv-x="751" unicode="U" d="M571 700h85v-408q0 -151 -77 -226t-194 -75q-132 0 -211 79t-79 229v401h85v-385q0 -115 53.5 -179.5t151.5 -64.5q89 0 137.5 61t48.5 177v391z"/>
<glyph glyph-name="V" horiz-adv-x="656" unicode="V" d="M565 700h86l-288 -704h-63l-295 704h91l238 -576z"/>
<glyph glyph-name="W" horiz-adv-x="970" unicode="W" d="M877 700h83l-202 -700h-78l-192 563l-188 -563h-78l-212 700h96l163 -557l181 557h82l186 -557z"/>
<glyph glyph-name="X" horiz-adv-x="664" unicode="X" d="M534 700h101l-248 -344l257 -356h-101l-212 291l-211 -291h-100l257 356l-246 344h100l203 -280z"/>
<glyph glyph-name="Y" horiz-adv-x="604" unicode="Y" d="M501 700h93l-251 -400v-300h-85v300l-248 400h98l196 -320z"/>
<glyph glyph-name="Z" horiz-adv-x="635" unicode="Z" d="M468 620h-408v80h525v-57l-430 -563h440v-80h-555v57z"/>
<glyph glyph-name="bracketleft" horiz-adv-x="320" unicode="[" d="M310 -200h-250v850h250v-75h-170v-700h170v-75z"/>
<glyph glyph-name="backslash" horiz-adv-x="335" unicode="\" d="M-30 687l62 23l333 -895l-63 -23z"/>
<glyph glyph-name="bracketright" horiz-adv-x="320" unicode="]" d="M10 650h250v-850h-250v75h170v700h-170v75z"/>
<glyph glyph-name="asciicircum" horiz-adv-x="492" unicode="^" d="M127 450h-87l180 258h54l178 -258h-87l-119 176z"/>
<glyph glyph-name="underscore" horiz-adv-x="312" unicode="_" d="M312 -200h-312v80h312v-80z"/>
<glyph glyph-name="grave" horiz-adv-x="290" unicode="`" d="M230 565l-49 -34l-121 142l63 48z"/>
<glyph glyph-name="a" horiz-adv-x="460" unicode="a" d="M206 65q67 0 116 58v57q-42 30 -101 30q-41 0 -68.5 -19.5t-27.5 -54.5q0 -33 21.5 -52t59.5 -19zM96 355l-21 64q67 41 150 41q91 0 132 -45t41 -139v-276h-76v58q-53 -65 -144 -65q-62 0 -100 37.5t-38 101.5q0 66 47 104.5t123 38.5q71 0 112 -29q0 76 -21 109t-81 33 q-61 0 -124 -33z"/>
<glyph glyph-name="b" horiz-adv-x="549" unicode="b" d="M274 385q-35 0 -69 -17t-53 -41v-231q46 -31 108 -31q71 0 116 44t45 117q0 74 -40 116.5t-107 42.5zM72 42v658h80v-293q25 24 63.5 38.5t76.5 14.5q99 0 156 -63q58 -62 58 -165q0 -111 -68 -177q-68 -65 -182 -65q-113 0 -184 52z"/>
<glyph glyph-name="c" horiz-adv-x="488" unicode="c" d="M418 123l38 -58q-58 -75 -173 -75q-108 0 -175 64q-66 64 -66 171q0 99 65 167t163 68q118 0 177 -59l-37 -63q-52 47 -129 47q-63 0 -109 -46q-45 -45 -45 -114q0 -73 46 -116q47 -44 116 -44q78 0 129 58z"/>
<glyph glyph-name="d" horiz-adv-x="554" unicode="d" d="M274 67q74 0 128 60v223q-56 35 -111 35q-69 0 -117 -45q-47 -44 -47 -116t40.5 -114.5t106.5 -42.5zM482 0h-80v57q-60 -65 -143 -65q-100 0 -158 63q-59 64 -59 167q0 105 69 171q70 67 177 67q68 0 114 -32v272h80v-700z"/>
<glyph glyph-name="e" horiz-adv-x="520" unicode="e" d="M270 385q-59 0 -97.5 -33t-45.5 -87h273q-3 56 -37.5 88t-92.5 32zM427 112l25 -63q-65 -59 -169 -59q-110 0 -175 64q-66 64 -66 171q0 101 62 168q61 67 170 67q90 0 149 -58q60 -57 60 -148q0 -29 -5 -54h-346q5 -63 47.5 -99t109.5 -36q88 0 138 47z"/>
<glyph glyph-name="f" horiz-adv-x="330" unicode="f" d="M162 0h-80v523q0 92 41 139.5t117 47.5q79 0 120 -40l-28 -61q-32 26 -79 26q-91 0 -91 -121v-64h150v-75h-150v-375z"/>
<glyph glyph-name="g" horiz-adv-x="494" unicode="g" d="M129 295q0 -42 30.5 -69.5t78.5 -27.5t78 27q31 27 31 70t-30 71q-31 29 -79 29t-78.5 -28.5t-30.5 -71.5zM393 -65q0 37 -41 58.5t-113 21.5t-113 -21.5t-41 -58.5t41 -57.5t113 -20.5t113 20t41 58zM10 -65q0 52 38 87t106 50q-11 14 -11 36q0 24 12 39 q-48 19 -74.5 58t-26.5 90q0 70 50 117q51 48 134 48q64 0 114 -33l132 32l2 -65l-85 -21q21 -35 21 -78q0 -69 -51 -116q-50 -46 -133 -46q-23 0 -30 1q-5 -12 -5 -25q0 -18 9 -30q2 0 12.5 0.5t14.5 0.5q105 0 167 -37.5t62 -107.5q0 -68 -62 -105.5t-167 -37.5 q-106 0 -167.5 36.5t-61.5 106.5z"/>
<glyph glyph-name="h" horiz-adv-x="549" unicode="h" d="M152 0h-80v700h80v-302q60 60 147 60q187 0 187 -200v-258h-80v247q0 136 -126 136q-35 0 -70.5 -16t-57.5 -41v-326z"/>
<glyph glyph-name="i" horiz-adv-x="268" unicode="i" d="M84 619q0 21 15 34.5t37 13.5q21 0 35 -13.5t14 -34.5q0 -23 -14 -37.5t-35 -14.5q-22 0 -37 14.5t-15 37.5zM174 0h-80v450h80v-450z"/>
<glyph glyph-name="j" horiz-adv-x="266" unicode="j" d="M87 619q0 21 15 34.5t37 13.5q21 0 35 -13.5t14 -34.5q0 -23 -14 -37.5t-35 -14.5q-22 0 -37 14.5t-15 37.5zM98 450h80v-483q0 -175 -141 -175q-62 0 -100 29l23 64q29 -18 59 -18q79 0 79 106v477z"/>
<glyph glyph-name="k" horiz-adv-x="491" unicode="k" d="M152 0h-80v700h80v-700zM355 450h102l-191 -209l215 -241h-109l-203 235z"/>
<glyph glyph-name="l" horiz-adv-x="290" unicode="l" d="M72 120v580h80v-544q0 -89 53 -89q26 0 57 20l18 -61q-43 -34 -106 -34q-102 0 -102 128z"/>
<glyph glyph-name="m" horiz-adv-x="803" unicode="m" d="M740 295v-295h-80v273q0 110 -97 110q-39 0 -70.5 -17.5t-47.5 -47.5q1 -5 1 -32v-286h-80v290q0 43 -25.5 68t-70.5 25q-75 0 -118 -61v-322h-80v450h80v-57q25 29 65.5 47t83.5 18q51 0 87 -21t49 -57q25 36 67 57t91 21q145 0 145 -163z"/>
<glyph glyph-name="n" horiz-adv-x="549" unicode="n" d="M152 0h-80v450h80v-55q25 28 65.5 45.5t81.5 17.5q187 0 187 -198v-260h-80v245q0 138 -127 138q-76 0 -127 -58v-325z"/>
<glyph glyph-name="o" horiz-adv-x="565" unicode="o" d="M127 225q0 -71 43 -115q44 -45 112 -45t111.5 44.5t43.5 115.5q0 69 -44 115q-43 45 -111 45t-111 -45q-44 -44 -44 -115zM108 56q-66 68 -66 169q0 102 66 168q67 67 174 67t173 -67q67 -66 67 -168t-67 -169q-66 -66 -173 -66q-106 0 -174 66z"/>
<glyph glyph-name="p" horiz-adv-x="556" unicode="p" d="M282 385q-80 0 -130 -62v-223q53 -35 120 -35q71 0 113.5 45.5t42.5 118.5q0 71 -39 113.5t-107 42.5zM152 -200h-80v650h80v-53q24 28 66 45.5t87 17.5q96 0 151 -64q57 -63 57 -164q0 -103 -65 -173q-64 -69 -169 -69q-81 0 -127 31v-221z"/>
<glyph glyph-name="q" horiz-adv-x="557" unicode="q" d="M283 65q35 0 68.5 15t52.5 39v237q-52 29 -110 29q-74 0 -121 -48q-46 -46 -46 -116q0 -69 43 -112.5t113 -43.5zM484 -200h-80v236q-58 -46 -131 -46q-105 0 -168 64t-63 171q0 99 72 167q73 68 181 68t189 -51v-609z"/>
<glyph glyph-name="r" horiz-adv-x="340" unicode="r" d="M152 0h-80v450h80v-53q40 61 113 61q47 0 70 -17l-28 -75q-29 17 -61 17q-61 0 -94 -64v-319z"/>
<glyph glyph-name="s" horiz-adv-x="430" unicode="s" d="M300 122q0 24 -25 40t-61 26.5t-71.5 24.5t-60.5 44.5t-25 75.5q0 57 42 92t111 35q99 0 155 -53l-38 -61q-50 44 -113 44q-32 0 -52 -16t-20 -40q0 -26 25 -42.5t61 -27t71.5 -24t60.5 -42.5t25 -72q0 -67 -50 -102q-49 -34 -124 -34q-53 0 -101 22q-49 23 -65 48l45 57 q20 -23 58 -40q40 -17 72 -17q35 0 57.5 16.5t22.5 45.5z"/>
<glyph glyph-name="t" horiz-adv-x="353" unicode="t" d="M62 171v404h80v-125h165v-75h-165v-196q0 -112 80 -112q39 0 71 25l25 -62q-47 -38 -115 -38q-73 0 -107 44t-34 135z"/>
<glyph glyph-name="u" horiz-adv-x="540" unicode="u" d="M387 450h80v-450h-80v64q-63 -74 -159 -74q-79 0 -122.5 48.5t-43.5 143.5v268h80v-250q0 -135 116 -135q36 0 71.5 18.5t57.5 48.5v318z"/>
<glyph glyph-name="v" horiz-adv-x="476" unicode="v" d="M386 450h85l-199 -454h-58l-209 454h94l109 -243q19 -42 38 -100q14 47 37 102z"/>
<glyph glyph-name="w" horiz-adv-x="706" unicode="w" d="M615 450h81l-144 -454h-70l-112 293q-8 21 -17 55q-9 -33 -19 -58l-109 -290h-66l-149 454h86l88 -284q2 -7 5.5 -20t7 -26.5t4.5 -16.5q18 62 19 63l102 284h69l103 -283l21 -65q7 34 18 69z"/>
<glyph glyph-name="x" horiz-adv-x="507" unicode="x" d="M379 450h93l-161 -217l171 -233h-98l-132 182l-134 -182h-93l170 229l-160 221h98l122 -170z"/>
<glyph glyph-name="y" horiz-adv-x="491" unicode="y" d="M390 450h91l-180 -450q-49 -119 -85 -158q-38 -42 -87 -42q-44 0 -85 28l26 61q31 -15 50 -15q28 0 50.5 24t45.5 78l10 24l-216 450h96l132 -286q4 -7 27 -68q9 33 21 69z"/>
<glyph glyph-name="z" horiz-adv-x="485" unicode="z" d="M326 375h-266v75h380v-56l-282 -319h277v-75h-390v56z"/>
<glyph glyph-name="braceleft" horiz-adv-x="335" unicode="{" d="M110 -65v157q0 50 -24.5 74t-62.5 24h-3v70q39 0 64.5 27t25.5 83v139q0 73 32 107t106 34h67v-75h-48q-43 0 -60 -21t-17 -72v-142q0 -48 -20.5 -78.5t-54.5 -35.5q75 -9 75 -114v-145q0 -48 20 -70t63 -22h42v-75h-71q-68 0 -101 32.5t-33 102.5z"/>
<glyph glyph-name="bar" horiz-adv-x="330" unicode="|" d="M205 0h-80v700h80v-700z"/>
<glyph glyph-name="braceright" horiz-adv-x="335" unicode="}" d="M225 92v-157q0 -70 -33.5 -102.5t-101.5 -32.5h-70v75h42q43 0 63 22t20 70v145q0 105 75 114q-34 5 -54.5 35.5t-20.5 78.5v142q0 51 -17.5 72t-59.5 21h-48v75h67q74 0 106 -34t32 -107v-139q0 -56 25.5 -83t64.5 -27v-70h-3q-38 0 -62.5 -24t-24.5 -74z"/>
<glyph glyph-name="asciitilde" d="M86 307l-36 51q68 72 136 72q42 0 118 -36q78 -35 114 -35q46 0 91 45l32 -55q-63 -60 -124 -60q-40 0 -116 35q-75 36 -111 36q-48 0 -104 -53z" unicode="~"/>
<glyph glyph-name="uni00A0" horiz-adv-x="225" unicode=" "/>
<glyph glyph-name="exclamdown" horiz-adv-x="310" unicode="¡" d="M211 403q0 -22 -16 -37.5t-42 -15.5q-21 0 -37 16t-16 37q0 24 15 40.5t38 16.5q26 0 42 -16.5t16 -40.5zM113 242h85v-485h-85v485z"/>
<glyph glyph-name="cent" d="M465 123l38 -58q-49 -62 -143 -73v-112h-80v114q-88 14 -139.5 76t-51.5 155q0 89 53 154q52 65 138 78v109h80v-108q84 -9 134 -57l-37 -63q-52 47 -129 47q-63 0 -109 -46q-45 -45 -45 -114q0 -73 46 -116q47 -44 116 -44q78 0 129 58z" unicode="¢"/>
<glyph glyph-name="sterling" d="M173 275h-98v65h79q-9 20 -17 36q-11 22 -19 42q-18 45 -18 96q0 82 60 137q60 57 156 57q122 0 191 -76l-45 -62q-61 58 -144 58q-56 0 -92 -34.5t-36 -84.5q0 -33 9 -61q7 -18 25.5 -56.5t22.5 -51.5h162v-65h-150v-9q0 -72 -54 -139q33 -3 102 -27t106 -24 q62 0 109 46l36 -62q-63 -64 -147 -64q-38 0 -114 26t-114 26q-55 0 -111 -55l-34 63q38 40 84 60q52 65 52 135q0 19 -1 24z" unicode="£"/>
<glyph glyph-name="currency" d="M144 345q0 -65 41 -112q42 -45 111 -45q70 0 111 44.5t41 112.5q0 69 -41.5 113t-110.5 44t-111 -45q-41 -46 -41 -112zM69 345q0 76 41 135l-83 85l50 50l83 -85q58 42 136 42q76 0 135 -41l88 87l50 -50l-88 -87q42 -62 42 -136q0 -77 -42 -135l85 -85l-49 -49l-85 84 q-59 -42 -136 -42q-78 0 -136 42l-88 -88l-49 49l87 89q-41 59 -41 135z" unicode="¤"/>
<glyph glyph-name="yen" d="M252 299h-184v65h146l-195 336h98l181 -320l182 320h93l-198 -336h147v-65h-185v-105h185v-65h-185v-129h-85v129h-184v65h184v105z" unicode="¥"/>
<glyph glyph-name="brokenbar" horiz-adv-x="330" unicode="¦" d="M125 0v260h80v-260h-80zM205 700v-260h-80v260h80z"/>
<glyph glyph-name="section" horiz-adv-x="524" unicode="§" d="M262 136q51 0 84 32.5t33 80.5t-33.5 81t-83.5 33t-83.5 -33t-33.5 -81t33 -80.5t84 -32.5zM65 249q0 64 35 111t97 64q-82 46 -82 135q0 62 44 101.5t117 39.5q84 0 135 -65l-48 -54l-21 22q-27 22 -64 22q-35 0 -59 -23.5t-24 -57.5q0 -68 87 -112q80 -6 128.5 -56.5 t48.5 -126.5q0 -64 -36 -111.5t-98 -63.5q82 -46 82 -133q0 -62 -44 -101.5t-117 -39.5q-86 0 -136 65l48 54l21 -21q23 -23 65 -23q35 0 59 23.5t24 57.5q0 67 -89 111q-79 7 -126 57.5t-47 124.5z"/>
<glyph glyph-name="dieresis" horiz-adv-x="415" unicode="¨" d="M263 610q0 20 14 33t34 13q18 0 31 -13t13 -33q0 -23 -12.5 -36.5t-31.5 -13.5q-21 0 -34.5 13.5t-13.5 36.5zM60 610q0 21 13 33.5t34 12.5q18 0 31 -13t13 -33q0 -23 -12.5 -36.5t-31.5 -13.5q-21 0 -34 13.5t-13 36.5z"/>
<glyph glyph-name="copyright" horiz-adv-x="1018" unicode="©" d="M652 123l38 -58q-58 -75 -173 -75q-108 0 -175 64q-66 64 -66 171q0 99 65 167t163 68q118 0 177 -59l-37 -63q-52 47 -129 47q-63 0 -109 -46q-45 -45 -45 -114q0 -73 46 -116q47 -44 116 -44q78 0 129 58zM509 -143q156 0 259 106q105 106 105 257q0 152 -105 258 q-104 107 -259 107q-156 0 -260 -107t-104 -258t104 -257q103 -106 260 -106zM200 -87q-125 127 -125 308t125 308q124 126 309 126t309 -126q125 -127 125 -308t-125 -308q-124 -126 -309 -126t-309 126z"/>
<glyph glyph-name="ordfeminine" horiz-adv-x="425" unicode="ª" d="M195 380q47 0 90 36v46q-43 20 -86 20q-33 0 -53.5 -13.5t-20.5 -37.5q0 -23 19 -37t51 -14zM114 573l-30 47q53 38 130 38q64 0 102.5 -33.5t38.5 -95.5v-204h-70v47q-42 -51 -124 -51q-49 0 -80 29.5t-31 73.5q0 52 33 80t93 28q66 0 109 -25v5q0 86 -84 86 q-52 0 -87 -25z"/>
<glyph glyph-name="guillemotleft" horiz-adv-x="530" unicode="«" d="M284 77l-54 -47l-185 218v4l188 216l52 -46l-148 -172zM474 77l-54 -47l-185 218v4l188 216l52 -46l-148 -172z"/>
<glyph glyph-name="logicalnot" d="M463 325h-404v70h474v-201h-70v131z" unicode="¬"/>
<glyph glyph-name="uni00AD" horiz-adv-x="389" unicode="­" d="M314 235h-239v75h239v-75z"/>
<glyph glyph-name="registered" horiz-adv-x="618" unicode="®" d="M302 600h-36v-99h39q24 0 40.5 14.5t16.5 36.5t-15.5 35t-44.5 13zM266 461v-101h-55v280h98q108 0 108 -87q0 -29 -16.5 -51t-43.5 -30l74 -112h-65l-63 101h-37zM172 633q-57 -57 -57 -137t57 -137t137 -57t137 57t57 137t-57 137t-137 57t-137 -57zM50 497 q0 107 76 182q76 76 184 76q106 0 182 -76q76 -75 76 -182q0 -109 -76 -185q-75 -76 -182 -76q-109 0 -185 76q-75 76 -75 185z"/>
<glyph glyph-name="overscore" horiz-adv-x="384" unicode="¯" d="M324 580h-264v65h264v-65z"/>
<glyph glyph-name="degree" horiz-adv-x="410" unicode="°" d="M290 570q0 34 -25 59.5t-60 25.5t-60 -25t-25 -60t25 -60t60 -25t60 25t25 60zM50 569q0 66 45 111t109 45t110 -44q46 -43 46 -109q0 -65 -46 -111q-45 -46 -110 -46q-63 0 -109 44q-45 45 -45 110z"/>
<glyph glyph-name="plusminus" d="M523 165h-454v70h454v-70zM257 410h-188v70h188v191h75v-191h191v-70h-191v-123h-75v123z" unicode="±"/>
<glyph glyph-name="twosuperior" horiz-adv-x="349" unicode="²" d="M319 350h-284v51l25 16l29 19q12 10 27 20q22 16 29 21q1 1 21.5 19t27.5 25q33 40 33 68q0 25 -16 40t-45 15q-25 0 -45 -16.5t-24 -41.5l-59 21q7 44 44 70.5t91 26.5q61 0 94.5 -29.5t33.5 -77.5q0 -66 -72 -121q-52 -42 -102 -66h192v-60z"/>
<glyph glyph-name="threesuperior" horiz-adv-x="350" unicode="³" d="M169 344q-107 0 -144 70l41 38q12 -23 38 -36.5t54 -13.5q35 0 56 14.5t21 38.5q0 21 -19 34t-52 13h-34v50h30q26 0 44 14.5t18 36.5q0 21 -17 33t-46 12q-57 0 -89 -45l-34 38q36 64 137 64q57 0 90.5 -23.5t33.5 -64.5q0 -65 -74 -84v-1q40 -3 63.5 -26.5t23.5 -56.5 q0 -47 -40 -76t-101 -29z"/>
<glyph glyph-name="acute" horiz-adv-x="288" unicode="´" d="M166 722l62 -48l-120 -143l-48 34z"/>
<glyph glyph-name="mu" horiz-adv-x="545" unicode="µ" d="M392 450h80v-450h-80v64q-63 -74 -159 -74q-48 0 -86 20v-210h-80v650h80v-250q0 -135 116 -135q36 0 71.5 18.5t57.5 48.5v318z"/>
<glyph glyph-name="mu" horiz-adv-x="545" unicode="μ" d="M392 450h80v-450h-80v64q-63 -74 -159 -74q-48 0 -86 20v-210h-80v650h80v-250q0 -135 116 -135q36 0 71.5 18.5t57.5 48.5v318z"/>
<glyph glyph-name="paragraph" horiz-adv-x="461" unicode="¶" d="M45 481q0 101 59 160t155 59h172v-75h-94v-638q0 -195 -165 -195q-70 0 -114 41l33 58q31 -24 75 -24q50 0 70.5 31t20.5 92v273q-90 2 -151 60t-61 158z"/>
<glyph glyph-name="middot" horiz-adv-x="225" unicode="·" d="M57 299q0 21 16.5 37t40.5 16q21 0 37 -16t16 -37q0 -24 -15 -40.5t-38 -16.5q-24 0 -40.5 16.5t-16.5 40.5z"/>
<glyph glyph-name="cedilla" horiz-adv-x="351" unicode="¸" d="M60 -171l24 39q35 -23 71 -23q25 0 40.5 9.5t15.5 26.5q0 39 -58 39h-6v80h43v-43q101 -6 101 -80q0 -37 -33.5 -59.5t-92.5 -22.5q-55 0 -105 34z"/>
<glyph glyph-name="onesuperior" horiz-adv-x="252" unicode="¹" d="M49 582l-27 48l105 71h50v-351h-70v269z"/>
<glyph glyph-name="ordmasculine" horiz-adv-x="476" unicode="º" d="M130 489q0 -46 31.5 -75.5t76.5 -29.5q46 0 77 29.5t31 75.5q0 45 -31 74.5t-77 29.5t-77 -29.5t-31 -74.5zM107 366q-52 48 -52 123t51 122q53 47 132 47t131 -47q52 -46 52 -122q0 -75 -52 -123q-53 -47 -131 -47t-131 47z"/>
<glyph glyph-name="guillemotright" horiz-adv-x="530" unicode="»" d="M295 252v-4l-185 -218l-54 47l147 173l-148 172l52 46zM485 252v-4l-185 -218l-54 47l147 173l-148 172l52 46z"/>
<glyph glyph-name="onequarter" horiz-adv-x="673" unicode="¼" d="M59 582l-27 48l105 71h50v-351h-70v269zM97 -10l-47 33l514 687l46 -34zM594 0h-65v79h-194v46l168 225h67l-163 -216h122v91h65v-91h59v-55h-59v-79z"/>
<glyph glyph-name="onehalf" horiz-adv-x="689" unicode="½" d="M59 582l-27 48l105 71h50v-351h-70v269zM77 -10l-47 33l514 687l46 -34zM649 0h-284v51l25 16l29 19q12 10 27 20q22 16 29 21q1 1 21.5 19t27.5 25q33 40 33 68q0 25 -16 40t-45 15q-25 0 -45 -16.5t-24 -41.5l-59 21q7 44 44 70.5t91 26.5q61 0 94.5 -29.5t33.5 -77.5 q0 -66 -72 -121q-52 -42 -102 -66h192v-60z"/>
<glyph glyph-name="threequarters" horiz-adv-x="723" unicode="¾" d="M157 -10l-47 33l514 687l46 -34zM644 0h-65v79h-194v46l168 225h67l-163 -216h122v91h65v-91h59v-55h-59v-79zM174 344q-107 0 -144 70l41 38q12 -23 38 -36.5t54 -13.5q35 0 56 14.5t21 38.5q0 21 -19 34t-52 13h-34v50h30q26 0 44 14.5t18 36.5q0 21 -17 33t-46 12 q-58 0 -89 -45l-34 38q36 64 137 64q57 0 90.5 -23.5t33.5 -64.5q0 -65 -74 -84v-1q40 -3 63.5 -26.5t23.5 -56.5q0 -47 -40 -76t-101 -29z"/>
<glyph glyph-name="questiondown" horiz-adv-x="466" unicode="¿" d="M314 403q0 -22 -16 -37.5t-42 -15.5q-21 0 -37 16t-16 37q0 24 15 40.5t38 16.5q26 0 42 -16.5t16 -40.5zM116 -63q0 -46 34.5 -78t87.5 -32q86 0 140 74l48 -53q-28 -46 -80 -73.5t-113 -27.5q-93 0 -149 50q-54 49 -54 123q0 47 16 83q4 10 9.5 19t12 17.5t11.5 14.5 t14 14l13.5 12t15 12.5t14.5 11.5t16.5 13.5t16.5 14t14.5 12.5t14.5 14.5t10.5 14.5t9 16.5t5 17.5t2.5 21q0 13 -3 26l72 1q4 -26 4 -38q0 -69 -51 -111q-10 -8 -33.5 -25.5t-36.5 -29t-29.5 -29.5t-24 -39t-7.5 -46z"/>
<glyph glyph-name="Agrave" horiz-adv-x="705" unicode="À" d="M418 783l-23 -48l-202 84l30 68zM476 292l-126 299l-126 -299h252zM101 0h-86l301 704h73l301 -704h-91l-90 212h-319z"/>
<glyph glyph-name="Aacute" horiz-adv-x="705" unicode="Á" d="M483 887l30 -68l-202 -84l-23 48zM476 292l-126 299l-126 -299h252zM101 0h-86l301 704h73l301 -704h-91l-90 212h-319z"/>
<glyph glyph-name="Acircumflex" horiz-adv-x="705" unicode="Â" d="M206 733l-29 45l171 104h4l174 -103l-33 -46l-143 76zM476 292l-126 299l-126 -299h252zM101 0h-86l301 704h73l301 -704h-91l-90 212h-319z"/>
<glyph glyph-name="Atilde" horiz-adv-x="705" unicode="Ã" d="M204 761l-26 50q44 47 100 47q29 0 77 -20t73 -20q45 0 75 32l22 -50q-39 -52 -102 -52q-25 0 -76 20q-49 20 -77 20q-33 0 -66 -27zM476 292l-126 299l-126 -299h252zM101 0h-86l301 704h73l301 -704h-91l-90 212h-319z"/>
<glyph glyph-name="Adieresis" horiz-adv-x="705" unicode="Ä" d="M414 813q0 20 16 32.5t40 12.5q22 0 36.5 -12.5t14.5 -32.5q0 -21 -14.5 -34.5t-36.5 -13.5q-24 0 -40 13.5t-16 34.5zM182 813q0 20 15.5 32.5t39.5 12.5q22 0 37 -12.5t15 -32.5q0 -21 -15 -34.5t-37 -13.5q-24 0 -39.5 13t-15.5 35zM476 292l-126 299l-126 -299h252z M101 0h-86l301 704h73l301 -704h-91l-90 212h-319z"/>
<glyph glyph-name="Aring" horiz-adv-x="705" unicode="Å" d="M287 792q0 -26 17.5 -40.5t47.5 -14.5q29 0 47 14.5t18 40.5q0 51 -65 51t-65 -51zM476 292l-126 299l-126 -299h252zM227 792q0 47 33.5 71.5t90.5 24.5q58 0 92 -24.5t34 -71.5q0 -76 -85 -96l298 -696h-91l-90 212h-319l-89 -212h-86l297 696q-39 8 -62 33.5t-23 62.5 z"/>
<glyph glyph-name="AE" horiz-adv-x="956" unicode="Æ" d="M486 296v275l-194 -275h194zM488 700h393v-80h-310v-226h280v-80h-280v-234h320v-80h-405v216h-250l-152 -216h-99z"/>
<glyph glyph-name="Ccedilla" horiz-adv-x="656" unicode="Ç" d="M276 -169l26 42q40 -28 74 -28q25 0 40.5 9.5t15.5 26.5q0 39 -58 39h-6v72q-144 10 -231 108t-87 250q0 156 94 257q94 103 255 103q133 0 213 -68l-39 -64q-70 52 -173 52q-113 0 -187 -78q-73 -77 -73 -202t75 -203q77 -77 198 -77q102 0 179 62l34 -64 q-33 -35 -91 -55.5t-124 -22.5v-33q106 -6 106 -80q0 -37 -33 -59.5t-90 -22.5q-64 0 -118 36z"/>
<glyph glyph-name="Egrave" horiz-adv-x="575" unicode="È" d="M383 783l-23 -48l-202 84l30 68zM510 0h-405v700h395v-80h-310v-226h280v-80h-280v-234h320v-80z"/>
<glyph glyph-name="Eacute" horiz-adv-x="575" unicode="É" d="M423 887l30 -68l-202 -84l-23 48zM510 0h-405v700h395v-80h-310v-226h280v-80h-280v-234h320v-80z"/>
<glyph glyph-name="Ecircumflex" horiz-adv-x="575" unicode="Ê" d="M158 733l-29 45l171 104h4l174 -103l-33 -46l-143 76zM510 0h-405v700h395v-80h-310v-226h280v-80h-280v-234h320v-80z"/>
<glyph glyph-name="Edieresis" horiz-adv-x="575" unicode="Ë" d="M510 0h-405v700h395v-80h-310v-226h280v-80h-280v-234h320v-80zM368 813q0 20 16 32.5t40 12.5q22 0 36.5 -12.5t14.5 -32.5q0 -21 -14.5 -34.5t-36.5 -13.5q-24 0 -40 13.5t-16 34.5zM136 813q0 20 15.5 32.5t39.5 12.5q22 0 37 -12.5t15 -32.5q0 -21 -15 -34.5 t-37 -13.5q-24 0 -39.5 13t-15.5 35z"/>
<glyph glyph-name="Igrave" horiz-adv-x="335" unicode="Ì" d="M223 783l-23 -48l-202 84l30 68zM210 0h-85v700h85v-700z"/>
<glyph glyph-name="Iacute" horiz-adv-x="335" unicode="Í" d="M308 887l30 -68l-202 -84l-23 48zM210 0h-85v700h85v-700z"/>
<glyph glyph-name="Icircumflex" horiz-adv-x="335" unicode="Î" d="M210 0h-85v700h85v-700zM22 733l-29 45l171 104h4l174 -103l-33 -46l-143 76z"/>
<glyph glyph-name="Idieresis" horiz-adv-x="335" unicode="Ï" d="M210 0h-85v700h85v-700zM230 813q0 20 16 32.5t40 12.5q22 0 36.5 -12.5t14.5 -32.5q0 -21 -14.5 -34.5t-36.5 -13.5q-24 0 -40 13.5t-16 34.5zM-2 813q0 20 15.5 32.5t39.5 12.5q22 0 37 -12.5t15 -32.5q0 -21 -15 -34.5t-37 -13.5q-24 0 -39.5 13t-15.5 35z"/>
<glyph glyph-name="Eth" horiz-adv-x="754" unicode="Ð" d="M309 623q-18 0 -54.5 -1.5t-49.5 -1.5v-229h188v-75h-188v-236q26 0 50.5 -0.5t36.5 -1t14 -0.5q145 0 227 77q81 78 81 204q0 118 -79 191t-226 73zM120 316h-110v75h110v309h12q43 0 85 1q86 2 94 2q102 0 179 -27.5t123 -76t68.5 -109t22.5 -131.5q0 -157 -105 -259 q-103 -102 -296 -102q-42 0 -82 1q-39 1 -90 1h-11v316z"/>
<glyph glyph-name="Ntilde" horiz-adv-x="795" unicode="Ñ" d="M256 761l-26 50q44 47 100 47q29 0 77 -20t73 -20q45 0 75 32l22 -50q-39 -52 -102 -52q-25 0 -76 20q-49 20 -77 20q-33 0 -66 -27zM690 700v-700h-68l-437 550v-550h-80v700h68l437 -552v552h80z"/>
<glyph glyph-name="Ograve" horiz-adv-x="814" unicode="Ò" d="M503 783l-23 -48l-202 84l30 68zM140 350q0 -118 77 -200q77 -80 190 -80q118 0 192 80q75 80 75 200t-77 200t-190 80q-115 0 -191 -79t-76 -201zM50 350q0 152 101 256t256 104q154 0 255 -101q102 -100 102 -259q0 -154 -102 -258q-102 -102 -255 -102t-256 101 q-101 101 -101 259z"/>
<glyph glyph-name="Oacute" horiz-adv-x="814" unicode="Ó" d="M533 887l30 -68l-202 -84l-23 48zM140 350q0 -118 77 -200q77 -80 190 -80q118 0 192 80q75 80 75 200t-77 200t-190 80q-115 0 -191 -79t-76 -201zM50 350q0 152 101 256t256 104q154 0 255 -101q102 -100 102 -259q0 -154 -102 -258q-102 -102 -255 -102t-256 101 q-101 101 -101 259z"/>
<glyph glyph-name="Ocircumflex" horiz-adv-x="814" unicode="Ô" d="M265 733l-29 45l171 104h4l174 -103l-33 -46l-143 76zM140 350q0 -118 77 -200q77 -80 190 -80q118 0 192 80q75 80 75 200t-77 200t-190 80q-115 0 -191 -79t-76 -201zM50 350q0 152 101 256t256 104q154 0 255 -101q102 -100 102 -259q0 -154 -102 -258 q-102 -102 -255 -102t-256 101q-101 101 -101 259z"/>
<glyph glyph-name="Otilde" horiz-adv-x="814" unicode="Õ" d="M258 761l-26 50q44 47 100 47q29 0 77 -20t73 -20q45 0 75 32l22 -50q-39 -52 -102 -52q-25 0 -76 20q-49 20 -77 20q-33 0 -66 -27zM140 350q0 -118 77 -200q77 -80 190 -80q118 0 192 80q75 80 75 200t-77 200t-190 80q-115 0 -191 -79t-76 -201zM50 350q0 152 101 256 t256 104q154 0 255 -101q102 -100 102 -259q0 -154 -102 -258q-102 -102 -255 -102t-256 101q-101 101 -101 259z"/>
<glyph glyph-name="Odieresis" horiz-adv-x="814" unicode="Ö" d="M468 813q0 20 16 32.5t40 12.5q22 0 36.5 -12.5t14.5 -32.5q0 -21 -14.5 -34.5t-36.5 -13.5q-24 0 -40 13.5t-16 34.5zM236 813q0 20 15.5 32.5t39.5 12.5q22 0 37 -12.5t15 -32.5q0 -21 -15 -34.5t-37 -13.5q-24 0 -39.5 13t-15.5 35zM140 350q0 -118 77 -200 q77 -80 190 -80q118 0 192 80q75 80 75 200t-77 200t-190 80q-115 0 -191 -79t-76 -201zM50 350q0 152 101 256t256 104q154 0 255 -101q102 -100 102 -259q0 -154 -102 -258q-102 -102 -255 -102t-256 101q-101 101 -101 259z"/>
<glyph glyph-name="multiply" d="M246 360l-135 135l50 50l135 -136l135 136l49 -50l-135 -135l137 -136l-50 -50l-136 136l-137 -136l-49 50z" unicode="×"/>
<glyph glyph-name="Oslash" horiz-adv-x="814" unicode="Ø" d="M140 350q0 -91 46 -161l390 381q-70 60 -169 60q-115 0 -191 -79t-76 -201zM674 350q0 97 -53 171l-392 -383q74 -68 178 -68q118 0 192 80q75 80 75 200zM50 350q0 152 101 256t256 104q134 0 231 -80l44 43l46 -47l-43 -42q79 -95 79 -234q0 -154 -102 -258 q-102 -102 -255 -102q-143 0 -240 87l-45 -44l-47 48l46 45q-71 94 -71 224z"/>
<glyph glyph-name="Ugrave" horiz-adv-x="751" unicode="Ù" d="M458 783l-23 -48l-202 84l30 68zM571 700h85v-408q0 -151 -77 -226t-194 -75q-132 0 -211 79t-79 229v401h85v-385q0 -115 53.5 -179.5t151.5 -64.5q89 0 137.5 61t48.5 177v391z"/>
<glyph glyph-name="Uacute" horiz-adv-x="751" unicode="Ú" d="M498 887l30 -68l-202 -84l-23 48zM571 700h85v-408q0 -151 -77 -226t-194 -75q-132 0 -211 79t-79 229v401h85v-385q0 -115 53.5 -179.5t151.5 -64.5q89 0 137.5 61t48.5 177v391z"/>
<glyph glyph-name="Ucircumflex" horiz-adv-x="751" unicode="Û" d="M229 733l-29 45l171 104h4l174 -103l-33 -46l-143 76zM571 700h85v-408q0 -151 -77 -226t-194 -75q-132 0 -211 79t-79 229v401h85v-385q0 -115 53.5 -179.5t151.5 -64.5q89 0 137.5 61t48.5 177v391z"/>
<glyph glyph-name="Udieresis" horiz-adv-x="751" unicode="Ü" d="M571 700h85v-408q0 -151 -77 -226t-194 -75q-132 0 -211 79t-79 229v401h85v-385q0 -115 53.5 -179.5t151.5 -64.5q89 0 137.5 61t48.5 177v391zM433 813q0 20 16 32.5t40 12.5q22 0 36.5 -12.5t14.5 -32.5q0 -21 -14.5 -34.5t-36.5 -13.5q-24 0 -40 13.5t-16 34.5z M201 813q0 20 15.5 32.5t39.5 12.5q22 0 37 -12.5t15 -32.5q0 -21 -15 -34.5t-37 -13.5q-24 0 -39.5 13t-15.5 35z"/>
<glyph glyph-name="Yacute" horiz-adv-x="604" unicode="Ý" d="M428 887l30 -68l-202 -84l-23 48zM501 700h93l-251 -400v-300h-85v300l-248 400h98l196 -320z"/>
<glyph glyph-name="Thorn" horiz-adv-x="597" unicode="Þ" d="M289 517q-30 0 -99 -3v-269q63 -5 102 -5q77 0 121 37.5t44 103.5q0 65 -42.5 100.5t-125.5 35.5zM190 164v-164h-85v700h85v-105q25 0 50 1t48 1q138 0 198 -62q61 -61 61 -155q0 -92 -66 -156q-64 -64 -186 -64q-64 0 -105 4z"/>
<glyph glyph-name="germandbls" horiz-adv-x="546" unicode="ß" d="M421 154q0 29 -19 53.5t-45.5 42t-53.5 35.5t-46 44.5t-19 58.5q0 62 47 101t47 80q0 29 -23 47.5t-57 18.5q-50 0 -73.5 -33t-23.5 -104v-500h-80v510q0 202 188 202q67 0 110 -37q44 -36 44 -90q0 -27 -9.5 -49t-23.5 -36.5t-28 -28t-23.5 -30.5t-9.5 -36q0 -47 64 -89 q28 -16 42 -26.5t35.5 -30.5t31.5 -45.5t10 -57.5q0 -71 -44 -118q-43 -46 -110 -46q-93 0 -143 65l27 61q44 -51 97 -51q37 0 62.5 24.5t25.5 64.5z"/>
<glyph glyph-name="agrave" horiz-adv-x="460" unicode="à" d="M206 65q67 0 116 58v57q-42 30 -101 30q-41 0 -68.5 -19.5t-27.5 -54.5q0 -33 21.5 -52t59.5 -19zM96 355l-21 64q67 41 150 41q91 0 132 -45t41 -139v-276h-76v58q-53 -65 -144 -65q-62 0 -100 37.5t-38 101.5q0 66 47 104.5t123 38.5q71 0 112 -29q0 76 -21 109t-81 33 q-61 0 -124 -33zM300 565l-49 -34l-121 142l63 48z"/>
<glyph glyph-name="aacute" horiz-adv-x="460" unicode="á" d="M273 722l62 -48l-120 -143l-48 34zM206 65q67 0 116 58v57q-42 30 -101 30q-41 0 -68.5 -19.5t-27.5 -54.5q0 -33 21.5 -52t59.5 -19zM96 355l-21 64q67 41 150 41q91 0 132 -45t41 -139v-276h-76v58q-53 -65 -144 -65q-62 0 -100 37.5t-38 101.5q0 66 47 104.5t123 38.5 q71 0 112 -29q0 76 -21 109t-81 33q-61 0 -124 -33z"/>
<glyph glyph-name="acircumflex" horiz-adv-x="460" unicode="â" d="M206 65q67 0 116 58v57q-42 30 -101 30q-41 0 -68.5 -19.5t-27.5 -54.5q0 -33 21.5 -52t59.5 -19zM96 355l-21 64q67 41 150 41q91 0 132 -45t41 -139v-276h-76v58q-53 -65 -144 -65q-62 0 -100 37.5t-38 101.5q0 66 47 104.5t123 38.5q71 0 112 -29q0 76 -21 109t-81 33 q-61 0 -124 -33zM228 707h4l139 -133l-38 -48l-104 91l-104 -90l-38 47z"/>
<glyph glyph-name="atilde" horiz-adv-x="460" unicode="ã" d="M99 557l-33 37q53 60 110 60q24 0 58 -22t55 -22q28 0 71 35l28 -41q-56 -59 -106 -59q-23 0 -57 22t-57 22q-26 0 -69 -32zM206 65q67 0 116 58v57q-42 30 -101 30q-41 0 -68.5 -19.5t-27.5 -54.5q0 -33 21.5 -52t59.5 -19zM96 355l-21 64q67 41 150 41q91 0 132 -45 t41 -139v-276h-76v58q-53 -65 -144 -65q-62 0 -100 37.5t-38 101.5q0 66 47 104.5t123 38.5q71 0 112 -29q0 76 -21 109t-81 33q-61 0 -124 -33z"/>
<glyph glyph-name="adieresis" horiz-adv-x="460" unicode="ä" d="M206 65q67 0 116 58v57q-42 30 -101 30q-41 0 -68.5 -19.5t-27.5 -54.5q0 -33 21.5 -52t59.5 -19zM96 355l-21 64q67 41 150 41q91 0 132 -45t41 -139v-276h-76v58q-53 -65 -144 -65q-62 0 -100 37.5t-38 101.5q0 66 47 104.5t123 38.5q71 0 112 -29q0 76 -21 109t-81 33 q-61 0 -124 -33zM286 610q0 20 14 33t34 13q18 0 31 -13t13 -33q0 -23 -12.5 -36.5t-31.5 -13.5q-21 0 -34.5 13.5t-13.5 36.5zM83 610q0 21 13 33.5t34 12.5q18 0 31 -13t13 -33q0 -23 -12.5 -36.5t-31.5 -13.5q-21 0 -34 13.5t-13 36.5z"/>
<glyph glyph-name="aring" horiz-adv-x="460" unicode="å" d="M168 614q0 -28 18 -47t45 -19t45 19t18 47q0 27 -18 46t-45 19t-45 -19t-18 -46zM230 724q49 0 82.5 -32.5t33.5 -78.5t-33.5 -78t-82.5 -32q-48 0 -81 32t-33 78t33 78.5t81 32.5zM206 65q67 0 116 58v57q-42 30 -101 30q-41 0 -68.5 -19.5t-27.5 -54.5q0 -33 21.5 -52 t59.5 -19zM96 355l-21 64q67 41 150 41q91 0 132 -45t41 -139v-276h-76v58q-53 -65 -144 -65q-62 0 -100 37.5t-38 101.5q0 66 47 104.5t123 38.5q71 0 112 -29q0 76 -21 109t-81 33q-61 0 -124 -33z"/>
<glyph glyph-name="ae" horiz-adv-x="775" unicode="æ" d="M206 68q66 0 112 55v73q-53 14 -97 14q-41 0 -68.5 -19.5t-27.5 -54.5q0 -30 22.5 -49t58.5 -19zM398 276v-11h257q-3 56 -37.5 88t-92.5 32q-87 0 -129 -69q2 -32 2 -40zM225 460q101 0 142 -59q65 59 162 59q90 0 149 -58q60 -57 60 -148q0 -29 -5 -54h-335v-62 q43 -73 146 -73q88 0 138 47l25 -63q-65 -59 -169 -59q-114 0 -181 70q-73 -67 -163 -67q-73 0 -113.5 36.5t-40.5 102.5t47 104.5t123 38.5q63 0 108 -14v16q0 56 -23 82t-75 26q-61 0 -124 -33l-21 67q67 41 150 41z"/>
<glyph glyph-name="ccedilla" horiz-adv-x="488" unicode="ç" d="M159 -171l24 39q35 -23 71 -23q25 0 40.5 9.5t15.5 26.5q0 39 -58 39h-6v72q-93 11 -148.5 74t-55.5 159q0 99 65 167t163 68q118 0 177 -59l-37 -63q-52 47 -129 47q-63 0 -109 -46q-45 -45 -45 -114q0 -73 46 -116q47 -44 116 -44q78 0 129 58l38 -58q-56 -72 -167 -75 v-33q101 -6 101 -80q0 -37 -33.5 -59.5t-92.5 -22.5q-55 0 -105 34z"/>
<glyph glyph-name="egrave" horiz-adv-x="520" unicode="è" d="M335 565l-49 -34l-121 142l63 48zM270 385q-59 0 -97.5 -33t-45.5 -87h273q-3 56 -37.5 88t-92.5 32zM427 112l25 -63q-65 -59 -169 -59q-110 0 -175 64q-66 64 -66 171q0 101 62 168q61 67 170 67q90 0 149 -58q60 -57 60 -148q0 -29 -5 -54h-346q5 -63 47.5 -99 t109.5 -36q88 0 138 47z"/>
<glyph glyph-name="eacute" horiz-adv-x="520" unicode="é" d="M328 722l62 -48l-120 -143l-48 34zM270 385q-59 0 -97.5 -33t-45.5 -87h273q-3 56 -37.5 88t-92.5 32zM427 112l25 -63q-65 -59 -169 -59q-110 0 -175 64q-66 64 -66 171q0 101 62 168q61 67 170 67q90 0 149 -58q60 -57 60 -148q0 -29 -5 -54h-346q5 -63 47.5 -99 t109.5 -36q88 0 138 47z"/>
<glyph glyph-name="ecircumflex" horiz-adv-x="520" unicode="ê" d="M270 385q-59 0 -97.5 -33t-45.5 -87h273q-3 56 -37.5 88t-92.5 32zM427 112l25 -63q-65 -59 -169 -59q-110 0 -175 64q-66 64 -66 171q0 101 62 168q61 67 170 67q90 0 149 -58q60 -57 60 -148q0 -29 -5 -54h-346q5 -63 47.5 -99t109.5 -36q88 0 138 47zM268 707h4 l139 -133l-38 -48l-104 91l-104 -90l-38 47z"/>
<glyph glyph-name="edieresis" horiz-adv-x="520" unicode="ë" d="M322 610q0 20 14 33t34 13q18 0 31 -13t13 -33q0 -23 -12.5 -36.5t-31.5 -13.5q-21 0 -34.5 13.5t-13.5 36.5zM119 610q0 21 13 33.5t34 12.5q18 0 31 -13t13 -33q0 -23 -12.5 -36.5t-31.5 -13.5q-21 0 -34 13.5t-13 36.5zM270 385q-59 0 -97.5 -33t-45.5 -87h273 q-3 56 -37.5 88t-92.5 32zM427 112l25 -63q-65 -59 -169 -59q-110 0 -175 64q-66 64 -66 171q0 101 62 168q61 67 170 67q90 0 149 -58q60 -57 60 -148q0 -29 -5 -54h-346q5 -63 47.5 -99t109.5 -36q88 0 138 47z"/>
<glyph glyph-name="igrave" horiz-adv-x="268" unicode="ì" d="M174 0h-80v450h80v-450zM176 565l-49 -34l-121 142l63 48z"/>
<glyph glyph-name="iacute" horiz-adv-x="268" unicode="í" d="M184 722l62 -48l-120 -143l-48 34zM174 0h-80v450h80v-450z"/>
<glyph glyph-name="icircumflex" horiz-adv-x="268" unicode="î" d="M174 0h-80v450h80v-450zM133 707h4l139 -133l-38 -48l-104 91l-104 -90l-38 47z"/>
<glyph glyph-name="idieresis" horiz-adv-x="268" unicode="ï" d="M174 0h-80v450h80v-450zM190 610q0 20 14 33t34 13q18 0 31 -13t13 -33q0 -23 -12.5 -36.5t-31.5 -13.5q-21 0 -34.5 13.5t-13.5 36.5zM-13 610q0 21 13 33.5t34 12.5q18 0 31 -13t13 -33q0 -23 -12.5 -36.5t-31.5 -13.5q-21 0 -34 13.5t-13 36.5z"/>
<glyph glyph-name="eth" horiz-adv-x="565" unicode="ð" d="M127 225q0 -71 43 -115q44 -45 112 -45q69 0 112 51t43 136v13q-10 50 -53 85t-102 35q-68 0 -111 -45q-44 -44 -44 -115zM324 566l-128 -54l-23 71l96 40q-48 42 -103 72l90 15q45 -24 84 -57l105 45l23 -71l-72 -30q60 -71 93 -160t33 -177q0 -126 -66 -198 q-64 -72 -174 -72q-106 0 -174 66q-66 68 -66 169q0 102 66 168q67 67 174 67q42 0 78.5 -21.5t56.5 -57.5q-23 101 -93 185z"/>
<glyph glyph-name="ntilde" horiz-adv-x="549" unicode="ñ" d="M144 557l-33 37q53 60 110 60q24 0 58 -22t55 -22q28 0 71 35l28 -41q-56 -59 -106 -59q-23 0 -57 22t-57 22q-26 0 -69 -32zM152 0h-80v450h80v-55q25 28 65.5 45.5t81.5 17.5q187 0 187 -198v-260h-80v245q0 138 -127 138q-76 0 -127 -58v-325z"/>
<glyph glyph-name="ograve" horiz-adv-x="565" unicode="ò" d="M127 225q0 -71 43 -115q44 -45 112 -45t111.5 44.5t43.5 115.5q0 69 -44 115q-43 45 -111 45t-111 -45q-44 -44 -44 -115zM108 56q-66 68 -66 169q0 102 66 168q67 67 174 67t173 -67q67 -66 67 -168t-67 -169q-66 -66 -173 -66q-106 0 -174 66zM339 565l-49 -34 l-121 142l63 48z"/>
<glyph glyph-name="oacute" horiz-adv-x="565" unicode="ó" d="M332 722l62 -48l-120 -143l-48 34zM127 225q0 -71 43 -115q44 -45 112 -45t111.5 44.5t43.5 115.5q0 69 -44 115q-43 45 -111 45t-111 -45q-44 -44 -44 -115zM108 56q-66 68 -66 169q0 102 66 168q67 67 174 67t173 -67q67 -66 67 -168t-67 -169q-66 -66 -173 -66 q-106 0 -174 66z"/>
<glyph glyph-name="ocircumflex" horiz-adv-x="565" unicode="ô" d="M127 225q0 -71 43 -115q44 -45 112 -45t111.5 44.5t43.5 115.5q0 69 -44 115q-43 45 -111 45t-111 -45q-44 -44 -44 -115zM108 56q-66 68 -66 169q0 102 66 168q67 67 174 67t173 -67q67 -66 67 -168t-67 -169q-66 -66 -173 -66q-106 0 -174 66zM281 707h4l139 -133 l-38 -48l-104 91l-104 -90l-38 47z"/>
<glyph glyph-name="otilde" horiz-adv-x="565" unicode="õ" d="M152 557l-33 37q52 60 110 60q24 0 58 -22t55 -22q28 0 71 35l28 -41q-56 -59 -106 -59q-23 0 -57 22t-57 22q-26 0 -69 -32zM127 225q0 -71 43 -115q44 -45 112 -45t111.5 44.5t43.5 115.5q0 69 -44 115q-43 45 -111 45t-111 -45q-44 -44 -44 -115zM108 56 q-66 68 -66 169q0 102 66 168q67 67 174 67t173 -67q67 -66 67 -168t-67 -169q-66 -66 -173 -66q-106 0 -174 66z"/>
<glyph glyph-name="odieresis" horiz-adv-x="565" unicode="ö" d="M342 610q0 20 14 33t34 13q18 0 31 -13t13 -33q0 -23 -12.5 -36.5t-31.5 -13.5q-21 0 -34.5 13.5t-13.5 36.5zM139 610q0 21 13 33.5t34 12.5q18 0 31 -13t13 -33q0 -23 -12.5 -36.5t-31.5 -13.5q-21 0 -34 13.5t-13 36.5zM127 225q0 -71 43 -115q44 -45 112 -45 t111.5 44.5t43.5 115.5q0 69 -44 115q-43 45 -111 45t-111 -45q-44 -44 -44 -115zM108 56q-66 68 -66 169q0 102 66 168q67 67 174 67t173 -67q67 -66 67 -168t-67 -169q-66 -66 -173 -66q-106 0 -174 66z"/>
<glyph glyph-name="divide" d="M523 325h-454v70h454v-70zM246 157q0 19 14 33t36 14q20 0 34.5 -14t14.5 -33q0 -21 -14 -36t-35 -15q-23 0 -36.5 14.5t-13.5 36.5zM246 564q0 20 14 34t36 14q20 0 34.5 -14.5t14.5 -33.5q0 -21 -14 -36t-35 -15q-23 0 -36.5 14.5t-13.5 36.5z" unicode="÷"/>
<glyph glyph-name="oslash" horiz-adv-x="565" unicode="ø" d="M437 225q0 41 -18 79l-224 -214q37 -25 87 -25q68 0 111.5 44.5t43.5 115.5zM127 225q0 -50 21 -86l228 216q-40 30 -94 30q-68 0 -111 -45q-44 -44 -44 -115zM42 225q0 102 66 168q67 67 174 67q91 0 153 -49l46 44l44 -49l-45 -43q42 -59 42 -138q0 -102 -67 -169 q-66 -66 -173 -66q-85 0 -146 43l-50 -47l-45 51l46 44q-45 61 -45 144z"/>
<glyph glyph-name="ugrave" horiz-adv-x="540" unicode="ù" d="M387 450h80v-450h-80v64q-63 -74 -159 -74q-79 0 -122.5 48.5t-43.5 143.5v268h80v-250q0 -135 116 -135q36 0 71.5 18.5t57.5 48.5v318zM324 565l-49 -34l-121 142l63 48z"/>
<glyph glyph-name="uacute" horiz-adv-x="540" unicode="ú" d="M322 722l62 -48l-120 -143l-48 34zM387 450h80v-450h-80v64q-63 -74 -159 -74q-79 0 -122.5 48.5t-43.5 143.5v268h80v-250q0 -135 116 -135q36 0 71.5 18.5t57.5 48.5v318z"/>
<glyph glyph-name="ucircumflex" horiz-adv-x="540" unicode="û" d="M387 450h80v-450h-80v64q-63 -74 -159 -74q-79 0 -122.5 48.5t-43.5 143.5v268h80v-250q0 -135 116 -135q36 0 71.5 18.5t57.5 48.5v318zM265 707h4l139 -133l-38 -48l-104 91l-104 -90l-38 47z"/>
<glyph glyph-name="udieresis" horiz-adv-x="540" unicode="ü" d="M387 450h80v-450h-80v64q-63 -74 -159 -74q-79 0 -122.5 48.5t-43.5 143.5v268h80v-250q0 -135 116 -135q36 0 71.5 18.5t57.5 48.5v318zM324 610q0 20 14 33t34 13q18 0 31 -13t13 -33q0 -23 -12.5 -36.5t-31.5 -13.5q-21 0 -34.5 13.5t-13.5 36.5zM121 610 q0 21 13 33.5t34 12.5q18 0 31 -13t13 -33q0 -23 -12.5 -36.5t-31.5 -13.5q-21 0 -34 13.5t-13 36.5z"/>
<glyph glyph-name="yacute" horiz-adv-x="491" unicode="ý" d="M390 450h91l-180 -450q-49 -119 -85 -158q-38 -42 -87 -42q-44 0 -85 28l26 61q31 -15 50 -15q28 0 50.5 24t45.5 78l10 24l-216 450h96l132 -286q4 -7 27 -68q9 33 21 69zM293 722l62 -48l-120 -143l-48 34z"/>
<glyph glyph-name="thorn" horiz-adv-x="556" unicode="þ" d="M282 385q-80 0 -130 -62v-223q53 -35 120 -35q71 0 113.5 45.5t42.5 118.5q0 71 -39 113.5t-107 42.5zM152 -200h-80v900h80v-298q59 58 153 58q96 0 151 -64q57 -63 57 -164q0 -103 -65 -173q-64 -69 -169 -69q-81 0 -127 31v-221z"/>
<glyph glyph-name="ydieresis" horiz-adv-x="491" unicode="ÿ" d="M306 610q0 20 14 33t34 13q18 0 31 -13t13 -33q0 -23 -12.5 -36.5t-31.5 -13.5q-21 0 -34.5 13.5t-13.5 36.5zM103 610q0 21 13 33.5t34 12.5q18 0 31 -13t13 -33q0 -23 -12.5 -36.5t-31.5 -13.5q-21 0 -34 13.5t-13 36.5zM390 450h91l-180 -450q-49 -119 -85 -158 q-38 -42 -87 -42q-44 0 -85 28l26 61q31 -15 50 -15q28 0 50.5 24t45.5 78l10 24l-216 450h96l132 -286q4 -7 27 -68q9 33 21 69z"/>
<glyph glyph-name="Amacron" horiz-adv-x="705" unicode="Ā" d="M504 770h-304v65h304v-65zM476 292l-126 299l-126 -299h252zM101 0h-86l301 704h73l301 -704h-91l-90 212h-319z"/>
<glyph glyph-name="amacron" horiz-adv-x="460" unicode="ā" d="M365 580h-264v65h264v-65zM206 65q67 0 116 58v57q-42 30 -101 30q-41 0 -68.5 -19.5t-27.5 -54.5q0 -33 21.5 -52t59.5 -19zM96 355l-21 64q67 41 150 41q91 0 132 -45t41 -139v-276h-76v58q-53 -65 -144 -65q-62 0 -100 37.5t-38 101.5q0 66 47 104.5t123 38.5 q71 0 112 -29q0 76 -21 109t-81 33q-61 0 -124 -33z"/>
<glyph glyph-name="Abreve" horiz-adv-x="705" unicode="Ă" d="M177 838l36 42q59 -65 143 -65t140 65l31 -42q-26 -40 -72.5 -66.5t-98.5 -26.5q-60 0 -109 29q-47 29 -70 64zM476 292l-126 299l-126 -299h252zM101 0h-86l301 704h73l301 -704h-91l-90 212h-319z"/>
<glyph glyph-name="abreve" horiz-adv-x="460" unicode="ă" d="M79 640l37 41q51 -61 114 -61q66 0 115 60l29 -39q-62 -86 -147 -86q-93 0 -148 85zM206 65q67 0 116 58v57q-42 30 -101 30q-41 0 -68.5 -19.5t-27.5 -54.5q0 -33 21.5 -52t59.5 -19zM96 355l-21 64q67 41 150 41q91 0 132 -45t41 -139v-276h-76v58q-53 -65 -144 -65 q-62 0 -100 37.5t-38 101.5q0 66 47 104.5t123 38.5q71 0 112 -29q0 76 -21 109t-81 33q-61 0 -124 -33z"/>
<glyph glyph-name="Aogonek" horiz-adv-x="705" unicode="Ą" d="M476 292l-126 299l-126 -299h252zM661 -126l24 -49q-29 -25 -86 -25q-54 0 -88 23t-34 69q0 41 32.5 71t86.5 43l-87 206h-319l-89 -212h-86l301 704h73l301 -704h-19q-47 -2 -80.5 -26t-33.5 -56q0 -26 18 -39.5t42 -13.5q25 0 44 9z"/>
<glyph glyph-name="aogonek" horiz-adv-x="460" unicode="ą" d="M206 65q67 0 116 58v57q-42 30 -101 30q-41 0 -68.5 -19.5t-27.5 -54.5q0 -33 21.5 -52t59.5 -19zM383 -126l24 -49q-29 -25 -86 -25q-54 0 -88 23t-34 69q0 42 33.5 72t89.5 43v51q-53 -65 -144 -65q-62 0 -100 37.5t-38 101.5q0 66 47 104.5t123 38.5q71 0 112 -29 q0 76 -21 109t-81 33q-61 0 -124 -33l-21 64q67 41 150 41q91 0 132 -45t41 -139v-276q-47 0 -83 -24q-36 -26 -36 -58q0 -26 18 -39.5t42 -13.5q25 0 44 9z"/>
<glyph glyph-name="Cacute" horiz-adv-x="656" unicode="Ć" d="M508 887l30 -68l-202 -84l-23 48zM592 132l34 -64q-35 -36 -95 -57t-126 -21q-157 0 -257 98q-98 100 -98 262q0 156 94 257q94 103 255 103q133 0 213 -68l-39 -64q-70 52 -173 52q-113 0 -187 -78q-73 -77 -73 -202t75 -203q77 -77 198 -77q102 0 179 62z"/>
<glyph glyph-name="cacute" horiz-adv-x="488" unicode="ć" d="M320 722l62 -48l-120 -143l-48 34zM418 123l38 -58q-58 -75 -173 -75q-108 0 -175 64q-66 64 -66 171q0 99 65 167t163 68q118 0 177 -59l-37 -63q-52 47 -129 47q-63 0 -109 -46q-45 -45 -45 -114q0 -73 46 -116q47 -44 116 -44q78 0 129 58z"/>
<glyph glyph-name="Ccircumflex" horiz-adv-x="656" unicode="Ĉ" d="M245 733l-29 45l171 104h4l174 -103l-33 -46l-143 76zM592 132l34 -64q-35 -36 -95 -57t-126 -21q-157 0 -257 98q-98 100 -98 262q0 156 94 257q94 103 255 103q133 0 213 -68l-39 -64q-70 52 -173 52q-113 0 -187 -78q-73 -77 -73 -202t75 -203q77 -77 198 -77 q102 0 179 62z"/>
<glyph glyph-name="ccircumflex" horiz-adv-x="488" unicode="ĉ" d="M418 123l38 -58q-58 -75 -173 -75q-108 0 -175 64q-66 64 -66 171q0 99 65 167t163 68q118 0 177 -59l-37 -63q-52 47 -129 47q-63 0 -109 -46q-45 -45 -45 -114q0 -73 46 -116q47 -44 116 -44q78 0 129 58zM275 707h4l139 -133l-38 -48l-104 91l-104 -90l-38 47z"/>
<glyph glyph-name="Cdotaccent" horiz-adv-x="656" unicode="Ċ" d="M325 817q0 23 16.5 37t40.5 14q22 0 38 -14t16 -37q0 -24 -16 -39t-38 -15q-25 0 -41 15t-16 39zM592 132l34 -64q-35 -36 -95 -57t-126 -21q-157 0 -257 98q-98 100 -98 262q0 156 94 257q94 103 255 103q133 0 213 -68l-39 -64q-70 52 -173 52q-113 0 -187 -78 q-73 -77 -73 -202t75 -203q77 -77 198 -77q102 0 179 62z"/>
<glyph glyph-name="cdotaccent" horiz-adv-x="488" unicode="ċ" d="M226 619q0 21 15 34.5t37 13.5q21 0 35 -13.5t14 -34.5q0 -23 -14 -37.5t-35 -14.5q-22 0 -37 14.5t-15 37.5zM418 123l38 -58q-58 -75 -173 -75q-108 0 -175 64q-66 64 -66 171q0 99 65 167t163 68q118 0 177 -59l-37 -63q-52 47 -129 47q-63 0 -109 -46 q-45 -45 -45 -114q0 -73 46 -116q47 -44 116 -44q78 0 129 58z"/>
<glyph glyph-name="Ccaron" horiz-adv-x="656" unicode="Č" d="M592 132l34 -64q-35 -36 -95 -57t-126 -21q-157 0 -257 98q-98 100 -98 262q0 156 94 257q94 103 255 103q133 0 213 -68l-39 -64q-70 52 -173 52q-113 0 -187 -78q-73 -77 -73 -202t75 -203q77 -77 198 -77q102 0 179 62zM394 738h-4l-175 103l33 46l144 -81l143 81 l30 -45z"/>
<glyph glyph-name="ccaron" horiz-adv-x="488" unicode="č" d="M418 123l38 -58q-58 -75 -173 -75q-108 0 -175 64q-66 64 -66 171q0 99 65 167t163 68q118 0 177 -59l-37 -63q-52 47 -129 47q-63 0 -109 -46q-45 -45 -45 -114q0 -73 46 -116q47 -44 116 -44q78 0 129 58zM277 529h-4l-140 133l39 48l104 -103l104 102l37 -47z"/>
<glyph glyph-name="Dcaron" horiz-adv-x="739" unicode="Ď" d="M294 623q-18 0 -54.5 -1.5t-49.5 -1.5v-540q26 0 50.5 -0.5t36.5 -1t14 -0.5q145 0 227 77q81 78 81 204q0 118 -79 191t-226 73zM116 0h-11v700h12q43 0 85 1q86 2 94 2q102 0 179 -27.5t123 -76t68.5 -109t22.5 -131.5q0 -157 -105 -259q-103 -102 -296 -102 q-42 0 -82 1q-39 1 -90 1zM339 738h-4l-175 103l33 46l144 -81l143 81l30 -45z"/>
<glyph glyph-name="dcaron" horiz-adv-x="554" unicode="ď" d="M571 700h78q8 -18 8 -38q0 -54 -24 -93.5t-62 -59.5l-36 35q47 41 47 109q0 27 -11 47zM274 67q74 0 128 60v223q-56 35 -111 35q-69 0 -117 -45q-47 -44 -47 -116t40.5 -114.5t106.5 -42.5zM482 0h-80v57q-60 -65 -143 -65q-100 0 -158 63q-59 64 -59 167q0 105 69 171 q70 67 177 67q68 0 114 -32v272h80v-700z"/>
<glyph glyph-name="Dcroat" horiz-adv-x="754" unicode="Đ" d="M309 623q-18 0 -54.5 -1.5t-49.5 -1.5v-229h188v-75h-188v-236q26 0 50.5 -0.5t36.5 -1t14 -0.5q145 0 227 77q81 78 81 204q0 118 -79 191t-226 73zM120 316h-110v75h110v309h12q43 0 85 1q86 2 94 2q102 0 179 -27.5t123 -76t68.5 -109t22.5 -131.5q0 -157 -105 -259 q-103 -102 -296 -102q-42 0 -82 1q-39 1 -90 1h-11v316z"/>
<glyph glyph-name="dslash" horiz-adv-x="554" unicode="đ" d="M274 67q74 0 128 60v223q-56 35 -111 35q-69 0 -117 -45q-47 -44 -47 -116t40.5 -114.5t106.5 -42.5zM402 534h-157v65h157v101h80v-101h92v-65h-92v-534h-80v57q-60 -65 -143 -65q-100 0 -158 63q-59 64 -59 167q0 105 69 171q70 67 177 67q68 0 114 -32v106z"/>
<glyph glyph-name="Emacron" horiz-adv-x="575" unicode="Ē" d="M454 770h-304v65h304v-65zM510 0h-405v700h395v-80h-310v-226h280v-80h-280v-234h320v-80z"/>
<glyph glyph-name="emacron" horiz-adv-x="520" unicode="ē" d="M396 580h-264v65h264v-65zM270 385q-59 0 -97.5 -33t-45.5 -87h273q-3 56 -37.5 88t-92.5 32zM427 112l25 -63q-65 -59 -169 -59q-110 0 -175 64q-66 64 -66 171q0 101 62 168q61 67 170 67q90 0 149 -58q60 -57 60 -148q0 -29 -5 -54h-346q5 -63 47.5 -99t109.5 -36 q88 0 138 47z"/>
<glyph glyph-name="Edotaccent" horiz-adv-x="575" unicode="Ė" d="M250 817q0 23 16.5 37t40.5 14q22 0 38 -14t16 -37q0 -24 -16 -39t-38 -15q-25 0 -41 15t-16 39zM510 0h-405v700h395v-80h-310v-226h280v-80h-280v-234h320v-80z"/>
<glyph glyph-name="edotaccent" horiz-adv-x="520" unicode="ė" d="M215 619q0 21 15 34.5t37 13.5q21 0 35 -13.5t14 -34.5q0 -23 -14 -37.5t-35 -14.5q-22 0 -37 14.5t-15 37.5zM270 385q-59 0 -97.5 -33t-45.5 -87h273q-3 56 -37.5 88t-92.5 32zM427 112l25 -63q-65 -59 -169 -59q-110 0 -175 64q-66 64 -66 171q0 101 62 168 q61 67 170 67q90 0 149 -58q60 -57 60 -148q0 -29 -5 -54h-346q5 -63 47.5 -99t109.5 -36q88 0 138 47z"/>
<glyph glyph-name="Eogonek" horiz-adv-x="575" unicode="Ę" d="M409 0h-304v700h395v-80h-310v-226h280v-80h-280v-234h320v-80h-5q-47 -2 -80.5 -26t-33.5 -56q0 -26 18 -39.5t42 -13.5q25 0 44 9l24 -49q-29 -25 -86 -25q-54 0 -88 23t-34 69q0 73 98 108z"/>
<glyph glyph-name="eogonek" horiz-adv-x="520" unicode="ę" d="M270 385q-59 0 -97.5 -33t-45.5 -87h273q-3 56 -37.5 88t-92.5 32zM427 112l25 -63q-33 -30 -74 -43q-67 -43 -67 -88q0 -26 18.5 -39.5t42.5 -13.5t44 9l24 -49q-29 -25 -86 -25q-54 0 -88.5 23t-34.5 69q0 56 72 99q-2 0 -10 -0.5t-10 -0.5q-110 0 -175 64 q-66 64 -66 171q0 101 62 168q61 67 170 67q90 0 149 -58q60 -57 60 -148q0 -29 -5 -54h-346q5 -63 47.5 -99t109.5 -36q88 0 138 47z"/>
<glyph glyph-name="Ecaron" horiz-adv-x="575" unicode="Ě" d="M510 0h-405v700h395v-80h-310v-226h280v-80h-280v-234h320v-80zM314 738h-4l-175 103l33 46l144 -81l143 81l30 -45z"/>
<glyph glyph-name="ecaron" horiz-adv-x="520" unicode="ě" d="M270 385q-59 0 -97.5 -33t-45.5 -87h273q-3 56 -37.5 88t-92.5 32zM427 112l25 -63q-65 -59 -169 -59q-110 0 -175 64q-66 64 -66 171q0 101 62 168q61 67 170 67q90 0 149 -58q60 -57 60 -148q0 -29 -5 -54h-346q5 -63 47.5 -99t109.5 -36q88 0 138 47zM275 529h-4 l-140 133l39 48l104 -103l104 102l37 -47z"/>
<glyph glyph-name="Gcircumflex" horiz-adv-x="727" unicode="Ĝ" d="M245 733l-29 45l171 104h4l174 -103l-33 -46l-143 76zM587 276h-189v80h269v-269q-45 -45 -119 -71q-75 -26 -143 -26q-163 0 -259 98t-96 262q0 153 95 257q94 103 249 103q134 0 220 -68l-37 -68q-62 56 -173 56q-117 0 -191 -77q-73 -76 -73 -203q0 -128 73 -204 t194 -76q48 0 101 17q50 18 79 45v144z"/>
<glyph glyph-name="gcircumflex" horiz-adv-x="494" unicode="ĝ" d="M129 295q0 -42 30.5 -69.5t78.5 -27.5t78 27q31 27 31 70t-30 71q-31 29 -79 29t-78.5 -28.5t-30.5 -71.5zM393 -65q0 37 -41 58.5t-113 21.5t-113 -21.5t-41 -58.5t41 -57.5t113 -20.5t113 20t41 58zM10 -65q0 52 38 87t106 50q-11 14 -11 36q0 24 12 39 q-48 19 -74.5 58t-26.5 90q0 70 50 117q51 48 134 48q64 0 114 -33l132 32l2 -65l-85 -21q21 -35 21 -78q0 -69 -51 -116q-50 -46 -133 -46q-23 0 -30 1q-5 -12 -5 -25q0 -18 9 -30q2 0 12.5 0.5t14.5 0.5q105 0 167 -37.5t62 -107.5q0 -68 -62 -105.5t-167 -37.5 q-106 0 -167.5 36.5t-61.5 106.5zM241 707h4l139 -133l-38 -48l-104 91l-104 -90l-38 47z"/>
<glyph glyph-name="Gbreve" horiz-adv-x="727" unicode="Ğ" d="M226 838l36 42q59 -65 143 -65t140 65l31 -42q-26 -40 -72.5 -66.5t-98.5 -26.5q-60 0 -109 29q-47 29 -70 64zM587 276h-189v80h269v-269q-45 -45 -119 -71q-75 -26 -143 -26q-163 0 -259 98t-96 262q0 153 95 257q94 103 249 103q134 0 220 -68l-37 -68q-62 56 -173 56 q-117 0 -191 -77q-73 -76 -73 -203q0 -128 73 -204t194 -76q48 0 101 17q50 18 79 45v144z"/>
<glyph glyph-name="gbreve" horiz-adv-x="494" unicode="ğ" d="M92 640l37 41q51 -61 114 -61q65 0 115 60l29 -39q-62 -86 -147 -86q-93 0 -148 85zM129 295q0 -42 30.5 -69.5t78.5 -27.5t78 27q31 27 31 70t-30 71q-31 29 -79 29t-78.5 -28.5t-30.5 -71.5zM393 -65q0 37 -41 58.5t-113 21.5t-113 -21.5t-41 -58.5t41 -57.5t113 -20.5 t113 20t41 58zM10 -65q0 52 38 87t106 50q-11 14 -11 36q0 24 12 39q-48 19 -74.5 58t-26.5 90q0 70 50 117q51 48 134 48q64 0 114 -33l132 32l2 -65l-85 -21q21 -35 21 -78q0 -69 -51 -116q-50 -46 -133 -46q-23 0 -30 1q-5 -12 -5 -25q0 -18 9 -30q2 0 12.5 0.5t14.5 0.5 q105 0 167 -37.5t62 -107.5q0 -68 -62 -105.5t-167 -37.5q-106 0 -167.5 36.5t-61.5 106.5z"/>
<glyph glyph-name="Gdotaccent" horiz-adv-x="727" unicode="Ġ" d="M325 817q0 23 16.5 37t40.5 14q22 0 38 -14t16 -37q0 -24 -16 -39t-38 -15q-25 0 -41 15t-16 39zM587 276h-189v80h269v-269q-45 -45 -119 -71q-75 -26 -143 -26q-163 0 -259 98t-96 262q0 153 95 257q94 103 249 103q134 0 220 -68l-37 -68q-62 56 -173 56 q-117 0 -191 -77q-73 -76 -73 -203q0 -128 73 -204t194 -76q48 0 101 17q50 18 79 45v144z"/>
<glyph glyph-name="gdotaccent" horiz-adv-x="494" unicode="ġ" d="M129 295q0 -42 30.5 -69.5t78.5 -27.5t78 27q31 27 31 70t-30 71q-31 29 -79 29t-78.5 -28.5t-30.5 -71.5zM393 -65q0 37 -41 58.5t-113 21.5t-113 -21.5t-41 -58.5t41 -57.5t113 -20.5t113 20t41 58zM10 -65q0 52 38 87t106 50q-11 14 -11 36q0 24 12 39 q-48 19 -74.5 58t-26.5 90q0 70 50 117q51 48 134 48q64 0 114 -33l132 32l2 -65l-85 -21q21 -35 21 -78q0 -69 -51 -116q-50 -46 -133 -46q-23 0 -30 1q-5 -12 -5 -25q0 -18 9 -30q2 0 12.5 0.5t14.5 0.5q105 0 167 -37.5t62 -107.5q0 -68 -62 -105.5t-167 -37.5 q-106 0 -167.5 36.5t-61.5 106.5zM189 619q0 21 15 34.5t37 13.5q21 0 35 -13.5t14 -34.5q0 -23 -14 -37.5t-35 -14.5q-22 0 -37 14.5t-15 37.5z"/>
<glyph glyph-name="Gcommaaccent" horiz-adv-x="727" unicode="Ģ" d="M351 -65l75 19q29 -8 29 -49q0 -42 -29 -70.5t-74 -38.5l-23 36q46 18 46 62q0 30 -24 41zM587 276h-189v80h269v-269q-45 -45 -119 -71q-75 -26 -143 -26q-163 0 -259 98t-96 262q0 153 95 257q94 103 249 103q134 0 220 -68l-37 -68q-62 56 -173 56q-117 0 -191 -77 q-73 -76 -73 -203q0 -128 73 -204t194 -76q48 0 101 17q50 18 79 45v144z"/>
<glyph glyph-name="gcommaaccent" horiz-adv-x="494" unicode="ģ" d="M285 562l-75 -19q-29 8 -29 49q0 42 29 70.5t74 38.5l23 -36q-46 -18 -46 -62q0 -31 24 -41zM129 295q0 -42 30.5 -69.5t78.5 -27.5t78 27q31 27 31 70t-30 71q-31 29 -79 29t-78.5 -28.5t-30.5 -71.5zM393 -65q0 37 -41 58.5t-113 21.5t-113 -21.5t-41 -58.5t41 -57.5 t113 -20.5t113 20t41 58zM10 -65q0 52 38 87t106 50q-11 14 -11 36q0 24 12 39q-48 19 -74.5 58t-26.5 90q0 70 50 117q51 48 134 48q64 0 114 -33l132 32l2 -65l-85 -21q21 -35 21 -78q0 -69 -51 -116q-50 -46 -133 -46q-23 0 -30 1q-5 -12 -5 -25q0 -18 9 -30 q2 0 12.5 0.5t14.5 0.5q105 0 167 -37.5t62 -107.5q0 -68 -62 -105.5t-167 -37.5q-106 0 -167.5 36.5t-61.5 106.5z"/>
<glyph glyph-name="Hcircumflex" horiz-adv-x="765" unicode="Ĥ" d="M238 733l-29 45l171 104h4l174 -103l-33 -46l-143 76zM660 0h-85v317h-385v-317h-85v700h85v-303h385v303h85v-700z"/>
<glyph glyph-name="hcircumflex" horiz-adv-x="549" unicode="ĥ" d="M12 733l-29 45l171 104h4l174 -103l-33 -46l-143 76zM152 0h-80v700h80v-302q60 60 147 60q187 0 187 -200v-258h-80v247q0 136 -126 136q-35 0 -70.5 -16t-57.5 -41v-326z"/>
<glyph glyph-name="Hbar" horiz-adv-x="775" unicode="Ħ" d="M195 514v-117h385v117h-385zM110 514h-85v75h85v111h85v-111h385v111h85v-111h85v-75h-85v-514h-85v317h-385v-317h-85v514z"/>
<glyph glyph-name="hbar" horiz-adv-x="574" unicode="ħ" d="M97 520h-117v75h117v105h80v-105h162v-75h-162v-122q60 60 147 60q187 0 187 -200v-258h-80v247q0 136 -126 136q-35 0 -70.5 -16t-57.5 -41v-326h-80v520z"/>
<glyph glyph-name="Imacron" horiz-adv-x="335" unicode="Ī" d="M210 0h-85v700h85v-700zM322 770h-304v65h304v-65z"/>
<glyph glyph-name="imacron" horiz-adv-x="268" unicode="ī" d="M266 580h-264v65h264v-65zM174 0h-80v450h80v-450z"/>
<glyph glyph-name="Iogonek" horiz-adv-x="335" unicode="Į" d="M195 -126l24 -49q-29 -25 -86 -25q-54 0 -88 23t-34 69q0 40 30.5 69t83.5 44v695h85v-700h-5q-47 -2 -80.5 -26t-33.5 -56q0 -26 18 -39.5t42 -13.5q25 0 44 9z"/>
<glyph glyph-name="iogonek" horiz-adv-x="268" unicode="į" d="M81 619q0 21 15 34.5t37 13.5q21 0 35 -13.5t14 -34.5q0 -23 -14 -37.5t-35 -14.5q-22 0 -37 14.5t-15 37.5zM158 -126l24 -49q-29 -25 -86 -25q-54 0 -88 23t-34 69q0 42 32.5 71.5t87.5 42.5v444h80v-450h-6q-47 -2 -80.5 -26t-33.5 -56q0 -26 18 -39.5t42 -13.5t44 9z "/>
<glyph glyph-name="Idot" horiz-adv-x="335" unicode="İ" d="M210 0h-85v700h85v-700zM112 817q0 23 16.5 37t40.5 14q22 0 38 -14t16 -37q0 -24 -16 -39t-38 -15q-25 0 -41 15t-16 39z"/>
<glyph glyph-name="dotlessi" horiz-adv-x="268" unicode="ı" d="M174 0h-80v450h80v-450z"/>
<glyph glyph-name="Jcircumflex" horiz-adv-x="374" unicode="Ĵ" d="M76 733l-29 45l171 104h4l174 -103l-33 -46l-143 76zM184 700h85v-541q0 -169 -153 -169q-69 0 -106 37l29 65q28 -22 66 -22q79 0 79 103v527z"/>
<glyph glyph-name="jcircumflex" horiz-adv-x="266" unicode="ĵ" d="M98 450h80v-483q0 -175 -141 -175q-62 0 -100 29l23 64q29 -18 59 -18q79 0 79 106v477zM137 707h4l139 -133l-38 -48l-104 91l-104 -90l-38 47z"/>
<glyph glyph-name="Kcommaaccent" horiz-adv-x="653" unicode="Ķ" d="M271 -65l75 19q29 -8 29 -49q0 -42 -29 -70.5t-74 -38.5l-23 36q46 18 46 62q0 30 -24 41zM190 0h-85v700h85v-700zM514 700h103l-312 -329l328 -371h-109l-317 365z"/>
<glyph glyph-name="kcommaaccent" horiz-adv-x="491" unicode="ķ" d="M185 -65l75 19q29 -8 29 -49q0 -42 -29 -70.5t-74 -38.5l-23 36q46 18 46 62q0 30 -24 41zM152 0h-80v700h80v-700zM355 450h102l-191 -209l215 -241h-109l-203 235z"/>
<glyph glyph-name="Lacute" horiz-adv-x="550" unicode="Ĺ" d="M408 887l30 -68l-202 -84l-23 48zM535 0h-430v700h85v-620h345v-80z"/>
<glyph glyph-name="lacute" horiz-adv-x="290" unicode="ĺ" d="M265 887l30 -68l-202 -84l-23 48zM72 120v580h80v-544q0 -89 53 -89q26 0 57 20l18 -61q-43 -34 -106 -34q-102 0 -102 128z"/>
<glyph glyph-name="Lcommaaccent" horiz-adv-x="550" unicode="Ļ" d="M535 0h-430v700h85v-620h345v-80zM261 -65l75 19q29 -8 29 -49q0 -42 -29 -70.5t-74 -38.5l-23 36q46 18 46 62q0 30 -24 41z"/>
<glyph glyph-name="lcommaaccent" horiz-adv-x="290" unicode="ļ" d="M118 -65l75 19q29 -8 29 -49q0 -42 -29 -70.5t-74 -38.5l-23 36q46 18 46 62q0 30 -24 41zM72 120v580h80v-544q0 -89 53 -89q26 0 57 20l18 -61q-43 -34 -106 -34q-102 0 -102 128z"/>
<glyph glyph-name="Lcaron" horiz-adv-x="550" unicode="Ľ" d="M535 0h-430v700h85v-620h345v-80zM356 700h78q8 -18 8 -38q0 -54 -24 -93.5t-62 -59.5l-36 35q47 41 47 109q0 27 -11 47z"/>
<glyph glyph-name="lcaron" horiz-adv-x="290" unicode="ľ" d="M246 700h78q8 -18 8 -38q0 -54 -24 -93.5t-62 -59.5l-36 35q47 41 47 109q0 27 -11 47zM72 120v580h80v-544q0 -89 53 -89q26 0 57 20l18 -61q-43 -34 -106 -34q-102 0 -102 128z"/>
<glyph glyph-name="Ldot" horiz-adv-x="550" unicode="Ŀ" d="M535 0h-430v700h85v-620h345v-80zM368 374q0 21 16.5 37t40.5 16q21 0 37 -16t16 -37q0 -24 -15 -40.5t-38 -16.5q-24 0 -40.5 16.5t-16.5 40.5z"/>
<glyph glyph-name="ldot" horiz-adv-x="324" unicode="ŀ" d="M226 326q0 21 15 34.5t37 13.5q21 0 35 -13.5t14 -34.5q0 -23 -14 -37.5t-35 -14.5q-22 0 -37 14.5t-15 37.5zM72 120v580h80v-544q0 -89 53 -89q26 0 57 20l18 -61q-43 -34 -106 -34q-102 0 -102 128z"/>
<glyph glyph-name="Lslash" horiz-adv-x="560" unicode="Ł" d="M115 263l-90 -44v83l90 43v355h85v-314l176 86v-82l-176 -86v-224h345v-80h-430v263z"/>
<glyph glyph-name="lslash" horiz-adv-x="320" unicode="ł" d="M92 259l-77 -37v83l77 37v358h80v-320l105 51v-82l-105 -51v-142q0 -89 53 -89q26 0 57 20l18 -61q-43 -34 -106 -34q-102 0 -102 128v139z"/>
<glyph glyph-name="Nacute" horiz-adv-x="795" unicode="Ń" d="M533 887l30 -68l-202 -84l-23 48zM690 700v-700h-68l-437 550v-550h-80v700h68l437 -552v552h80z"/>
<glyph glyph-name="nacute" horiz-adv-x="549" unicode="ń" d="M152 0h-80v450h80v-55q25 28 65.5 45.5t81.5 17.5q187 0 187 -198v-260h-80v245q0 138 -127 138q-76 0 -127 -58v-325zM329 722l62 -48l-120 -143l-48 34z"/>
<glyph glyph-name="Ncommaaccent" horiz-adv-x="795" unicode="Ņ" d="M346 -65l75 19q29 -8 29 -49q0 -42 -29 -70.5t-74 -38.5l-23 36q46 18 46 62q0 30 -24 41zM690 700v-700h-68l-437 550v-550h-80v700h68l437 -552v552h80z"/>
<glyph glyph-name="ncommaaccent" horiz-adv-x="549" unicode="ņ" d="M224 -65l75 19q29 -8 29 -49q0 -42 -29 -70.5t-74 -38.5l-23 36q46 18 46 62q0 30 -24 41zM152 0h-80v450h80v-55q25 28 65.5 45.5t81.5 17.5q187 0 187 -198v-260h-80v245q0 138 -127 138q-76 0 -127 -58v-325z"/>
<glyph glyph-name="Ncaron" horiz-adv-x="795" unicode="Ň" d="M690 700v-700h-68l-437 550v-550h-80v700h68l437 -552v552h80zM401 738h-4l-175 103l33 46l144 -81l143 81l30 -45z"/>
<glyph glyph-name="ncaron" horiz-adv-x="549" unicode="ň" d="M152 0h-80v450h80v-55q25 28 65.5 45.5t81.5 17.5q187 0 187 -198v-260h-80v245q0 138 -127 138q-76 0 -127 -58v-325zM275 529h-4l-140 133l39 48l104 -103l104 102l37 -47z"/>
<glyph glyph-name="Omacron" horiz-adv-x="814" unicode="Ō" d="M564 770h-304v65h304v-65zM140 350q0 -118 77 -200q77 -80 190 -80q118 0 192 80q75 80 75 200t-77 200t-190 80q-115 0 -191 -79t-76 -201zM50 350q0 152 101 256t256 104q154 0 255 -101q102 -100 102 -259q0 -154 -102 -258q-102 -102 -255 -102t-256 101 q-101 101 -101 259z"/>
<glyph glyph-name="omacron" horiz-adv-x="565" unicode="ō" d="M419 580h-264v65h264v-65zM127 225q0 -71 43 -115q44 -45 112 -45t111.5 44.5t43.5 115.5q0 69 -44 115q-43 45 -111 45t-111 -45q-44 -44 -44 -115zM108 56q-66 68 -66 169q0 102 66 168q67 67 174 67t173 -67q67 -66 67 -168t-67 -169q-66 -66 -173 -66q-106 0 -174 66 z"/>
<glyph glyph-name="Ohungarumlaut" horiz-adv-x="814" unicode="Ő" d="M400 887l67 -36l-161 -116l-34 32zM607 887l55 -51l-179 -101l-33 35zM140 350q0 -118 77 -200q77 -80 190 -80q118 0 192 80q75 80 75 200t-77 200t-190 80q-115 0 -191 -79t-76 -201zM50 350q0 152 101 256t256 104q154 0 255 -101q102 -100 102 -259q0 -154 -102 -258 q-102 -102 -255 -102t-256 101q-101 101 -101 259z"/>
<glyph glyph-name="ohungarumlaut" horiz-adv-x="565" unicode="ő" d="M127 225q0 -71 43 -115q44 -45 112 -45t111.5 44.5t43.5 115.5q0 69 -44 115q-43 45 -111 45t-111 -45q-44 -44 -44 -115zM108 56q-66 68 -66 169q0 102 66 168q67 67 174 67t173 -67q67 -66 67 -168t-67 -169q-66 -66 -173 -66q-106 0 -174 66zM260 723l58 -43 l-113 -149l-48 34zM426 716l59 -45l-125 -140l-48 34z"/>
<glyph glyph-name="OE" horiz-adv-x="1042" unicode="Œ" d="M413 70q91 0 159 46v462q-70 52 -172 52q-113 0 -187 -78q-73 -77 -73 -202t75 -203q77 -77 198 -77zM977 0h-405v28q-71 -38 -167 -38q-157 0 -257 98q-98 100 -98 262q0 156 94 257q94 103 255 103q100 0 173 -40v30h395v-80h-310v-226h280v-80h-280v-234h320v-80z"/>
<glyph glyph-name="oe" horiz-adv-x="837" unicode="œ" d="M587 385q-59 0 -97 -33t-45 -87h273q-4 56 -38.5 88t-92.5 32zM282 65q66 0 107 37q-29 53 -29 123q0 67 29 123q-43 37 -107 37q-68 0 -111 -45q-44 -44 -44 -115t43 -115q44 -45 112 -45zM744 112l25 -63q-64 -59 -168 -59q-98 0 -161 51q-63 -51 -158 -51 q-106 0 -174 66q-66 68 -66 169q0 102 66 168q67 67 174 67q94 0 156 -52q62 52 154 52q90 0 148 -58q60 -57 60 -148q0 -29 -5 -54h-345q4 -62 47 -98.5t110 -36.5q87 0 137 47z"/>
<glyph glyph-name="Racute" horiz-adv-x="643" unicode="Ŕ" d="M403 887l30 -68l-202 -84l-23 48zM288 622q-10 0 -98 -2v-260h103q65 0 111 36q48 38 48 97q0 129 -164 129zM190 280v-280h-85v700q48 0 101 1t87 1q249 0 249 -208q0 -78 -45 -130q-42 -51 -107 -68l233 -296h-104l-215 280h-114z"/>
<glyph glyph-name="racute" horiz-adv-x="340" unicode="ŕ" d="M152 0h-80v450h80v-53q40 61 113 61q47 0 70 -17l-28 -75q-29 17 -61 17q-61 0 -94 -64v-319zM243 722l62 -48l-120 -143l-48 34z"/>
<glyph glyph-name="Rcommaaccent" horiz-adv-x="643" unicode="Ŗ" d="M266 -65l75 19q29 -8 29 -49q0 -42 -29 -70.5t-74 -38.5l-23 36q46 18 46 62q0 30 -24 41zM288 622q-10 0 -98 -2v-260h103q65 0 111 36q48 38 48 97q0 129 -164 129zM190 280v-280h-85v700q48 0 101 1t87 1q249 0 249 -208q0 -78 -45 -130q-42 -51 -107 -68l233 -296 h-104l-215 280h-114z"/>
<glyph glyph-name="rcommaaccent" horiz-adv-x="340" unicode="ŗ" d="M109 -65l75 19q29 -8 29 -49q0 -42 -29 -70.5t-74 -38.5l-23 36q46 18 46 62q0 30 -24 41zM152 0h-80v450h80v-53q40 61 113 61q47 0 70 -17l-28 -75q-29 17 -61 17q-61 0 -94 -64v-319z"/>
<glyph glyph-name="Rcaron" horiz-adv-x="643" unicode="Ř" d="M294 738h-4l-175 103l33 46l144 -81l143 81l30 -45zM288 622q-10 0 -98 -2v-260h103q65 0 111 36q48 38 48 97q0 129 -164 129zM190 280v-280h-85v700q48 0 101 1t87 1q249 0 249 -208q0 -78 -45 -130q-42 -51 -107 -68l233 -296h-104l-215 280h-114z"/>
<glyph glyph-name="rcaron" horiz-adv-x="340" unicode="ř" d="M152 0h-80v450h80v-53q40 61 113 61q47 0 70 -17l-28 -75q-29 17 -61 17q-61 0 -94 -64v-319zM195 529h-4l-140 133l39 48l104 -103l104 102l37 -47z"/>
<glyph glyph-name="Sacute" horiz-adv-x="549" unicode="Ś" d="M411 887l30 -68l-202 -84l-23 48zM409 179q0 35 -19 61t-49 42.5t-66.5 31.5t-73 32.5t-66.5 39.5t-49 58t-19 83q0 77 57 130q58 53 154 53q59 0 111 -20t82 -53l-46 -64q-57 57 -142 57q-58 0 -92 -28t-34 -75q0 -35 19 -61t49 -42t66.5 -30.5t73 -31.5t66.5 -38.5 t49 -58.5t19 -85q0 -86 -66 -138q-64 -52 -162 -52q-69 0 -132 28t-89 77l49 58q29 -38 77 -60.5t96 -22.5q59 0 98 29.5t39 79.5z"/>
<glyph glyph-name="sacute" horiz-adv-x="430" unicode="ś" d="M300 122q0 24 -25 40t-61 26.5t-71.5 24.5t-60.5 44.5t-25 75.5q0 57 42 92t111 35q99 0 155 -53l-38 -61q-50 44 -113 44q-32 0 -52 -16t-20 -40q0 -26 25 -42.5t61 -27t71.5 -24t60.5 -42.5t25 -72q0 -67 -50 -102q-49 -34 -124 -34q-53 0 -101 22q-49 23 -65 48l45 57 q20 -23 58 -40q40 -17 72 -17q35 0 57.5 16.5t22.5 45.5zM264 722l62 -48l-120 -143l-48 34z"/>
<glyph glyph-name="Scircumflex" horiz-adv-x="549" unicode="Ŝ" d="M128 733l-29 45l171 104h4l174 -103l-33 -46l-143 76zM409 179q0 35 -19 61t-49 42.5t-66.5 31.5t-73 32.5t-66.5 39.5t-49 58t-19 83q0 77 57 130q58 53 154 53q59 0 111 -20t82 -53l-46 -64q-57 57 -142 57q-58 0 -92 -28t-34 -75q0 -35 19 -61t49 -42t66.5 -30.5 t73 -31.5t66.5 -38.5t49 -58.5t19 -85q0 -86 -66 -138q-64 -52 -162 -52q-69 0 -132 28t-89 77l49 58q29 -38 77 -60.5t96 -22.5q59 0 98 29.5t39 79.5z"/>
<glyph glyph-name="scircumflex" horiz-adv-x="430" unicode="ŝ" d="M300 122q0 24 -25 40t-61 26.5t-71.5 24.5t-60.5 44.5t-25 75.5q0 57 42 92t111 35q99 0 155 -53l-38 -61q-50 44 -113 44q-32 0 -52 -16t-20 -40q0 -26 25 -42.5t61 -27t71.5 -24t60.5 -42.5t25 -72q0 -67 -50 -102q-49 -34 -124 -34q-53 0 -101 22q-49 23 -65 48l45 57 q20 -23 58 -40q40 -17 72 -17q35 0 57.5 16.5t22.5 45.5zM215 707h4l139 -133l-38 -48l-104 91l-104 -90l-38 47z"/>
<glyph glyph-name="Scedilla" horiz-adv-x="549" unicode="Ş" d="M152 -169l26 42q40 -28 74 -28q25 0 40.5 9.5t15.5 26.5q0 39 -58 39h-6v71q-62 6 -117 33q-55 28 -77 71l49 58q29 -38 77 -60.5t96 -22.5q59 0 98 29.5t39 79.5q0 35 -19 61t-49 42.5t-66.5 31.5t-73 32.5t-66.5 39.5t-49 58t-19 83q0 77 57 130q58 53 154 53 q59 0 111 -20t82 -53l-46 -64q-57 57 -142 57q-58 0 -92 -28t-34 -75q0 -35 19 -61t49 -42t66.5 -30.5t73 -31.5t66.5 -38.5t49 -58.5t19 -85q0 -81 -61 -133t-151 -56v-34q106 -6 106 -80q0 -37 -33 -59.5t-90 -22.5q-64 0 -118 36z"/>
<glyph glyph-name="scedilla" horiz-adv-x="430" unicode="ş" d="M94 -171l24 39q35 -23 71 -23q25 0 40.5 9.5t15.5 26.5q0 39 -58 39h-6v72q-44 6 -82.5 26t-53.5 42l45 57q20 -23 58 -40q40 -17 72 -17q35 0 57.5 16.5t22.5 45.5q0 24 -25 40t-61 26.5t-71.5 24.5t-60.5 44.5t-25 75.5q0 57 42 92t111 35q99 0 155 -53l-38 -61 q-50 44 -113 44q-32 0 -52 -16t-20 -40q0 -26 25 -42.5t61 -27t71.5 -24t60.5 -42.5t25 -72q0 -62 -44.5 -97.5t-116.5 -38.5v-33q101 -6 101 -80q0 -37 -33.5 -59.5t-92.5 -22.5q-55 0 -105 34z"/>
<glyph glyph-name="Scaron" horiz-adv-x="549" unicode="Š" d="M282 738h-4l-175 103l33 46l144 -81l143 81l30 -45zM409 179q0 35 -19 61t-49 42.5t-66.5 31.5t-73 32.5t-66.5 39.5t-49 58t-19 83q0 77 57 130q58 53 154 53q59 0 111 -20t82 -53l-46 -64q-57 57 -142 57q-58 0 -92 -28t-34 -75q0 -35 19 -61t49 -42t66.5 -30.5 t73 -31.5t66.5 -38.5t49 -58.5t19 -85q0 -86 -66 -138q-64 -52 -162 -52q-69 0 -132 28t-89 77l49 58q29 -38 77 -60.5t96 -22.5q59 0 98 29.5t39 79.5z"/>
<glyph glyph-name="scaron" horiz-adv-x="430" unicode="š" d="M300 122q0 24 -25 40t-61 26.5t-71.5 24.5t-60.5 44.5t-25 75.5q0 57 42 92t111 35q99 0 155 -53l-38 -61q-50 44 -113 44q-32 0 -52 -16t-20 -40q0 -26 25 -42.5t61 -27t71.5 -24t60.5 -42.5t25 -72q0 -67 -50 -102q-49 -34 -124 -34q-53 0 -101 22q-49 23 -65 48l45 57 q20 -23 58 -40q40 -17 72 -17q35 0 57.5 16.5t22.5 45.5zM216 529h-4l-140 133l39 48l104 -103l104 102l37 -47z"/>
<glyph glyph-name="Tcedilla" horiz-adv-x="595" unicode="Ţ" d="M184 -169l26 42q40 -28 74 -28q25 0 40.5 9.5t15.5 26.5q0 39 -58 39h-6v80h-21v620h-245v80h575v-80h-245v-620h-21v-43q106 -6 106 -80q0 -37 -33 -59.5t-90 -22.5q-64 0 -118 36z"/>
<glyph glyph-name="tcedilla" horiz-adv-x="353" unicode="ţ" d="M67 -171l24 39q35 -23 71 -23q25 0 40.5 9.5t15.5 26.5q0 39 -58 39h-6v79q-92 26 -92 172v404h80v-125h165v-75h-165v-196q0 -112 80 -112q39 0 71 25l25 -62q-47 -38 -115 -38h-6v-35q101 -6 101 -80q0 -37 -33.5 -59.5t-92.5 -22.5q-55 0 -105 34z"/>
<glyph glyph-name="Tcaron" horiz-adv-x="595" unicode="Ť" d="M255 620h-245v80h575v-80h-245v-620h-85v620zM298 738h-4l-175 103l33 46l144 -81l143 81l30 -45z"/>
<glyph glyph-name="tcaron" horiz-adv-x="353" unicode="ť" d="M246 700h78q8 -18 8 -38q0 -54 -24 -93.5t-62 -59.5l-36 35q47 41 47 109q0 27 -11 47zM62 171v404h80v-125h165v-75h-165v-196q0 -112 80 -112q39 0 71 25l25 -62q-47 -38 -115 -38q-73 0 -107 44t-34 135z"/>
<glyph glyph-name="Umacron" horiz-adv-x="751" unicode="Ū" d="M532 770h-304v65h304v-65zM571 700h85v-408q0 -151 -77 -226t-194 -75q-132 0 -211 79t-79 229v401h85v-385q0 -115 53.5 -179.5t151.5 -64.5q89 0 137.5 61t48.5 177v391z"/>
<glyph glyph-name="umacron" horiz-adv-x="540" unicode="ū" d="M399 580h-264v65h264v-65zM387 450h80v-450h-80v64q-63 -74 -159 -74q-79 0 -122.5 48.5t-43.5 143.5v268h80v-250q0 -135 116 -135q36 0 71.5 18.5t57.5 48.5v318z"/>
<glyph glyph-name="Ubreve" horiz-adv-x="751" unicode="Ŭ" d="M198 838l36 42q59 -65 143 -65t140 65l31 -42q-26 -40 -72.5 -66.5t-98.5 -26.5q-60 0 -109 29q-47 29 -70 64zM571 700h85v-408q0 -151 -77 -226t-194 -75q-132 0 -211 79t-79 229v401h85v-385q0 -115 53.5 -179.5t151.5 -64.5q89 0 137.5 61t48.5 177v391z"/>
<glyph glyph-name="ubreve" horiz-adv-x="540" unicode="ŭ" d="M119 640l37 41q51 -61 114 -61q66 0 115 60l29 -39q-62 -86 -147 -86q-93 0 -148 85zM387 450h80v-450h-80v64q-63 -74 -159 -74q-79 0 -122.5 48.5t-43.5 143.5v268h80v-250q0 -135 116 -135q36 0 71.5 18.5t57.5 48.5v318z"/>
<glyph glyph-name="Uring" horiz-adv-x="751" unicode="Ů" d="M571 700h85v-408q0 -151 -77 -226t-194 -75q-132 0 -211 79t-79 229v401h85v-385q0 -115 53.5 -179.5t151.5 -64.5q89 0 137.5 61t48.5 177v391zM311 792q0 -26 17.5 -40.5t47.5 -14.5q29 0 47 14.5t18 40.5q0 51 -65 51t-65 -51zM375 888q58 0 92 -24.5t34 -71.5 t-35 -73.5t-91 -26.5q-55 0 -89.5 26.5t-34.5 73.5t33.5 71.5t90.5 24.5z"/>
<glyph glyph-name="uring" horiz-adv-x="540" unicode="ů" d="M387 450h80v-450h-80v64q-63 -74 -159 -74q-79 0 -122.5 48.5t-43.5 143.5v268h80v-250q0 -135 116 -135q36 0 71.5 18.5t57.5 48.5v318zM204 614q0 -28 18 -47t45 -19t45 19t18 47q0 27 -18 46t-45 19t-45 -19t-18 -46zM266 724q49 0 82.5 -32.5t33.5 -78.5t-33.5 -78 t-82.5 -32q-48 0 -81 32t-33 78t33 78.5t81 32.5z"/>
<glyph glyph-name="Uhungarumlaut" horiz-adv-x="751" unicode="Ű" d="M355 887l67 -36l-161 -116l-34 32zM562 887l55 -51l-179 -101l-33 35zM571 700h85v-408q0 -151 -77 -226t-194 -75q-132 0 -211 79t-79 229v401h85v-385q0 -115 53.5 -179.5t151.5 -64.5q89 0 137.5 61t48.5 177v391z"/>
<glyph glyph-name="uhungarumlaut" horiz-adv-x="540" unicode="ű" d="M387 450h80v-450h-80v64q-63 -74 -159 -74q-79 0 -122.5 48.5t-43.5 143.5v268h80v-250q0 -135 116 -135q36 0 71.5 18.5t57.5 48.5v318zM245 723l58 -43l-113 -149l-48 34zM411 716l59 -45l-125 -140l-48 34z"/>
<glyph glyph-name="Uogonek" horiz-adv-x="751" unicode="Ų" d="M571 700h85v-408q0 -122 -52.5 -196t-143.5 -96q-76 -36 -76 -82q0 -26 18 -39.5t42 -13.5t44 9l24 -49q-29 -25 -86 -25q-54 0 -88 23t-34 69q0 61 80 99q-131 0 -210 79t-79 229v401h85v-385q0 -115 53.5 -179.5t151.5 -64.5q89 0 137.5 61t48.5 177v391z"/>
<glyph glyph-name="uogonek" horiz-adv-x="540" unicode="ų" d="M452 -126l24 -49q-29 -25 -86 -25q-54 0 -88 23t-34 69q0 41 32.5 71t86.5 43v58q-63 -74 -159 -74q-79 0 -122.5 48.5t-43.5 143.5v268h80v-250q0 -135 116 -135q36 0 71.5 18.5t57.5 48.5v318h80v-450h-5q-47 -2 -80.5 -26t-33.5 -56q0 -26 18 -39.5t42 -13.5t44 9z "/>
<glyph glyph-name="Ydieresis" horiz-adv-x="604" unicode="Ÿ" d="M364 813q0 20 16 32.5t40 12.5q22 0 36.5 -12.5t14.5 -32.5q0 -21 -14.5 -34.5t-36.5 -13.5q-24 0 -40 13.5t-16 34.5zM132 813q0 20 15.5 32.5t39.5 12.5q22 0 37 -12.5t15 -32.5q0 -21 -15 -34.5t-37 -13.5q-24 0 -39.5 13t-15.5 35zM501 700h93l-251 -400v-300h-85 v300l-248 400h98l196 -320z"/>
<glyph glyph-name="Zacute" horiz-adv-x="635" unicode="Ź" d="M448 887l30 -68l-202 -84l-23 48zM468 620h-408v80h525v-57l-430 -563h440v-80h-555v57z"/>
<glyph glyph-name="zacute" horiz-adv-x="485" unicode="ź" d="M326 375h-266v75h380v-56l-282 -319h277v-75h-390v56zM297 722l62 -48l-120 -143l-48 34z"/>
<glyph glyph-name="Zdotaccent" horiz-adv-x="635" unicode="Ż" d="M260 817q0 23 16.5 37t40.5 14q22 0 38 -14t16 -37q0 -24 -16 -39t-38 -15q-25 0 -41 15t-16 39zM468 620h-408v80h525v-57l-430 -563h440v-80h-555v57z"/>
<glyph glyph-name="zdotaccent" horiz-adv-x="485" unicode="ż" d="M326 375h-266v75h380v-56l-282 -319h277v-75h-390v56zM189 619q0 21 15 34.5t37 13.5q21 0 35 -13.5t14 -34.5q0 -23 -14 -37.5t-35 -14.5q-22 0 -37 14.5t-15 37.5z"/>
<glyph glyph-name="Zcaron" horiz-adv-x="635" unicode="Ž" d="M468 620h-408v80h525v-57l-430 -563h440v-80h-555v57zM324 738h-4l-175 103l33 46l144 -81l143 81l30 -45z"/>
<glyph glyph-name="zcaron" horiz-adv-x="485" unicode="ž" d="M326 375h-266v75h380v-56l-282 -319h277v-75h-390v56zM249 529h-4l-140 133l39 48l104 -103l104 102l37 -47z"/>
<glyph glyph-name="longs" horiz-adv-x="255" unicode="ſ" d="M162 0h-80v523q0 92 41 139.5t117 47.5q79 0 120 -40l-28 -61q-32 26 -79 26q-91 0 -91 -121v-514z"/>
<glyph glyph-name="uni018F" horiz-adv-x="779" unicode="Ə" d="M394 70q112 0 179 67q70 68 80 180h-504q4 -105 71 -176q66 -71 174 -71zM61 397h589q-14 110 -88 171q-74 62 -190 62q-104 0 -177 -57l-34 64q85 73 230 73q158 0 254 -98q97 -97 97 -260q0 -161 -95 -262q-94 -100 -252 -100q-160 0 -254 112q-82 100 -82 251 q0 14 2 44z"/>
<glyph glyph-name="florin" d="M377 514l-12 -64h144v-75h-157l-72 -408q-16 -92 -52 -133.5t-105 -41.5q-65 0 -100 29l22 64q29 -18 59 -18q41 0 64 26.5t32 81.5l71 400h-139v75h152l13 73q18 99 57.5 143t111.5 44q80 0 121 -40l-28 -61q-32 26 -79 26q-43 0 -67 -28.5t-36 -92.5z" unicode="ƒ"/>
<glyph glyph-name="uni01DD" horiz-adv-x="520" unicode="ǝ" d="M253 65q57 0 96 35t44 90h-273q2 -60 37 -92.5t96 -32.5zM98 338l-25 62q66 60 174 60t169.5 -63.5t61.5 -171.5q0 -101 -62 -169q-62 -66 -167 -66q-91 0 -152 57q-60 57 -60 149q0 34 5 59h346q-3 58 -43 94t-104 36q-43 0 -82 -13t-61 -34z"/>
<glyph glyph-name="Scommaaccent" horiz-adv-x="549" unicode="Ș" d="M229 -65l75 19q29 -8 29 -49q0 -42 -29 -70.5t-74 -38.5l-23 36q46 18 46 62q0 30 -24 41zM409 179q0 35 -19 61t-49 42.5t-66.5 31.5t-73 32.5t-66.5 39.5t-49 58t-19 83q0 77 57 130q58 53 154 53q59 0 111 -20t82 -53l-46 -64q-57 57 -142 57q-58 0 -92 -28t-34 -75 q0 -35 19 -61t49 -42t66.5 -30.5t73 -31.5t66.5 -38.5t49 -58.5t19 -85q0 -86 -66 -138q-64 -52 -162 -52q-69 0 -132 28t-89 77l49 58q29 -38 77 -60.5t96 -22.5q59 0 98 29.5t39 79.5z"/>
<glyph glyph-name="scommaaccent" horiz-adv-x="430" unicode="ș" d="M170 -65l75 19q29 -8 29 -49q0 -42 -29 -70.5t-74 -38.5l-23 36q46 18 46 62q0 30 -24 41zM300 122q0 24 -25 40t-61 26.5t-71.5 24.5t-60.5 44.5t-25 75.5q0 57 42 92t111 35q99 0 155 -53l-38 -61q-50 44 -113 44q-32 0 -52 -16t-20 -40q0 -26 25 -42.5t61 -27 t71.5 -24t60.5 -42.5t25 -72q0 -67 -50 -102q-49 -34 -124 -34q-53 0 -101 22q-49 23 -65 48l45 57q20 -23 58 -40q40 -17 72 -17q35 0 57.5 16.5t22.5 45.5z"/>
<glyph glyph-name="Tcommaaccent" horiz-adv-x="595" unicode="Ț" d="M246 -65l75 19q29 -8 29 -49q0 -42 -29 -70.5t-74 -38.5l-23 36q46 18 46 62q0 30 -24 41zM255 620h-245v80h575v-80h-245v-620h-85v620z"/>
<glyph glyph-name="tcommaaccent" horiz-adv-x="353" unicode="ț" d="M133 -65l75 19q29 -8 29 -49q0 -42 -29 -70.5t-74 -38.5l-23 36q46 18 46 62q0 30 -24 41zM62 171v404h80v-125h165v-75h-165v-196q0 -112 80 -112q39 0 71 25l25 -62q-47 -38 -115 -38q-73 0 -107 44t-34 135z"/>
<glyph glyph-name="uni0237" horiz-adv-x="266" unicode="ȷ" d="M98 450h80v-483q0 -175 -141 -175q-62 0 -100 29l23 64q29 -18 59 -18q79 0 79 106v477z"/>
<glyph glyph-name="uni0259" horiz-adv-x="520" unicode="ə" d="M253 65q57 0 96 35t44 90h-273q2 -60 37 -92.5t96 -32.5zM98 338l-25 62q66 60 174 60t169.5 -63.5t61.5 -171.5q0 -101 -62 -169q-62 -66 -167 -66q-91 0 -152 57q-60 57 -60 149q0 34 5 59h346q-3 58 -43 94t-104 36q-43 0 -82 -13t-61 -34z"/>
<glyph glyph-name="afii57929" horiz-adv-x="242" unicode="ʼ" d="M86 630l67 40q29 -32 29 -82q0 -101 -85 -149l-37 35q47 33 47 97q0 38 -21 59z"/>
<glyph glyph-name="circumflex" horiz-adv-x="404" unicode="ˆ" d="M201 707h4l139 -133l-38 -48l-104 91l-104 -90l-38 47z"/>
<glyph glyph-name="caron" horiz-adv-x="404" unicode="ˇ" d="M204 529h-4l-140 133l39 48l104 -103l104 102l37 -47z"/>
<glyph glyph-name="breve" horiz-adv-x="415" unicode="˘" d="M60 640l37 41q51 -61 114 -61q65 0 115 60l29 -39q-62 -86 -147 -86q-93 0 -148 85z"/>
<glyph glyph-name="dotaccent" horiz-adv-x="221" unicode="˙" d="M60 619q0 21 15 34.5t37 13.5q21 0 35 -13.5t14 -34.5q0 -23 -14 -37.5t-35 -14.5q-22 0 -37 14.5t-15 37.5z"/>
<glyph glyph-name="ring" horiz-adv-x="350" unicode="˚" d="M112 614q0 -28 18 -47t45 -19t45 19t18 47q0 27 -18 46t-45 19t-45 -19t-18 -46zM174 724q49 0 82.5 -32.5t33.5 -78.5t-33.5 -78t-82.5 -32q-48 0 -81 32t-33 78t33 78.5t81 32.5z"/>
<glyph glyph-name="ogonek" horiz-adv-x="328" unicode="˛" d="M244 -126l24 -49q-29 -25 -86 -25q-54 0 -88 23t-34 69q0 58 61 92q59 32 132 32h6v-16q-47 0 -83 -24q-36 -26 -36 -58q0 -26 18 -39.5t42 -13.5t44 9z"/>
<glyph glyph-name="tilde" horiz-adv-x="442" unicode="˜" d="M93 557l-33 37q52 60 110 60q24 0 58 -22t55 -22q28 0 71 35l28 -41q-56 -59 -106 -59q-23 0 -57 22t-57 22q-26 0 -69 -32z"/>
<glyph glyph-name="hungarumlaut" horiz-adv-x="448" unicode="˝" d="M163 723l58 -43l-113 -149l-48 34zM329 716l59 -45l-125 -140l-48 34z"/>
<glyph glyph-name="gravecomb" horiz-adv-x="0" unicode="̀" d="M-220 565l-49 -34l-121 142l63 48z"/>
<glyph glyph-name="acutecomb" horiz-adv-x="0" unicode="́" d="M-215 722l62 -48l-120 -143l-48 34z"/>
<glyph glyph-name="uni0394" horiz-adv-x="726" unicode="Δ" d="M569 80l-212 484l-204 -484h416zM696 0h-666l303 708h53z"/>
<glyph glyph-name="uni0394" horiz-adv-x="726" unicode="∆" d="M569 80l-212 484l-204 -484h416zM696 0h-666l303 708h53z"/>
<glyph glyph-name="uni03A9" horiz-adv-x="816" unicode="Ω" d="M354 0h-286v80h169q-74 26 -128 105q-53 80 -53 185q0 150 101 245t251 95q151 0 252 -95q100 -94 100 -245q0 -108 -54 -187q-53 -77 -128 -103h169v-80h-286v80q93 24 151 101q58 76 58 175q0 115 -73 194q-74 80 -189 80q-118 0 -190 -80t-72 -195q0 -95 57 -174 q58 -78 151 -101v-80z"/>
<glyph glyph-name="uni03A9" horiz-adv-x="816" unicode="Ω" d="M354 0h-286v80h169q-74 26 -128 105q-53 80 -53 185q0 150 101 245t251 95q151 0 252 -95q100 -94 100 -245q0 -108 -54 -187q-53 -77 -128 -103h169v-80h-286v80q93 24 151 101q58 76 58 175q0 115 -73 194q-74 80 -189 80q-118 0 -190 -80t-72 -195q0 -95 57 -174 q58 -78 151 -101v-80z"/>
<glyph glyph-name="pi" horiz-adv-x="635" unicode="π" d="M140 375h-94v75h536v-75h-90v-229q0 -43 9 -61t32 -18t54 20l18 -61q-43 -34 -103 -34q-90 0 -90 118v265h-192v-61q0 -127 -22.5 -198.5t-60.5 -96.5t-101 -25l-6 78h3q49 0 76 48q28 49 30 179z"/>
<glyph glyph-name="afii10023" horiz-adv-x="575" unicode="Ё" d="M510 0h-405v700h395v-80h-310v-226h280v-80h-280v-234h320v-80zM371 813q0 20 16 32.5t40 12.5q22 0 36.5 -12.5t14.5 -32.5q0 -21 -14.5 -34.5t-36.5 -13.5q-24 0 -40 13.5t-16 34.5zM139 813q0 20 15.5 32.5t39.5 12.5q22 0 37 -12.5t15 -32.5q0 -21 -15 -34.5 t-37 -13.5q-24 0 -39.5 13t-15.5 35z"/>
<glyph glyph-name="afii10051" horiz-adv-x="762" unicode="Ђ" d="M712 204q0 -106 -45.5 -160t-128.5 -54q-31 0 -62 11.5t-43 25.5l29 65q28 -22 66 -22q99 0 99 132q0 141 -140 141q-33 0 -64 -9q-29 -9 -44 -17l-39 -22v-295h-85v620h-245v80h575v-80h-245v-247q76 50 163 50q209 0 209 -219z"/>
<glyph glyph-name="afii10052" horiz-adv-x="505" unicode="Ѓ" d="M453 887l30 -68l-202 -84l-23 48zM190 0h-85v700h390v-80h-305v-620z"/>
<glyph glyph-name="afii10053" horiz-adv-x="677" unicode="Є" d="M138 397h345v-80h-347q11 -116 90 -182q80 -65 194 -65q104 0 189 64l33 -71q-91 -73 -229 -73q-163 0 -264 98q-99 98 -99 262q0 159 97 259q98 101 254 101q145 0 230 -73l-39 -64q-74 57 -177 57q-115 0 -189 -63q-75 -64 -88 -170z"/>
<glyph glyph-name="afii10054" horiz-adv-x="549" unicode="Ѕ" d="M409 179q0 35 -19 61t-49 42.5t-66.5 31.5t-73 32.5t-66.5 39.5t-49 58t-19 83q0 77 57 130q58 53 154 53q59 0 111 -20t82 -53l-46 -64q-57 57 -142 57q-58 0 -92 -28t-34 -75q0 -35 19 -61t49 -42t66.5 -30.5t73 -31.5t66.5 -38.5t49 -58.5t19 -85q0 -86 -66 -138 q-64 -52 -162 -52q-69 0 -132 28t-89 77l49 58q29 -38 77 -60.5t96 -22.5q59 0 98 29.5t39 79.5z"/>
<glyph glyph-name="afii10055" horiz-adv-x="335" unicode="І" d="M210 0h-85v700h85v-700z"/>
<glyph glyph-name="afii10056" horiz-adv-x="335" unicode="Ї" d="M210 0h-85v700h85v-700zM199 813q0 20 13.5 32.5t34.5 12.5q19 0 32.5 -12.5t13.5 -32.5q0 -21 -13.5 -34.5t-32.5 -13.5q-21 0 -34.5 13.5t-13.5 34.5zM43 813q0 20 13.5 32.5t34.5 12.5q19 0 32.5 -12.5t13.5 -32.5q0 -21 -13.5 -34.5t-32.5 -13.5q-21 0 -34.5 13.5 t-13.5 34.5z"/>
<glyph glyph-name="afii10057" horiz-adv-x="374" unicode="Ј" d="M184 700h85v-541q0 -169 -153 -169q-69 0 -106 37l29 65q28 -22 66 -22q79 0 79 103v527z"/>
<glyph glyph-name="afii10058" horiz-adv-x="1023" unicode="Љ" d="M708 365q-34 0 -87 -6v-278q81 -3 84 -3q178 0 178 149q0 67 -45 102.5t-130 35.5zM536 0v620h-254l-12 -132q-11 -119 -27.5 -206.5t-36.5 -141.5t-45.5 -86.5t-50.5 -44t-57 -11.5q-10 0 -28 2l1 85q5 -1 14 -1q27 0 56 35q21 25 38 75q40 112 58 366l10 140h419v-260 q70 5 93 5q127 0 193 -56.5t66 -159.5q0 -110 -73 -170.5t-205 -60.5q-50 0 -87 1q-36 1 -72 1z"/>
<glyph glyph-name="afii10059" horiz-adv-x="1052" unicode="Њ" d="M650 344v-263q81 -3 84 -3q87 0 132.5 36t45.5 106q0 62 -45 96t-130 34q-35 0 -87 -6zM190 0h-85v700h85v-279h375v279h85v-275q70 5 93 5q127 0 193 -54.5t66 -154.5q0 -105 -73.5 -164t-204.5 -59q-40 0 -70 1t-63 1h-26v341h-375v-341z"/>
<glyph glyph-name="afii10060" horiz-adv-x="762" unicode="Ћ" d="M255 620h-245v80h575v-80h-245v-247q71 50 168 50q94 0 149 -56.5t55 -167.5v-199h-85v177q0 166 -142 166q-71 0 -145 -48v-295h-85v620z"/>
<glyph glyph-name="afii10061" horiz-adv-x="653" unicode="Ќ" d="M483 887l30 -68l-202 -84l-23 48zM190 0h-85v700h85v-700zM514 700h103l-312 -329l328 -371h-109l-317 365z"/>
<glyph glyph-name="afii10062" horiz-adv-x="666" unicode="Ў" d="M159 860h80q24 -65 107 -65q88 0 103 65h80q-7 -56 -58.5 -90.5t-124.5 -34.5q-77 0 -127.5 34t-59.5 91zM565 700h86l-242 -540q-37 -84 -77.5 -122t-96.5 -38q-54 0 -85 25l30 72q26 -18 54 -18q51 0 86 71l12 26l-317 524h96l262 -439z"/>
<glyph glyph-name="afii10145" horiz-adv-x="750" unicode="Џ" d="M334 0h-229v700h85v-620h370v620h85v-700h-231v-155h-80v155z"/>
<glyph glyph-name="afii10017" horiz-adv-x="705" unicode="А" d="M476 292l-126 299l-126 -299h252zM101 0h-86l301 704h73l301 -704h-91l-90 212h-319z"/>
<glyph glyph-name="afii10018" horiz-adv-x="612" unicode="Б" d="M292 345q-46 0 -102 -6v-259q55 -4 96 -4q84 0 127.5 35.5t43.5 101.5q0 62 -42.5 97t-122.5 35zM105 0v700h396v-80h-311v-201q53 6 107 6q116 0 180.5 -55t64.5 -151q0 -107 -70.5 -165t-198.5 -58q-21 0 -95 2q-14 0 -31.5 0.5t-27 1t-14.5 0.5z"/>
<glyph glyph-name="afii10019" horiz-adv-x="617" unicode="В" d="M295 623q-30 0 -105 -3v-226h112q59 0 97 31.5t38 85.5q0 112 -142 112zM303 319h-113v-238q41 -4 108 -4q79 0 121.5 32.5t42.5 95.5q0 55 -41.5 84.5t-117.5 29.5zM105 1v698q139 4 192 4q114 0 169.5 -45.5t55.5 -127.5q0 -61 -32 -102t-88 -60v-2q68 -11 106.5 -54 t38.5 -112q0 -100 -68 -151.5t-186 -51.5q-115 0 -188 4z"/>
<glyph glyph-name="afii10020" horiz-adv-x="505" unicode="Г" d="M190 0h-85v700h390v-80h-305v-620z"/>
<glyph glyph-name="afii10021" horiz-adv-x="749" unicode="Д" d="M294 620l-9 -125q-10 -155 -43 -272q-31 -110 -58 -143h355v540h-245zM95 -130h-80v210h75q33 42 68 163q36 121 47 317l7 140h412v-620h95v-210h-80v130h-544v-130z"/>
<glyph glyph-name="afii10022" horiz-adv-x="575" unicode="Е" d="M510 0h-405v700h395v-80h-310v-226h280v-80h-280v-234h320v-80z"/>
<glyph glyph-name="afii10024" horiz-adv-x="934" unicode="Ж" d="M20 0l294 365l-283 335h99l277 -335l-288 -365h-99zM509 0h-85v700h85v-700zM804 700h99l-283 -334l294 -366h-99l-288 365z"/>
<glyph glyph-name="afii10025" horiz-adv-x="578" unicode="З" d="M269 -10q-73 0 -135.5 31t-93.5 79l47 57q33 -39 82.5 -63t94.5 -24q72 0 115.5 36t43.5 98q0 52 -36 83t-101 31h-81v80h75q46 0 81 33q35 35 35 85q0 54 -35 84t-92 30q-93 0 -159 -78l-50 56q36 48 94 75t124 27q93 0 148 -49.5t55 -136.5q0 -49 -26.5 -92.5 t-74.5 -67.5v-3q61 -12 94.5 -56.5t33.5 -108.5q0 -95 -70 -150q-70 -56 -169 -56z"/>
<glyph glyph-name="afii10026" horiz-adv-x="795" unicode="И" d="M605 560l-425 -560h-75v700h85v-560l425 560h75v-700h-85v560z"/>
<glyph glyph-name="afii10027" horiz-adv-x="795" unicode="Й" d="M217 860h80q24 -65 107 -65q88 0 103 65h80q-7 -56 -58.5 -90.5t-124.5 -34.5q-77 0 -127.5 34t-59.5 91zM605 560l-425 -560h-75v700h85v-560l425 560h75v-700h-85v560z"/>
<glyph glyph-name="afii10028" horiz-adv-x="653" unicode="К" d="M190 0h-85v700h85v-700zM514 700h103l-312 -329l328 -371h-109l-317 365z"/>
<glyph glyph-name="afii10029" horiz-adv-x="726" unicode="Л" d="M621 0h-85v620h-254l-12 -132q-11 -119 -27.5 -206.5t-36.5 -141.5t-45.5 -86.5t-50.5 -44t-57 -11.5q-10 0 -28 2l1 85q5 -1 14 -1q27 0 56 35q21 25 38 75q40 112 58 366l10 140h419v-700z"/>
<glyph glyph-name="afii10030" horiz-adv-x="892" unicode="М" d="M190 0h-85v700h86l263 -359l252 359h81v-700h-85v566l-248 -348h-13l-251 345v-563z"/>
<glyph glyph-name="afii10031" horiz-adv-x="765" unicode="Н" d="M660 0h-85v317h-385v-317h-85v700h85v-303h385v303h85v-700z"/>
<glyph glyph-name="afii10032" horiz-adv-x="814" unicode="О" d="M140 350q0 -118 77 -200q77 -80 190 -80q118 0 192 80q75 80 75 200t-77 200t-190 80q-115 0 -191 -79t-76 -201zM50 350q0 152 101 256t256 104q154 0 255 -101q102 -100 102 -259q0 -154 -102 -258q-102 -102 -255 -102t-256 101q-101 101 -101 259z"/>
<glyph glyph-name="afii10033" horiz-adv-x="760" unicode="П" d="M655 0h-85v620h-380v-620h-85v700h550v-700z"/>
<glyph glyph-name="afii10034" horiz-adv-x="597" unicode="Р" d="M296 622q-18 0 -106 -2v-270q63 -5 102 -5q77 0 121 37.5t44 103.5q0 65 -40.5 100.5t-120.5 35.5zM190 269v-269h-85v700q42 0 89 1t94 1q138 0 198 -62q61 -61 61 -155q0 -91 -66 -156q-64 -64 -186 -64q-64 0 -105 4z"/>
<glyph glyph-name="afii10035" horiz-adv-x="656" unicode="С" d="M592 132l34 -64q-35 -36 -95 -57t-126 -21q-157 0 -257 98q-98 100 -98 262q0 156 94 257q94 103 255 103q133 0 213 -68l-39 -64q-70 52 -173 52q-113 0 -187 -78q-73 -77 -73 -202t75 -203q77 -77 198 -77q102 0 179 62z"/>
<glyph glyph-name="afii10036" horiz-adv-x="595" unicode="Т" d="M255 620h-245v80h575v-80h-245v-620h-85v620z"/>
<glyph glyph-name="afii10037" horiz-adv-x="666" unicode="У" d="M565 700h86l-242 -540q-37 -84 -77.5 -122t-96.5 -38q-54 0 -85 25l30 72q26 -18 54 -18q51 0 86 71l12 26l-317 524h96l262 -439z"/>
<glyph glyph-name="afii10038" horiz-adv-x="834" unicode="Ф" d="M130 360q0 -95 64.5 -146.5t177.5 -51.5h1v395q-114 0 -178.5 -52.5t-64.5 -144.5zM459 557h-1v-395h2q116 0 180 51t64 147q0 93 -64.5 145t-180.5 52zM458 -8h-85v92h-1q-151 0 -242 73q-90 73 -90 203t90 202q89 72 243 74v72h85v-72q155 -2 245 -74q91 -73 91 -202 t-92 -203q-91 -73 -241 -73h-3v-92z"/>
<glyph glyph-name="afii10039" horiz-adv-x="664" unicode="Х" d="M534 700h101l-248 -344l257 -356h-101l-212 291l-211 -291h-100l257 356l-246 344h100l203 -280z"/>
<glyph glyph-name="afii10040" horiz-adv-x="775" unicode="Ц" d="M665 0h-560v700h85v-620h375v620h85v-620h95v-210h-80v130z"/>
<glyph glyph-name="afii10041" horiz-adv-x="650" unicode="Ч" d="M460 700h85v-700h-85v306q-75 -54 -185 -54q-92 0 -151 54t-59 169v225h85v-202q0 -166 147 -166q84 0 163 53v315z"/>
<glyph glyph-name="afii10042" horiz-adv-x="995" unicode="Ш" d="M890 0h-785v700h85v-620h265v620h85v-620h265v620h85v-700z"/>
<glyph glyph-name="afii10043" horiz-adv-x="1015" unicode="Щ" d="M905 0h-800v700h85v-620h265v620h85v-620h265v620h85v-620h95v-210h-80v130z"/>
<glyph glyph-name="afii10044" horiz-adv-x="669" unicode="Ъ" d="M349 365q-39 0 -92 -6v-278q81 -3 89 -3q89 0 136 37.5t47 111.5q0 67 -47 102.5t-133 35.5zM172 620h-167v80h252v-260q70 5 98 5q130 0 197 -56.5t67 -159.5q0 -110 -74.5 -170.5t-208.5 -60.5q-51 0 -89 1t-75 1v620z"/>
<glyph glyph-name="afii10045" horiz-adv-x="845" unicode="Ы" d="M105 700h85v-260q70 5 93 5q127 0 193 -56.5t66 -159.5q0 -110 -73 -170.5t-205 -60.5q-50 0 -87 1q-36 1 -72 1v700zM277 365q-35 0 -87 -6v-278q81 -3 84 -3q178 0 178 149q0 67 -45 102.5t-130 35.5zM740 0h-85v700h85v-700z"/>
<glyph glyph-name="afii10046" horiz-adv-x="602" unicode="Ь" d="M105 700h85v-260q70 5 98 5q130 0 197 -56.5t67 -159.5q0 -110 -74.5 -170.5t-208.5 -60.5q-51 0 -89 1t-75 1v700zM282 365q-40 0 -92 -6v-278q81 -3 89 -3q89 0 136 37.5t47 111.5q0 67 -47 102.5t-133 35.5z"/>
<glyph glyph-name="afii10047" horiz-adv-x="677" unicode="Э" d="M540 317h-347v80h346q-13 108 -89 170.5t-194 62.5q-104 0 -177 -57l-33 64q82 73 230 73q156 0 254 -98q97 -97 97 -260q0 -161 -98 -262q-97 -100 -261 -100q-142 0 -233 73l37 71q85 -64 194 -64q112 0 187 66q77 68 87 181z"/>
<glyph glyph-name="afii10048" horiz-adv-x="1078" unicode="Ю" d="M429 350q0 -119 72 -200q74 -80 182 -80q119 0 186 79q69 79 69 201t-71 201q-70 79 -184 79q-110 0 -182 -79t-72 -201zM190 0h-85v700h85v-303h151q15 137 108 225q94 88 232 88q152 0 250 -101q97 -100 97 -259q0 -155 -98 -258q-98 -102 -249 -102q-138 0 -235 91 q-96 91 -106 236h-150v-317z"/>
<glyph glyph-name="afii10049" horiz-adv-x="623" unicode="Я" d="M292 340h141v280q-69 3 -95 3q-78 0 -122.5 -40.5t-44.5 -106.5q0 -53 36 -91t85 -45zM518 0h-85v260h-131l-181 -260h-96l194 275q-62 25 -100 76.5t-38 119.5q0 101 69 166q69 66 204 66q4 0 84 -2q40 -1 80 -1v-700z"/>
<glyph glyph-name="afii10065" horiz-adv-x="460" unicode="а" d="M206 65q67 0 116 58v57q-42 30 -101 30q-41 0 -68.5 -19.5t-27.5 -54.5q0 -33 21.5 -52t59.5 -19zM96 355l-21 64q67 41 150 41q91 0 132 -45t41 -139v-276h-76v58q-53 -65 -144 -65q-62 0 -100 37.5t-38 101.5q0 66 47 104.5t123 38.5q71 0 112 -29q0 76 -21 109t-81 33 q-61 0 -124 -33z"/>
<glyph glyph-name="afii10066" horiz-adv-x="552" unicode="б" d="M125 255q0 -86 42 -138t109 -52q65 0 106 44q42 43 42 108q0 69 -38.5 111t-105.5 42q-61 0 -102 -34q-43 -35 -53 -81zM420 710l43 -63q-24 -33 -58 -45q-37 -13 -84 -20q-46 -7 -87 -25q-102 -47 -114 -217h2q22 47 71.5 76t106.5 29q96 0 152.5 -61t56.5 -163 q0 -96 -65 -164q-64 -67 -166 -67q-110 0 -174 75q-64 74 -64 205q0 292 167 363q38 17 88 25q39 7 56 11t36.5 14t32.5 27z"/>
<glyph glyph-name="afii10067" horiz-adv-x="494" unicode="в" d="M241 389q-29 0 -89 -3v-134h101q41 0 66 19t25 51q0 67 -103 67zM248 202h-96v-138q72 -3 92 -3q115 0 115 72q0 69 -111 69zM72 0v450q5 0 14 0.5t26 1t31 0.5q74 2 92 2q194 0 194 -116q0 -40 -25 -68.5t-65 -34.5v-2q105 -19 105 -106q0 -131 -207 -131q-10 0 -88 2 q-15 0 -33 0.5t-28 1t-16 0.5z"/>
<glyph glyph-name="afii10068" horiz-adv-x="362" unicode="г" d="M152 0h-80v450h285v-75h-205v-375z"/>
<glyph glyph-name="afii10069" horiz-adv-x="539" unicode="д" d="M217 375l-5 -75q-6 -75 -24 -137t-37 -88h218v300h-152zM85 -110h-75v185h56q25 31 44 100.5t25 155.5l7 119h307v-375h75v-185h-75v110h-364v-110z"/>
<glyph glyph-name="afii10070" horiz-adv-x="520" unicode="е" d="M270 385q-59 0 -97.5 -33t-45.5 -87h273q-3 56 -37.5 88t-92.5 32zM427 112l25 -63q-65 -59 -169 -59q-110 0 -175 64q-66 64 -66 171q0 101 62 168q61 67 170 67q90 0 149 -58q60 -57 60 -148q0 -29 -5 -54h-346q5 -63 47.5 -99t109.5 -36q88 0 138 47z"/>
<glyph glyph-name="afii10072" horiz-adv-x="679" unicode="ж" d="M15 0l172 233l-163 217h100l154 -217l-165 -233h-98zM378 0h-80v450h80v-450zM553 450h99l-163 -217l175 -233h-99l-167 233z"/>
<glyph glyph-name="afii10073" horiz-adv-x="462" unicode="з" d="M221 -10q-51 0 -108 17q-55 18 -78 44l41 60q27 -22 64.5 -35.5t68.5 -13.5q52 0 85 20.5t33 53.5q0 28 -23.5 43t-64.5 15h-76v65h71q34 0 56 18.5t22 45.5q0 30 -26 47.5t-70 17.5q-71 0 -135 -50l-31 62q27 28 75.5 44t102.5 16q80 0 124.5 -32t44.5 -89 q0 -78 -79 -106v-2q44 -5 69 -34.5t25 -71.5q0 -62 -52.5 -98.5t-138.5 -36.5z"/>
<glyph glyph-name="afii10074" horiz-adv-x="565" unicode="и" d="M412 335l-260 -335h-80v450h80v-335l260 335h80v-450h-80v335z"/>
<glyph glyph-name="afii10075" horiz-adv-x="565" unicode="й" d="M136 680h75q6 -79 77 -79q67 0 73 79h75q0 -61 -41.5 -100.5t-106.5 -39.5q-71 0 -111.5 38.5t-40.5 101.5zM412 335l-260 -335h-80v450h80v-335l260 335h80v-450h-80v335z"/>
<glyph glyph-name="afii10076" horiz-adv-x="498" unicode="к" d="M152 0h-80v450h80v-450zM361 450h105l-197 -215l216 -235h-111l-203 230z"/>
<glyph glyph-name="afii10077" horiz-adv-x="532" unicode="л" d="M460 0h-80v370h-158l-5 -76q-8 -93 -23.5 -154.5t-40 -92t-51.5 -42t-66 -11.5l-6 78h4q12 0 23.5 5.5t25 21t24.5 41t20 69.5t12 101l8 140h313v-450z"/>
<glyph glyph-name="afii10078" horiz-adv-x="626" unicode="м" d="M152 0h-80v450h73l173 -223l164 223h71v-450h-80v328l-156 -209h-3l-162 209v-328z"/>
<glyph glyph-name="afii10079" horiz-adv-x="555" unicode="н" d="M482 0h-80v190h-250v-190h-80v450h80v-185h250v185h80v-450z"/>
<glyph glyph-name="afii10080" horiz-adv-x="565" unicode="о" d="M127 225q0 -71 43 -115q44 -45 112 -45t111.5 44.5t43.5 115.5q0 69 -44 115q-43 45 -111 45t-111 -45q-44 -44 -44 -115zM108 56q-66 68 -66 169q0 102 66 168q67 67 174 67t173 -67q67 -66 67 -168t-67 -169q-66 -66 -173 -66q-106 0 -174 66z"/>
<glyph glyph-name="afii10081" horiz-adv-x="550" unicode="п" d="M477 0h-80v375h-245v-375h-80v450h405v-450z"/>
<glyph glyph-name="afii10082" horiz-adv-x="556" unicode="р" d="M282 385q-80 0 -130 -62v-223q53 -35 120 -35q71 0 113.5 45.5t42.5 118.5q0 71 -39 113.5t-107 42.5zM152 -200h-80v650h80v-53q24 28 66 45.5t87 17.5q96 0 151 -64q57 -63 57 -164q0 -103 -65 -173q-64 -69 -169 -69q-81 0 -127 31v-221z"/>
<glyph glyph-name="afii10083" horiz-adv-x="488" unicode="с" d="M418 123l38 -58q-58 -75 -173 -75q-108 0 -175 64q-66 64 -66 171q0 99 65 167t163 68q118 0 177 -59l-37 -63q-52 47 -129 47q-63 0 -109 -46q-45 -45 -45 -114q0 -73 46 -116q47 -44 116 -44q78 0 129 58z"/>
<glyph glyph-name="afii10084" horiz-adv-x="440" unicode="т" d="M180 370h-165v80h410v-80h-165v-370h-80v370z"/>
<glyph glyph-name="afii10085" horiz-adv-x="491" unicode="у" d="M390 450h91l-180 -450q-49 -119 -85 -158q-38 -42 -87 -42q-44 0 -85 28l26 61q31 -15 50 -15q28 0 50.5 24t45.5 78l10 24l-216 450h96l132 -286q4 -7 27 -68q9 33 21 69z"/>
<glyph glyph-name="afii10086" horiz-adv-x="675" unicode="ф" d="M390 385h-13v-320h9q76 0 118.5 43.5t42.5 116.5q0 67 -42 113q-42 47 -115 47zM127 225q0 -73 43.5 -116.5t118.5 -43.5h8v320h-13q-73 0 -115 -44.5t-42 -115.5zM377 -200h-80v190h-11q-113 0 -179 66q-65 67 -65 169q0 97 66 166t177 69h12v240h80v-240h13 q110 0 176 -67t66 -168q0 -105 -64 -170q-63 -65 -178 -65h-13v-190z"/>
<glyph glyph-name="afii10087" horiz-adv-x="507" unicode="х" d="M379 450h93l-161 -217l171 -233h-98l-132 182l-134 -182h-93l170 229l-160 221h98l122 -170z"/>
<glyph glyph-name="afii10088" horiz-adv-x="562" unicode="ц" d="M472 0h-400v450h80v-375h240v375h80v-375h75v-185h-75v110z"/>
<glyph glyph-name="afii10089" horiz-adv-x="482" unicode="ч" d="M330 450h80v-450h-80v175q-52 -33 -125 -33q-160 0 -160 172v136h85v-127q0 -106 97 -106q63 0 103 28v205z"/>
<glyph glyph-name="afii10090" horiz-adv-x="715" unicode="ш" d="M642 0h-570v450h80v-375h165v375h80v-375h165v375h80v-450z"/>
<glyph glyph-name="afii10091" horiz-adv-x="732" unicode="щ" d="M642 0h-570v450h80v-375h165v375h80v-375h165v375h80v-375h75v-185h-75v110z"/>
<glyph glyph-name="afii10092" horiz-adv-x="509" unicode="ъ" d="M281 240h-67v-165h66q109 0 109 82q0 83 -108 83zM134 375h-129v75h209v-135h82q92 0 135 -41.5t43 -113.5q0 -68 -45 -114t-143 -46h-152v375z"/>
<glyph glyph-name="afii10093" horiz-adv-x="642" unicode="ы" d="M211 240h-59v-165h58q57 0 83 20t26 62q0 83 -108 83zM570 0h-80v450h80v-450zM217 0h-145v450h80v-135h74q92 0 135 -41.5t43 -113.5q0 -68 -45 -114q-43 -46 -142 -46z"/>
<glyph glyph-name="afii10094" horiz-adv-x="447" unicode="ь" d="M219 240h-67v-165h66q109 0 109 82q0 83 -108 83zM224 0h-152v450h80v-135h82q92 0 135 -41.5t43 -113.5q0 -68 -45 -114t-143 -46z"/>
<glyph glyph-name="afii10095" horiz-adv-x="489" unicode="э" d="M364 196h-222v65h221q-9 60 -50.5 92t-105.5 32q-83 0 -138 -49l-34 60q29 29 77 46.5t94 17.5q108 0 173 -64q67 -64 67 -171q0 -99 -65 -167t-163 -68q-122 0 -181 57l38 59q46 -41 138 -41q63 0 103 34.5t48 96.5z"/>
<glyph glyph-name="afii10096" horiz-adv-x="760" unicode="ю" d="M342 225q0 -69 40 -112t103 -43t102.5 42.5t39.5 112.5q0 69 -39 112t-103 43q-63 0 -103 -43t-40 -112zM157 0h-85v450h85v-180h98q14 86 75.5 138t151.5 52q106 0 170 -67q65 -67 65 -168t-66 -169q-65 -66 -169 -66q-95 0 -156 55t-72 145h-97v-190z"/>
<glyph glyph-name="afii10097" horiz-adv-x="482" unicode="я" d="M153 298q0 -32 25 -52.5t59 -20.5h92v150h-73q-51 0 -77 -21t-26 -56zM269 450h140v-450h-80v150h-87l-110 -150h-97l130 170q-41 9 -69 44.5t-28 85.5q0 69 50 109.5t151 40.5z"/>
<glyph glyph-name="afii10071" horiz-adv-x="520" unicode="ё" d="M324 610q0 20 14 33t34 13q18 0 31 -13t13 -33q0 -23 -12.5 -36.5t-31.5 -13.5q-21 0 -34.5 13.5t-13.5 36.5zM121 610q0 21 13 33.5t34 12.5q18 0 31 -13t13 -33q0 -23 -12.5 -36.5t-31.5 -13.5q-21 0 -34 13.5t-13 36.5zM270 385q-59 0 -97.5 -33t-45.5 -87h273 q-3 56 -37.5 88t-92.5 32zM427 112l25 -63q-65 -59 -169 -59q-110 0 -175 64q-66 64 -66 171q0 101 62 168q61 67 170 67q90 0 149 -58q60 -57 60 -148q0 -29 -5 -54h-346q5 -63 47.5 -99t109.5 -36q88 0 138 47z"/>
<glyph glyph-name="afii10099" horiz-adv-x="596" unicode="ђ" d="M135 460h-130v65h130v175h80v-175h180v-65h-180v-152q60 60 147 60q187 0 187 -197q0 -122 -46 -220q-46 -100 -127 -151h-87q88 62 133.5 155t45.5 196q0 142 -126 142q-36 0 -70.5 -16t-56.5 -41v-236h-80v460z"/>
<glyph glyph-name="afii10100" horiz-adv-x="362" unicode="ѓ" d="M282 722l62 -48l-120 -143l-48 34zM152 0h-80v450h285v-75h-205v-375z"/>
<glyph glyph-name="afii10101" horiz-adv-x="489" unicode="є" d="M124 261h222v-65h-222q9 -62 53.5 -96.5t109.5 -34.5q86 0 132 41l33 -59q-60 -57 -176 -57q-103 0 -169 66q-65 68 -65 169q0 107 66 171q67 64 175 64q46 0 93.5 -17.5t76.5 -46.5l-33 -60q-55 49 -139 49q-63 0 -105 -32.5t-52 -91.5z"/>
<glyph glyph-name="afii10102" horiz-adv-x="430" unicode="ѕ" d="M300 122q0 24 -25 40t-61 26.5t-71.5 24.5t-60.5 44.5t-25 75.5q0 57 42 92t111 35q99 0 155 -53l-38 -61q-50 44 -113 44q-32 0 -52 -16t-20 -40q0 -26 25 -42.5t61 -27t71.5 -24t60.5 -42.5t25 -72q0 -67 -50 -102q-49 -34 -124 -34q-53 0 -101 22q-49 23 -65 48l45 57 q20 -23 58 -40q40 -17 72 -17q35 0 57.5 16.5t22.5 45.5z"/>
<glyph glyph-name="afii10103" horiz-adv-x="268" unicode="і" d="M84 619q0 21 15 34.5t37 13.5q21 0 35 -13.5t14 -34.5q0 -23 -14 -37.5t-35 -14.5q-22 0 -37 14.5t-15 37.5zM174 0h-80v450h80v-450z"/>
<glyph glyph-name="afii10104" horiz-adv-x="293" unicode="ї" d="M186 0h-80v450h80v-450zM175 608q0 18 12.5 30t30.5 12q16 0 28 -12t12 -30q0 -20 -12 -32t-28 -12q-18 0 -30.5 12t-12.5 32zM35 608q0 18 13 30t31 12q16 0 28 -12t12 -30t-12 -31t-28 -13q-19 0 -31.5 12t-12.5 32z"/>
<glyph glyph-name="afii10105" horiz-adv-x="273" unicode="ј" d="M87 619q0 21 15 34.5t37 13.5q21 0 35 -13.5t14 -34.5q0 -23 -14 -37.5t-35 -14.5q-22 0 -37 14.5t-15 37.5zM98 450h80v-483q0 -175 -141 -175q-62 0 -100 29l23 64q29 -18 59 -18q79 0 79 106v477z"/>
<glyph glyph-name="afii10106" horiz-adv-x="742" unicode="љ" d="M514 240h-54v-165h53q109 0 109 82q0 83 -108 83zM519 0h-139v370h-158l-5 -76q-8 -93 -23.5 -154.5t-40 -92t-51.5 -42t-66 -11.5l-6 78h4q12 0 23.5 5.5t25 21t24.5 41t20 69.5t12 101l8 140h313v-135h69q92 0 135 -41.5t43 -113.5q0 -68 -45 -114t-143 -46z"/>
<glyph glyph-name="afii10107" horiz-adv-x="764" unicode="њ" d="M536 230h-54v-155h53q58 0 83.5 18.5t25.5 58.5q0 41 -25.5 59.5t-82.5 18.5zM152 0h-80v450h80v-175h250v175h80v-145h69q178 0 178 -150q0 -71 -46.5 -113t-140.5 -42h-140v200h-250v-200z"/>
<glyph glyph-name="afii10108" horiz-adv-x="596" unicode="ћ" d="M135 460h-130v65h130v175h80v-175h180v-65h-180v-152q60 60 147 60q187 0 187 -200v-168h-80v157q0 136 -127 136q-36 0 -70.5 -16t-56.5 -41v-236h-80v460z"/>
<glyph glyph-name="afii10109" horiz-adv-x="498" unicode="ќ" d="M303 722l62 -48l-120 -143l-48 34zM152 0h-80v450h80v-450zM361 450h105l-197 -215l216 -235h-111l-203 230z"/>
<glyph glyph-name="afii10110" horiz-adv-x="491" unicode="ў" d="M101 680h75q6 -79 77 -79q67 0 73 79h75q0 -61 -41.5 -100.5t-106.5 -39.5q-71 0 -111.5 38.5t-40.5 101.5zM390 450h91l-180 -450q-49 -119 -85 -158q-38 -42 -87 -42q-44 0 -85 28l26 61q31 -15 50 -15q28 0 50.5 24t45.5 78l10 24l-216 450h96l132 -286q4 -7 27 -68 q9 33 21 69z"/>
<glyph glyph-name="afii10193" horiz-adv-x="540" unicode="џ" d="M232 0h-160v450h80v-375h235v375h80v-450h-160v-125h-75v125z"/>
<glyph glyph-name="afii10146" horiz-adv-x="639" unicode="Ѣ" d="M319 345q-39 0 -92 -6v-258q81 -3 89 -3q183 0 183 139q0 128 -180 128zM142 700h85v-100h157v-80h-157v-100q70 5 98 5q264 0 264 -206q0 -108 -73 -164.5t-210 -56.5q-51 0 -89 1t-75 1v520h-132v80h132v100z"/>
<glyph glyph-name="afii10194" horiz-adv-x="506" unicode="ѣ" d="M292 210h-78v-135h78q50 0 72 16.5t22 51.5q0 67 -94 67zM134 375h-129v75h129v250h80v-250h150v-75h-150v-90h79q178 0 178 -146q0 -139 -187 -139h-150v375z"/>
<glyph glyph-name="afii10147" horiz-adv-x="814" unicode="Ѳ" d="M541 351q31 0 67 15.5t61 37.5q-16 100 -90 163t-172 63q-108 0 -182 -70q-74 -71 -84 -181q77 53 147 53q53 0 129 -41q74 -40 124 -40zM287 357q-72 0 -142 -62q17 -99 90 -162q74 -63 172 -63q110 0 184 71q73 70 81 182q-71 -47 -137 -47q-54 0 -127 40 q-74 41 -121 41zM50 350q0 152 101 256t256 104q154 0 255 -101q102 -100 102 -259q0 -154 -102 -258q-102 -102 -255 -102t-256 101q-101 101 -101 259z"/>
<glyph glyph-name="afii10195" horiz-adv-x="575" unicode="ѳ" d="M379 223q39 0 71 32q-9 65 -54 102.5t-109 37.5q-65 0 -111 -40t-53 -108q43 35 84 35q35 0 91 -30q56 -29 81 -29zM203 227q-43 0 -79 -37q10 -62 55 -98.5t108 -36.5q67 0 112 39t52 107q-41 -33 -82 -33q-34 0 -87 29q-52 30 -79 30zM109 56q-67 66 -67 169t67 169 q68 66 178 66q109 0 177 -66t68 -169t-68 -169t-177 -66q-110 0 -178 66z"/>
<glyph glyph-name="afii10148" horiz-adv-x="659" unicode="Ѵ" d="M547 504l-184 -508h-63l-295 704h91l238 -575l148 427q36 104 77 136q25 19 62 19q25 0 58 -9l-13 -75q-16 6 -30 6q-24 0 -37 -16q-21 -24 -52 -109z"/>
<glyph glyph-name="afii10196" horiz-adv-x="485" unicode="ѵ" d="M393 288l-116 -292h-58l-214 454h94l114 -243q20 -45 37 -98q13 42 33 100l49 128q31 82 67 107q17 13 48 13q27 0 58 -10l-13 -74q-14 7 -26 7q-20 0 -35.5 -21t-37.5 -71z"/>
<glyph glyph-name="afii10050" horiz-adv-x="505" unicode="Ґ" d="M190 0h-85v700h310v125h80v-205h-305v-620z"/>
<glyph glyph-name="afii10098" horiz-adv-x="362" unicode="ґ" d="M152 0h-80v450h210v105h75v-180h-205v-375z"/>
<glyph glyph-name="uni1E9E" horiz-adv-x="644" unicode="ẞ" d="M499 173q0 46 -43 96q-20 24 -50 46q-31 25 -56 42q-18 13 -65 44l135 191q-36 38 -102 38q-60 0 -94 -36t-34 -106v-490h-85v488q0 111 57.5 167.5t159.5 56.5q119 0 202 -98l-137 -185q202 -124 202 -266q0 -75 -53 -123q-52 -48 -118 -48q-93 0 -161 62l38 66 q22 -18 31 -25q31 -23 73 -23q41 0 70.5 28.5t29.5 74.5z"/>
<glyph glyph-name="uni2010" horiz-adv-x="389" unicode="‐" d="M314 235h-239v75h239v-75z"/>
<glyph glyph-name="uni2011" horiz-adv-x="389" unicode="‑" d="M314 235h-239v75h239v-75z"/>
<glyph glyph-name="figuredash" horiz-adv-x="594" unicode="‒" d="M504 319h-414v70h414v-70z"/>
<glyph glyph-name="endash" horiz-adv-x="594" unicode="–" d="M504 235h-414v70h414v-70z"/>
<glyph glyph-name="emdash" horiz-adv-x="804" unicode="—" d="M714 235h-624v70h624v-70z"/>
<glyph glyph-name="afii00208" horiz-adv-x="804" unicode="―" d="M714 235h-624v70h624v-70z"/>
<glyph glyph-name="quoteleft" horiz-adv-x="239" unicode="‘" d="M161 552l-67 -41q-29 32 -29 82q0 102 85 150l37 -36q-47 -32 -47 -96q0 -38 21 -59z"/>
<glyph glyph-name="quoteright" horiz-adv-x="239" unicode="’" d="M78 700l67 40q29 -32 29 -82q0 -101 -85 -149l-37 35q47 33 47 97q0 38 -21 59z"/>
<glyph glyph-name="quotesinglbase" horiz-adv-x="239" unicode="‚" d="M78 35l67 40q29 -32 29 -82q0 -101 -85 -149l-37 35q47 33 47 97q0 38 -21 59z"/>
<glyph glyph-name="quotedblleft" horiz-adv-x="384" unicode="“" d="M161 552l-67 -41q-29 32 -29 82q0 102 85 150l37 -36q-47 -32 -47 -96q0 -38 21 -59zM306 552l-67 -41q-29 32 -29 82q0 102 85 150l37 -36q-47 -32 -47 -96q0 -38 21 -59z"/>
<glyph glyph-name="quotedblright" horiz-adv-x="384" unicode="”" d="M78 700l67 40q29 -32 29 -82q0 -101 -85 -149l-37 35q47 33 47 97q0 38 -21 59zM223 700l67 40q29 -32 29 -82q0 -101 -85 -149l-37 35q47 33 47 97q0 38 -21 59z"/>
<glyph glyph-name="quotedblbase" horiz-adv-x="384" unicode="„" d="M78 35l67 40q29 -32 29 -82q0 -101 -85 -149l-37 35q47 33 47 97q0 38 -21 59zM223 35l67 40q29 -32 29 -82q0 -101 -85 -149l-37 35q47 33 47 97q0 38 -21 59z"/>
<glyph glyph-name="dagger" horiz-adv-x="459" unicode="†" d="M192 410h-152v70h152v220h75v-220h152v-70h-152v-510h-75v510z"/>
<glyph glyph-name="daggerdbl" horiz-adv-x="459" unicode="‡" d="M192 410h-152v70h152v220h75v-220h152v-70h-152v-190h152v-70h-152v-250h-75v250h-152v70h152v190z"/>
<glyph glyph-name="bullet" horiz-adv-x="230" unicode="•" d="M114 348q35 0 60.5 -25t25.5 -60t-25.5 -60t-60.5 -25q-34 0 -59 25t-25 60t25 60t59 25z"/>
<glyph glyph-name="ellipsis" horiz-adv-x="850" unicode="…" d="M70 54q0 21 16.5 37t40.5 16q21 0 37 -16t16 -37q0 -24 -15 -40.5t-38 -16.5q-24 0 -40.5 16.5t-16.5 40.5zM370 54q0 21 16.5 37t40.5 16q21 0 37 -16t16 -37q0 -24 -15 -40.5t-38 -16.5q-24 0 -40.5 16.5t-16.5 40.5zM670 54q0 21 16.5 37t40.5 16q21 0 37 -16t16 -37 q0 -24 -15 -40.5t-38 -16.5q-24 0 -40.5 16.5t-16.5 40.5z"/>
<glyph glyph-name="perthousand" horiz-adv-x="1300" unicode="‰" d="M541 164q0 -46 31.5 -75.5t76.5 -29.5q46 0 77 29.5t31 75.5q0 45 -31 74.5t-77 29.5t-77 -29.5t-31 -74.5zM518 41q-52 48 -52 123q0 76 51 122q53 47 132 47t131 -47q52 -46 52 -122q0 -75 -52 -123q-53 -47 -131 -47t-131 47zM120 537q0 -46 31.5 -75.5t76.5 -29.5 q46 0 77 29.5t31 75.5q0 45 -31 74.5t-77 29.5t-77 -29.5t-31 -74.5zM97 414q-52 48 -52 123t51 122q53 47 132 47t131 -47q52 -46 52 -122q0 -75 -52 -123q-53 -47 -131 -47t-131 47zM206 -10l-47 33l514 687l46 -34zM964 164q0 -46 31.5 -75.5t76.5 -29.5q46 0 77 29.5 t31 75.5q0 45 -31 74.5t-77 29.5t-77 -29.5t-31 -74.5zM941 41q-52 48 -52 123q0 76 51 122q53 47 132 47t131 -47q52 -46 52 -122q0 -75 -52 -123q-53 -47 -131 -47t-131 47z"/>
<glyph glyph-name="guilsinglleft" horiz-adv-x="340" unicode="‹" d="M284 77l-54 -47l-185 218v4l188 216l52 -46l-148 -172z"/>
<glyph glyph-name="guilsinglright" horiz-adv-x="340" unicode="›" d="M295 252v-4l-185 -218l-54 47l147 173l-148 172l52 46z"/>
<glyph glyph-name="fraction" horiz-adv-x="200" unicode="⁄" d="M-133 -10l-47 33l514 687l46 -34z"/>
<glyph glyph-name="uni2070" horiz-adv-x="384" unicode="⁰" d="M115 525q0 -119 78 -119q76 0 76 119t-77 119t-77 -119zM40 525q0 80 40.5 129.5t111.5 49.5q72 0 112 -51q40 -50 40 -128q0 -80 -40 -129.5t-111 -49.5q-72 0 -112.5 49t-40.5 130z"/>
<glyph glyph-name="uni2074" horiz-adv-x="353" unicode="⁴" d="M274 350h-65v79h-194v46l168 225h67l-163 -216h122v91h65v-91h59v-55h-59v-79z"/>
<glyph glyph-name="uni2075" horiz-adv-x="337" unicode="⁵" d="M65 512l22 188h208v-55h-159l-13 -82q21 7 49 7q58 0 93 -28.5t35 -77.5q0 -55 -39 -87.5t-102 -32.5q-100 0 -137 58l37 38q30 -41 88 -41q36 0 57.5 17t21.5 45q0 27 -25 43t-67 16q-45 0 -69 -8z"/>
<glyph glyph-name="uni2076" horiz-adv-x="380" unicode="⁶" d="M112 471q1 -31 24.5 -51.5t63.5 -20.5q30 0 50 17.5t20 41.5q0 27 -19.5 43t-54.5 16q-55 0 -84 -46zM37 480q0 91 70 155t169 70l14 -48q-67 -8 -114.5 -44t-62.5 -91q36 45 104 45q58 0 93 -29.5t35 -77.5q0 -50 -42 -83t-103 -33q-77 0 -120 37.5t-43 98.5z"/>
<glyph glyph-name="uni2077" horiz-adv-x="313" unicode="⁷" d="M214 640h-197v60h278v-42l-157 -308h-76z"/>
<glyph glyph-name="uni2078" horiz-adv-x="393" unicode="⁸" d="M45 441q0 33 20 56t55 32v2q-28 9 -45 31t-17 52q0 41 38.5 66t99.5 25t100 -25t39 -66q0 -60 -66 -83v-1q36 -6 57.5 -28.5t21.5 -55.5q0 -47 -41.5 -74.5t-109.5 -27.5q-67 0 -109.5 26.5t-42.5 70.5zM203 505h-11q-32 0 -54.5 -15t-22.5 -37q0 -24 22 -39t59 -15 q36 0 59 15t23 39t-21 38t-54 14zM190 555h14q25 0 43 13.5t18 33.5q0 22 -19.5 35t-49.5 13t-49 -13.5t-19 -34.5q0 -20 18.5 -33.5t43.5 -13.5z"/>
<glyph glyph-name="uni2079" horiz-adv-x="380" unicode="⁹" d="M268 574q-2 34 -25 55t-63 21q-30 0 -50 -17t-20 -41q0 -28 20 -46.5t54 -18.5q58 0 84 47zM343 561q0 -95 -68 -154q-67 -58 -176 -63l-10 50q75 7 125 44q50 38 53 89q-35 -50 -104 -50q-57 0 -92.5 31t-35.5 79q0 52 41 85q42 33 104 33q78 0 120.5 -38.5t42.5 -105.5 z"/>
<glyph glyph-name="uni207A" horiz-adv-x="360" unicode="⁺" d="M151 502h-106v55h106v105h55v-105h109v-55h-109v-105h-55v105z"/>
<glyph glyph-name="uni207B" horiz-adv-x="360" unicode="⁻" d="M315 502h-270v55h270v-55z"/>
<glyph glyph-name="uni207C" horiz-adv-x="360" unicode="⁼" d="M315 572h-270v55h270v-55zM315 432h-270v55h270v-55z"/>
<glyph glyph-name="uni207D" horiz-adv-x="212" unicode="⁽" d="M202 348l-41 -41q-65 35 -98 92.5t-33 123.5q0 131 132 215l37 -40q-99 -68 -99 -175q0 -110 102 -175z"/>
<glyph glyph-name="uni207E" horiz-adv-x="212" unicode="⁾" d="M10 697l41 41q65 -35 98 -92.5t33 -123.5q0 -132 -132 -215l-37 40q99 66 99 175t-102 175z"/>
<glyph glyph-name="uni2080" horiz-adv-x="384" unicode="₀" d="M115 175q0 -119 78 -119q76 0 76 119t-77 119t-77 -119zM40 175q0 80 40.5 129.5t111.5 49.5q72 0 112 -51q40 -50 40 -128q0 -80 -40 -129.5t-111 -49.5q-72 0 -112.5 49t-40.5 130z"/>
<glyph glyph-name="uni2081" horiz-adv-x="252" unicode="₁" d="M49 232l-27 48l105 71h50v-351h-70v269z"/>
<glyph glyph-name="uni2082" horiz-adv-x="349" unicode="₂" d="M319 0h-284v51l25 16l29 19q12 10 27 20q22 16 29 21q1 1 21.5 19t27.5 25q33 40 33 68q0 25 -16 40t-45 15q-25 0 -45 -16.5t-24 -41.5l-59 21q7 44 44 70.5t91 26.5q61 0 94.5 -29.5t33.5 -77.5q0 -66 -72 -121q-52 -42 -102 -66h192v-60z"/>
<glyph glyph-name="uni2083" horiz-adv-x="350" unicode="₃" d="M169 -6q-107 0 -144 70l41 38q12 -23 38 -36.5t54 -13.5q35 0 56 14.5t21 38.5q0 21 -19 34t-52 13h-34v50h30q26 0 44 14.5t18 36.5q0 21 -17 33t-46 12q-57 0 -89 -45l-34 38q36 64 137 64q57 0 90.5 -23.5t33.5 -64.5q0 -65 -74 -84v-1q40 -3 63.5 -26.5t23.5 -56.5 q0 -47 -40 -76t-101 -29z"/>
<glyph glyph-name="uni2084" horiz-adv-x="353" unicode="₄" d="M274 0h-65v79h-194v46l168 225h67l-163 -216h122v91h65v-91h59v-55h-59v-79z"/>
<glyph glyph-name="uni2085" horiz-adv-x="337" unicode="₅" d="M65 162l22 188h208v-55h-159l-13 -82q21 7 49 7q58 0 93 -28.5t35 -77.5q0 -55 -39 -87.5t-102 -32.5q-100 0 -137 58l37 38q30 -41 88 -41q36 0 57.5 17t21.5 45q0 27 -25 43t-67 16q-45 0 -69 -8z"/>
<glyph glyph-name="uni2086" horiz-adv-x="380" unicode="₆" d="M112 121q1 -31 24.5 -51.5t63.5 -20.5q30 0 50 17.5t20 41.5q0 27 -19.5 43t-54.5 16q-55 0 -84 -46zM37 130q0 91 70 155t169 70l14 -48q-67 -8 -114.5 -44t-62.5 -91q36 45 104 45q58 0 93 -29.5t35 -77.5q0 -50 -42 -83t-103 -33q-77 0 -120 37.5t-43 98.5z"/>
<glyph glyph-name="uni2087" horiz-adv-x="313" unicode="₇" d="M214 290h-197v60h278v-42l-157 -308h-76z"/>
<glyph glyph-name="uni2088" horiz-adv-x="393" unicode="₈" d="M45 91q0 33 20 56t55 32v2q-28 9 -45 31t-17 52q0 41 38.5 66t99.5 25t100 -25t39 -66q0 -60 -66 -83v-1q36 -6 57.5 -28.5t21.5 -55.5q0 -47 -41.5 -74.5t-109.5 -27.5q-67 0 -109.5 26.5t-42.5 70.5zM203 155h-11q-32 0 -54.5 -15t-22.5 -37q0 -24 22 -39t59 -15 q36 0 59 15t23 39t-21 38t-54 14zM190 205h14q25 0 43 13.5t18 33.5q0 22 -19.5 35t-49.5 13t-49 -13.5t-19 -34.5q0 -20 18.5 -33.5t43.5 -13.5z"/>
<glyph glyph-name="uni2089" horiz-adv-x="380" unicode="₉" d="M268 224q-2 34 -25 55t-63 21q-30 0 -50 -17t-20 -41q0 -28 20 -46.5t54 -18.5q58 0 84 47zM343 211q0 -95 -68 -154q-67 -58 -176 -63l-10 50q75 7 125 44q50 38 53 89q-35 -50 -104 -50q-57 0 -92.5 31t-35.5 79q0 52 41 85q42 33 104 33q78 0 120.5 -38.5t42.5 -105.5 z"/>
<glyph glyph-name="uni208A" horiz-adv-x="360" unicode="₊" d="M151 152h-106v55h106v105h55v-105h109v-55h-109v-105h-55v105z"/>
<glyph glyph-name="uni208B" horiz-adv-x="360" unicode="₋" d="M315 152h-270v55h270v-55z"/>
<glyph glyph-name="uni208C" horiz-adv-x="360" unicode="₌" d="M315 222h-270v55h270v-55zM315 82h-270v55h270v-55z"/>
<glyph glyph-name="uni208D" horiz-adv-x="212" unicode="₍" d="M202 -2l-41 -41q-65 35 -98 92.5t-33 123.5q0 131 132 215l37 -40q-99 -68 -99 -175q0 -111 102 -175z"/>
<glyph glyph-name="uni208E" horiz-adv-x="212" unicode="₎" d="M10 347l41 41q65 -35 98 -92.5t33 -123.5q0 -133 -132 -215l-37 40q99 66 99 175t-102 175z"/>
<glyph glyph-name="Euro" d="M104 410h-86l26 65h74q32 107 117 171t207 64q80 0 135 -29l-31 -73q-45 22 -104 22q-79 0 -140 -41t-90 -114h299l-24 -65h-292q-5 -35 -5 -60q0 -24 3 -45h266l-21 -65h-230q29 -79 95 -124.5t153 -45.5q62 0 96 18l14 -77q-40 -21 -117 -21q-126 0 -215 67t-121 183 h-94l25 65h58q-2 38 -2 45q0 36 4 60z" unicode="€"/>
<glyph glyph-name="uni20B4" horiz-adv-x="600" unicode="₴" d="M326 412h-253v65h305q16 20 16 69q0 37 -23.5 60.5t-69.5 23.5q-80 0 -133 -52l-41 60q61 72 177 72q80 0 129 -42.5t49 -109.5q0 -49 -26 -81h71v-65h-112q-23 -23 -71 -56q-44 -29 -66 -49h249v-65h-308q-29 -32 -29 -75q0 -44 35.5 -70.5t89.5 -26.5q90 0 145 69 l43 -54q-65 -95 -200 -95q-77 0 -136 44q-57 44 -57 120q0 47 30 88h-67v65h114q22 22 70 54q49 33 69 51z"/>
<glyph glyph-name="uni20B6" horiz-adv-x="600" unicode="₶" d="M316 622q-18 0 -106 -2v-247h102q165 0 165 124q0 125 -161 125zM125 308h-106v65h106v327q42 0 89 1t94 1q259 0 259 -199q0 -90 -65.5 -142.5t-186.5 -52.5h-105v-105h173v-65h-173v-138h-85v138h-106v65h106v105z"/>
<glyph glyph-name="uni20B6" horiz-adv-x="600" unicode="⃏" d="M316 622q-18 0 -106 -2v-247h102q165 0 165 124q0 125 -161 125zM125 308h-106v65h106v327q42 0 89 1t94 1q259 0 259 -199q0 -90 -65.5 -142.5t-186.5 -52.5h-105v-105h173v-65h-173v-138h-85v138h-106v65h106v105z"/>
<glyph glyph-name="uni20B6" horiz-adv-x="600" unicode="⃎" d="M316 622q-18 0 -106 -2v-247h102q165 0 165 124q0 125 -161 125zM125 308h-106v65h106v327q42 0 89 1t94 1q259 0 259 -199q0 -90 -65.5 -142.5t-186.5 -52.5h-105v-105h173v-65h-173v-138h-85v138h-106v65h106v105z"/>
<glyph glyph-name="uni20B6" horiz-adv-x="600" unicode="⃍" d="M316 622q-18 0 -106 -2v-247h102q165 0 165 124q0 125 -161 125zM125 308h-106v65h106v327q42 0 89 1t94 1q259 0 259 -199q0 -90 -65.5 -142.5t-186.5 -52.5h-105v-105h173v-65h-173v-138h-85v138h-106v65h106v105z"/>
<glyph glyph-name="uni20B6" horiz-adv-x="600" unicode="⃌" d="M316 622q-18 0 -106 -2v-247h102q165 0 165 124q0 125 -161 125zM125 308h-106v65h106v327q42 0 89 1t94 1q259 0 259 -199q0 -90 -65.5 -142.5t-186.5 -52.5h-105v-105h173v-65h-173v-138h-85v138h-106v65h106v105z"/>
<glyph glyph-name="uni20B6" horiz-adv-x="600" unicode="⃋" d="M316 622q-18 0 -106 -2v-247h102q165 0 165 124q0 125 -161 125zM125 308h-106v65h106v327q42 0 89 1t94 1q259 0 259 -199q0 -90 -65.5 -142.5t-186.5 -52.5h-105v-105h173v-65h-173v-138h-85v138h-106v65h106v105z"/>
<glyph glyph-name="uni20B6" horiz-adv-x="600" unicode="⃊" d="M316 622q-18 0 -106 -2v-247h102q165 0 165 124q0 125 -161 125zM125 308h-106v65h106v327q42 0 89 1t94 1q259 0 259 -199q0 -90 -65.5 -142.5t-186.5 -52.5h-105v-105h173v-65h-173v-138h-85v138h-106v65h106v105z"/>
<glyph glyph-name="uni20B6" horiz-adv-x="600" unicode="⃉" d="M316 622q-18 0 -106 -2v-247h102q165 0 165 124q0 125 -161 125zM125 308h-106v65h106v327q42 0 89 1t94 1q259 0 259 -199q0 -90 -65.5 -142.5t-186.5 -52.5h-105v-105h173v-65h-173v-138h-85v138h-106v65h106v105z"/>
<glyph glyph-name="uni20B6" horiz-adv-x="600" unicode="⃈" d="M316 622q-18 0 -106 -2v-247h102q165 0 165 124q0 125 -161 125zM125 308h-106v65h106v327q42 0 89 1t94 1q259 0 259 -199q0 -90 -65.5 -142.5t-186.5 -52.5h-105v-105h173v-65h-173v-138h-85v138h-106v65h106v105z"/>
<glyph glyph-name="uni20B6" horiz-adv-x="600" unicode="⃇" d="M316 622q-18 0 -106 -2v-247h102q165 0 165 124q0 125 -161 125zM125 308h-106v65h106v327q42 0 89 1t94 1q259 0 259 -199q0 -90 -65.5 -142.5t-186.5 -52.5h-105v-105h173v-65h-173v-138h-85v138h-106v65h106v105z"/>
<glyph glyph-name="uni20B6" horiz-adv-x="600" unicode="⃆" d="M316 622q-18 0 -106 -2v-247h102q165 0 165 124q0 125 -161 125zM125 308h-106v65h106v327q42 0 89 1t94 1q259 0 259 -199q0 -90 -65.5 -142.5t-186.5 -52.5h-105v-105h173v-65h-173v-138h-85v138h-106v65h106v105z"/>
<glyph glyph-name="uni20B6" horiz-adv-x="600" unicode="⃅" d="M316 622q-18 0 -106 -2v-247h102q165 0 165 124q0 125 -161 125zM125 308h-106v65h106v327q42 0 89 1t94 1q259 0 259 -199q0 -90 -65.5 -142.5t-186.5 -52.5h-105v-105h173v-65h-173v-138h-85v138h-106v65h106v105z"/>
<glyph glyph-name="uni20B6" horiz-adv-x="600" unicode="⃄" d="M316 622q-18 0 -106 -2v-247h102q165 0 165 124q0 125 -161 125zM125 308h-106v65h106v327q42 0 89 1t94 1q259 0 259 -199q0 -90 -65.5 -142.5t-186.5 -52.5h-105v-105h173v-65h-173v-138h-85v138h-106v65h106v105z"/>
<glyph glyph-name="uni20B6" horiz-adv-x="600" unicode="⃃" d="M316 622q-18 0 -106 -2v-247h102q165 0 165 124q0 125 -161 125zM125 308h-106v65h106v327q42 0 89 1t94 1q259 0 259 -199q0 -90 -65.5 -142.5t-186.5 -52.5h-105v-105h173v-65h-173v-138h-85v138h-106v65h106v105z"/>
<glyph glyph-name="uni20B6" horiz-adv-x="600" unicode="⃂" d="M316 622q-18 0 -106 -2v-247h102q165 0 165 124q0 125 -161 125zM125 308h-106v65h106v327q42 0 89 1t94 1q259 0 259 -199q0 -90 -65.5 -142.5t-186.5 -52.5h-105v-105h173v-65h-173v-138h-85v138h-106v65h106v105z"/>
<glyph glyph-name="uni20B6" horiz-adv-x="600" unicode="⃁" d="M316 622q-18 0 -106 -2v-247h102q165 0 165 124q0 125 -161 125zM125 308h-106v65h106v327q42 0 89 1t94 1q259 0 259 -199q0 -90 -65.5 -142.5t-186.5 -52.5h-105v-105h173v-65h-173v-138h-85v138h-106v65h106v105z"/>
<glyph glyph-name="uni20B6" horiz-adv-x="600" unicode="⃀" d="M316 622q-18 0 -106 -2v-247h102q165 0 165 124q0 125 -161 125zM125 308h-106v65h106v327q42 0 89 1t94 1q259 0 259 -199q0 -90 -65.5 -142.5t-186.5 -52.5h-105v-105h173v-65h-173v-138h-85v138h-106v65h106v105z"/>
<glyph glyph-name="uni20B6" horiz-adv-x="600" unicode="₿" d="M316 622q-18 0 -106 -2v-247h102q165 0 165 124q0 125 -161 125zM125 308h-106v65h106v327q42 0 89 1t94 1q259 0 259 -199q0 -90 -65.5 -142.5t-186.5 -52.5h-105v-105h173v-65h-173v-138h-85v138h-106v65h106v105z"/>
<glyph glyph-name="uni20B6" horiz-adv-x="600" unicode="₾" d="M316 622q-18 0 -106 -2v-247h102q165 0 165 124q0 125 -161 125zM125 308h-106v65h106v327q42 0 89 1t94 1q259 0 259 -199q0 -90 -65.5 -142.5t-186.5 -52.5h-105v-105h173v-65h-173v-138h-85v138h-106v65h106v105z"/>
<glyph glyph-name="uni20B6" horiz-adv-x="600" unicode="₽" d="M316 622q-18 0 -106 -2v-247h102q165 0 165 124q0 125 -161 125zM125 308h-106v65h106v327q42 0 89 1t94 1q259 0 259 -199q0 -90 -65.5 -142.5t-186.5 -52.5h-105v-105h173v-65h-173v-138h-85v138h-106v65h106v105z"/>
<glyph glyph-name="uni20B6" horiz-adv-x="600" unicode="₼" d="M316 622q-18 0 -106 -2v-247h102q165 0 165 124q0 125 -161 125zM125 308h-106v65h106v327q42 0 89 1t94 1q259 0 259 -199q0 -90 -65.5 -142.5t-186.5 -52.5h-105v-105h173v-65h-173v-138h-85v138h-106v65h106v105z"/>
<glyph glyph-name="uni20B6" horiz-adv-x="600" unicode="₻" d="M316 622q-18 0 -106 -2v-247h102q165 0 165 124q0 125 -161 125zM125 308h-106v65h106v327q42 0 89 1t94 1q259 0 259 -199q0 -90 -65.5 -142.5t-186.5 -52.5h-105v-105h173v-65h-173v-138h-85v138h-106v65h106v105z"/>
<glyph glyph-name="uni20B6" horiz-adv-x="600" unicode="₺" d="M316 622q-18 0 -106 -2v-247h102q165 0 165 124q0 125 -161 125zM125 308h-106v65h106v327q42 0 89 1t94 1q259 0 259 -199q0 -90 -65.5 -142.5t-186.5 -52.5h-105v-105h173v-65h-173v-138h-85v138h-106v65h106v105z"/>
<glyph glyph-name="uni20B6" horiz-adv-x="600" unicode="₹" d="M316 622q-18 0 -106 -2v-247h102q165 0 165 124q0 125 -161 125zM125 308h-106v65h106v327q42 0 89 1t94 1q259 0 259 -199q0 -90 -65.5 -142.5t-186.5 -52.5h-105v-105h173v-65h-173v-138h-85v138h-106v65h106v105z"/>
<glyph glyph-name="uni20B6" horiz-adv-x="600" unicode="₷" d="M316 622q-18 0 -106 -2v-247h102q165 0 165 124q0 125 -161 125zM125 308h-106v65h106v327q42 0 89 1t94 1q259 0 259 -199q0 -90 -65.5 -142.5t-186.5 -52.5h-105v-105h173v-65h-173v-138h-85v138h-106v65h106v105z"/>
<glyph glyph-name="afii61352" horiz-adv-x="1176" unicode="№" d="M1071 185h-296v75h296v-75zM815 489q0 -46 31.5 -75.5t76.5 -29.5q46 0 77 29.5t31 75.5q0 45 -31 74.5t-77 29.5t-77 -29.5t-31 -74.5zM792 366q-52 48 -52 123t51 122q53 47 132 47t131 -47q52 -46 52 -122q0 -75 -52 -123q-53 -47 -131 -47t-131 47zM670 700v-700h-68 l-417 550v-550h-80v700h68l417 -552v552h80z"/>
<glyph glyph-name="trademark" horiz-adv-x="847" unicode="™" d="M136 627h-121v73h318v-73h-122v-242h-75v242zM456 385h-76v315h69l133 -140l126 140h66v-315h-75v219l-119 -132h-2l-122 132v-219z"/>
<glyph glyph-name="arrowleft" horiz-adv-x="643" unicode="←" d="M40 273l283 282l56 -56l-186 -186h410v-80h-411l187 -187l-56 -56z"/>
<glyph glyph-name="arrowup" horiz-adv-x="645" unicode="↑" d="M282 409l-186 -186l-56 57l282 283l283 -283l-56 -57l-187 187v-410h-80v409z"/>
<glyph glyph-name="arrowright" horiz-adv-x="643" unicode="→" d="M449 313l-186 186l57 56l283 -282l-283 -283l-57 56l187 187h-410v80h409z"/>
<glyph glyph-name="arrowdown" horiz-adv-x="645" unicode="↓" d="M322 -20l-282 283l56 56l186 -186v410h80v-411l187 187l56 -56z"/>
<glyph glyph-name="partialdiff" horiz-adv-x="588" unicode="∂" d="M127 209q0 -60 39 -102t103 -42q77 0 126 67q50 68 59 159q-55 94 -160 94q-70 0 -119 -52q-48 -53 -48 -124zM42 202q0 106 70 182t178 76q61 0 106 -26t64 -65q0 117 -65.5 188.5t-194.5 80.5l12 72q158 -6 245.5 -96.5t87.5 -248.5q0 -157 -76 -266 q-75 -109 -209 -109q-96 0 -158 60q-60 62 -60 152z"/>
<glyph glyph-name="product" horiz-adv-x="880" unicode="∏" d="M775 -200h-85v820h-500v-820h-85v900h670v-900z"/>
<glyph glyph-name="summation" horiz-adv-x="635" unicode="∑" d="M40 -143l300 393l-300 393v57h555v-80h-435l278 -370l-283 -370h440v-80h-555v57z"/>
<glyph glyph-name="minus" d="M523 325h-454v70h454v-70z" unicode="−"/>
<glyph glyph-name="uni2215" horiz-adv-x="335" unicode="∕" d="M33 -208l-63 23l333 895l62 -23z"/>
<glyph glyph-name="radical" horiz-adv-x="603" unicode="√" d="M111 370h-106v80h161l168 -315l131 565h278v-80h-208l-148 -624h-68z"/>
<glyph glyph-name="infinity" horiz-adv-x="746" unicode="∞" d="M215 253q35 0 61 20t56 64q-36 50 -61.5 72t-54.5 22q-41 0 -66 -25.5t-25 -64.5t26.5 -63.5t63.5 -24.5zM532 431q-33 0 -60 -21t-60 -67q35 -47 64 -68.5t63 -21.5q37 0 59.5 25.5t22.5 60.5q0 40 -24 66t-65 26zM547 183q-94 0 -175 102q-39 -52 -77 -77t-88 -25 q-62 0 -109 43q-48 44 -48 115q0 65 44 112q45 48 116 48q46 0 83.5 -25.5t78.5 -78.5q39 53 78.5 78.5t95.5 25.5q68 0 109 -45.5t41 -118.5q0 -61 -41 -108q-40 -46 -108 -46z"/>
<glyph glyph-name="integral" horiz-adv-x="330" unicode="∫" d="M162 514v-531q0 -90 -27.5 -136.5t-91.5 -52.5q-2 0 -8.5 -0.5t-10.5 -0.5t-13.5 0.5t-14.5 0.5q-46 4 -75 27l22 64q28 -18 59 -18q44 0 62 29.5t18 91.5v535q0 84 35 131t100 53q8 1 24 1q17 0 25 -1q58 -4 94 -37l-28 -61q-28 22 -64 24h-10q-28 0 -44 -8 q-52 -22 -52 -111z"/>
<glyph glyph-name="approxequal" d="M86 397l-36 51q68 72 136 72q42 0 118 -36q78 -35 114 -35q46 0 91 45l32 -55q-63 -60 -124 -60q-40 0 -116 35q-75 36 -111 36q-48 0 -104 -53zM86 217l-36 51q68 72 136 72q42 0 118 -36q78 -35 114 -35q46 0 91 45l32 -55q-63 -60 -124 -60q-40 0 -116 35 q-75 36 -111 36q-48 0 -104 -53z" unicode="≈"/>
<glyph glyph-name="notequal" d="M278 415h-209v70h235l84 225l62 -23l-75 -202h148v-70h-174l-41 -110h215v-70h-241l-91 -245l-63 23l83 222h-142v70h168z" unicode="≠"/>
<glyph glyph-name="lessequal" d="M497 256v-87l-440 266v34l440 264v-87l-329 -194zM497 -11l-440 266v74l440 -263v-77z" unicode="≤"/>
<glyph glyph-name="greaterequal" d="M534 469v-34l-439 -266v87l329 196l-329 194v87zM95 66l439 263v-74l-439 -266v77z" unicode="≥"/>
<glyph glyph-name="lozenge" horiz-adv-x="478" unicode="◊" d="M239 437l-118 -187l118 -179l118 189zM270 -4h-63l-167 253l168 267h63l167 -256z"/>
<glyph glyph-name="spade" horiz-adv-x="632" unicode="♠" d="M316 510q88 -55 172 -151t84 -160q0 -44 -31 -74t-86 -30q-78 0 -131 72q29 -120 107 -167h-230q74 53 105 164q-51 -69 -129 -69q-55 0 -86 30t-31 75q0 63 84 159t172 151z"/>
<glyph glyph-name="club" horiz-adv-x="612" unicode="♣" d="M177 381q0 53 38 91t91 38t91 -38t38 -91q0 -3 -2 -19q51 -5 84 -41q35 -38 35 -87q0 -53 -38 -91t-91 -38q-66 0 -104 53q31 -114 102 -158h-230q62 43 100 156q-41 -51 -102 -51q-53 0 -91 38t-38 91q0 50 34 87q33 36 84 41q-1 4 -1 19z"/>
<glyph glyph-name="heart" horiz-adv-x="649" unicode="♥" d="M325 0q-95 72 -179 181q-86 113 -86 189q0 56 31.5 93t89.5 37q88 0 144 -104q54 104 143 104q57 0 89 -36.5t32 -92.5q0 -76 -86 -189q-87 -113 -178 -182z"/>
<glyph glyph-name="diamond" horiz-adv-x="583" unicode="♦" d="M523 249q-109 -109 -232 -268q-102 134 -231 268q106 110 231 269q124 -158 232 -269z"/>
<glyph glyph-name="uniF350" horiz-adv-x="590" unicode="" d="M387 220l-94 206l-95 -206h189zM98 0h-86l246 528h74l246 -528h-91l-64 140h-261z"/>
<glyph glyph-name="uniF351" horiz-adv-x="521" unicode="" d="M252 245q-50 0 -83 -4v-162q75 -3 83 -3q128 0 128 87q0 82 -128 82zM84 0v525h347v-80h-262v-125q29 4 92 4q98 0 151 -40.5t53 -116.5q0 -171 -222 -171q-17 0 -91 2q-15 0 -31 0.5t-24.5 1t-12.5 0.5z"/>
<glyph glyph-name="uniF352" horiz-adv-x="524" unicode="" d="M260 448q-34 0 -91 -3v-142h96q43 0 71 20t28 53q0 72 -104 72zM267 228h-98v-147q28 -4 93 -4q121 0 121 79q0 72 -116 72zM84 1v523q113 4 177 4q95 0 141.5 -34.5t46.5 -95.5q0 -45 -26 -78t-71 -45v-1q116 -17 116 -121q0 -76 -57 -116t-155 -40q-112 0 -172 4z"/>
<glyph glyph-name="uniF353" horiz-adv-x="427" unicode="" d="M169 0h-85v525h333v-80h-248v-445z"/>
<glyph glyph-name="uniF354" horiz-adv-x="621" unicode="" d="M253 445l-8 -83q-8 -103 -31 -179.5t-47 -102.5h268v365h-182zM91 -95h-80v175h63q27 30 55 118q29 88 36 222l6 105h349v-445h78v-175h-80v95h-427v-95z"/>
<glyph glyph-name="uniF355" horiz-adv-x="488" unicode="" d="M432 0h-348v525h340v-80h-255v-140h230v-80h-230v-145h263v-80z"/>
<glyph glyph-name="uniF356" horiz-adv-x="784" unicode="" d="M15 0l232 274l-223 251h104l215 -251l-224 -274h-104zM435 0h-85v525h85v-525zM656 525h104l-223 -249l231 -276h-103l-223 274z"/>
<glyph glyph-name="uniF357" horiz-adv-x="495" unicode="" d="M234 -9q-66 0 -121.5 25t-81.5 62l47 57q61 -64 156 -64q57 0 88.5 22t31.5 61q0 73 -108 73h-78v80h74q36 0 62.5 21.5t26.5 51.5q0 35 -25 53.5t-69 18.5q-89 0 -140 -57l-49 57q65 80 191 80q80 0 128.5 -38.5t48.5 -104.5q0 -39 -20 -70.5t-55 -45.5v-3q46 -8 72 -42 t26 -82q0 -71 -56 -113t-149 -42z"/>
<glyph glyph-name="uniF358" horiz-adv-x="656" unicode="" d="M487 390l-328 -390h-75v525h85v-390l328 390h75v-525h-85v390z"/>
<glyph glyph-name="uniF359" horiz-adv-x="656" unicode="" d="M175 680h75q0 -65 77 -65q73 0 73 65h75q0 -59 -39.5 -92t-108.5 -33q-74 0 -113 32.5t-39 92.5zM487 390l-328 -390h-75v525h85v-390l328 390h75v-525h-85v390z"/>
<glyph glyph-name="uniF35A" horiz-adv-x="554" unicode="" d="M169 0h-85v525h85v-525zM415 525h111l-246 -245l259 -280h-116l-247 274z"/>
<glyph glyph-name="uniF35B" horiz-adv-x="601" unicode="" d="M517 0h-85v445h-192l-10 -99q-22 -227 -80 -296q-41 -52 -100 -52q-20 0 -31 2l2 82q4 -1 12 -1q22 0 46 25q17 20 30 54q33 90 45 260l8 105h355v-525z"/>
<glyph glyph-name="uniF35C" horiz-adv-x="740" unicode="" d="M169 0h-85v525h86l207 -251l198 251h81v-525h-85v396l-194 -240h-12l-196 237v-393z"/>
<glyph glyph-name="uniF35D" horiz-adv-x="640" unicode="" d="M556 0h-85v228h-302v-228h-85v525h85v-217h302v217h85v-525z"/>
<glyph glyph-name="uniF35E" horiz-adv-x="655" unicode="" d="M130 262q0 -80 57 -136q56 -55 141 -55q91 0 143 54q54 54 54 137q0 84 -57 136q-56 54 -140 54q-85 0 -142 -54q-56 -53 -56 -136zM40 262q0 116 81 192q81 78 207 78q124 0 205 -75q82 -75 82 -195q0 -119 -82 -195q-80 -76 -205 -76q-124 0 -207 75q-81 75 -81 196z "/>
<glyph glyph-name="uniF35F" horiz-adv-x="639" unicode="" d="M555 0h-85v445h-301v-445h-85v525h471v-525z"/>
<glyph glyph-name="uniF360" horiz-adv-x="499" unicode="" d="M249 447q-22 0 -80 -2v-186q47 -4 78 -4q57 0 89.5 26t32.5 71q0 95 -120 95zM169 178v-178h-85v525q35 0 76 1t81 1q112 0 165 -46.5t53 -128.5q0 -79 -55.5 -128t-153.5 -49q-40 0 -81 3z"/>
<glyph glyph-name="uniF361" horiz-adv-x="542" unicode="" d="M481 114l33 -64q-28 -27 -78 -43t-105 -16q-131 0 -211 74t-80 197q0 116 76 192q76 78 211 78q109 0 176 -52l-39 -64q-62 36 -137 36q-88 0 -143 -52q-54 -52 -54 -138t57 -139q56 -52 152 -52q83 0 142 43z"/>
<glyph glyph-name="uniF362" horiz-adv-x="492" unicode="" d="M203 445h-195v80h476v-80h-196v-445h-85v445z"/>
<glyph glyph-name="uniF363" horiz-adv-x="546" unicode="" d="M449 525h87l-197 -401q-31 -64 -67.5 -94t-84.5 -30q-41 0 -69 20l30 72q22 -13 43 -13q35 0 61 48l10 18l-251 380h106l189 -296z"/>
<glyph glyph-name="uniF364" horiz-adv-x="690" unicode="" d="M121 270q0 -63 48.5 -101t131.5 -38v277q-83 -1 -131.5 -39.5t-48.5 -98.5zM569 270q0 61 -49 99t-134 39v-277q86 0 134.5 37.5t48.5 101.5zM386 -6h-85v60q-124 0 -197 57.5t-73 158.5q0 100 73 157q74 58 197 59v45h85v-45q127 -1 200 -57.5t73 -158.5 q0 -100 -75 -159q-74 -57 -197 -57h-1v-60z"/>
<glyph glyph-name="uniF365" horiz-adv-x="550" unicode="" d="M424 525h105l-199 -258l207 -267h-105l-158 202l-156 -202h-106l207 267l-198 258h106l149 -194z"/>
<glyph glyph-name="uniF366" horiz-adv-x="648" unicode="" d="M545 0h-461v525h85v-445h292v445h85v-445h79v-175h-80v95z"/>
<glyph glyph-name="uniF367" horiz-adv-x="548" unicode="" d="M379 525h85v-525h-85v219q-55 -37 -146 -37q-75 0 -127 40t-52 127v176h85v-146q0 -117 112 -117q72 0 128 35v228z"/>
<glyph glyph-name="uniF368" horiz-adv-x="822" unicode="" d="M738 0h-654v525h85v-445h199v445h85v-445h200v445h85v-525z"/>
<glyph glyph-name="uniF369" horiz-adv-x="840" unicode="" d="M737 0h-653v525h85v-445h199v445h85v-445h200v445h85v-445h79v-175h-80v95z"/>
<glyph glyph-name="uniF36A" horiz-adv-x="553" unicode="" d="M290 265q-29 0 -68 -3v-182q56 -2 71 -2q131 0 131 97q0 90 -134 90zM137 445h-132v80h217v-183q43 3 74 3q109 0 163.5 -43.5t54.5 -124.5q0 -84 -62 -131.5t-174 -47.5q-45 0 -78 1q-32 1 -63 1v445z"/>
<glyph glyph-name="uniF36B" horiz-adv-x="706" unicode="" d="M84 525h85v-183q42 3 71 3q104 0 158 -44t54 -124q0 -83 -61.5 -131t-169.5 -48q-44 0 -75 1t-62 1v525zM233 265q-25 0 -64 -3v-182q54 -2 62 -2q131 0 131 97q0 90 -129 90zM622 0h-85v525h85v-525z"/>
<glyph glyph-name="uniF36C" horiz-adv-x="500" unicode="" d="M84 525h85v-183q42 3 74 3q107 0 162.5 -44t55.5 -124q0 -84 -62.5 -131.5t-174.5 -47.5q-44 0 -77 1q-32 1 -63 1v525zM236 265q-28 0 -67 -3v-182q54 -2 65 -2q137 0 137 97q0 90 -135 90z"/>
<glyph glyph-name="uniF36D" horiz-adv-x="557" unicode="" d="M430 228h-273v80h272q-14 70 -67 107.5t-138 37.5q-98 0 -157 -41l-34 64q75 57 195 57q129 0 209 -74q81 -74 81 -196q0 -124 -82 -197q-82 -74 -217 -74q-122 0 -193 55l37 71q65 -46 166 -46q84 0 137.5 41t63.5 115z"/>
<glyph glyph-name="uniF36E" horiz-adv-x="871" unicode="" d="M368 263q0 -84 52 -137q52 -54 134 -54q86 0 136 54q51 54 51 137q0 85 -52 137q-51 53 -135 53q-81 0 -134 -53q-52 -52 -52 -137zM169 0h-85v525h85v-217h112q13 99 87 162t184 63q126 0 203 -74q76 -73 76 -196q0 -119 -77 -196q-76 -75 -202 -75q-112 0 -186 64 q-75 65 -86 172h-111v-228z"/>
<glyph glyph-name="uniF36F" horiz-adv-x="534" unicode="" d="M245 260h120v185q-51 3 -83 3q-61 0 -94.5 -27t-33.5 -71q0 -34 26.5 -59t64.5 -31zM450 0h-85v180h-112l-134 -180h-101l149 197q-47 21 -75 59.5t-28 88.5q0 82 59 132.5t167 50.5q13 0 89 -2q38 -1 71 -1v-525z"/>
<glyph glyph-name="uniF371" horiz-adv-x="488" unicode="" d="M432 0h-348v525h340v-80h-255v-140h230v-80h-230v-145h263v-80zM297 654q0 18 13.5 30.5t32.5 12.5q18 0 31 -12.5t13 -30.5q0 -20 -12.5 -33t-31.5 -13t-32.5 13t-13.5 33zM119 654q0 19 14 31t34 12q18 0 30.5 -12.5t12.5 -30.5q0 -20 -12.5 -33t-30.5 -13 q-21 0 -34.5 12.5t-13.5 33.5z"/>
<glyph glyph-name="uniF372" horiz-adv-x="630" unicode="" d="M590 158q0 -83 -37.5 -124.5t-107.5 -41.5q-28 0 -55 9.5t-37 21.5l28 65q22 -16 53 -16q71 0 71 82q0 88 -103 88q-26 0 -50 -7q-29 -8 -33 -11q-9 -4 -31 -16v-208h-85v445h-195v80h476v-80h-196v-155q69 32 130 32q81 0 126.5 -41t45.5 -123z"/>
<glyph glyph-name="uniF373" horiz-adv-x="427" unicode="" d="M313 766l49 -61l-135 -125l-40 44zM169 0h-85v525h333v-80h-248v-445z"/>
<glyph glyph-name="uniF374" horiz-adv-x="558" unicode="" d="M128 306h273v-80h-274q12 -74 69 -114t145 -40q92 0 159 46l32 -71q-71 -55 -190 -55q-138 0 -220 73t-82 198q0 120 81 195t209 75q120 0 194 -57l-38 -64q-59 41 -153 41q-181 0 -205 -147z"/>
<glyph glyph-name="uniF375" horiz-adv-x="485" unicode="" d="M355 143q0 30 -31 50t-75.5 33.5t-89 30t-75.5 50t-31 82.5q0 65 51 104t148 39q47 0 102 -20q57 -20 81 -47l-39 -63q-27 21 -69.5 35.5t-78.5 14.5q-49 0 -77 -18t-28 -49q0 -48 106 -79q39 -10 68 -21t61 -30t49.5 -48.5t17.5 -67.5q0 -67 -56 -108q-55 -40 -141 -40 q-67 0 -126 22q-59 23 -88 61l49 58q27 -27 74.5 -44t95.5 -17q44 0 73 19.5t29 52.5z"/>
<glyph glyph-name="uniF376" horiz-adv-x="281" unicode="" d="M183 0h-85v525h85v-525z"/>
<glyph glyph-name="uniF377" horiz-adv-x="297" unicode="" d="M191 0h-85v525h85v-525zM177 653q0 18 13 30t31 12q16 0 28 -12t12 -30t-12 -31t-28 -13q-19 0 -31.5 12t-12.5 32zM38 653q0 18 12.5 30t30.5 12q16 0 28 -12t12 -30t-12 -31t-28 -13q-18 0 -30.5 12t-12.5 32z"/>
<glyph glyph-name="uniF378" horiz-adv-x="315" unicode="" d="M146 525h85v-402q0 -131 -132 -131q-62 0 -93 31l29 65q22 -16 52 -16q59 0 59 65v388z"/>
<glyph glyph-name="uniF379" horiz-adv-x="839" unicode="" d="M580 265q-26 0 -63 -3v-182q50 -2 61 -2q131 0 131 97q0 90 -129 90zM432 0v445h-190l-11 -99q-24 -226 -82 -296q-41 -52 -99 -52q-20 0 -31 2l2 85q5 -1 13 -1q22 0 45 24q17 20 30 53q32 86 45 259l8 105h355v-183q42 3 70 3q104 0 158 -44t54 -124q0 -84 -61 -131.5 t-170 -47.5q-44 0 -75 1t-61 1z"/>
<glyph glyph-name="uniF37A" horiz-adv-x="870" unicode="" d="M548 249v-169q54 -2 62 -2q131 0 131 91q0 40 -34 62t-95 22q-33 0 -64 -4zM169 0h-85v525h85v-200h294v200h85v-196q42 3 70 3q104 0 158.5 -42.5t54.5 -118.5q0 -80 -61.5 -126.5t-169.5 -46.5q-44 0 -76 1q-31 1 -61 1v245h-294v-245z"/>
<glyph glyph-name="uniF37B" horiz-adv-x="630" unicode="" d="M203 445h-195v80h476v-80h-196v-161q52 33 132 33q78 0 124 -42t46 -126v-149h-85v126q0 111 -104 111q-64 0 -113 -31v-206h-85v445z"/>
<glyph glyph-name="uniF37C" horiz-adv-x="554" unicode="" d="M343 766l49 -61l-135 -125l-40 44zM169 0h-85v525h85v-525zM415 525h111l-246 -245l259 -280h-116l-247 274z"/>
<glyph glyph-name="uniF37E" horiz-adv-x="546" unicode="" d="M128 680h75q0 -65 77 -65q73 0 73 65h75q0 -59 -39.5 -92t-108.5 -33q-74 0 -113 32.5t-39 92.5zM449 525h87l-197 -401q-31 -64 -67.5 -94t-84.5 -30q-41 0 -69 20l30 72q22 -13 43 -13q35 0 61 48l10 18l-251 380h106l189 -296z"/>
<glyph glyph-name="uniF37F" horiz-adv-x="631" unicode="" d="M275 0h-191v525h85v-445h293v445h85v-525h-192v-115h-80v115z"/>
<glyph glyph-name="uniF381" horiz-adv-x="515" unicode="" d="M251 250q-28 0 -67 -3v-172q54 -2 65 -2q137 0 137 92q0 85 -135 85zM99 387h-94v70h94v68h85v-68h130v-70h-130v-65q42 3 74 3q218 0 218 -158q0 -83 -61 -126t-176 -43q-44 0 -77 1q-32 1 -63 1v387z"/>
<glyph glyph-name="uniF389" horiz-adv-x="655" unicode="" d="M443 257q43 0 80 33q-11 73 -65 117q-54 45 -130 45q-71 0 -123 -38t-69 -101q44 30 89 30q48 0 115 -43t103 -43zM224 268q-49 0 -92 -39q12 -69 66 -114q56 -44 130 -44q73 0 124.5 38t66.5 101q-40 -28 -83 -28q-45 0 -112 43t-100 43zM40 262q0 116 81 192 q81 78 207 78q124 0 205 -75q82 -75 82 -195q0 -119 -82 -195q-80 -76 -205 -76q-124 0 -207 75q-81 75 -81 196z"/>
<glyph glyph-name="uniF38A" horiz-adv-x="541" unicode="" d="M455 369l-149 -371h-64l-241 527h96l180 -410l108 290q32 85 69 110q23 16 57 16q25 0 50 -7v-69q-12 3 -22 3q-49 0 -84 -89z"/>
<glyph glyph-name="uniF393" horiz-adv-x="432" unicode="" d="M169 0h-85v525h258v90h80v-170h-253v-445z"/>
<glyph glyph-name="uniF3CF" horiz-adv-x="976" unicode="" d="M890 116h-253v75h253v-75zM682 367q0 -30 23.5 -49t57.5 -19q36 0 59 19t23 49t-23 48.5t-59 18.5q-35 0 -58 -18.5t-23 -48.5zM763 499q69 0 113 -36.5t44 -95.5t-44 -96t-113 -37t-112.5 37t-43.5 96t43.5 95.5t112.5 36.5zM555 525v-525h-68l-323 386v-386h-80v525h68 l323 -387v387h80z"/>
<glyph glyph-name="uniF3D0" horiz-adv-x="420" unicode="" d="M60 680h75q0 -65 77 -65q73 0 73 65h75q0 -59 -39.5 -92t-108.5 -33q-74 0 -113 32.5t-39 92.5z"/>
<glyph glyph-name="uniF400" horiz-adv-x="0" unicode="" d="M-215 722l62 -48l-120 -143l-48 34z"/>
<glyph glyph-name="uniF401" horiz-adv-x="0" unicode="" d="M-299 887l30 -68l-202 -84l-23 48z"/>
<glyph glyph-name="uniF406" horiz-adv-x="470" unicode="" d="M60 838l36 42q57 -65 143 -65q84 0 140 65l31 -42q-26 -40 -72.5 -66.5t-98.5 -26.5q-60 0 -109 29q-47 29 -70 64z"/>
<glyph glyph-name="uniF407" horiz-adv-x="361" unicode="" d="M60 -169l26 42q40 -28 74 -28q25 0 40.5 9.5t15.5 26.5q0 39 -58 39h-6v80h43v-43q106 -6 106 -80q0 -37 -33 -59.5t-90 -22.5q-64 0 -118 36z"/>
<glyph glyph-name="uniF408" horiz-adv-x="469" unicode="" d="M89 733l-29 45l171 104h4l174 -103l-33 -46l-143 76z"/>
<glyph glyph-name="uniF409" horiz-adv-x="246" unicode="" d="M82 -65l75 19q29 -8 29 -49q0 -42 -29 -70.5t-74 -38.5l-23 36q46 18 46 62q0 30 -24 41z"/>
<glyph glyph-name="uniF40A" horiz-adv-x="242" unicode="" d="M86 718l67 40q29 -32 29 -82q0 -101 -85 -149l-37 35q47 33 47 97q0 38 -21 59z"/>
<glyph glyph-name="uniF40B" horiz-adv-x="231" unicode="" d="M60 817q0 23 16.5 37t40.5 14q22 0 38 -14t16 -37q0 -24 -16 -39t-38 -15q-25 0 -41 15t-16 39z"/>
<glyph glyph-name="uniF40C" horiz-adv-x="370" unicode="" d="M120 792q0 -26 17.5 -40.5t47.5 -14.5q29 0 47 14.5t18 40.5q0 51 -65 51t-65 -51zM184 888q58 0 92 -24.5t34 -71.5t-35 -73.5t-91 -26.5q-55 0 -89.5 26.5t-34.5 73.5t33.5 71.5t90.5 24.5z"/>
<glyph glyph-name="uniF40D" horiz-adv-x="467" unicode="" d="M86 761l-26 50q44 47 100 47q29 0 77 -20t73 -20q45 0 75 32l22 -50q-39 -52 -102 -52q-25 0 -76 20q-49 20 -77 20q-33 0 -66 -27z"/>
<glyph glyph-name="uniF40E" horiz-adv-x="328" unicode="" d="M244 -126l24 -49q-29 -25 -86 -25q-54 0 -88 23t-34 69q0 58 61 92q59 32 132 32h6v-16q-47 0 -83 -24q-36 -26 -36 -58q0 -26 18 -39.5t42 -13.5t44 9z"/>
<glyph glyph-name="uniF410" horiz-adv-x="0" unicode="" d="M-309 783l-23 -48l-202 84l30 68z"/>
<glyph glyph-name="uniF416" horiz-adv-x="246" unicode="" d="M82 -65l75 19q29 -8 29 -49q0 -42 -29 -70.5t-74 -38.5l-23 36q46 18 46 62q0 30 -24 41z"/>
<glyph glyph-name="uniF418" horiz-adv-x="242" unicode="" d="M86 524l67 40q29 -32 29 -82q0 -101 -85 -149l-37 35q47 33 47 97q0 38 -21 59z"/>
<glyph glyph-name="uniF447" horiz-adv-x="492" unicode="" d="M136 -171l24 39q35 -23 71 -23q25 0 40.5 9.5t15.5 26.5q0 39 -58 39h-6v80h-20v445h-195v80h476v-80h-196v-445h-22v-43q101 -6 101 -80q0 -37 -33.5 -59.5t-92.5 -22.5q-55 0 -105 34z"/>
<glyph glyph-name="uniF44E" horiz-adv-x="623" unicode="" d="M318 71q86 0 135.5 41.5t55.5 114.5h-368q2 -66 49 -111q50 -45 128 -45zM53 307h453q-10 68 -63 106.5t-134 38.5q-83 0 -142 -41l-33 64q74 57 184 57q127 0 204 -74q76 -73 76 -196q0 -122 -77 -197q-77 -74 -202 -74q-133 0 -206 85q-62 73 -62 187q0 14 2 44z"/>
<glyph glyph-name="uniF639" d="M298 67q73 0 106.5 70t33.5 213q0 142 -34.5 212.5t-107.5 70.5q-142 0 -142 -283t144 -283zM523 350q0 -170 -56.5 -264t-168.5 -94q-114 0 -172 96q-57 97 -57 262q0 164 56 261q57 97 171 97q115 0 170 -97q57 -96 57 -261z" unicode=""/>
<glyph glyph-name="uniF63A" d="M511 0h-427v65q136 133 200 212q113 142 113 238q0 50 -30.5 81.5t-83.5 31.5q-46 0 -80.5 -29.5t-44.5 -82.5l-68 28q12 75 67.5 119.5t132.5 44.5q92 0 142 -53t50 -124q0 -135 -129 -287q-59 -68 -93 -102q-30 -30 -72 -67h323v-75z" unicode=""/>
<glyph glyph-name="uniF63B" d="M289 -10q-74 0 -129.5 31t-82.5 89l46 57q24 -46 68 -71.5t95 -25.5q63 0 100.5 35t37.5 91t-39.5 89t-103.5 33h-55v80h50q49 0 84 34q37 34 37 87q0 52 -30.5 81.5t-83.5 29.5q-95 0 -144 -87l-45 55q24 53 75.5 82.5t119.5 29.5q88 0 140.5 -48t52.5 -129 q0 -58 -28 -102t-81 -66v-3q62 -10 99 -57t37 -112q0 -92 -62 -148q-61 -55 -158 -55z" unicode=""/>
<glyph glyph-name="uniF63C" d="M452 0h-80v175h-323v57l290 468h92l-277 -445h218v195h80v-195h97v-80h-97v-175z" unicode=""/>
<glyph glyph-name="uniF63D" d="M135 348l44 352h316v-80h-246l-26 -189q24 7 56 7q97 0 159 -60q62 -59 62 -157q0 -105 -66 -168t-162 -63q-62 0 -117 28t-84 78l46 59q24 -39 67.5 -62t89.5 -23q60 0 100 42q41 43 41 106q0 64 -47 106q-46 42 -123 42q-63 0 -110 -18z" unicode=""/>
<glyph glyph-name="uniF63E" d="M145 248q0 -75 41 -127q41 -51 116 -51q56 0 94 41q38 43 38 99q0 65 -37.5 105.5t-104.5 40.5q-53 0 -92.5 -31t-54.5 -77zM60 248q0 90 30.5 173t81.5 141q105 119 228 148l33 -61q-99 -25 -179 -107q-77 -80 -100 -204q50 93 165 93q87 0 143 -60q57 -60 57 -155 q0 -98 -65 -163q-64 -63 -151 -63q-113 0 -178 74q-65 76 -65 184z" unicode=""/>
<glyph glyph-name="uniF63F" d="M416 620h-323v80h420v-52l-258 -648h-88z" unicode=""/>
<glyph glyph-name="uniF640" d="M64 181q0 63 36 111.5t96 65.5v3q-48 16 -79 62.5t-31 103.5q0 81 60 132q62 51 150 51t150 -51q61 -51 61 -132q0 -53 -31.5 -98.5t-83.5 -66.5v-3q60 -10 98.5 -57.5t38.5 -114.5q0 -92 -67 -144q-68 -53 -165 -53q-99 0 -166 52t-67 139zM309 320h-22q-57 0 -98 -35 q-40 -34 -40 -89t41.5 -90.5t105.5 -35.5q67 0 107.5 34.5t40.5 91.5q-1 56 -39 90t-96 34zM284 400h26q45 0 78 34q34 34 34 81q0 52 -36 83.5t-91 31.5q-54 0 -89 -32t-35 -83q0 -47 33 -81q34 -34 80 -34z" unicode=""/>
<glyph glyph-name="uniF641" d="M444 447q0 77 -39 130t-113 53q-58 0 -98 -42q-41 -41 -41 -98q0 -62 39.5 -104t104.5 -42q54 0 93 29t54 74zM529 447q0 -193 -99 -316q-97 -121 -251 -141l-27 63q119 23 193 102t90 201q-47 -87 -158 -87q-92 0 -150 61q-59 62 -59 154q0 99 68 162q67 64 155 64 q113 0 175 -74q63 -74 63 -189z" unicode=""/>
<glyph glyph-name="uniF643" d="M121 250q0 -76 48 -128t127 -52q81 0 127 52q48 52 48 128q0 77 -48 128q-48 52 -127 52t-127 -52q-48 -51 -48 -128zM107 66q-71 77 -71 184q0 106 71 183t189 77t189 -77t71 -183q0 -107 -71 -184q-70 -76 -189 -76t-189 76z" unicode=""/>
<glyph glyph-name="uniF644" d="M161 334l-27 71l162 103h55v-508h-85v405z" unicode=""/>
<glyph glyph-name="uniF645" d="M511 0h-427v60q313 129 313 261q0 50 -29.5 80t-81.5 30q-47 0 -84.5 -28t-51.5 -78l-53 49q17 62 72 99q56 38 119 38q92 0 140.5 -47t48.5 -125q0 -96 -81 -172q-65 -62 -127 -87h242v-80z" unicode=""/>
<glyph glyph-name="uniF646" horiz-adv-x="532" unicode="" d="M247 -210q-74 0 -129.5 31t-82.5 89l46 57q24 -46 68 -71.5t95 -25.5q63 0 100.5 35t37.5 91t-39.5 89t-103.5 33h-55v80h50q49 0 84 34q37 34 37 87q0 52 -30.5 81.5t-83.5 29.5q-95 0 -144 -87l-45 55q24 53 75.5 82.5t119.5 29.5q88 0 140.5 -48t52.5 -129 q0 -58 -28 -102t-81 -66v-3q62 -10 99 -57t37 -112q0 -91 -62 -147t-158 -56z"/>
<glyph glyph-name="uniF647" d="M452 -200h-80v200h-323v57l277 443h92l-264 -420h218v195h80v-195h97v-80h-97v-200z" unicode=""/>
<glyph glyph-name="uniF648" d="M135 148l44 352h316v-80h-246l-26 -189q24 7 56 7q97 0 159 -60q62 -59 62 -157q0 -105 -66 -168t-162 -63q-62 0 -117 28t-84 78l46 59q24 -39 67.5 -62t89.5 -23q60 0 100 42q41 43 41 106q0 64 -47 106q-46 42 -123 42q-63 0 -110 -18z" unicode=""/>
<glyph glyph-name="uniF649" d="M145 248q0 -75 41 -127q41 -51 116 -51q56 0 94 41q38 43 38 99q0 65 -37.5 105.5t-104.5 40.5q-53 0 -92.5 -31t-54.5 -77zM60 248q0 90 30.5 173t81.5 141q105 119 228 148l33 -61q-99 -25 -179 -107q-77 -80 -100 -204q50 93 165 93q87 0 143 -60q57 -60 57 -155 q0 -98 -65 -163q-64 -63 -151 -63q-113 0 -178 74q-65 76 -65 184z" unicode=""/>
<glyph glyph-name="uniF64A" d="M416 420h-323v80h420v-52l-258 -648h-88z" unicode=""/>
<glyph glyph-name="uniF64B" d="M64 181q0 63 36 111.5t96 65.5v3q-48 16 -79 62.5t-31 103.5q0 81 60 132q62 51 150 51t150 -51q61 -51 61 -132q0 -53 -31.5 -98.5t-83.5 -66.5v-3q60 -10 98.5 -57.5t38.5 -114.5q0 -92 -67 -144q-68 -53 -165 -53q-99 0 -166 52t-67 139zM309 320h-22q-57 0 -98 -35 q-40 -34 -40 -89t41.5 -90.5t105.5 -35.5q67 0 107.5 34.5t40.5 91.5q-1 56 -39 90t-96 34zM284 400h26q45 0 78 34q34 34 34 81q0 52 -36 83.5t-91 31.5q-54 0 -89 -32t-35 -83q0 -47 33 -81q34 -34 80 -34z" unicode=""/>
<glyph glyph-name="uniF64C" d="M444 247q0 78 -39 130q-39 53 -113 53q-58 0 -98 -42q-41 -41 -41 -98q0 -62 39.5 -104t104.5 -42q54 0 93 29t54 74zM529 247q0 -193 -99 -315q-97 -122 -251 -142l-27 63q119 23 193 102t90 201q-47 -87 -158 -87q-92 0 -150 61q-59 62 -59 154q0 99 68 162 q67 64 155 64q113 0 175 -74q63 -74 63 -189z" unicode=""/>
<glyph glyph-name="uniF66D" horiz-adv-x="590" unicode="" d="M147 685l37 41q51 -61 114 -61q66 0 115 60l29 -39q-62 -86 -147 -86q-93 0 -148 85zM387 220l-94 206l-95 -206h189zM98 0h-86l246 528h74l246 -528h-91l-64 140h-261z"/>
<glyph glyph-name="uniF66E" horiz-adv-x="590" unicode="" d="M427 625h-264v65h264v-65zM387 220l-94 206l-95 -206h189zM98 0h-86l246 528h74l246 -528h-91l-64 140h-261z"/>
<glyph glyph-name="uniF66F" horiz-adv-x="590" unicode="" d="M387 220l-94 206l-95 -206h189zM547 -126l24 -49q-29 -25 -86 -25q-54 0 -88 23t-34 69q0 41 33 71t88 43l-61 134h-261l-64 -140h-86l246 528h74l246 -528h-16q-47 0 -83 -24q-36 -25 -36 -58q0 -26 18 -39.5t42 -13.5q25 0 44 9z"/>
<glyph glyph-name="uniF671" horiz-adv-x="542" unicode="" d="M379 766l49 -61l-135 -125l-40 44zM481 114l33 -64q-28 -27 -78 -43t-105 -16q-131 0 -211 74t-80 197q0 116 76 192q76 78 211 78q109 0 176 -52l-39 -64q-62 36 -137 36q-88 0 -143 -52q-54 -52 -54 -138t57 -139q56 -52 152 -52q83 0 142 43z"/>
<glyph glyph-name="uniF672" horiz-adv-x="542" unicode="" d="M481 114l33 -64q-28 -27 -78 -43t-105 -16q-131 0 -211 74t-80 197q0 116 76 192q76 78 211 78q109 0 176 -52l-39 -64q-62 36 -137 36q-88 0 -143 -52q-54 -52 -54 -138t57 -139q56 -52 152 -52q83 0 142 43zM314 579h-4l-145 118l39 48l109 -89l109 88l37 -47z"/>
<glyph glyph-name="uniF673" horiz-adv-x="542" unicode="" d="M481 114l33 -64q-28 -27 -78 -43t-105 -16q-131 0 -211 74t-80 197q0 116 76 192q76 78 211 78q109 0 176 -52l-39 -64q-62 36 -137 36q-88 0 -143 -52q-54 -52 -54 -138t57 -139q56 -52 152 -52q83 0 142 43zM312 742h4l149 -118l-38 -48l-113 89l-115 -88l-38 47z"/>
<glyph glyph-name="uniF674" horiz-adv-x="542" unicode="" d="M258 664q0 21 15 34.5t37 13.5q21 0 35 -13.5t14 -34.5q0 -23 -14 -37.5t-35 -14.5q-22 0 -37 14.5t-15 37.5zM481 114l33 -64q-28 -27 -78 -43t-105 -16q-131 0 -211 74t-80 197q0 116 76 192q76 78 211 78q109 0 176 -52l-39 -64q-62 36 -137 36q-88 0 -143 -52 q-54 -52 -54 -138t57 -139q56 -52 152 -52q83 0 142 43z"/>
<glyph glyph-name="uniF675" horiz-adv-x="611" unicode="" d="M246 447q-7 0 -77 -2v-365q19 0 37 -0.5t27 -1t11 -0.5q112 0 174.5 51t62.5 139q0 85 -60 132t-175 47zM94 0h-10v525h10q37 0 74 1t79 1q165 0 244 -72q80 -71 80 -187q0 -120 -86 -195q-85 -75 -244 -75q-34 0 -69 1q-34 1 -78 1zM278 579h-4l-145 118l39 48l109 -89 l109 88l37 -47z"/>
<glyph glyph-name="uniF676" horiz-adv-x="621" unicode="" d="M269 447q-13 0 -91 -3v-140h151v-75h-151v-149q18 0 37.5 -0.5t29.5 -1t15 -0.5q109 0 170 51t61 139q0 84 -58 131.5t-164 47.5zM93 229h-85v75h85v221h10q36 0 75 1t89 1q158 0 235 -73q79 -73 79 -186q0 -117 -84 -193q-83 -77 -231 -77q-46 0 -83 1t-80 1h-10v229z "/>
<glyph glyph-name="uniF678" horiz-adv-x="488" unicode="" d="M432 0h-348v525h340v-80h-255v-140h230v-80h-230v-145h263v-80zM258 579h-4l-145 118l39 48l109 -89l109 88l37 -47z"/>
<glyph glyph-name="uniF679" horiz-adv-x="488" unicode="" d="M202 664q0 21 15 34.5t37 13.5q21 0 35 -13.5t14 -34.5q0 -23 -14 -37.5t-35 -14.5q-22 0 -37 14.5t-15 37.5zM432 0h-348v525h340v-80h-255v-140h230v-80h-230v-145h263v-80z"/>
<glyph glyph-name="uniF67A" horiz-adv-x="488" unicode="" d="M383 625h-264v65h264v-65zM432 0h-348v525h340v-80h-255v-140h230v-80h-230v-145h263v-80z"/>
<glyph glyph-name="uniF67C" horiz-adv-x="488" unicode="" d="M328 0h-244v525h340v-80h-255v-140h230v-80h-230v-145h263v-80h-8q-47 -2 -80.5 -26t-33.5 -56q0 -26 18 -39.5t42 -13.5t44 9l24 -49q-29 -25 -86 -25q-54 0 -88 23t-34 69q0 73 98 108z"/>
<glyph glyph-name="uniF67D" horiz-adv-x="601" unicode="" d="M165 685l37 41q51 -61 114 -61q66 0 115 60l29 -39q-62 -86 -147 -86q-93 0 -148 85zM473 203h-148v75h228v-214q-38 -34 -99 -53q-63 -20 -117 -20q-138 0 -217 73q-80 74 -80 198q0 116 79 192q79 78 207 78q108 0 184 -52l-37 -67q-55 39 -137 39q-92 0 -149 -51 t-57 -139q0 -86 57 -139q58 -52 152 -52q86 0 134 39v93z"/>
<glyph glyph-name="uniF67E" horiz-adv-x="601" unicode="" d="M322 742h4l149 -118l-38 -48l-113 89l-115 -88l-38 47zM473 203h-148v75h228v-214q-38 -34 -99 -53q-63 -20 -117 -20q-138 0 -217 73q-80 74 -80 198q0 116 79 192q79 78 207 78q108 0 184 -52l-37 -67q-55 39 -137 39q-92 0 -149 -51t-57 -139q0 -86 57 -139 q58 -52 152 -52q86 0 134 39v93z"/>
<glyph glyph-name="uniF67F" horiz-adv-x="601" unicode="" d="M277 -65l75 19q29 -8 29 -49q0 -42 -29 -70.5t-74 -38.5l-23 36q46 18 46 62q0 30 -24 41zM473 203h-148v75h228v-214q-38 -34 -99 -53q-63 -20 -117 -20q-138 0 -217 73q-80 74 -80 198q0 116 79 192q79 78 207 78q108 0 184 -52l-37 -67q-55 39 -137 39q-92 0 -149 -51 t-57 -139q0 -86 57 -139q58 -52 152 -52q86 0 134 39v93z"/>
<glyph glyph-name="uniF680" horiz-adv-x="601" unicode="" d="M268 664q0 21 15 34.5t37 13.5q21 0 35 -13.5t14 -34.5q0 -23 -14 -37.5t-35 -14.5q-22 0 -37 14.5t-15 37.5zM473 203h-148v75h228v-214q-38 -34 -99 -53q-63 -20 -117 -20q-138 0 -217 73q-80 74 -80 198q0 116 79 192q79 78 207 78q108 0 184 -52l-37 -67 q-55 39 -137 39q-92 0 -149 -51t-57 -139q0 -86 57 -139q58 -52 152 -52q86 0 134 39v93z"/>
<glyph glyph-name="uniF681" horiz-adv-x="640" unicode="" d="M169 382v-74h302v74h-302zM84 382h-54v75h54v68h85v-68h302v68h85v-68h54v-75h-54v-382h-85v228h-302v-228h-85v382z"/>
<glyph glyph-name="uniF682" horiz-adv-x="640" unicode="" d="M556 0h-85v228h-302v-228h-85v525h85v-217h302v217h85v-525zM318 742h4l149 -118l-38 -48l-113 89l-115 -88l-38 47z"/>
<glyph glyph-name="uniF685" horiz-adv-x="281" unicode="" d="M183 0h-85v525h85v-525zM272 625h-264v65h264v-65z"/>
<glyph glyph-name="uniF686" horiz-adv-x="281" unicode="" d="M162 -126l24 -49q-29 -25 -86 -25q-54 0 -88 23t-34 69q0 42 32.5 71.5t87.5 42.5v519h85v-525h-6q-47 0 -83 -24q-36 -26 -36 -58q0 -26 18 -39.5t42 -13.5t44 9z"/>
<glyph glyph-name="uniF688" horiz-adv-x="315" unicode="" d="M146 525h85v-402q0 -131 -132 -131q-62 0 -93 31l29 65q22 -16 52 -16q59 0 59 65v388zM181 742h4l149 -118l-38 -48l-113 89l-115 -88l-38 47z"/>
<glyph glyph-name="uniF689" horiz-adv-x="554" unicode="" d="M216 -65l75 19q29 -8 29 -49q0 -42 -29 -70.5t-74 -38.5l-23 36q46 18 46 62q0 30 -24 41zM169 0h-85v525h85v-525zM415 525h111l-246 -245l259 -280h-116l-247 274z"/>
<glyph glyph-name="uniF68A" horiz-adv-x="459" unicode="" d="M278 766l49 -61l-135 -125l-40 44zM441 0h-357v525h85v-440h272v-85z"/>
<glyph glyph-name="uniF68B" horiz-adv-x="459" unicode="" d="M441 0h-357v525h85v-440h272v-85zM301 525h78q8 -18 8 -38q0 -54 -24 -93.5t-62 -59.5l-36 35q47 41 47 109q0 27 -11 47z"/>
<glyph glyph-name="uniF68C" horiz-adv-x="459" unicode="" d="M216 -65l75 19q29 -8 29 -49q0 -42 -29 -70.5t-74 -38.5l-23 36q46 18 46 62q0 30 -24 41zM441 0h-357v525h85v-440h272v-85z"/>
<glyph glyph-name="uniF68D" horiz-adv-x="459" unicode="" d="M441 0h-357v525h85v-440h272v-85zM302 299q0 21 16.5 37t40.5 16q21 0 37 -16t16 -37q0 -24 -15 -40.5t-38 -16.5q-24 0 -40.5 16.5t-16.5 40.5z"/>
<glyph glyph-name="uniF68E" horiz-adv-x="656" unicode="" d="M403 766l49 -61l-135 -125l-40 44zM572 525v-525h-69l-339 386v-386h-80v525h68l340 -387v387h80z"/>
<glyph glyph-name="uniF68F" horiz-adv-x="656" unicode="" d="M572 525v-525h-69l-339 386v-386h-80v525h68l340 -387v387h80zM329 579h-4l-145 118l39 48l109 -89l109 88l37 -47z"/>
<glyph glyph-name="uniF690" horiz-adv-x="656" unicode="" d="M271 -65l75 19q29 -8 29 -49q0 -42 -29 -70.5t-74 -38.5l-23 36q46 18 46 62q0 30 -24 41zM572 525v-525h-69l-339 386v-386h-80v525h68l340 -387v387h80z"/>
<glyph glyph-name="uniF692" horiz-adv-x="655" unicode="" d="M306 768l58 -43l-119 -143l-42 28zM472 761l59 -45l-142 -134l-37 29zM130 262q0 -80 57 -136q56 -55 141 -55q91 0 143 54q54 54 54 137q0 84 -57 136q-56 54 -140 54q-85 0 -142 -54q-56 -53 -56 -136zM40 262q0 116 81 192q81 78 207 78q124 0 205 -75q82 -75 82 -195 q0 -119 -82 -195q-80 -76 -205 -76q-124 0 -207 75q-81 75 -81 196z"/>
<glyph glyph-name="uniF693" horiz-adv-x="655" unicode="" d="M460 625h-264v65h264v-65zM130 262q0 -80 57 -136q56 -55 141 -55q91 0 143 54q54 54 54 137q0 84 -57 136q-56 54 -140 54q-85 0 -142 -54q-56 -53 -56 -136zM40 262q0 116 81 192q81 78 207 78q124 0 205 -75q82 -75 82 -195q0 -119 -82 -195q-80 -76 -205 -76 q-124 0 -207 75q-81 75 -81 196z"/>
<glyph glyph-name="uniF695" horiz-adv-x="534" unicode="" d="M318 766l49 -61l-135 -125l-40 44zM244 447q-27 0 -75 -2v-175h81q49 0 82.5 25t33.5 65q0 87 -122 87zM169 190v-190h-85v525q35 0 74 1t82 1q216 0 216 -166q0 -60 -31 -99t-81 -52l170 -210h-108l-149 190h-88z"/>
<glyph glyph-name="uniF696" horiz-adv-x="534" unicode="" d="M243 579h-4l-145 118l39 48l109 -89l109 88l37 -47zM244 447q-27 0 -75 -2v-175h81q49 0 82.5 25t33.5 65q0 87 -122 87zM169 190v-190h-85v525q35 0 74 1t82 1q216 0 216 -166q0 -60 -31 -99t-81 -52l170 -210h-108l-149 190h-88z"/>
<glyph glyph-name="uniF697" horiz-adv-x="534" unicode="" d="M216 -65l75 19q29 -8 29 -49q0 -42 -29 -70.5t-74 -38.5l-23 36q46 18 46 62q0 30 -24 41zM244 447q-27 0 -75 -2v-175h81q49 0 82.5 25t33.5 65q0 87 -122 87zM169 190v-190h-85v525q35 0 74 1t82 1q216 0 216 -166q0 -60 -31 -99t-81 -52l170 -210h-108l-149 190h-88z "/>
<glyph glyph-name="uniF698" horiz-adv-x="485" unicode="" d="M323 766l49 -61l-135 -125l-40 44zM355 143q0 30 -31 50t-75.5 33.5t-89 30t-75.5 50t-31 82.5q0 65 51 104t148 39q47 0 102 -20q57 -20 81 -47l-39 -63q-27 21 -69.5 35.5t-78.5 14.5q-49 0 -77 -18t-28 -49q0 -48 106 -79q39 -10 68 -21t61 -30t49.5 -48.5t17.5 -67.5 q0 -67 -56 -108q-55 -40 -141 -40q-67 0 -126 22q-59 23 -88 61l49 58q27 -27 74.5 -44t95.5 -17q44 0 73 19.5t29 52.5z"/>
<glyph glyph-name="uniF699" horiz-adv-x="485" unicode="" d="M132 -171l24 39q35 -23 71 -23q25 0 40.5 9.5t15.5 26.5q0 39 -58 39h-6v72q-60 5 -110.5 27t-74.5 55l49 58q27 -27 74.5 -44t95.5 -17q44 0 73 19.5t29 52.5q0 30 -31 50t-75.5 33.5t-89 30t-75.5 50t-31 82.5q0 65 51 104t148 39q47 0 102 -20q57 -20 81 -47l-39 -63 q-27 21 -69.5 35.5t-78.5 14.5q-49 0 -77 -18t-28 -49q0 -48 106 -79q39 -10 68 -21t61 -30t49.5 -48.5t17.5 -67.5q0 -64 -52 -104q-50 -40 -131 -43v-35q101 -6 101 -80q0 -37 -33.5 -59.5t-92.5 -22.5q-55 0 -105 34z"/>
<glyph glyph-name="uniF69A" horiz-adv-x="485" unicode="" d="M241 742h4l149 -118l-38 -48l-113 89l-115 -88l-38 47zM355 143q0 30 -31 50t-75.5 33.5t-89 30t-75.5 50t-31 82.5q0 65 51 104t148 39q47 0 102 -20q57 -20 81 -47l-39 -63q-27 21 -69.5 35.5t-78.5 14.5q-49 0 -77 -18t-28 -49q0 -48 106 -79q39 -10 68 -21t61 -30 t49.5 -48.5t17.5 -67.5q0 -67 -56 -108q-55 -40 -141 -40q-67 0 -126 22q-59 23 -88 61l49 58q27 -27 74.5 -44t95.5 -17q44 0 73 19.5t29 52.5z"/>
<glyph glyph-name="uniF69B" horiz-adv-x="485" unicode="" d="M201 -65l75 19q29 -8 29 -49q0 -42 -29 -70.5t-74 -38.5l-23 36q46 18 46 62q0 30 -24 41zM355 143q0 30 -31 50t-75.5 33.5t-89 30t-75.5 50t-31 82.5q0 65 51 104t148 39q47 0 102 -20q57 -20 81 -47l-39 -63q-27 21 -69.5 35.5t-78.5 14.5q-49 0 -77 -18t-28 -49 q0 -48 106 -79q39 -10 68 -21t61 -30t49.5 -48.5t17.5 -67.5q0 -67 -56 -108q-55 -40 -141 -40q-67 0 -126 22q-59 23 -88 61l49 58q27 -27 74.5 -44t95.5 -17q44 0 73 19.5t29 52.5z"/>
<glyph glyph-name="uniF69D" horiz-adv-x="492" unicode="" d="M203 445h-195v80h476v-80h-196v-445h-85v445zM248 579h-4l-145 118l39 48l109 -89l109 88l37 -47z"/>
<glyph glyph-name="uniF69E" horiz-adv-x="492" unicode="" d="M201 -65l75 19q29 -8 29 -49q0 -42 -29 -70.5t-74 -38.5l-23 36q46 18 46 62q0 30 -24 41zM203 445h-195v80h476v-80h-196v-445h-85v445z"/>
<glyph glyph-name="uniF69F" horiz-adv-x="620" unicode="" d="M162 685l37 41q51 -61 114 -61q65 0 115 60l29 -39q-62 -86 -147 -86q-93 0 -148 85zM459 525h85v-307q0 -113 -65 -170q-65 -56 -162 -56q-111 0 -176.5 61t-65.5 170v302h85v-285q0 -78 41 -123t116 -45q69 0 105.5 42t36.5 121v290z"/>
<glyph glyph-name="uniF6A0" horiz-adv-x="620" unicode="" d="M290 768l58 -43l-119 -143l-42 28zM456 761l59 -45l-142 -134l-37 29zM459 525h85v-307q0 -113 -65 -170q-65 -56 -162 -56q-111 0 -176.5 61t-65.5 170v302h85v-285q0 -78 41 -123t116 -45q69 0 105.5 42t36.5 121v290z"/>
<glyph glyph-name="uniF6A1" horiz-adv-x="620" unicode="" d="M442 625h-264v65h264v-65zM459 525h85v-307q0 -113 -65 -170q-65 -56 -162 -56q-111 0 -176.5 61t-65.5 170v302h85v-285q0 -78 41 -123t116 -45q69 0 105.5 42t36.5 121v290z"/>
<glyph glyph-name="uniF6A2" horiz-adv-x="620" unicode="" d="M459 525h85v-307q0 -160 -132 -210q-77 -45 -77 -90q0 -26 18 -39.5t42 -13.5q25 0 44 9l24 -49q-29 -25 -86 -25q-54 0 -88 23t-34 69q0 34 22 57.5t67 43.5q-6 -1 -27 -1q-111 0 -176.5 61t-65.5 170v302h85v-285q0 -78 41 -123t116 -45q69 0 105.5 42t36.5 121v290z "/>
<glyph glyph-name="uniF6A3" horiz-adv-x="620" unicode="" d="M459 525h85v-307q0 -113 -65 -170q-65 -56 -162 -56q-111 0 -176.5 61t-65.5 170v302h85v-285q0 -78 41 -123t116 -45q69 0 105.5 42t36.5 121v290zM265 700q-18 -18 -18 -46t18 -46q19 -19 45 -19t45 19q18 18 18 46t-18 46q-19 19 -45 19t-45 -19zM195 653 q0 46 33 78.5t81 32.5q49 0 82.5 -32.5t33.5 -78.5q0 -45 -33.5 -77t-82.5 -32q-48 0 -81 32t-33 77z"/>
<glyph glyph-name="uniF6AB" horiz-adv-x="526" unicode="" d="M338 766l49 -61l-135 -125l-40 44zM360 445h-311v80h436v-58l-328 -387h336v-80h-460v58z"/>
<glyph glyph-name="uniF6AC" horiz-adv-x="526" unicode="" d="M212 664q0 21 15 34.5t37 13.5q21 0 35 -13.5t14 -34.5q0 -23 -14 -37.5t-35 -14.5q-22 0 -37 14.5t-15 37.5zM360 445h-311v80h436v-58l-328 -387h336v-80h-460v58z"/>
<glyph glyph-name="uniF6AD" horiz-adv-x="281" unicode="" d="M183 0h-85v525h85v-525zM90 664q0 21 15 34.5t37 13.5q21 0 35 -13.5t14 -34.5q0 -23 -14 -37.5t-35 -14.5q-22 0 -37 14.5t-15 37.5z"/>
<glyph glyph-name="uniF6BA" horiz-adv-x="389" unicode="" d="M314 316h-239v75h239v-75z"/>
<glyph glyph-name="uniF6BB" horiz-adv-x="594" unicode="" d="M504 319h-414v70h414v-70z"/>
<glyph glyph-name="uniF6BC" horiz-adv-x="804" unicode="" d="M714 319h-624v70h624v-70z"/>
<glyph glyph-name="uniF6C3" horiz-adv-x="246" unicode="" d="M82 -65l75 19q29 -8 29 -49q0 -42 -29 -70.5t-74 -38.5l-23 36q46 18 46 62q0 30 -24 41z"/>
<glyph glyph-name="uniF6C9" horiz-adv-x="345" unicode="" d="M255 887l30 -68l-202 -84l-23 48z"/>
<glyph glyph-name="uniF6CA" horiz-adv-x="470" unicode="" d="M239 738h-4l-175 103l33 46l144 -81l143 81l30 -45z"/>
<glyph glyph-name="uniF6CB" horiz-adv-x="459" unicode="" d="M292 813q0 20 16 32.5t40 12.5q22 0 36.5 -12.5t14.5 -32.5q0 -21 -14.5 -34.5t-36.5 -13.5q-24 0 -40 13.5t-16 34.5zM60 813q0 20 15.5 32.5t39.5 12.5q22 0 37 -12.5t15 -32.5q0 -21 -15 -34.5t-37 -13.5q-24 0 -39.5 13t-15.5 35z"/>
<glyph glyph-name="uniF6CE" horiz-adv-x="345" unicode="" d="M285 783l-23 -48l-202 84l30 68z"/>
<glyph glyph-name="uniF6CF" horiz-adv-x="510" unicode="" d="M188 887l67 -36l-161 -116l-34 32zM395 887l55 -51l-179 -101l-33 35z"/>
<glyph glyph-name="uniF6D0" horiz-adv-x="424" unicode="" d="M364 770h-304v65h304v-65z"/>
<glyph glyph-name="uniF6D1" horiz-adv-x="490" unicode="" d="M60 860h80q24 -65 107 -65q88 0 103 65h80q-7 -56 -58.5 -90.5t-124.5 -34.5q-77 0 -127.5 34t-59.5 91z"/>
<glyph glyph-name="uniF6D4" horiz-adv-x="420" unicode="" d="M60 680h75q6 -79 77 -79q67 0 73 79h75q0 -61 -41.5 -100.5t-106.5 -39.5q-71 0 -111.5 38.5t-40.5 101.5z"/>
<glyph glyph-name="uniF6DC" d="M176 509l-42 65l168 130h56v-704h-80v589z" unicode=""/>
<glyph glyph-name="uniF6DE" horiz-adv-x="603" unicode="" d="M535 235h-468v70h468v-70z"/>
<glyph glyph-name="uniF6F4" horiz-adv-x="415" unicode="" d="M60 685l37 41q51 -61 114 -61q65 0 115 60l29 -39q-62 -86 -147 -86q-93 0 -148 85z"/>
<glyph glyph-name="uniF6F5" horiz-adv-x="414" unicode="" d="M209 579h-4l-145 118l39 48l109 -89l109 88l37 -47z"/>
<glyph glyph-name="uniF6F6" horiz-adv-x="424" unicode="" d="M211 742h4l149 -118l-38 -48l-113 89l-115 -88l-38 47z"/>
<glyph glyph-name="uniF6F7" horiz-adv-x="221" unicode="" d="M60 664q0 21 15 34.5t37 13.5q21 0 35 -13.5t14 -34.5q0 -23 -14 -37.5t-35 -14.5q-22 0 -37 14.5t-15 37.5z"/>
<glyph glyph-name="uniF6F8" horiz-adv-x="448" unicode="" d="M163 768l58 -43l-119 -143l-42 28zM329 761l59 -45l-142 -134l-37 29z"/>
<glyph glyph-name="uniF6F9" horiz-adv-x="459" unicode="" d="M84 185l-64 -31v83l64 30v258h85v-217l111 53v-82l-111 -53v-141h272v-85h-357v185z"/>
<glyph glyph-name="uniF6FA" horiz-adv-x="861" unicode="" d="M328 71q74 0 129 39v303q-51 39 -131 39q-88 0 -143 -52q-54 -52 -54 -138t55 -138q56 -53 144 -53zM805 0h-348v24q-63 -33 -136 -33q-124 0 -204 74q-78 75 -78 197q0 116 75 193q77 77 206 77q75 0 137 -32v25h340v-80h-255v-140h230v-80h-230v-145h263v-80z"/>
<glyph glyph-name="uniF6FB" horiz-adv-x="328" unicode="" d="M244 -126l24 -49q-29 -25 -86 -25q-54 0 -88 23t-34 69q0 58 61 92q59 32 132 32h6v-16q-47 0 -83 -24q-36 -26 -36 -58q0 -26 18 -39.5t42 -13.5t44 9z"/>
<glyph glyph-name="uniF6FC" horiz-adv-x="350" unicode="" d="M130 700q-18 -18 -18 -46t18 -46q19 -19 45 -19t45 19q18 18 18 46t-18 46q-19 19 -45 19t-45 -19zM60 653q0 46 33 78.5t81 32.5q49 0 82.5 -32.5t33.5 -78.5q0 -45 -33.5 -77t-82.5 -32q-48 0 -81 32t-33 77z"/>
<glyph glyph-name="uniF6FD" horiz-adv-x="485" unicode="" d="M243 579h-4l-145 118l39 48l109 -89l109 88l37 -47zM355 143q0 30 -31 50t-75.5 33.5t-89 30t-75.5 50t-31 82.5q0 65 51 104t148 39q47 0 102 -20q57 -20 81 -47l-39 -63q-27 21 -69.5 35.5t-78.5 14.5q-49 0 -77 -18t-28 -49q0 -48 106 -79q39 -10 68 -21t61 -30 t49.5 -48.5t17.5 -67.5q0 -67 -56 -108q-55 -40 -141 -40q-67 0 -126 22q-59 23 -88 61l49 58q27 -27 74.5 -44t95.5 -17q44 0 73 19.5t29 52.5z"/>
<glyph glyph-name="uniF6FE" horiz-adv-x="442" unicode="" d="M93 602l-33 37q52 60 110 60q24 0 58 -22t55 -22q28 0 71 35l28 -41q-56 -59 -106 -59q-23 0 -57 22t-57 22q-26 0 -69 -32z"/>
<glyph glyph-name="uniF6FF" horiz-adv-x="526" unicode="" d="M360 445h-311v80h436v-58l-328 -387h336v-80h-460v58zM263 579h-4l-145 118l39 48l109 -89l109 88l37 -47z"/>
<glyph glyph-name="uniF730" horiz-adv-x="620" unicode="" d="M135 250q0 -76 48 -128t127 -52q81 0 127 52q48 52 48 128q0 77 -48 128q-48 52 -127 52t-127 -52q-48 -51 -48 -128zM121 66q-71 77 -71 184q0 106 71 183t189 77t189 -77t71 -183q0 -107 -71 -184q-70 -76 -189 -76t-189 76z"/>
<glyph glyph-name="uniF731" horiz-adv-x="372" unicode="" d="M67 334l-27 71l162 103h55v-508h-85v405z"/>
<glyph glyph-name="uniF732" horiz-adv-x="522" unicode="" d="M472 0h-427v60q313 129 313 261q0 50 -29.5 80t-81.5 30q-47 0 -84.5 -28t-51.5 -78l-53 49q16 62 72 99q56 38 119 38q92 0 140.5 -47t48.5 -125q0 -96 -81 -172q-65 -62 -127 -87h242v-80z"/>
<glyph glyph-name="uniF733" horiz-adv-x="532" unicode="" d="M247 -210q-74 0 -129.5 31t-82.5 89l46 57q24 -46 68 -71.5t95 -25.5q63 0 100.5 35t37.5 91t-39.5 89t-103.5 33h-55v80h50q49 0 84 34q37 34 37 87q0 52 -30.5 81.5t-83.5 29.5q-95 0 -144 -87l-45 55q24 53 75.5 82.5t119.5 29.5q88 0 140.5 -48t52.5 -129 q0 -58 -28 -102t-81 -66v-3q62 -10 99 -57t37 -112q0 -91 -62 -147t-158 -56z"/>
<glyph glyph-name="uniF734" horiz-adv-x="550" unicode="" d="M423 -200h-80v200h-323v57l277 443h92l-264 -420h218v195h80v-195h97v-80h-97v-200z"/>
<glyph glyph-name="uniF735" horiz-adv-x="516" unicode="" d="M99 148l44 352h316v-80h-246l-26 -189q24 7 56 7q97 0 159 -60q62 -59 62 -157q0 -105 -66 -168t-162 -63q-62 0 -117 28t-84 78l46 59q24 -39 67.5 -62t89.5 -23q60 0 100 42q41 43 41 106q0 64 -47 106q-46 42 -123 42q-63 0 -110 -18z"/>
<glyph glyph-name="uniF736" horiz-adv-x="554" unicode="" d="M135 248q0 -75 41 -127q41 -51 116 -51q56 0 94 41q38 43 38 99q0 65 -37.5 105.5t-104.5 40.5q-53 0 -92.5 -31t-54.5 -77zM50 248q0 90 30.5 173t81.5 141q105 119 228 148l33 -61q-99 -25 -179 -107q-77 -80 -100 -204q50 93 165 93q87 0 143 -60q57 -60 57 -155 q0 -98 -65 -163q-64 -63 -151 -63q-113 0 -178 74q-65 76 -65 184z"/>
<glyph glyph-name="uniF737" horiz-adv-x="485" unicode="" d="M353 420h-323v80h420v-52l-258 -648h-88z"/>
<glyph glyph-name="uniF738" horiz-adv-x="595" unicode="" d="M65 181q0 63 36 111.5t96 65.5v3q-48 16 -79 62.5t-31 103.5q0 81 60 132q61 51 150 51t150 -51t61 -132q0 -53 -31.5 -98.5t-83.5 -66.5v-3q60 -10 98.5 -57.5t38.5 -114.5q0 -92 -67 -144q-68 -53 -165 -53q-99 0 -166 52t-67 139zM310 320h-22q-57 0 -98 -35 q-40 -34 -40 -89t41.5 -90.5t105.5 -35.5q67 0 107.5 34.5t40.5 91.5q-1 56 -39 90t-96 34zM285 400h26q45 0 78 34q34 34 34 81q0 52 -36 83.5t-91 31.5q-54 0 -89 -32t-35 -83q0 -47 34 -81t79 -34z"/>
<glyph glyph-name="uniF739" horiz-adv-x="551" unicode="" d="M416 247q0 78 -39 130q-39 53 -113 53q-58 0 -98 -42q-41 -41 -41 -98q0 -62 39.5 -104t104.5 -42q54 0 93 29t54 74zM501 247q0 -193 -99 -315q-97 -122 -251 -142l-27 63q119 23 193 102t90 201q-47 -87 -158 -87q-92 0 -150 61q-59 62 -59 154q0 99 68 162 q67 64 155 64q113 0 175 -74q63 -74 63 -189z"/>
<glyph glyph-name="uniF760" horiz-adv-x="295" unicode="" d="M235 624l-39 -44l-136 125l50 61z"/>
<glyph glyph-name="uniF761" horiz-adv-x="590" unicode="" d="M387 220l-94 206l-95 -206h189zM98 0h-86l246 528h74l246 -528h-91l-64 140h-261z"/>
<glyph glyph-name="uniF762" horiz-adv-x="524" unicode="" d="M260 448q-34 0 -91 -3v-142h96q43 0 71 20t28 53q0 72 -104 72zM267 228h-98v-147q28 -4 93 -4q121 0 121 79q0 72 -116 72zM84 1v523q113 4 177 4q95 0 141.5 -34.5t46.5 -95.5q0 -45 -26 -78t-71 -45v-1q116 -17 116 -121q0 -76 -57 -116t-155 -40q-112 0 -172 4z"/>
<glyph glyph-name="uniF763" horiz-adv-x="542" unicode="" d="M481 114l33 -64q-28 -27 -78 -43t-105 -16q-131 0 -211 74t-80 197q0 116 76 192q76 78 211 78q109 0 176 -52l-39 -64q-62 36 -137 36q-88 0 -143 -52q-54 -52 -54 -138t57 -139q56 -52 152 -52q83 0 142 43z"/>
<glyph glyph-name="uniF764" horiz-adv-x="611" unicode="" d="M246 447q-7 0 -77 -2v-365q19 0 37 -0.5t27 -1t11 -0.5q112 0 174.5 51t62.5 139q0 85 -60 132t-175 47zM94 0h-10v525h10q37 0 74 1t79 1q165 0 244 -72q80 -71 80 -187q0 -120 -86 -195q-85 -75 -244 -75q-34 0 -69 1q-34 1 -78 1z"/>
<glyph glyph-name="uniF765" horiz-adv-x="488" unicode="" d="M432 0h-348v525h340v-80h-255v-140h230v-80h-230v-145h263v-80z"/>
<glyph glyph-name="uniF766" horiz-adv-x="454" unicode="" d="M169 0h-85v525h337v-80h-252v-157h228v-80h-228v-208z"/>
<glyph glyph-name="uniF767" horiz-adv-x="601" unicode="" d="M473 203h-148v75h228v-214q-38 -34 -99 -53q-63 -20 -117 -20q-138 0 -217 73q-80 74 -80 198q0 116 79 192q79 78 207 78q108 0 184 -52l-37 -67q-55 39 -137 39q-92 0 -149 -51t-57 -139q0 -86 57 -139q58 -52 152 -52q86 0 134 39v93z"/>
<glyph glyph-name="uniF768" horiz-adv-x="640" unicode="" d="M556 0h-85v228h-302v-228h-85v525h85v-217h302v217h85v-525z"/>
<glyph glyph-name="uniF769" horiz-adv-x="281" unicode="" d="M183 0h-85v525h85v-525z"/>
<glyph glyph-name="uniF76A" horiz-adv-x="315" unicode="" d="M146 525h85v-402q0 -131 -132 -131q-62 0 -93 31l29 65q22 -16 52 -16q59 0 59 65v388z"/>
<glyph glyph-name="uniF76B" horiz-adv-x="554" unicode="" d="M169 0h-85v525h85v-525zM415 525h111l-246 -245l259 -280h-116l-247 274z"/>
<glyph glyph-name="uniF76C" horiz-adv-x="459" unicode="" d="M441 0h-357v525h85v-440h272v-85z"/>
<glyph glyph-name="uniF76D" horiz-adv-x="740" unicode="" d="M169 0h-85v525h86l207 -251l198 251h81v-525h-85v396l-194 -240h-12l-196 237v-393z"/>
<glyph glyph-name="uniF76E" horiz-adv-x="656" unicode="" d="M572 525v-525h-69l-339 386v-386h-80v525h68l340 -387v387h80z"/>
<glyph glyph-name="uniF76F" horiz-adv-x="655" unicode="" d="M130 262q0 -80 57 -136q56 -55 141 -55q91 0 143 54q54 54 54 137q0 84 -57 136q-56 54 -140 54q-85 0 -142 -54q-56 -53 -56 -136zM40 262q0 116 81 192q81 78 207 78q124 0 205 -75q82 -75 82 -195q0 -119 -82 -195q-80 -76 -205 -76q-124 0 -207 75q-81 75 -81 196z "/>
<glyph glyph-name="uniF770" horiz-adv-x="499" unicode="" d="M249 447q-22 0 -80 -2v-186q47 -4 78 -4q57 0 89.5 26t32.5 71q0 95 -120 95zM169 178v-178h-85v525q35 0 76 1t81 1q112 0 165 -46.5t53 -128.5q0 -79 -55.5 -128t-153.5 -49q-40 0 -81 3z"/>
<glyph glyph-name="uniF771" horiz-adv-x="655" unicode="" d="M130 262q0 -80 57 -136q56 -55 141 -55q54 0 97 21l-46 51l56 51l49 -55q41 53 41 123q0 84 -57 136q-56 54 -140 54q-85 0 -142 -54q-56 -53 -56 -136zM40 262q0 116 81 192q81 78 207 78q124 0 205 -75q82 -75 82 -195q0 -110 -74 -187l68 -75h-99l-28 30 q-69 -39 -154 -39q-124 0 -207 75q-81 75 -81 196z"/>
<glyph glyph-name="uniF772" horiz-adv-x="534" unicode="" d="M244 447q-27 0 -75 -2v-175h81q49 0 82.5 25t33.5 65q0 87 -122 87zM169 190v-190h-85v525q35 0 74 1t82 1q216 0 216 -166q0 -60 -31 -99t-81 -52l170 -210h-108l-149 190h-88z"/>
<glyph glyph-name="uniF773" horiz-adv-x="485" unicode="" d="M355 143q0 30 -31 50t-75.5 33.5t-89 30t-75.5 50t-31 82.5q0 65 51 104t148 39q47 0 102 -20q57 -20 81 -47l-39 -63q-27 21 -69.5 35.5t-78.5 14.5q-49 0 -77 -18t-28 -49q0 -48 106 -79q39 -10 68 -21t61 -30t49.5 -48.5t17.5 -67.5q0 -67 -56 -108q-55 -40 -141 -40 q-67 0 -126 22q-59 23 -88 61l49 58q27 -27 74.5 -44t95.5 -17q44 0 73 19.5t29 52.5z"/>
<glyph glyph-name="uniF774" horiz-adv-x="492" unicode="" d="M203 445h-195v80h476v-80h-196v-445h-85v445z"/>
<glyph glyph-name="uniF775" horiz-adv-x="620" unicode="" d="M459 525h85v-307q0 -113 -65 -170q-65 -56 -162 -56q-111 0 -176.5 61t-65.5 170v302h85v-285q0 -78 41 -123t116 -45q69 0 105.5 42t36.5 121v290z"/>
<glyph glyph-name="uniF776" horiz-adv-x="542" unicode="" d="M449 525h91l-234 -527h-64l-241 527h96l180 -410z"/>
<glyph glyph-name="uniF777" horiz-adv-x="806" unicode="" d="M715 525h85l-166 -525h-79l-148 390l-145 -390h-82l-174 525h96l126 -395l139 395h84l143 -395z"/>
<glyph glyph-name="uniF778" horiz-adv-x="550" unicode="" d="M424 525h105l-199 -258l207 -267h-105l-158 202l-156 -202h-106l207 267l-198 258h106l149 -194z"/>
<glyph glyph-name="uniF779" horiz-adv-x="508" unicode="" d="M405 525h97l-206 -304v-221h-85v221l-205 304h103l148 -224z"/>
<glyph glyph-name="uniF77A" horiz-adv-x="526" unicode="" d="M360 445h-311v80h436v-58l-328 -387h336v-80h-460v58z"/>
<glyph glyph-name="uniF7A8" horiz-adv-x="388" unicode="" d="M238 654q0 18 13.5 30.5t32.5 12.5q18 0 31 -12.5t13 -30.5q0 -20 -13 -33t-31 -13q-19 0 -32.5 13t-13.5 33zM60 654q0 19 14 31t34 12q18 0 30.5 -12.5t12.5 -30.5q0 -20 -12.5 -33t-30.5 -13q-21 0 -34.5 12.5t-13.5 33.5z"/>
<glyph glyph-name="uniF7AF" horiz-adv-x="384" unicode="" d="M324 625h-264v65h264v-65z"/>
<glyph glyph-name="uniF7B4" horiz-adv-x="295" unicode="" d="M186 766l49 -61l-135 -125l-40 44z"/>
<glyph glyph-name="uniF7B8" horiz-adv-x="351" unicode="" d="M60 -171l24 39q35 -23 71 -23q25 0 40.5 9.5t15.5 26.5q0 39 -58 39h-6v80h43v-43q101 -6 101 -80q0 -37 -33.5 -59.5t-92.5 -22.5q-55 0 -105 34z"/>
<glyph glyph-name="uniF7E0" horiz-adv-x="590" unicode="" d="M359 624l-39 -44l-136 125l50 61zM387 220l-94 206l-95 -206h189zM98 0h-86l246 528h74l246 -528h-91l-64 140h-261z"/>
<glyph glyph-name="uniF7E1" horiz-adv-x="590" unicode="" d="M360 766l49 -61l-135 -125l-40 44zM387 220l-94 206l-95 -206h189zM98 0h-86l246 528h74l246 -528h-91l-64 140h-261z"/>
<glyph glyph-name="uniF7E2" horiz-adv-x="590" unicode="" d="M294 742h4l149 -118l-38 -48l-113 89l-115 -88l-38 47zM387 220l-94 206l-95 -206h189zM98 0h-86l246 528h74l246 -528h-91l-64 140h-261z"/>
<glyph glyph-name="uniF7E3" horiz-adv-x="590" unicode="" d="M167 602l-33 37q53 60 110 60q24 0 58 -22t55 -22q28 0 71 35l28 -41q-56 -59 -106 -59q-23 0 -57 22t-57 22q-26 0 -69 -32zM387 220l-94 206l-95 -206h189zM98 0h-86l246 528h74l246 -528h-91l-64 140h-261z"/>
<glyph glyph-name="uniF7E4" horiz-adv-x="590" unicode="" d="M339 654q0 18 13.5 30.5t32.5 12.5q18 0 31 -12.5t13 -30.5q0 -20 -12.5 -33t-31.5 -13t-32.5 13t-13.5 33zM161 654q0 19 14 31t34 12q18 0 30.5 -12.5t12.5 -30.5q0 -20 -12.5 -33t-30.5 -13q-21 0 -34.5 12.5t-13.5 33.5zM387 220l-94 206l-95 -206h189zM98 0h-86 l246 528h74l246 -528h-91l-64 140h-261z"/>
<glyph glyph-name="uniF7E5" horiz-adv-x="590" unicode="" d="M250 706q-18 -18 -18 -46t18 -46q19 -19 45 -19t45 19q18 18 18 46t-18 46q-19 19 -45 19t-45 -19zM180 659q0 46 33 78.5t81 32.5q49 0 82.5 -32.5t33.5 -78.5q0 -45 -33.5 -77t-82.5 -32q-48 0 -81 32t-33 77zM387 220l-94 206l-95 -206h189zM98 0h-86l246 528h74 l246 -528h-91l-64 140h-261z"/>
<glyph glyph-name="uniF7E6" horiz-adv-x="790" unicode="" d="M396 222v182l-142 -182h142zM734 0h-338v142h-206l-109 -142h-99l170 215l245 310h328v-80h-244v-140h220v-80h-220v-145h253v-80z"/>
<glyph glyph-name="uniF7E7" horiz-adv-x="541" unicode="" d="M197 -171l24 39q35 -23 71 -23q25 0 40.5 9.5t15.5 26.5q0 39 -58 39h-6v74q-112 13 -179 85q-66 72 -66 183q0 116 76 192q77 78 211 78q109 0 176 -52l-39 -64q-61 36 -137 36q-88 0 -143 -52q-54 -52 -54 -138t57 -139q56 -52 152 -52q83 0 142 43l33 -64 q-28 -27 -78 -43t-105 -16h-3v-34q101 -6 101 -80q0 -37 -33.5 -59.5t-92.5 -22.5q-55 0 -105 34z"/>
<glyph glyph-name="uniF7E8" horiz-adv-x="488" unicode="" d="M322 624l-39 -44l-136 125l50 61zM432 0h-348v525h340v-80h-255v-140h230v-80h-230v-145h263v-80z"/>
<glyph glyph-name="uniF7E9" horiz-adv-x="488" unicode="" d="M318 766l49 -61l-135 -125l-40 44zM432 0h-348v525h340v-80h-255v-140h230v-80h-230v-145h263v-80z"/>
<glyph glyph-name="uniF7EA" horiz-adv-x="488" unicode="" d="M432 0h-348v525h340v-80h-255v-140h230v-80h-230v-145h263v-80zM253 742h4l149 -118l-38 -48l-113 89l-115 -88l-38 47z"/>
<glyph glyph-name="uniF7EB" horiz-adv-x="488" unicode="" d="M432 0h-348v525h340v-80h-255v-140h230v-80h-230v-145h263v-80zM298 654q0 18 13.5 30.5t32.5 12.5q18 0 31 -12.5t13 -30.5q0 -20 -13 -33t-31 -13q-19 0 -32.5 13t-13.5 33zM120 654q0 19 14 31t34 12q18 0 30.5 -12.5t12.5 -30.5q0 -20 -12.5 -33t-30.5 -13 q-21 0 -34.5 12.5t-13.5 33.5z"/>
<glyph glyph-name="uniF7EC" horiz-adv-x="281" unicode="" d="M183 0h-85v525h85v-525zM202 624l-39 -44l-136 125l50 61z"/>
<glyph glyph-name="uniF7ED" horiz-adv-x="281" unicode="" d="M183 0h-85v525h85v-525zM218 766l49 -61l-135 -125l-40 44z"/>
<glyph glyph-name="uniF7EE" horiz-adv-x="281" unicode="" d="M183 0h-85v525h85v-525zM139 742h4l149 -118l-38 -48l-113 89l-115 -88l-38 47z"/>
<glyph glyph-name="uniF7EF" horiz-adv-x="281" unicode="" d="M183 0h-85v525h85v-525zM184 654q0 18 13.5 30.5t32.5 12.5q18 0 31 -12.5t13 -30.5q0 -20 -13 -33t-31 -13q-19 0 -32.5 13t-13.5 33zM6 654q0 19 14 31t34 12q18 0 30.5 -12.5t12.5 -30.5q0 -20 -12.5 -33t-30.5 -13q-21 0 -34.5 12.5t-13.5 33.5z"/>
<glyph glyph-name="uniF7F0" horiz-adv-x="621" unicode="" d="M269 447q-13 0 -91 -3v-140h151v-75h-151v-149q18 0 37.5 -0.5t29.5 -1t15 -0.5q109 0 170 51t61 139q0 84 -58 131.5t-164 47.5zM93 229h-85v75h85v221h10q36 0 75 1t89 1q158 0 235 -73q79 -73 79 -186q0 -117 -84 -193q-83 -77 -231 -77q-46 0 -83 1t-80 1h-10v229z "/>
<glyph glyph-name="uniF7F1" horiz-adv-x="656" unicode="" d="M194 602l-33 37q52 60 110 60q24 0 58 -22t55 -22q28 0 71 35l28 -41q-56 -59 -106 -59q-23 0 -57 22t-57 22q-26 0 -69 -32zM572 525v-525h-69l-339 386v-386h-80v525h68l340 -387v387h80z"/>
<glyph glyph-name="uniF7F2" horiz-adv-x="655" unicode="" d="M383 624l-39 -44l-136 125l50 61zM130 262q0 -80 57 -136q56 -55 141 -55q91 0 143 54q54 54 54 137q0 84 -57 136q-56 54 -140 54q-85 0 -142 -54q-56 -53 -56 -136zM40 262q0 116 81 192q81 78 207 78q124 0 205 -75q82 -75 82 -195q0 -119 -82 -195q-80 -76 -205 -76 q-124 0 -207 75q-81 75 -81 196z"/>
<glyph glyph-name="uniF7F3" horiz-adv-x="655" unicode="" d="M399 766l49 -61l-135 -125l-40 44zM130 262q0 -80 57 -136q56 -55 141 -55q91 0 143 54q54 54 54 137q0 84 -57 136q-56 54 -140 54q-85 0 -142 -54q-56 -53 -56 -136zM40 262q0 116 81 192q81 78 207 78q124 0 205 -75q82 -75 82 -195q0 -119 -82 -195q-80 -76 -205 -76 q-124 0 -207 75q-81 75 -81 196z"/>
<glyph glyph-name="uniF7F4" horiz-adv-x="655" unicode="" d="M130 262q0 -80 57 -136q56 -55 141 -55q91 0 143 54q54 54 54 137q0 84 -57 136q-56 54 -140 54q-85 0 -142 -54q-56 -53 -56 -136zM40 262q0 116 81 192q81 78 207 78q124 0 205 -75q82 -75 82 -195q0 -119 -82 -195q-80 -76 -205 -76q-124 0 -207 75q-81 75 -81 196z M327 742h4l149 -118l-38 -48l-113 89l-115 -88l-38 47z"/>
<glyph glyph-name="uniF7F5" horiz-adv-x="655" unicode="" d="M200 602l-33 37q53 60 110 60q24 0 58 -22t55 -22q28 0 71 35l28 -41q-56 -59 -106 -59q-23 0 -57 22t-57 22q-26 0 -69 -32zM130 262q0 -80 57 -136q56 -55 141 -55q91 0 143 54q54 54 54 137q0 84 -57 136q-56 54 -140 54q-85 0 -142 -54q-56 -53 -56 -136zM40 262 q0 116 81 192q81 78 207 78q124 0 205 -75q82 -75 82 -195q0 -119 -82 -195q-80 -76 -205 -76q-124 0 -207 75q-81 75 -81 196z"/>
<glyph glyph-name="uniF7F6" horiz-adv-x="655" unicode="" d="M372 654q0 18 13.5 30.5t32.5 12.5q18 0 31 -12.5t13 -30.5q0 -20 -13 -33t-31 -13q-19 0 -32.5 13t-13.5 33zM194 654q0 19 14 31t34 12q18 0 30.5 -12.5t12.5 -30.5q0 -20 -12.5 -33t-30.5 -13q-21 0 -34.5 12.5t-13.5 33.5zM130 262q0 -80 57 -136q56 -55 141 -55 q91 0 143 54q54 54 54 137q0 84 -57 136q-56 54 -140 54q-85 0 -142 -54q-56 -53 -56 -136zM40 262q0 116 81 192q81 78 207 78q124 0 205 -75q82 -75 82 -195q0 -119 -82 -195q-80 -76 -205 -76q-124 0 -207 75q-81 75 -81 196z"/>
<glyph glyph-name="uniF7F8" horiz-adv-x="654" unicode="" d="M524 262q0 60 -31 106l-274 -268q50 -29 108 -29q91 0 143 54q54 54 54 137zM129 262q0 -68 40 -118l278 271q-50 37 -120 37q-85 0 -142 -54q-56 -53 -56 -136zM39 262q0 116 81 192q81 78 207 78q105 0 182 -56l55 53l46 -47l-53 -52q57 -70 57 -168q0 -119 -82 -195 q-80 -76 -205 -76q-97 0 -171 47l-53 -51l-46 47l48 47q-66 73 -66 181z"/>
<glyph glyph-name="uniF7F9" horiz-adv-x="620" unicode="" d="M362 624l-39 -44l-136 125l50 61zM459 525h85v-307q0 -113 -65 -170q-65 -56 -162 -56q-111 0 -176.5 61t-65.5 170v302h85v-285q0 -78 41 -123t116 -45q69 0 105.5 42t36.5 121v290z"/>
<glyph glyph-name="uniF7FA" horiz-adv-x="620" unicode="" d="M378 766l49 -61l-135 -125l-40 44zM459 525h85v-307q0 -113 -65 -170q-65 -56 -162 -56q-111 0 -176.5 61t-65.5 170v302h85v-285q0 -78 41 -123t116 -45q69 0 105.5 42t36.5 121v290z"/>
<glyph glyph-name="uniF7FB" horiz-adv-x="620" unicode="" d="M459 525h85v-307q0 -113 -65 -170q-65 -56 -162 -56q-111 0 -176.5 61t-65.5 170v302h85v-285q0 -78 41 -123t116 -45q69 0 105.5 42t36.5 121v290zM309 742h4l149 -118l-38 -48l-113 89l-115 -88l-38 47z"/>
<glyph glyph-name="uniF7FC" horiz-adv-x="620" unicode="" d="M459 525h85v-307q0 -113 -65 -170q-65 -56 -162 -56q-111 0 -176.5 61t-65.5 170v302h85v-285q0 -78 41 -123t116 -45q69 0 105.5 42t36.5 121v290zM354 654q0 18 13.5 30.5t32.5 12.5q18 0 31 -12.5t13 -30.5q0 -20 -13 -33t-31 -13q-19 0 -32.5 13t-13.5 33zM176 654 q0 19 14 31t34 12q18 0 30.5 -12.5t12.5 -30.5q0 -20 -12.5 -33t-30.5 -13q-21 0 -34.5 12.5t-13.5 33.5z"/>
<glyph glyph-name="uniF7FD" horiz-adv-x="508" unicode="" d="M323 766l49 -61l-135 -125l-40 44zM405 525h97l-206 -304v-221h-85v221l-205 304h103l148 -224z"/>
<glyph glyph-name="uniF7FE" horiz-adv-x="499" unicode="" d="M249 379q-34 0 -80 -2v-190q31 -4 74 -4q60 0 93 27.5t33 72.5q0 44 -30 70t-90 26zM169 107v-107h-85v525h85v-67h38q21 1 44 1q109 0 158 -52q50 -52 50 -125t-53 -126t-154 -53q-51 0 -83 4z"/>
<glyph glyph-name="uniF7FF" horiz-adv-x="508" unicode="" d="M298 654q0 18 13.5 30.5t32.5 12.5q18 0 31 -12.5t13 -30.5q0 -20 -13 -33t-31 -13q-19 0 -32.5 13t-13.5 33zM120 654q0 19 14 31t34 12q18 0 30.5 -12.5t12.5 -30.5q0 -20 -12.5 -33t-30.5 -13q-21 0 -34.5 12.5t-13.5 33.5zM405 525h97l-206 -304v-221h-85v221 l-205 304h103l148 -224z"/>
<glyph glyph-name="NULL" horiz-adv-x="0"/>
<glyph glyph-name="CR" horiz-adv-x="333"/>
<glyph glyph-name="P.swsh0137" d="M516 622q-18 0 -106 -2v-270q63 -5 102 -5q77 0 121 37.5t44 103.5q0 65 -40.5 100.5t-120.5 35.5zM77 -88l61 40q28 -67 95 -67q42 0 67 28.5t25 78.5v628h-108q-177 0 -177 -131q0 -39 26 -66.5t62 -27.5q26 0 41.5 12.5t15.5 34.5q0 14 -10.5 23.5t-24.5 9.5 q-12 0 -24 -12l-21 60q24 27 65 27t68 -28.5t27 -74.5q0 -60 -39.5 -96t-103.5 -36q-70 0 -116 49t-46 122q0 107 72.5 160.5t201.5 53.5h95q43 0 88 1q46 1 91 1q138 0 198 -62q61 -61 61 -155q0 -91 -66 -156q-64 -64 -186 -64q-64 0 -105 4v-286q0 -79 -45 -128.5 t-122 -49.5q-121 0 -166 107z" horiz-adv-x="817"/>
<glyph glyph-name="P.swsh36" d="M296 622q-18 0 -106 -2v-270q63 -5 102 -5q77 0 121 37.5t44 103.5q0 65 -40.5 100.5t-120.5 35.5zM-143 -88l61 40q28 -67 95 -67q42 0 67 28.5t25 78.5v708q42 0 89 1t94 1q138 0 198 -62q61 -61 61 -155q0 -91 -66 -156q-64 -64 -186 -64q-64 0 -105 4v-286 q0 -79 -45 -128.5t-122 -49.5q-121 0 -166 107z" horiz-adv-x="597"/>
<glyph glyph-name="P.swsh0110" d="M516 622q-18 0 -106 -2v-270q63 -5 102 -5q77 0 121 37.5t44 103.5q0 65 -40.5 100.5t-120.5 35.5zM325 -7v627h-108q-177 0 -177 -131q0 -39 26 -66.5t62 -27.5q26 0 41.5 12.5t15.5 34.5q0 14 -10.5 23.5t-24.5 9.5q-12 0 -24 -12l-21 60q24 27 65 27t68 -28.5 t27 -74.5q0 -60 -39.5 -96t-103.5 -36q-70 0 -116 49t-46 122q0 107 72.5 160.5t201.5 53.5h91q42 0 89 1t94 1q138 0 198 -62q61 -61 61 -155q0 -91 -66 -156q-64 -64 -186 -64q-64 0 -105 4v-279q0 -91 -56.5 -146.5t-151.5 -55.5q-96 0 -151 57q-55 56 -55 138 q0 64 39 112t109 48q50 0 83 -29.5t33 -75.5q0 -67 -54 -92l-49 41q28 7 28 41q0 17 -12 28.5t-31 11.5q-29 0 -47.5 -24t-18.5 -63q0 -43 33 -77q35 -36 93 -36q54 0 88.5 34.5t34.5 90.5z" horiz-adv-x="817"/>
<glyph glyph-name="uniF68D.alt01" d="M371 289q0 21 16.5 37t40.5 16q21 0 37 -16t16 -37q0 -24 -15 -40.5t-38 -16.5q-24 0 -40.5 16.5t-16.5 40.5zM69 -10l-40 60q26 29 70 47q33 43 33 99q0 34 -26 91t-26 99q0 62 50 104t128 42q104 0 164 -60l-44 -62q-51 42 -113 42q-41 0 -68 -24.5t-27 -60.5 q0 -33 21 -79t21 -83q0 -49 -29 -96q22 -3 80 -20q57 -17 86 -17q51 0 89 33l35 -62q-54 -51 -126 -51q-34 0 -95 19q-63 20 -93 20q-41 0 -90 -41z" horiz-adv-x="496"/>
<glyph glyph-name="uniF770.alt01" d="M163 303v-303h-85v323q0 72 31 121q58 88 175 88q98 0 150 -52q52 -51 52 -126q0 -95 -55 -141q-56 -47 -133 -47q-64 0 -98 24l23 72q26 -16 69 -16q45 0 74.5 28t29.5 76q0 44 -29.5 73t-78.5 29q-58 0 -91.5 -37.5t-33.5 -111.5z" horiz-adv-x="529"/>
<glyph glyph-name="uniF692.alt01" d="M315 768l58 -43l-119 -143l-42 28zM481 761l59 -45l-142 -134l-37 29zM129 262q0 -80 57 -136q56 -55 141 -55q91 0 143 54q54 54 54 137q0 84 -57 136q-55 54 -140 54t-142 -54q-56 -53 -56 -136zM39 262q0 114 82 192q83 78 206 78q122 0 204 -76q83 -75 83 -194 q0 -117 -83 -194t-204 -77q-123 0 -205 75q-83 77 -83 196zM327 205l-59 57l59 57l58 -57z" horiz-adv-x="654"/>
<glyph glyph-name="P.alt02.swsh01" d="M410 620v-312q71 7 113.5 51.5t42.5 111.5q0 66 -42 107.5t-114 41.5zM410 228v-228h-85v620h-108q-177 0 -177 -131q0 -39 26 -66.5t62 -27.5q26 0 41.5 12.5t15.5 34.5q0 14 -10.5 23.5t-24.5 9.5q-12 0 -24 -12l-21 60q24 27 65 27t68 -28.5t27 -74.5q0 -60 -39.5 -96 t-103.5 -36q-70 0 -116 49t-46 122q0 107 72.5 160.5t201.5 53.5h163q66 0 118 -20.5t81.5 -54t44.5 -73t15 -82.5q0 -90 -66 -160q-65 -70 -180 -82z" horiz-adv-x="716"/>
<glyph glyph-name="P.alt02" d="M190 620v-312q71 7 113.5 51.5t42.5 111.5q0 66 -42 107.5t-114 41.5zM190 228v-228h-85v700h72q66 0 118 -20.5t81.5 -54t44.5 -73t15 -82.5q0 -90 -66 -160q-65 -70 -180 -82z" horiz-adv-x="496"/>
<glyph glyph-name="P.alt01.swsh36" d="M-148 -88l61 40q28 -67 95 -67q42 0 67 28.5t25 78.5v8v442q0 144 81 210q71 58 164 58q118 0 180 -68t62 -162q0 -117 -70 -178t-163 -61q-76 0 -122 32l24 73q34 -25 92 -25t104 41q45 42 45 118q0 61 -41 105q-40 45 -107 45q-73 0 -118.5 -53t-45.5 -155v-439 q0 -79 -45 -128.5t-122 -49.5q-121 0 -166 107z" horiz-adv-x="627"/>
<glyph glyph-name="P.alt01.swsh10" d="M289 -7v7v442q0 144 81 210q71 58 164 58q118 0 180 -68t62 -162q0 -117 -70 -178t-163 -61q-76 0 -122 32l24 73q34 -25 92 -25t104 41q45 42 45 118q0 61 -41 105q-40 45 -107 45q-73 0 -118.5 -53t-45.5 -155v-432q0 -91 -56.5 -146.5t-151.5 -55.5q-96 0 -151 57 q-55 56 -55 138q0 64 39 112t109 48q50 0 83 -29.5t33 -75.5q0 -67 -54 -92l-49 41q28 7 28 41q0 17 -12 28.5t-31 11.5q-29 0 -47.5 -24t-18.5 -63q0 -43 33 -77q35 -36 93 -36q54 0 88.5 34.5t34.5 90.5z" horiz-adv-x="816"/>
<glyph glyph-name="uniF770.alt02" d="M169 445v-205q50 4 80 33.5t30 74.5q0 40 -30.5 68.5t-79.5 28.5zM169 160v-160h-85v525h59q115 0 171 -53q55 -52 55 -125q0 -70 -54 -124q-52 -52 -146 -63z" horiz-adv-x="418"/>
<glyph glyph-name="uniF68D.alt02" d="M353 0h-269v525h85v-445h184v-80zM264 299q0 21 16.5 37t40.5 16q21 0 37 -16t16 -37q0 -24 -15 -40.5t-38 -16.5q-24 0 -40.5 16.5t-16.5 40.5z" horiz-adv-x="373"/>
<glyph glyph-name="uniF7F5.alt01" d="M199 602l-33 37q52 60 110 60q24 0 58 -22t55 -22q28 0 71 35l28 -41q-56 -59 -106 -59q-23 0 -57 22t-57 22q-26 0 -69 -32zM129 262q0 -80 57 -136q56 -55 141 -55q91 0 143 54q54 54 54 137q0 84 -57 136q-55 54 -140 54t-142 -54q-56 -53 -56 -136zM39 262 q0 114 82 192q83 78 206 78q122 0 204 -76q83 -75 83 -194q0 -117 -83 -194t-204 -77q-123 0 -205 75q-83 77 -83 196zM327 205l-59 57l59 57l58 -57z" horiz-adv-x="654"/>
<glyph glyph-name="uniF68F.alt01" d="M574 0h-85v91l-320 229v-320h-85v525h85v-92l320 -230v322h85v-525zM331 579h-4l-145 118l39 48l109 -89l109 88l37 -47z" horiz-adv-x="658"/>
<glyph glyph-name="Otilde.alt01" d="M259 761l-26 50q44 47 100 47q29 0 77 -20t73 -20q45 0 75 32l22 -50q-39 -52 -102 -52q-25 0 -76 20q-49 20 -77 20q-33 0 -66 -27zM140 350q0 -118 77 -200q77 -80 190 -80q118 0 192 80q75 80 75 200t-77 200t-190 80q-115 0 -191 -79t-76 -201zM50 350q0 152 101 256 t256 104q154 0 255 -101q102 -100 102 -259q0 -154 -102 -258q-102 -102 -255 -102t-256 101q-101 101 -101 259zM407 280l-71 70l71 71l71 -71z" horiz-adv-x="814"/>
<glyph glyph-name="Lslash.alt02" d="M105 281l-85 -47v83l85 47v336h85v-289l111 61v-82l-111 -62v-248h240v-80h-325v281z" horiz-adv-x="445"/>
<glyph glyph-name="uniF76F.alt01" d="M129 262q0 -80 57 -136q56 -55 141 -55q91 0 143 54q54 54 54 137q0 84 -57 136q-55 54 -140 54t-142 -54q-56 -53 -56 -136zM39 262q0 114 82 192q83 78 206 78q122 0 204 -76q83 -75 83 -194q0 -117 -83 -194t-204 -77q-123 0 -205 75q-83 77 -83 196zM327 205l-59 57 l59 57l58 -57z" horiz-adv-x="654"/>
<glyph glyph-name="Ncaron.alt02" d="M690 700v-710l-505 517v-507h-80v710l505 -519v509h80zM390 738h-4l-175 103l33 46l144 -81l143 81l30 -45z" horiz-adv-x="795"/>
<glyph glyph-name="Ohungarumlaut.alt01" d="M400 887l67 -36l-161 -116l-34 32zM607 887l55 -51l-179 -101l-33 35zM140 350q0 -118 77 -200q77 -80 190 -80q118 0 192 80q75 80 75 200t-77 200t-190 80q-115 0 -191 -79t-76 -201zM50 350q0 152 101 256t256 104q154 0 255 -101q102 -100 102 -259q0 -154 -102 -258 q-102 -102 -255 -102t-256 101q-101 101 -101 259zM407 280l-71 70l71 71l71 -71z" horiz-adv-x="814"/>
</font>
</defs>
</svg>
